M48
; DRILL file {KiCad 7.0.2} date Wed May 17 16:33:07 2023
; FORMAT={-:-/ absolute / inch / decimal}
; #@! TF.CreationDate,2023-05-17T16:33:07+02:00
; #@! TF.GenerationSoftware,Kicad,Pcbnew,7.0.2
; #@! TF.FileFunction,NonPlated,1,2,NPTH
FMAT,2
INCH
; #@! TA.AperFunction,NonPlated,NPTH,ComponentDrill
T1C0.0827
%
G90
G05
T1
X0.6882Y-0.6453
X0.6882Y-4.3185
X0.6925Y-3.9461
X0.6925Y-7.6193
X2.0358Y-3.9461
X2.0358Y-7.6193
X2.0496Y-0.6413
X2.0496Y-4.3146
X2.4823Y-0.6409
X2.4823Y-4.3142
X2.4866Y-3.9417
X2.4866Y-7.615
X3.8299Y-3.9417
X3.8299Y-7.615
X3.8437Y-0.637
X3.8437Y-4.3102
X4.2577Y-0.662
X4.2577Y-4.3353
X4.262Y-3.9628
X4.262Y-7.6361
X5.6053Y-3.9628
X5.6053Y-7.6361
X5.6191Y-0.6581
X5.6191Y-4.3313
X6.0517Y-0.6577
X6.0517Y-4.3309
X6.0561Y-3.9585
X6.0561Y-7.6317
X7.3994Y-3.9585
X7.3994Y-7.6317
X7.4132Y-0.6538
X7.4132Y-4.327
X7.8376Y-0.6514
X7.8376Y-4.3246
X7.8419Y-3.9522
X7.8419Y-7.6254
X9.1852Y-3.9522
X9.1852Y-7.6254
X9.199Y-0.6475
X9.199Y-4.3207
T0
M30
