%TF.GenerationSoftware,KiCad,Pcbnew,7.0.6*%
%TF.CreationDate,2023-07-14T07:46:06+02:00*%
%TF.ProjectId,78_1x39_1mm Solr tile,37382c31-7833-4392-9c31-6d6d20536f6c,rev?*%
%TF.SameCoordinates,Original*%
%TF.FileFunction,Legend,Top*%
%TF.FilePolarity,Positive*%
%FSLAX46Y46*%
G04 Gerber Fmt 4.6, Leading zero omitted, Abs format (unit mm)*
G04 Created by KiCad (PCBNEW 7.0.6) date 2023-07-14 07:46:06*
%MOMM*%
%LPD*%
G01*
G04 APERTURE LIST*
%ADD10C,0.150000*%
%ADD11C,0.120000*%
%ADD12C,0.050000*%
G04 APERTURE END LIST*
D10*
X16280000Y-19170000D02*
X55400000Y-19170000D01*
X55400000Y-97350000D01*
X16280000Y-97350000D01*
X16280000Y-19170000D01*
G36*
X16280000Y-19170000D02*
G01*
X55400000Y-19170000D01*
X55400000Y-97350000D01*
X16280000Y-97350000D01*
X16280000Y-19170000D01*
G37*
D11*
%TO.C,REF\u002A\u002A*%
X39630000Y-83180000D02*
X42030000Y-83180000D01*
X39630000Y-85580000D02*
X39630000Y-83180000D01*
X42030000Y-83180000D02*
X42030000Y-85580000D01*
X42030000Y-85580000D02*
X39630000Y-85580000D01*
X39670000Y-48430000D02*
X42070000Y-48430000D01*
X39670000Y-50830000D02*
X39670000Y-48430000D01*
X42070000Y-48430000D02*
X42070000Y-50830000D01*
X42070000Y-50830000D02*
X39670000Y-50830000D01*
X39630000Y-65850000D02*
X42030000Y-65850000D01*
X39630000Y-68250000D02*
X39630000Y-65850000D01*
X42030000Y-65850000D02*
X42030000Y-68250000D01*
X42030000Y-68250000D02*
X39630000Y-68250000D01*
D12*
X16280000Y-19170000D02*
X55400000Y-19170000D01*
X55400000Y-19170000D02*
X55400000Y-97350000D01*
X55400000Y-97350000D02*
X16280000Y-97350000D01*
X16280000Y-97350000D02*
X16280000Y-19170000D01*
D11*
X42050000Y-33560000D02*
X39650000Y-33560000D01*
X42050000Y-31160000D02*
X42050000Y-33560000D01*
X39650000Y-33560000D02*
X39650000Y-31160000D01*
X39650000Y-31160000D02*
X42050000Y-31160000D01*
%TD*%
M02*
