%TF.GenerationSoftware,KiCad,Pcbnew,7.0.6*%
%TF.CreationDate,2023-08-04T08:10:22+02:00*%
%TF.ProjectId,78_1x39_1mm Solr tile,37382c31-7833-4392-9c31-6d6d20536f6c,rev?*%
%TF.SameCoordinates,Original*%
%TF.FileFunction,Copper,L2,Bot*%
%TF.FilePolarity,Positive*%
%FSLAX46Y46*%
G04 Gerber Fmt 4.6, Leading zero omitted, Abs format (unit mm)*
G04 Created by KiCad (PCBNEW 7.0.6) date 2023-08-04 08:10:22*
%MOMM*%
%LPD*%
G01*
G04 APERTURE LIST*
%TA.AperFunction,SMDPad,CuDef*%
%ADD10R,2.500000X1.700000*%
%TD*%
%TA.AperFunction,ComponentPad*%
%ADD11R,15.000000X2.500000*%
%TD*%
%TA.AperFunction,SMDPad,CuDef*%
%ADD12R,2.000000X2.000000*%
%TD*%
%TA.AperFunction,SMDPad,CuDef*%
%ADD13R,1.700000X2.500000*%
%TD*%
%TA.AperFunction,SMDPad,CuDef*%
%ADD14R,5.000000X2.000000*%
%TD*%
%TA.AperFunction,Conductor*%
%ADD15C,2.000000*%
%TD*%
%TA.AperFunction,Conductor*%
%ADD16C,1.500000*%
%TD*%
%TA.AperFunction,Conductor*%
%ADD17C,0.000000*%
%TD*%
%TA.AperFunction,Conductor*%
%ADD18C,1.000000*%
%TD*%
G04 APERTURE END LIST*
D10*
%TO.P,REF\u002A\u002A,1*%
%TO.N,N/C*%
X27270000Y-29280000D03*
%TO.P,REF\u002A\u002A,2*%
X27270000Y-26740000D03*
%TD*%
D11*
%TO.P,REF\u002A\u002A,1*%
%TO.N,N/C*%
X33300000Y-32450000D03*
%TD*%
%TO.P,REF\u002A\u002A,1*%
%TO.N,N/C*%
X47750000Y-32450000D03*
%TD*%
%TO.P,REF\u002A\u002A,1*%
%TO.N,N/C*%
X33330000Y-83000000D03*
%TD*%
%TO.P,REF\u002A\u002A,1*%
%TO.N,N/C*%
X47780000Y-83000000D03*
%TD*%
%TO.P,REF\u002A\u002A,1*%
%TO.N,N/C*%
X33280000Y-66980000D03*
%TD*%
%TO.P,REF\u002A\u002A,1*%
%TO.N,N/C*%
X47730000Y-66980000D03*
%TD*%
%TO.P,REF\u002A\u002A,1*%
%TO.N,N/C*%
X33430000Y-49610000D03*
%TD*%
%TO.P,REF\u002A\u002A,1*%
%TO.N,N/C*%
X47880000Y-49610000D03*
%TD*%
D12*
%TO.P,REF\u002A\u002A,1*%
%TO.N,N/C*%
X23320000Y-48240000D03*
%TD*%
D13*
%TO.P,REF\u002A\u002A,1*%
%TO.N,N/C*%
X34820000Y-29090000D03*
%TO.P,REF\u002A\u002A,2*%
X37360000Y-29090000D03*
%TD*%
D10*
%TO.P,REF\u002A\u002A,1*%
%TO.N,N/C*%
X26900000Y-74840000D03*
%TO.P,REF\u002A\u002A,2*%
X26900000Y-72300000D03*
%TD*%
D14*
%TO.P,REF\u002A\u002A,1*%
%TO.N,N/C*%
X19580000Y-32380000D03*
%TD*%
D12*
%TO.P,REF\u002A\u002A,1*%
%TO.N,N/C*%
X44080000Y-77210000D03*
%TD*%
%TO.P,REF\u002A\u002A,1*%
%TO.N,N/C*%
X44700000Y-23270000D03*
%TD*%
D14*
%TO.P,REF\u002A\u002A,1*%
%TO.N,N/C*%
X19500000Y-67070000D03*
%TD*%
D12*
%TO.P,REF\u002A\u002A,1*%
%TO.N,N/C*%
X23350000Y-68650000D03*
%TD*%
%TO.P,REF\u002A\u002A,1*%
%TO.N,N/C*%
X23330000Y-65680000D03*
%TD*%
D10*
%TO.P,J8,1,Pin_1*%
%TO.N,N/C*%
X27290000Y-44960000D03*
%TO.P,J8,2,Pin_2*%
X27290000Y-42420000D03*
%TO.P,J8,3,Pin_3*%
X27290000Y-39880000D03*
%TO.P,J8,4,Pin_4*%
X27290000Y-37340000D03*
%TD*%
D12*
%TO.P,REF\u002A\u002A,1*%
%TO.N,N/C*%
X23340000Y-51210000D03*
%TD*%
D10*
%TO.P,J8,1,Pin_1*%
%TO.N,N/C*%
X44290000Y-54600000D03*
%TO.P,J8,2,Pin_2*%
X44290000Y-57140000D03*
%TO.P,J8,3,Pin_3*%
X44290000Y-59680000D03*
%TO.P,J8,4,Pin_4*%
X44290000Y-62220000D03*
%TD*%
D12*
%TO.P,REF\u002A\u002A,1*%
%TO.N,N/C*%
X43920000Y-64890000D03*
%TD*%
D14*
%TO.P,REF\u002A\u002A,1*%
%TO.N,N/C*%
X19501932Y-84392361D03*
%TD*%
D12*
%TO.P,REF\u002A\u002A,1*%
%TO.N,N/C*%
X51600000Y-57180000D03*
%TD*%
%TO.P,REF\u002A\u002A,1*%
%TO.N,N/C*%
X48970000Y-35650000D03*
%TD*%
D10*
%TO.P,J8,1,Pin_1*%
%TO.N,N/C*%
X44420000Y-37230000D03*
%TO.P,J8,2,Pin_2*%
X44420000Y-39770000D03*
%TO.P,J8,3,Pin_3*%
X44420000Y-42310000D03*
%TO.P,J8,4,Pin_4*%
X44420000Y-44850000D03*
%TD*%
D14*
%TO.P,REF\u002A\u002A,1*%
%TO.N,N/C*%
X19511932Y-49522361D03*
%TD*%
D12*
%TO.P,REF\u002A\u002A,1*%
%TO.N,N/C*%
X51510000Y-35660000D03*
%TD*%
%TO.P,REF\u002A\u002A,1*%
%TO.N,N/C*%
X23380000Y-33110000D03*
%TD*%
D10*
%TO.P,J8,1,Pin_1*%
%TO.N,N/C*%
X27160000Y-62330000D03*
%TO.P,J8,2,Pin_2*%
X27160000Y-59790000D03*
%TO.P,J8,3,Pin_3*%
X27160000Y-57250000D03*
%TO.P,J8,4,Pin_4*%
X27160000Y-54710000D03*
%TD*%
%TO.P,REF\u002A\u002A,1*%
%TO.N,N/C*%
X44650000Y-26590000D03*
%TO.P,REF\u002A\u002A,2*%
X44650000Y-29130000D03*
%TD*%
D12*
%TO.P,REF\u002A\u002A,1*%
%TO.N,N/C*%
X44400000Y-47490000D03*
%TD*%
%TO.P,REF\u002A\u002A,1*%
%TO.N,N/C*%
X27330000Y-32350000D03*
%TD*%
D13*
%TO.P,REF\u002A\u002A,1*%
%TO.N,N/C*%
X37560000Y-86250000D03*
%TO.P,REF\u002A\u002A,2*%
X35020000Y-86250000D03*
%TD*%
D10*
%TO.P,REF\u002A\u002A,1*%
%TO.N,N/C*%
X44280000Y-72150000D03*
%TO.P,REF\u002A\u002A,2*%
X44280000Y-74690000D03*
%TD*%
D12*
%TO.P,REF\u002A\u002A,1*%
%TO.N,N/C*%
X41930000Y-23270000D03*
%TD*%
%TO.P,REF\u002A\u002A,1*%
%TO.N,N/C*%
X49190000Y-57130000D03*
%TD*%
D15*
%TO.N,*%
X44300000Y-57130000D02*
X49190000Y-57130000D01*
X44290000Y-57140000D02*
X44300000Y-57130000D01*
X34820000Y-28050000D02*
X33510000Y-26740000D01*
X34820000Y-29090000D02*
X34820000Y-28050000D01*
X33510000Y-26740000D02*
X27270000Y-26740000D01*
X42470000Y-29280000D02*
X44570000Y-29280000D01*
X40710000Y-27520000D02*
X42470000Y-29280000D01*
X40710000Y-24490000D02*
X40710000Y-27520000D01*
X41930000Y-23270000D02*
X40710000Y-24490000D01*
D16*
X23350000Y-69660000D02*
X25830000Y-72140000D01*
X23350000Y-68650000D02*
X23350000Y-69660000D01*
X25830000Y-72140000D02*
X26570000Y-72140000D01*
D15*
X25860000Y-37210000D02*
X27420000Y-37210000D01*
X23380000Y-34730000D02*
X25860000Y-37210000D01*
X23380000Y-33110000D02*
X23380000Y-34730000D01*
X20350000Y-34900000D02*
X20360000Y-34910000D01*
X20350000Y-32620000D02*
X20350000Y-34900000D01*
X20610000Y-32360000D02*
X20350000Y-32620000D01*
X46320000Y-39770000D02*
X48970000Y-37120000D01*
X48970000Y-37120000D02*
X48970000Y-35650000D01*
X44420000Y-39770000D02*
X46320000Y-39770000D01*
X44050000Y-78860000D02*
X43520000Y-79390000D01*
X44050000Y-78210000D02*
X44050000Y-78860000D01*
X43890000Y-79020000D02*
X52980000Y-79020000D01*
X52980000Y-79020000D02*
X52980000Y-82800000D01*
X43520000Y-79390000D02*
X43890000Y-79020000D01*
X41460000Y-81450000D02*
X43520000Y-79390000D01*
X41460000Y-84920000D02*
X41460000Y-81450000D01*
X37750000Y-86260000D02*
X40120000Y-86260000D01*
X40120000Y-86260000D02*
X41460000Y-84920000D01*
X52850000Y-82800000D02*
X52980000Y-82800000D01*
X53630000Y-82020000D02*
X52850000Y-82800000D01*
D16*
X52860000Y-58280000D02*
X51570000Y-56990000D01*
X52860000Y-65410000D02*
X52860000Y-58280000D01*
X51570000Y-56990000D02*
X51570000Y-52210000D01*
X52740000Y-51040000D02*
X54300000Y-51040000D01*
X51570000Y-52210000D02*
X52740000Y-51040000D01*
X52320000Y-47310000D02*
X44580000Y-47310000D01*
X44580000Y-47310000D02*
X44400000Y-47490000D01*
X53030000Y-48020000D02*
X52320000Y-47310000D01*
X53030000Y-34140000D02*
X53030000Y-48020000D01*
X52900000Y-34010000D02*
X53030000Y-34140000D01*
D15*
X20350000Y-33220000D02*
X20350000Y-29910000D01*
X44280000Y-57150000D02*
X44290000Y-57140000D01*
D16*
X54180000Y-30750000D02*
X54200000Y-30770000D01*
X23330000Y-61860000D02*
X25360000Y-59830000D01*
D17*
X53550000Y-49740000D02*
X53630000Y-49660000D01*
D16*
X52810000Y-68720000D02*
X53750000Y-68720000D01*
X25360000Y-59830000D02*
X27350000Y-59830000D01*
X54360000Y-65400000D02*
X54020000Y-65060000D01*
X40520000Y-31400000D02*
X38210000Y-29090000D01*
X23320000Y-48240000D02*
X23320000Y-43450000D01*
D18*
X20330000Y-68830000D02*
X20000000Y-68500000D01*
D16*
X24350000Y-42420000D02*
X27290000Y-42420000D01*
D18*
X35020000Y-86250000D02*
X34990000Y-86280000D01*
X20000000Y-66050000D02*
X20350000Y-65700000D01*
D16*
X52850000Y-30750000D02*
X54180000Y-30750000D01*
X53750000Y-68720000D02*
X54310000Y-68720000D01*
D18*
X26910000Y-26750000D02*
X27300000Y-27140000D01*
D15*
X23520000Y-26740000D02*
X25490000Y-26740000D01*
D17*
X37360000Y-29090000D02*
X37410000Y-29140000D01*
D18*
X20350000Y-65700000D02*
X20020000Y-65370000D01*
D15*
X40530000Y-32190000D02*
X40530000Y-32640000D01*
X20350000Y-71300000D02*
X20370000Y-71320000D01*
D16*
X38210000Y-29090000D02*
X37360000Y-29090000D01*
D15*
X44650000Y-26590000D02*
X44650000Y-23320000D01*
D16*
X23340000Y-52290000D02*
X25800000Y-54750000D01*
D17*
X37410000Y-29140000D02*
X38250000Y-29140000D01*
D16*
X23330000Y-65680000D02*
X23330000Y-61860000D01*
D15*
X27600000Y-44850000D02*
X27610000Y-44860000D01*
D16*
X44090000Y-65060000D02*
X43920000Y-64890000D01*
X54350000Y-65410000D02*
X54360000Y-65400000D01*
D17*
X27290000Y-37340000D02*
X27420000Y-37210000D01*
D15*
X25490000Y-26740000D02*
X27270000Y-26740000D01*
X27330000Y-32350000D02*
X29930000Y-32350000D01*
D16*
X25800000Y-54750000D02*
X27350000Y-54750000D01*
D15*
X53010000Y-30750000D02*
X48850000Y-26590000D01*
X20350000Y-84680000D02*
X21870000Y-86200000D01*
D16*
X54310000Y-68720000D02*
X54330000Y-68700000D01*
D15*
X20370000Y-83524293D02*
X19501932Y-84392361D01*
X20350000Y-29910000D02*
X23520000Y-26740000D01*
D16*
X54020000Y-65060000D02*
X44090000Y-65060000D01*
X40520000Y-32370000D02*
X40520000Y-31400000D01*
D15*
X44410000Y-39780000D02*
X44420000Y-39770000D01*
X20350000Y-71300000D02*
X20350000Y-33220000D01*
X20350000Y-71300000D02*
X20350000Y-84680000D01*
X52980000Y-69490000D02*
X53750000Y-68720000D01*
D16*
X52900000Y-34010000D02*
X54310000Y-34010000D01*
D15*
X44650000Y-23320000D02*
X44700000Y-23270000D01*
D16*
X52860000Y-65410000D02*
X54350000Y-65410000D01*
D15*
X20350000Y-71300000D02*
X20350000Y-65700000D01*
D18*
X20210000Y-68950000D02*
X20330000Y-68830000D01*
D15*
X21870000Y-86200000D02*
X34790000Y-86200000D01*
D16*
X23340000Y-51210000D02*
X23340000Y-52290000D01*
D15*
X48850000Y-26590000D02*
X44650000Y-26590000D01*
D16*
X23320000Y-43450000D02*
X24350000Y-42420000D01*
D15*
X54180000Y-30750000D02*
X53010000Y-30750000D01*
X20370000Y-71320000D02*
X20370000Y-83524293D01*
X52980000Y-82800000D02*
X52980000Y-69490000D01*
%TD*%
M02*
