M48
; DRILL file {KiCad 7.0.2} date Wed May 17 15:36:21 2023
; FORMAT={-:-/ absolute / inch / decimal}
; #@! TF.CreationDate,2023-05-17T15:36:21+02:00
; #@! TF.GenerationSoftware,Kicad,Pcbnew,7.0.2
; #@! TF.FileFunction,Plated,1,2,PTH
FMAT,2
INCH
; #@! TA.AperFunction,Plated,PTH,ComponentDrill
T1C0.0394
; #@! TA.AperFunction,Plated,PTH,ComponentDrill
T2C0.0787
%
G90
G05
T1
X1.0232Y-1.4634
X1.0232Y-1.5634
X1.0232Y-1.6634
X1.0232Y-1.7634
X1.0232Y-5.1366
X1.0232Y-5.2366
X1.0232Y-5.3366
X1.0232Y-5.4366
X1.0248Y-2.8402
X1.0248Y-2.9402
X1.0248Y-3.0402
X1.0248Y-3.1402
X1.0248Y-6.5134
X1.0248Y-6.6134
X1.0248Y-6.7134
X1.0248Y-6.8134
X1.0256Y-2.1488
X1.0256Y-2.2488
X1.0256Y-2.3488
X1.0256Y-2.4488
X1.0256Y-5.822
X1.0256Y-5.922
X1.0256Y-6.022
X1.0256Y-6.122
X1.0299Y-0.8224
X1.0299Y-0.9224
X1.0299Y-1.0224
X1.0299Y-1.1224
X1.0299Y-4.4957
X1.0299Y-4.5957
X1.0299Y-4.6957
X1.0299Y-4.7957
X1.0303Y-3.4642
X1.0303Y-3.5642
X1.0303Y-3.6642
X1.0303Y-3.7642
X1.0303Y-7.1374
X1.0303Y-7.2374
X1.0303Y-7.3374
X1.0303Y-7.4374
X1.6976Y-1.4587
X1.6976Y-1.5587
X1.6976Y-1.6587
X1.6976Y-1.7587
X1.6976Y-5.1319
X1.6976Y-5.2319
X1.6976Y-5.3319
X1.6976Y-5.4319
X1.6992Y-2.8354
X1.6992Y-2.9354
X1.6992Y-3.0354
X1.6992Y-3.1354
X1.6992Y-6.5087
X1.6992Y-6.6087
X1.6992Y-6.7087
X1.6992Y-6.8087
X1.7Y-2.1441
X1.7Y-2.2441
X1.7Y-2.3441
X1.7Y-2.4441
X1.7Y-5.8173
X1.7Y-5.9173
X1.7Y-6.0173
X1.7Y-6.1173
X1.7043Y-0.8177
X1.7043Y-0.9177
X1.7043Y-1.0177
X1.7043Y-1.1177
X1.7043Y-4.4909
X1.7043Y-4.5909
X1.7043Y-4.6909
X1.7043Y-4.7909
X1.7047Y-3.4594
X1.7047Y-3.5594
X1.7047Y-3.6594
X1.7047Y-3.7594
X1.7047Y-7.1327
X1.7047Y-7.2327
X1.7047Y-7.3327
X1.7047Y-7.4327
X2.8173Y-1.4591
X2.8173Y-1.5591
X2.8173Y-1.6591
X2.8173Y-1.7591
X2.8173Y-5.1323
X2.8173Y-5.2323
X2.8173Y-5.3323
X2.8173Y-5.4323
X2.8189Y-2.8358
X2.8189Y-2.9358
X2.8189Y-3.0358
X2.8189Y-3.1358
X2.8189Y-6.5091
X2.8189Y-6.6091
X2.8189Y-6.7091
X2.8189Y-6.8091
X2.8197Y-2.1445
X2.8197Y-2.2445
X2.8197Y-2.3445
X2.8197Y-2.4445
X2.8197Y-5.8177
X2.8197Y-5.9177
X2.8197Y-6.0177
X2.8197Y-6.1177
X2.824Y-0.8181
X2.824Y-0.9181
X2.824Y-1.0181
X2.824Y-1.1181
X2.824Y-4.4913
X2.824Y-4.5913
X2.824Y-4.6913
X2.824Y-4.7913
X2.8244Y-3.4598
X2.8244Y-3.5598
X2.8244Y-3.6598
X2.8244Y-3.7598
X2.8244Y-7.1331
X2.8244Y-7.2331
X2.8244Y-7.3331
X2.8244Y-7.4331
X3.4917Y-1.4543
X3.4917Y-1.5543
X3.4917Y-1.6543
X3.4917Y-1.7543
X3.4917Y-5.1276
X3.4917Y-5.2276
X3.4917Y-5.3276
X3.4917Y-5.4276
X3.4933Y-2.8311
X3.4933Y-2.9311
X3.4933Y-3.0311
X3.4933Y-3.1311
X3.4933Y-6.5043
X3.4933Y-6.6043
X3.4933Y-6.7043
X3.4933Y-6.8043
X3.4941Y-2.1398
X3.4941Y-2.2398
X3.4941Y-2.3398
X3.4941Y-2.4398
X3.4941Y-5.813
X3.4941Y-5.913
X3.4941Y-6.013
X3.4941Y-6.113
X3.4984Y-0.8134
X3.4984Y-0.9134
X3.4984Y-1.0134
X3.4984Y-1.1134
X3.4984Y-4.4866
X3.4984Y-4.5866
X3.4984Y-4.6866
X3.4984Y-4.7866
X3.4988Y-3.4551
X3.4988Y-3.5551
X3.4988Y-3.6551
X3.4988Y-3.7551
X3.4988Y-7.1283
X3.4988Y-7.2283
X3.4988Y-7.3283
X3.4988Y-7.4283
X4.5927Y-1.4802
X4.5927Y-1.5802
X4.5927Y-1.6802
X4.5927Y-1.7802
X4.5927Y-5.1534
X4.5927Y-5.2534
X4.5927Y-5.3534
X4.5927Y-5.4534
X4.5943Y-2.8569
X4.5943Y-2.9569
X4.5943Y-3.0569
X4.5943Y-3.1569
X4.5943Y-6.5302
X4.5943Y-6.6302
X4.5943Y-6.7302
X4.5943Y-6.8302
X4.5951Y-2.1656
X4.5951Y-2.2656
X4.5951Y-2.3656
X4.5951Y-2.4656
X4.5951Y-5.8388
X4.5951Y-5.9388
X4.5951Y-6.0388
X4.5951Y-6.1388
X4.5994Y-0.8392
X4.5994Y-0.9392
X4.5994Y-1.0392
X4.5994Y-1.1392
X4.5994Y-4.5124
X4.5994Y-4.6124
X4.5994Y-4.7124
X4.5994Y-4.8124
X4.5998Y-3.4809
X4.5998Y-3.5809
X4.5998Y-3.6809
X4.5998Y-3.7809
X4.5998Y-7.1542
X4.5998Y-7.2542
X4.5998Y-7.3542
X4.5998Y-7.4542
X5.2671Y-1.4754
X5.2671Y-1.5754
X5.2671Y-1.6754
X5.2671Y-1.7754
X5.2671Y-5.1487
X5.2671Y-5.2487
X5.2671Y-5.3487
X5.2671Y-5.4487
X5.2687Y-2.8522
X5.2687Y-2.9522
X5.2687Y-3.0522
X5.2687Y-3.1522
X5.2687Y-6.5254
X5.2687Y-6.6254
X5.2687Y-6.7254
X5.2687Y-6.8254
X5.2695Y-2.1609
X5.2695Y-2.2609
X5.2695Y-2.3609
X5.2695Y-2.4609
X5.2695Y-5.8341
X5.2695Y-5.9341
X5.2695Y-6.0341
X5.2695Y-6.1341
X5.2738Y-0.8345
X5.2738Y-0.9345
X5.2738Y-1.0345
X5.2738Y-1.1345
X5.2738Y-4.5077
X5.2738Y-4.6077
X5.2738Y-4.7077
X5.2738Y-4.8077
X5.2742Y-3.4762
X5.2742Y-3.5762
X5.2742Y-3.6762
X5.2742Y-3.7762
X5.2742Y-7.1494
X5.2742Y-7.2494
X5.2742Y-7.3494
X5.2742Y-7.4494
X6.3868Y-1.4758
X6.3868Y-1.5758
X6.3868Y-1.6758
X6.3868Y-1.7758
X6.3868Y-5.1491
X6.3868Y-5.2491
X6.3868Y-5.3491
X6.3868Y-5.4491
X6.3884Y-2.8526
X6.3884Y-2.9526
X6.3884Y-3.0526
X6.3884Y-3.1526
X6.3884Y-6.5258
X6.3884Y-6.6258
X6.3884Y-6.7258
X6.3884Y-6.8258
X6.3892Y-2.1613
X6.3892Y-2.2613
X6.3892Y-2.3613
X6.3892Y-2.4613
X6.3892Y-5.8345
X6.3892Y-5.9345
X6.3892Y-6.0345
X6.3892Y-6.1345
X6.3935Y-0.8349
X6.3935Y-0.9349
X6.3935Y-1.0349
X6.3935Y-1.1349
X6.3935Y-4.5081
X6.3935Y-4.6081
X6.3935Y-4.7081
X6.3935Y-4.8081
X6.3939Y-3.4766
X6.3939Y-3.5766
X6.3939Y-3.6766
X6.3939Y-3.7766
X6.3939Y-7.1498
X6.3939Y-7.2498
X6.3939Y-7.3498
X6.3939Y-7.4498
X7.0612Y-1.4711
X7.0612Y-1.5711
X7.0612Y-1.6711
X7.0612Y-1.7711
X7.0612Y-5.1443
X7.0612Y-5.2443
X7.0612Y-5.3443
X7.0612Y-5.4443
X7.0628Y-2.8479
X7.0628Y-2.9479
X7.0628Y-3.0479
X7.0628Y-3.1479
X7.0628Y-6.5211
X7.0628Y-6.6211
X7.0628Y-6.7211
X7.0628Y-6.8211
X7.0636Y-2.1565
X7.0636Y-2.2565
X7.0636Y-2.3565
X7.0636Y-2.4565
X7.0636Y-5.8298
X7.0636Y-5.9298
X7.0636Y-6.0298
X7.0636Y-6.1298
X7.0679Y-0.8302
X7.0679Y-0.9302
X7.0679Y-1.0302
X7.0679Y-1.1302
X7.0679Y-4.5034
X7.0679Y-4.6034
X7.0679Y-4.7034
X7.0679Y-4.8034
X7.0683Y-3.4719
X7.0683Y-3.5719
X7.0683Y-3.6719
X7.0683Y-3.7719
X7.0683Y-7.1451
X7.0683Y-7.2451
X7.0683Y-7.3451
X7.0683Y-7.4451
X8.1726Y-1.4695
X8.1726Y-1.5695
X8.1726Y-1.6695
X8.1726Y-1.7695
X8.1726Y-5.1428
X8.1726Y-5.2428
X8.1726Y-5.3428
X8.1726Y-5.4428
X8.1742Y-2.8463
X8.1742Y-2.9463
X8.1742Y-3.0463
X8.1742Y-3.1463
X8.1742Y-6.5195
X8.1742Y-6.6195
X8.1742Y-6.7195
X8.1742Y-6.8195
X8.175Y-2.155
X8.175Y-2.255
X8.175Y-2.355
X8.175Y-2.455
X8.175Y-5.8282
X8.175Y-5.9282
X8.175Y-6.0282
X8.175Y-6.1282
X8.1793Y-0.8286
X8.1793Y-0.9286
X8.1793Y-1.0286
X8.1793Y-1.1286
X8.1793Y-4.5018
X8.1793Y-4.6018
X8.1793Y-4.7018
X8.1793Y-4.8018
X8.1797Y-3.4703
X8.1797Y-3.5703
X8.1797Y-3.6703
X8.1797Y-3.7703
X8.1797Y-7.1435
X8.1797Y-7.2435
X8.1797Y-7.3435
X8.1797Y-7.4435
X8.847Y-1.4648
X8.847Y-1.5648
X8.847Y-1.6648
X8.847Y-1.7648
X8.847Y-5.138
X8.847Y-5.238
X8.847Y-5.338
X8.847Y-5.438
X8.8486Y-2.8416
X8.8486Y-2.9416
X8.8486Y-3.0416
X8.8486Y-3.1416
X8.8486Y-6.5148
X8.8486Y-6.6148
X8.8486Y-6.7148
X8.8486Y-6.8148
X8.8494Y-2.1502
X8.8494Y-2.2502
X8.8494Y-2.3502
X8.8494Y-2.4502
X8.8494Y-5.8235
X8.8494Y-5.9235
X8.8494Y-6.0235
X8.8494Y-6.1235
X8.8537Y-0.8239
X8.8537Y-0.9239
X8.8537Y-1.0239
X8.8537Y-1.1239
X8.8537Y-4.4971
X8.8537Y-4.5971
X8.8537Y-4.6971
X8.8537Y-4.7971
X8.8541Y-3.4656
X8.8541Y-3.5656
X8.8541Y-3.6656
X8.8541Y-3.7656
X8.8541Y-7.1388
X8.8541Y-7.2388
X8.8541Y-7.3388
X8.8541Y-7.4388
T2
X0.8866Y-0.6484
X0.8866Y-4.3217
X1.665Y-1.2748
X1.665Y-1.9543
X1.665Y-4.948
X1.665Y-5.6276
X1.6669Y-3.3177
X1.6669Y-6.9909
X1.6693Y-2.637
X1.6693Y-6.3102
X1.8602Y-1.2673
X1.8602Y-1.9484
X1.8602Y-2.6327
X1.8602Y-3.3138
X1.8602Y-4.9406
X1.8602Y-5.6217
X1.8602Y-6.3059
X1.8602Y-6.987
X2.0602Y-1.2673
X2.0602Y-1.9484
X2.0602Y-2.6327
X2.0602Y-3.3138
X2.0602Y-4.9406
X2.0602Y-5.6217
X2.0602Y-6.3059
X2.0602Y-6.987
X2.6807Y-0.6441
X2.6807Y-4.3173
X3.4591Y-1.2705
X3.4591Y-1.95
X3.4591Y-4.9437
X3.4591Y-5.6232
X3.461Y-3.3134
X3.461Y-6.9866
X3.4634Y-2.6327
X3.4634Y-6.3059
X3.6543Y-1.263
X3.6543Y-1.9441
X3.6543Y-2.6283
X3.6543Y-3.3094
X3.6543Y-4.9362
X3.6543Y-5.6173
X3.6543Y-6.3016
X3.6543Y-6.9827
X3.8543Y-1.263
X3.8543Y-1.9441
X3.8543Y-2.6283
X3.8543Y-3.3094
X3.8543Y-4.9362
X3.8543Y-5.6173
X3.8543Y-6.3016
X3.8543Y-6.9827
X4.4561Y-0.6652
X4.4561Y-4.3384
X5.2344Y-1.2916
X5.2344Y-1.9711
X5.2344Y-4.9648
X5.2344Y-5.6443
X5.2364Y-3.3345
X5.2364Y-7.0077
X5.2388Y-2.6538
X5.2388Y-6.327
X5.4297Y-1.2841
X5.4297Y-1.9652
X5.4297Y-2.6494
X5.4297Y-3.3306
X5.4297Y-4.9573
X5.4297Y-5.6384
X5.4297Y-6.3227
X5.4297Y-7.0038
X5.6297Y-1.2841
X5.6297Y-1.9652
X5.6297Y-2.6494
X5.6297Y-3.3306
X5.6297Y-4.9573
X5.6297Y-5.6384
X5.6297Y-6.3227
X5.6297Y-7.0038
X6.2502Y-0.6609
X6.2502Y-4.3341
X7.0285Y-1.2872
X7.0285Y-1.9668
X7.0285Y-4.9605
X7.0285Y-5.64
X7.0305Y-3.3302
X7.0305Y-7.0034
X7.0329Y-2.6494
X7.0329Y-6.3227
X7.2238Y-1.2798
X7.2238Y-1.9609
X7.2238Y-2.6451
X7.2238Y-3.3262
X7.2238Y-4.953
X7.2238Y-5.6341
X7.2238Y-6.3183
X7.2238Y-6.9994
X7.4238Y-1.2798
X7.4238Y-1.9609
X7.4238Y-2.6451
X7.4238Y-3.3262
X7.4238Y-4.953
X7.4238Y-5.6341
X7.4238Y-6.3183
X7.4238Y-6.9994
X8.036Y-0.6546
X8.036Y-4.3278
X8.8143Y-1.2809
X8.8143Y-1.9605
X8.8143Y-4.9542
X8.8143Y-5.6337
X8.8163Y-3.3239
X8.8163Y-6.9971
X8.8187Y-2.6432
X8.8187Y-6.3164
X9.0096Y-1.2735
X9.0096Y-1.9546
X9.0096Y-2.6388
X9.0096Y-3.3199
X9.0096Y-4.9467
X9.0096Y-5.6278
X9.0096Y-6.312
X9.0096Y-6.9932
X9.2096Y-1.2735
X9.2096Y-1.9546
X9.2096Y-2.6388
X9.2096Y-3.3199
X9.2096Y-4.9467
X9.2096Y-5.6278
X9.2096Y-6.312
X9.2096Y-6.9932
T0
M30
