%TF.GenerationSoftware,KiCad,Pcbnew,7.0.5*%
%TF.CreationDate,2023-06-01T08:07:39+02:00*%
%TF.ProjectId,78_1x39_1mm Solr tile,37382c31-7833-4392-9c31-6d6d20536f6c,rev?*%
%TF.SameCoordinates,Original*%
%TF.FileFunction,Copper,L2,Bot*%
%TF.FilePolarity,Positive*%
%FSLAX46Y46*%
G04 Gerber Fmt 4.6, Leading zero omitted, Abs format (unit mm)*
G04 Created by KiCad (PCBNEW 7.0.5) date 2023-06-01 08:07:39*
%MOMM*%
%LPD*%
G01*
G04 APERTURE LIST*
%TA.AperFunction,SMDPad,CuDef*%
%ADD10R,2.000000X2.000000*%
%TD*%
%TA.AperFunction,ComponentPad*%
%ADD11R,1.700000X1.700000*%
%TD*%
%TA.AperFunction,ComponentPad*%
%ADD12O,1.700000X1.700000*%
%TD*%
%TA.AperFunction,SMDPad,CuDef*%
%ADD13R,3.500000X2.000000*%
%TD*%
%TA.AperFunction,ViaPad*%
%ADD14C,0.800000*%
%TD*%
%TA.AperFunction,Conductor*%
%ADD15C,2.000000*%
%TD*%
%TA.AperFunction,Conductor*%
%ADD16C,1.000000*%
%TD*%
%TA.AperFunction,Conductor*%
%ADD17C,0.000000*%
%TD*%
G04 APERTURE END LIST*
D10*
%TO.P,REF\u002A\u002A,1*%
%TO.N,N/C*%
X22800000Y-48290000D03*
%TD*%
D11*
%TO.P,REF\u002A\u002A,1*%
%TO.N,N/C*%
X27330000Y-74830000D03*
D12*
%TO.P,REF\u002A\u002A,2*%
X27330000Y-72290000D03*
%TD*%
D11*
%TO.P,J10,1,Pin_1*%
%TO.N,N/C*%
X44650000Y-26590000D03*
D12*
%TO.P,J10,2,Pin_2*%
X44650000Y-29130000D03*
%TD*%
D10*
%TO.P,REF\u002A\u002A,1*%
%TO.N,N/C*%
X20330000Y-68830000D03*
%TD*%
%TO.P,REF\u002A\u002A,1*%
%TO.N,N/C*%
X22880000Y-65700000D03*
%TD*%
%TO.P,REF\u002A\u002A,1*%
%TO.N,N/C*%
X48520000Y-68540000D03*
%TD*%
%TO.P,REF\u002A\u002A,1*%
%TO.N,N/C*%
X20350000Y-65700000D03*
%TD*%
%TO.P,REF\u002A\u002A,1*%
%TO.N,N/C*%
X48510000Y-31910000D03*
%TD*%
%TO.P,REF\u002A\u002A,1*%
%TO.N,N/C*%
X22780000Y-51420000D03*
%TD*%
D11*
%TO.P,J8,1,Pin_1*%
%TO.N,N/C*%
X44290000Y-54600000D03*
D12*
%TO.P,J8,2,Pin_2*%
X44290000Y-57140000D03*
%TO.P,J8,3,Pin_3*%
X44290000Y-59680000D03*
%TO.P,J8,4,Pin_4*%
X44290000Y-62220000D03*
%TD*%
D10*
%TO.P,REF\u002A\u002A,1*%
%TO.N,N/C*%
X45980000Y-66030000D03*
%TD*%
%TO.P,REF\u002A\u002A,1*%
%TO.N,N/C*%
X48500000Y-34430000D03*
%TD*%
%TO.P,REF\u002A\u002A,1*%
%TO.N,N/C*%
X29860000Y-32350000D03*
%TD*%
%TO.P,REF\u002A\u002A,1*%
%TO.N,N/C*%
X48530000Y-48800000D03*
%TD*%
%TO.P,REF\u002A\u002A,1*%
%TO.N,N/C*%
X20270000Y-48290000D03*
%TD*%
%TO.P,REF\u002A\u002A,1*%
%TO.N,N/C*%
X22860000Y-68830000D03*
%TD*%
D11*
%TO.P,REF\u002A\u002A,1*%
%TO.N,N/C*%
X27350000Y-62370000D03*
D12*
%TO.P,REF\u002A\u002A,2*%
X27350000Y-59830000D03*
%TO.P,REF\u002A\u002A,3*%
X27350000Y-57290000D03*
%TO.P,REF\u002A\u002A,4*%
X27350000Y-54750000D03*
%TD*%
D11*
%TO.P,REF\u002A\u002A,1*%
%TO.N,N/C*%
X27270000Y-29280000D03*
D12*
%TO.P,REF\u002A\u002A,2*%
X27270000Y-26740000D03*
%TD*%
D10*
%TO.P,REF\u002A\u002A,1*%
%TO.N,N/C*%
X20250000Y-51420000D03*
%TD*%
%TO.P,REF\u002A\u002A,1*%
%TO.N,N/C*%
X27330000Y-34750000D03*
%TD*%
D11*
%TO.P,J9,1,Pin_1*%
%TO.N,N/C*%
X44420000Y-37230000D03*
D12*
%TO.P,J9,2,Pin_2*%
X44420000Y-39770000D03*
%TO.P,J9,3,Pin_3*%
X44420000Y-42310000D03*
%TO.P,J9,4,Pin_4*%
X44420000Y-44850000D03*
%TD*%
D10*
%TO.P,REF\u002A\u002A,1*%
%TO.N,N/C*%
X37950000Y-31320000D03*
%TD*%
D11*
%TO.P,REF\u002A\u002A,1*%
%TO.N,N/C*%
X37560000Y-86250000D03*
D12*
%TO.P,REF\u002A\u002A,2*%
X35020000Y-86250000D03*
%TD*%
D11*
%TO.P,REF\u002A\u002A,1*%
%TO.N,N/C*%
X27290000Y-44960000D03*
D12*
%TO.P,REF\u002A\u002A,2*%
X27290000Y-42420000D03*
%TO.P,REF\u002A\u002A,3*%
X27290000Y-39880000D03*
%TO.P,REF\u002A\u002A,4*%
X27290000Y-37340000D03*
%TD*%
D10*
%TO.P,REF\u002A\u002A,1*%
%TO.N,N/C*%
X48520000Y-66030000D03*
%TD*%
%TO.P,REF\u002A\u002A,1*%
%TO.N,N/C*%
X27330000Y-32350000D03*
%TD*%
D11*
%TO.P,J7,1,Pin_1*%
%TO.N,N/C*%
X44280000Y-72150000D03*
D12*
%TO.P,J7,2,Pin_2*%
X44280000Y-74690000D03*
%TD*%
D10*
%TO.P,REF\u002A\u002A,1*%
%TO.N,N/C*%
X34760000Y-83930000D03*
%TD*%
D13*
%TO.P,REF\u002A\u002A,1*%
%TO.N,N/C*%
X26280000Y-18480000D03*
%TD*%
D11*
%TO.P,REF\u002A\u002A,1*%
%TO.N,N/C*%
X34820000Y-29090000D03*
D12*
%TO.P,REF\u002A\u002A,2*%
X37360000Y-29090000D03*
%TD*%
D10*
%TO.P,REF\u002A\u002A,1*%
%TO.N,N/C*%
X37960000Y-83930000D03*
%TD*%
%TO.P,REF\u002A\u002A,1*%
%TO.N,N/C*%
X48550000Y-51320000D03*
%TD*%
%TO.P,REF\u002A\u002A,1*%
%TO.N,N/C*%
X45990000Y-48790000D03*
%TD*%
D14*
%TO.N,*%
X52780000Y-66450000D03*
X52890000Y-33080000D03*
X54110000Y-66410000D03*
X52960000Y-50330000D03*
X53040000Y-83650000D03*
X54220000Y-33060000D03*
X52760000Y-67730000D03*
X54370000Y-83610000D03*
X54090000Y-67710000D03*
X52910000Y-31800000D03*
X54310000Y-49010000D03*
X54350000Y-84910000D03*
X54240000Y-31760000D03*
X53020000Y-84930000D03*
X52980000Y-49050000D03*
X54290000Y-50310000D03*
%TD*%
D15*
%TO.N,*%
X30580000Y-83930000D02*
X34760000Y-83930000D01*
X20350000Y-73700000D02*
X30580000Y-83930000D01*
X20350000Y-71300000D02*
X20350000Y-73700000D01*
X23260000Y-68830000D02*
X22860000Y-68830000D01*
X26570000Y-72140000D02*
X23260000Y-68830000D01*
X44280000Y-72150000D02*
X44270000Y-72140000D01*
X44270000Y-72140000D02*
X26570000Y-72140000D01*
X23550000Y-51420000D02*
X22780000Y-51420000D01*
X26710000Y-54580000D02*
X23550000Y-51420000D01*
X29190000Y-54580000D02*
X26710000Y-54580000D01*
X22800000Y-44810000D02*
X22800000Y-48290000D01*
X44420000Y-42310000D02*
X25300000Y-42310000D01*
X25300000Y-42310000D02*
X22800000Y-44810000D01*
X47140000Y-26590000D02*
X44650000Y-26590000D01*
X51090000Y-30540000D02*
X47140000Y-26590000D01*
X51090000Y-31940000D02*
X51090000Y-30540000D01*
X42320000Y-29130000D02*
X44650000Y-29130000D01*
X38480000Y-25290000D02*
X42320000Y-29130000D01*
X32750000Y-25290000D02*
X38480000Y-25290000D01*
X28760000Y-29280000D02*
X32750000Y-25290000D01*
X27270000Y-29280000D02*
X28760000Y-29280000D01*
D16*
X38550000Y-29090000D02*
X38560000Y-29100000D01*
X37360000Y-29090000D02*
X38550000Y-29090000D01*
D15*
X27330000Y-37120000D02*
X27420000Y-37210000D01*
X27330000Y-34750000D02*
X27330000Y-37120000D01*
D17*
X27290000Y-37340000D02*
X27420000Y-37210000D01*
D15*
X27420000Y-37210000D02*
X44400000Y-37210000D01*
D16*
X34990000Y-86280000D02*
X33610000Y-86280000D01*
X35020000Y-86250000D02*
X34990000Y-86280000D01*
X38990000Y-86250000D02*
X39000000Y-86240000D01*
X37560000Y-86250000D02*
X38990000Y-86250000D01*
D15*
X29860000Y-32350000D02*
X31860000Y-32350000D01*
X31860000Y-32350000D02*
X34820000Y-29390000D01*
X20350000Y-33220000D02*
X20350000Y-29910000D01*
X44280000Y-57150000D02*
X44290000Y-57140000D01*
X27170000Y-57150000D02*
X44280000Y-57150000D01*
D16*
X34710000Y-83930000D02*
X34670000Y-83970000D01*
D15*
X24840000Y-59730000D02*
X22880000Y-61690000D01*
X53630000Y-54770000D02*
X53630000Y-57260000D01*
D17*
X53550000Y-49740000D02*
X53630000Y-49660000D01*
D15*
X44420000Y-39770000D02*
X46320000Y-39770000D01*
X39200000Y-62340000D02*
X44410000Y-62340000D01*
X48470000Y-37620000D02*
X48470000Y-35090000D01*
X45950000Y-74690000D02*
X48550000Y-72090000D01*
D16*
X20330000Y-68830000D02*
X20000000Y-68500000D01*
D15*
X27610000Y-44860000D02*
X36790000Y-44860000D01*
X45880000Y-65930000D02*
X45980000Y-66030000D01*
X44290000Y-57140000D02*
X46090000Y-57140000D01*
X44410000Y-44860000D02*
X44420000Y-44850000D01*
D16*
X20000000Y-66050000D02*
X20350000Y-65700000D01*
D15*
X44280000Y-74690000D02*
X44290000Y-74680000D01*
X48530000Y-48800000D02*
X51110000Y-48800000D01*
X53630000Y-57260000D02*
X53630000Y-59570000D01*
X44240000Y-59730000D02*
X24840000Y-59730000D01*
X51110000Y-48800000D02*
X51930000Y-49620000D01*
X48520000Y-66030000D02*
X50940000Y-66030000D01*
D16*
X26910000Y-26750000D02*
X27300000Y-27140000D01*
D15*
X23520000Y-26740000D02*
X25490000Y-26740000D01*
X25490000Y-19270000D02*
X26120000Y-18640000D01*
X44290000Y-57140000D02*
X44340000Y-57090000D01*
X38570000Y-31940000D02*
X49760000Y-31940000D01*
D16*
X20350000Y-65700000D02*
X20020000Y-65370000D01*
D15*
X53630000Y-49660000D02*
X53700000Y-49730000D01*
X27170000Y-74690000D02*
X30440000Y-74690000D01*
X53230000Y-83920000D02*
X53610000Y-84300000D01*
X48550000Y-72090000D02*
X48550000Y-69770000D01*
X44270000Y-54580000D02*
X44290000Y-54600000D01*
X37970000Y-83920000D02*
X53230000Y-83920000D01*
X30440000Y-74690000D02*
X44280000Y-74690000D01*
D16*
X27350000Y-54750000D02*
X27350000Y-54220000D01*
D15*
X53630000Y-59570000D02*
X53630000Y-62520000D01*
D16*
X35080000Y-84300000D02*
X34710000Y-83930000D01*
D15*
X45910000Y-46340000D02*
X45910000Y-48710000D01*
X27600000Y-44850000D02*
X27610000Y-44860000D01*
X22880000Y-61690000D02*
X22880000Y-65700000D01*
X44410000Y-62340000D02*
X45880000Y-63810000D01*
X20610000Y-32360000D02*
X27290000Y-32360000D01*
X44280000Y-74690000D02*
X45950000Y-74690000D01*
X51930000Y-67020000D02*
X53655000Y-67020000D01*
X44420000Y-44850000D02*
X44440000Y-44870000D01*
X25490000Y-26740000D02*
X25490000Y-19270000D01*
X25490000Y-26740000D02*
X27270000Y-26740000D01*
X29190000Y-54580000D02*
X44270000Y-54580000D01*
X53700000Y-49730000D02*
X53630000Y-49800000D01*
X53630000Y-31940000D02*
X53630000Y-49660000D01*
X27470000Y-39780000D02*
X44410000Y-39780000D01*
X45910000Y-48710000D02*
X45990000Y-48790000D01*
X45880000Y-63810000D02*
X45880000Y-65930000D01*
X50940000Y-66030000D02*
X51930000Y-67020000D01*
X51930000Y-49620000D02*
X53685000Y-49620000D01*
X20350000Y-29910000D02*
X23520000Y-26740000D01*
X39200000Y-62340000D02*
X44170000Y-62340000D01*
X44290000Y-59680000D02*
X44240000Y-59730000D01*
X36790000Y-44860000D02*
X44410000Y-44860000D01*
X27170000Y-62340000D02*
X39200000Y-62340000D01*
X26120000Y-18640000D02*
X26280000Y-18640000D01*
X36790000Y-44860000D02*
X44430000Y-44860000D01*
X53630000Y-74720000D02*
X53630000Y-84340000D01*
X44410000Y-39780000D02*
X44420000Y-39770000D01*
X53630000Y-49800000D02*
X53630000Y-54770000D01*
X20350000Y-71300000D02*
X20350000Y-33220000D01*
X37950000Y-31320000D02*
X38570000Y-31940000D01*
X51090000Y-31940000D02*
X53630000Y-31940000D01*
X53630000Y-62520000D02*
X53630000Y-72150000D01*
X48570000Y-54660000D02*
X48570000Y-52320000D01*
X46090000Y-57140000D02*
X48570000Y-54660000D01*
X46320000Y-39770000D02*
X48470000Y-37620000D01*
X20350000Y-71300000D02*
X20350000Y-65700000D01*
X27170000Y-54580000D02*
X29190000Y-54580000D01*
D16*
X20210000Y-68950000D02*
X20330000Y-68830000D01*
D15*
X44430000Y-44860000D02*
X45910000Y-46340000D01*
X48950000Y-31940000D02*
X51090000Y-31940000D01*
X53630000Y-72150000D02*
X53630000Y-74720000D01*
X27150000Y-74710000D02*
X27170000Y-74690000D01*
%TD*%
M02*
