M48
; DRILL file {KiCad 7.0.2} date Mon May 15 10:15:10 2023
; FORMAT={-:-/ absolute / inch / decimal}
; #@! TF.CreationDate,2023-05-15T10:15:10+02:00
; #@! TF.GenerationSoftware,Kicad,Pcbnew,7.0.2
; #@! TF.FileFunction,Plated,1,2,PTH
FMAT,2
INCH
; #@! TA.AperFunction,Plated,PTH,ViaDrill
T1C0.0157
; #@! TA.AperFunction,Plated,PTH,ComponentDrill
T2C0.0394
; #@! TA.AperFunction,Plated,PTH,ComponentDrill
T3C0.0787
%
G90
G05
T1
X7.1094Y-2.2295
X7.1472Y-2.2295
T2
X7.1366Y-5.224
X7.1366Y-5.324
X7.1382Y-3.1835
X7.1382Y-3.2835
X7.1396Y-4.5484
X7.1396Y-4.6484
X7.1398Y-2.578
X7.1398Y-2.678
X7.1398Y-3.865
X7.1398Y-3.965
X7.8079Y-3.185
X7.8079Y-3.285
X7.8091Y-4.5508
X7.8091Y-4.6508
X7.8094Y-3.8665
X7.8094Y-3.9665
X7.8146Y-2.5736
X7.8146Y-2.6736
X7.815Y-5.226
X7.815Y-5.326
T3
X7.7748Y-2.8303
X7.7748Y-3.5098
X7.7768Y-4.8732
X7.7791Y-4.1925
X7.9701Y-2.8228
X7.9701Y-3.5039
X7.9701Y-4.1882
X7.9701Y-4.8693
X8.1701Y-2.8228
X8.1701Y-3.5039
X8.1701Y-4.1882
X8.1701Y-4.8693
T0
M30
