%TF.GenerationSoftware,KiCad,Pcbnew,7.0.2*%
%TF.CreationDate,2023-05-17T16:33:12+02:00*%
%TF.ProjectId,78_1x39_1mm Solr tile,37382c31-7833-4392-9c31-6d6d20536f6c,rev?*%
%TF.SameCoordinates,Original*%
%TF.FileFunction,Soldermask,Top*%
%TF.FilePolarity,Negative*%
%FSLAX46Y46*%
G04 Gerber Fmt 4.6, Leading zero omitted, Abs format (unit mm)*
G04 Created by KiCad (PCBNEW 7.0.2) date 2023-05-17 16:33:12*
%MOMM*%
%LPD*%
G01*
G04 APERTURE LIST*
%ADD10C,2.100000*%
G04 APERTURE END LIST*
D10*
%TO.C,REF\u002A\u002A*%
X199074448Y-109846015D03*
%TD*%
%TO.C,REF\u002A\u002A*%
X233654448Y-109746015D03*
%TD*%
%TO.C,REF\u002A\u002A*%
X199184448Y-193686015D03*
%TD*%
%TO.C,REF\u002A\u002A*%
X233304448Y-193686015D03*
%TD*%
%TO.C,REF\u002A\u002A*%
X187944448Y-193846015D03*
%TD*%
%TO.C,REF\u002A\u002A*%
X188294448Y-109906015D03*
%TD*%
%TO.C,REF\u002A\u002A*%
X153714448Y-110006015D03*
%TD*%
%TO.C,REF\u002A\u002A*%
X153824448Y-193846015D03*
%TD*%
%TO.C,REF\u002A\u002A*%
X108144448Y-110116015D03*
%TD*%
%TO.C,REF\u002A\u002A*%
X142374448Y-193956015D03*
%TD*%
%TO.C,REF\u002A\u002A*%
X108254448Y-193956015D03*
%TD*%
%TO.C,REF\u002A\u002A*%
X142724448Y-110016015D03*
%TD*%
%TO.C,REF\u002A\u002A*%
X63050000Y-109580000D03*
%TD*%
%TO.C,REF\u002A\u002A*%
X63160000Y-193420000D03*
%TD*%
%TO.C,REF\u002A\u002A*%
X97280000Y-193420000D03*
%TD*%
%TO.C,REF\u002A\u002A*%
X97630000Y-109480000D03*
%TD*%
%TO.C,REF\u002A\u002A*%
X51710000Y-193530000D03*
%TD*%
%TO.C,REF\u002A\u002A*%
X17480000Y-109690000D03*
%TD*%
%TO.C,REF\u002A\u002A*%
X52060000Y-109590000D03*
%TD*%
%TO.C,REF\u002A\u002A*%
X17590000Y-193530000D03*
%TD*%
%TO.C,REF\u002A\u002A*%
X233304448Y-100386015D03*
%TD*%
%TO.C,REF\u002A\u002A*%
X233654448Y-16446015D03*
%TD*%
%TO.C,REF\u002A\u002A*%
X199074448Y-16546015D03*
%TD*%
%TO.C,REF\u002A\u002A*%
X199184448Y-100386015D03*
%TD*%
%TO.C,REF\u002A\u002A*%
X153714448Y-16706015D03*
%TD*%
%TO.C,REF\u002A\u002A*%
X153824448Y-100546015D03*
%TD*%
%TO.C,REF\u002A\u002A*%
X187944448Y-100546015D03*
%TD*%
%TO.C,REF\u002A\u002A*%
X188294448Y-16606015D03*
%TD*%
%TO.C,REF\u002A\u002A*%
X142374448Y-100656015D03*
%TD*%
%TO.C,REF\u002A\u002A*%
X108144448Y-16816015D03*
%TD*%
%TO.C,REF\u002A\u002A*%
X142724448Y-16716015D03*
%TD*%
%TO.C,REF\u002A\u002A*%
X108254448Y-100656015D03*
%TD*%
%TO.C,REF\u002A\u002A*%
X97280000Y-100120000D03*
%TD*%
%TO.C,REF\u002A\u002A*%
X63050000Y-16280000D03*
%TD*%
%TO.C,REF\u002A\u002A*%
X97630000Y-16180000D03*
%TD*%
%TO.C,REF\u002A\u002A*%
X63160000Y-100120000D03*
%TD*%
%TO.C,REF\u002A\u002A*%
X17590000Y-100230000D03*
%TD*%
%TO.C,REF\u002A\u002A*%
X17480000Y-16390000D03*
%TD*%
%TO.C,REF\u002A\u002A*%
X52060000Y-16290000D03*
%TD*%
%TO.C,REF\u002A\u002A*%
X51710000Y-100230000D03*
%TD*%
M02*
