%TF.GenerationSoftware,KiCad,Pcbnew,7.0.2*%
%TF.CreationDate,2023-05-17T16:33:11+02:00*%
%TF.ProjectId,78_1x39_1mm Solr tile,37382c31-7833-4392-9c31-6d6d20536f6c,rev?*%
%TF.SameCoordinates,Original*%
%TF.FileFunction,Legend,Top*%
%TF.FilePolarity,Positive*%
%FSLAX46Y46*%
G04 Gerber Fmt 4.6, Leading zero omitted, Abs format (unit mm)*
G04 Created by KiCad (PCBNEW 7.0.2) date 2023-05-17 16:33:11*
%MOMM*%
%LPD*%
G01*
G04 APERTURE LIST*
%ADD10C,0.200000*%
%ADD11C,1.414483*%
%ADD12C,0.050000*%
G04 APERTURE END LIST*
D10*
X115002543Y-110212681D02*
X115764448Y-110212681D01*
X115383495Y-110593634D02*
X115383495Y-109831729D01*
D11*
X68796830Y-109660000D02*
G75*
G03*
X68796830Y-109660000I-707241J0D01*
G01*
D10*
X205932543Y-109942681D02*
X206694448Y-109942681D01*
X206313495Y-110323634D02*
X206313495Y-109561729D01*
D11*
X204821278Y-109926015D02*
G75*
G03*
X204821278Y-109926015I-707241J0D01*
G01*
X113891278Y-110196015D02*
G75*
G03*
X113891278Y-110196015I-707241J0D01*
G01*
X159461278Y-110086015D02*
G75*
G03*
X159461278Y-110086015I-707241J0D01*
G01*
D10*
X160572543Y-110102681D02*
X161334448Y-110102681D01*
X160953495Y-110483634D02*
X160953495Y-109721729D01*
X69908095Y-109676666D02*
X70670000Y-109676666D01*
X70289047Y-110057619D02*
X70289047Y-109295714D01*
D11*
X23226830Y-109770000D02*
G75*
G03*
X23226830Y-109770000I-707241J0D01*
G01*
D10*
X24338095Y-109786666D02*
X25100000Y-109786666D01*
X24719047Y-110167619D02*
X24719047Y-109405714D01*
D11*
X204821278Y-16626015D02*
G75*
G03*
X204821278Y-16626015I-707241J0D01*
G01*
D10*
X205932543Y-16642681D02*
X206694448Y-16642681D01*
X206313495Y-17023634D02*
X206313495Y-16261729D01*
D11*
X159461278Y-16786015D02*
G75*
G03*
X159461278Y-16786015I-707241J0D01*
G01*
D10*
X160572543Y-16802681D02*
X161334448Y-16802681D01*
X160953495Y-17183634D02*
X160953495Y-16421729D01*
D11*
X113891278Y-16896015D02*
G75*
G03*
X113891278Y-16896015I-707241J0D01*
G01*
D10*
X115002543Y-16912681D02*
X115764448Y-16912681D01*
X115383495Y-17293634D02*
X115383495Y-16531729D01*
D11*
X68787758Y-16350000D02*
G75*
G03*
X68787758Y-16350000I-707241J0D01*
G01*
D10*
X69908095Y-16376666D02*
X70670000Y-16376666D01*
X70289047Y-16757619D02*
X70289047Y-15995714D01*
D11*
X23227241Y-16470517D02*
G75*
G03*
X23227241Y-16470517I-707241J0D01*
G01*
D10*
X24338095Y-16486666D02*
X25100000Y-16486666D01*
X24719047Y-16867619D02*
X24719047Y-16105714D01*
D12*
%TO.C,REF\u002A\u002A*%
X196684448Y-112426015D02*
X235804448Y-112426015D01*
X235804448Y-112426015D02*
X235804448Y-190606015D01*
X235804448Y-190606015D02*
X196684448Y-190606015D01*
X196684448Y-190606015D02*
X196684448Y-112426015D01*
X151324448Y-112586015D02*
X190444448Y-112586015D01*
X190444448Y-112586015D02*
X190444448Y-190766015D01*
X190444448Y-190766015D02*
X151324448Y-190766015D01*
X151324448Y-190766015D02*
X151324448Y-112586015D01*
X105754448Y-112696015D02*
X144874448Y-112696015D01*
X144874448Y-112696015D02*
X144874448Y-190876015D01*
X144874448Y-190876015D02*
X105754448Y-190876015D01*
X105754448Y-190876015D02*
X105754448Y-112696015D01*
X60660000Y-112160000D02*
X99780000Y-112160000D01*
X99780000Y-112160000D02*
X99780000Y-190340000D01*
X99780000Y-190340000D02*
X60660000Y-190340000D01*
X60660000Y-190340000D02*
X60660000Y-112160000D01*
X15090000Y-112270000D02*
X54210000Y-112270000D01*
X54210000Y-112270000D02*
X54210000Y-190450000D01*
X54210000Y-190450000D02*
X15090000Y-190450000D01*
X15090000Y-190450000D02*
X15090000Y-112270000D01*
X196684448Y-19126015D02*
X235804448Y-19126015D01*
X235804448Y-19126015D02*
X235804448Y-97306015D01*
X235804448Y-97306015D02*
X196684448Y-97306015D01*
X196684448Y-97306015D02*
X196684448Y-19126015D01*
X151324448Y-19286015D02*
X190444448Y-19286015D01*
X190444448Y-19286015D02*
X190444448Y-97466015D01*
X190444448Y-97466015D02*
X151324448Y-97466015D01*
X151324448Y-97466015D02*
X151324448Y-19286015D01*
X105754448Y-19396015D02*
X144874448Y-19396015D01*
X144874448Y-19396015D02*
X144874448Y-97576015D01*
X144874448Y-97576015D02*
X105754448Y-97576015D01*
X105754448Y-97576015D02*
X105754448Y-19396015D01*
X60660000Y-18860000D02*
X99780000Y-18860000D01*
X99780000Y-18860000D02*
X99780000Y-97040000D01*
X99780000Y-97040000D02*
X60660000Y-97040000D01*
X60660000Y-97040000D02*
X60660000Y-18860000D01*
X15090000Y-18970000D02*
X54210000Y-18970000D01*
X54210000Y-18970000D02*
X54210000Y-97150000D01*
X54210000Y-97150000D02*
X15090000Y-97150000D01*
X15090000Y-97150000D02*
X15090000Y-18970000D01*
%TD*%
M02*
