%TF.GenerationSoftware,KiCad,Pcbnew,7.0.2*%
%TF.CreationDate,2023-05-17T15:36:18+02:00*%
%TF.ProjectId,78_1x39_1mm Solr tile,37382c31-7833-4392-9c31-6d6d20536f6c,rev?*%
%TF.SameCoordinates,Original*%
%TF.FileFunction,Copper,L2,Bot*%
%TF.FilePolarity,Positive*%
%FSLAX46Y46*%
G04 Gerber Fmt 4.6, Leading zero omitted, Abs format (unit mm)*
G04 Created by KiCad (PCBNEW 7.0.2) date 2023-05-17 15:36:18*
%MOMM*%
%LPD*%
G01*
G04 APERTURE LIST*
%TA.AperFunction,ComponentPad*%
%ADD10R,1.700000X1.700000*%
%TD*%
%TA.AperFunction,ComponentPad*%
%ADD11O,1.700000X1.700000*%
%TD*%
%TA.AperFunction,ComponentPad*%
%ADD12C,2.600000*%
%TD*%
%TA.AperFunction,Conductor*%
%ADD13C,1.000000*%
%TD*%
%TA.AperFunction,Conductor*%
%ADD14C,2.000000*%
%TD*%
G04 APERTURE END LIST*
D10*
%TO.P,REF\u002A\u002A,1*%
%TO.N,N/C*%
X43120000Y-130350000D03*
D11*
%TO.P,REF\u002A\u002A,2*%
X43120000Y-132890000D03*
%TO.P,REF\u002A\u002A,3*%
X43120000Y-135430000D03*
%TO.P,REF\u002A\u002A,4*%
X43120000Y-137970000D03*
%TD*%
D10*
%TO.P,REF\u002A\u002A,1*%
%TO.N,N/C*%
X25990000Y-138090000D03*
D11*
%TO.P,REF\u002A\u002A,2*%
X25990000Y-135550000D03*
%TO.P,REF\u002A\u002A,3*%
X25990000Y-133010000D03*
%TO.P,REF\u002A\u002A,4*%
X25990000Y-130470000D03*
%TD*%
D10*
%TO.P,REF\u002A\u002A,1*%
%TO.N,N/C*%
X43290000Y-114070000D03*
D11*
%TO.P,REF\u002A\u002A,2*%
X43290000Y-116610000D03*
%TO.P,REF\u002A\u002A,3*%
X43290000Y-119150000D03*
%TO.P,REF\u002A\u002A,4*%
X43290000Y-121690000D03*
%TD*%
D10*
%TO.P,REF\u002A\u002A,1*%
%TO.N,N/C*%
X26160000Y-121810000D03*
D11*
%TO.P,REF\u002A\u002A,2*%
X26160000Y-119270000D03*
%TO.P,REF\u002A\u002A,3*%
X26160000Y-116730000D03*
%TO.P,REF\u002A\u002A,4*%
X26160000Y-114190000D03*
%TD*%
D10*
%TO.P,REF\u002A\u002A,1*%
%TO.N,N/C*%
X26050000Y-155500000D03*
D11*
%TO.P,REF\u002A\u002A,2*%
X26050000Y-152960000D03*
%TO.P,REF\u002A\u002A,3*%
X26050000Y-150420000D03*
%TO.P,REF\u002A\u002A,4*%
X26050000Y-147880000D03*
%TD*%
D12*
%TO.P,REF\u002A\u002A,1*%
%TO.N,N/C*%
X233924448Y-142946015D03*
X228844448Y-142946015D03*
%TD*%
D10*
%TO.P,REF\u002A\u002A,1*%
%TO.N,N/C*%
X207754448Y-121966015D03*
D11*
%TO.P,REF\u002A\u002A,2*%
X207754448Y-119426015D03*
%TO.P,REF\u002A\u002A,3*%
X207754448Y-116886015D03*
%TO.P,REF\u002A\u002A,4*%
X207754448Y-114346015D03*
%TD*%
D12*
%TO.P,REF\u002A\u002A,1*%
%TO.N,N/C*%
X233924448Y-125646015D03*
X228844448Y-125646015D03*
%TD*%
%TO.P,REF\u002A\u002A,1*%
%TO.N,N/C*%
X223884448Y-125836015D03*
%TD*%
%TO.P,REF\u002A\u002A,1*%
%TO.N,N/C*%
X233924448Y-160326015D03*
X228844448Y-160326015D03*
%TD*%
%TO.P,REF\u002A\u002A,1*%
%TO.N,N/C*%
X223934448Y-177726015D03*
%TD*%
D10*
%TO.P,REF\u002A\u002A,1*%
%TO.N,N/C*%
X224754448Y-165476015D03*
D11*
%TO.P,REF\u002A\u002A,2*%
X224754448Y-168016015D03*
%TO.P,REF\u002A\u002A,3*%
X224754448Y-170556015D03*
%TO.P,REF\u002A\u002A,4*%
X224754448Y-173096015D03*
%TD*%
D10*
%TO.P,REF\u002A\u002A,1*%
%TO.N,N/C*%
X207624448Y-173216015D03*
D11*
%TO.P,REF\u002A\u002A,2*%
X207624448Y-170676015D03*
%TO.P,REF\u002A\u002A,3*%
X207624448Y-168136015D03*
%TO.P,REF\u002A\u002A,4*%
X207624448Y-165596015D03*
%TD*%
D12*
%TO.P,REF\u002A\u002A,1*%
%TO.N,N/C*%
X233924448Y-177626015D03*
X228844448Y-177626015D03*
%TD*%
%TO.P,REF\u002A\u002A,1*%
%TO.N,N/C*%
X223884448Y-143096015D03*
%TD*%
%TO.P,REF\u002A\u002A,1*%
%TO.N,N/C*%
X223994448Y-160436015D03*
%TD*%
D10*
%TO.P,REF\u002A\u002A,1*%
%TO.N,N/C*%
X116824448Y-122236015D03*
D11*
%TO.P,REF\u002A\u002A,2*%
X116824448Y-119696015D03*
%TO.P,REF\u002A\u002A,3*%
X116824448Y-117156015D03*
%TO.P,REF\u002A\u002A,4*%
X116824448Y-114616015D03*
%TD*%
D10*
%TO.P,REF\u002A\u002A,1*%
%TO.N,N/C*%
X133784448Y-130776015D03*
D11*
%TO.P,REF\u002A\u002A,2*%
X133784448Y-133316015D03*
%TO.P,REF\u002A\u002A,3*%
X133784448Y-135856015D03*
%TO.P,REF\u002A\u002A,4*%
X133784448Y-138396015D03*
%TD*%
D10*
%TO.P,REF\u002A\u002A,1*%
%TO.N,N/C*%
X116654448Y-138516015D03*
D11*
%TO.P,REF\u002A\u002A,2*%
X116654448Y-135976015D03*
%TO.P,REF\u002A\u002A,3*%
X116654448Y-133436015D03*
%TO.P,REF\u002A\u002A,4*%
X116654448Y-130896015D03*
%TD*%
D10*
%TO.P,REF\u002A\u002A,1*%
%TO.N,N/C*%
X133954448Y-114496015D03*
D11*
%TO.P,REF\u002A\u002A,2*%
X133954448Y-117036015D03*
%TO.P,REF\u002A\u002A,3*%
X133954448Y-119576015D03*
%TO.P,REF\u002A\u002A,4*%
X133954448Y-122116015D03*
%TD*%
D10*
%TO.P,REF\u002A\u002A,1*%
%TO.N,N/C*%
X207584448Y-138246015D03*
D11*
%TO.P,REF\u002A\u002A,2*%
X207584448Y-135706015D03*
%TO.P,REF\u002A\u002A,3*%
X207584448Y-133166015D03*
%TO.P,REF\u002A\u002A,4*%
X207584448Y-130626015D03*
%TD*%
D10*
%TO.P,REF\u002A\u002A,1*%
%TO.N,N/C*%
X207764448Y-189066015D03*
D11*
%TO.P,REF\u002A\u002A,2*%
X207764448Y-186526015D03*
%TO.P,REF\u002A\u002A,3*%
X207764448Y-183986015D03*
%TO.P,REF\u002A\u002A,4*%
X207764448Y-181446015D03*
%TD*%
D10*
%TO.P,REF\u002A\u002A,1*%
%TO.N,N/C*%
X224774448Y-147916015D03*
D11*
%TO.P,REF\u002A\u002A,2*%
X224774448Y-150456015D03*
%TO.P,REF\u002A\u002A,3*%
X224774448Y-152996015D03*
%TO.P,REF\u002A\u002A,4*%
X224774448Y-155536015D03*
%TD*%
D12*
%TO.P,REF\u002A\u002A,1*%
%TO.N,N/C*%
X204114448Y-109926015D03*
%TD*%
D10*
%TO.P,REF\u002A\u002A,1*%
%TO.N,N/C*%
X224714448Y-130506015D03*
D11*
%TO.P,REF\u002A\u002A,2*%
X224714448Y-133046015D03*
%TO.P,REF\u002A\u002A,3*%
X224714448Y-135586015D03*
%TO.P,REF\u002A\u002A,4*%
X224714448Y-138126015D03*
%TD*%
D10*
%TO.P,REF\u002A\u002A,1*%
%TO.N,N/C*%
X224894448Y-181326015D03*
D11*
%TO.P,REF\u002A\u002A,2*%
X224894448Y-183866015D03*
%TO.P,REF\u002A\u002A,3*%
X224894448Y-186406015D03*
%TO.P,REF\u002A\u002A,4*%
X224894448Y-188946015D03*
%TD*%
D10*
%TO.P,REF\u002A\u002A,1*%
%TO.N,N/C*%
X224884448Y-114226015D03*
D11*
%TO.P,REF\u002A\u002A,2*%
X224884448Y-116766015D03*
%TO.P,REF\u002A\u002A,3*%
X224884448Y-119306015D03*
%TO.P,REF\u002A\u002A,4*%
X224884448Y-121846015D03*
%TD*%
D10*
%TO.P,REF\u002A\u002A,1*%
%TO.N,N/C*%
X207644448Y-155656015D03*
D11*
%TO.P,REF\u002A\u002A,2*%
X207644448Y-153116015D03*
%TO.P,REF\u002A\u002A,3*%
X207644448Y-150576015D03*
%TD*%
D10*
%TO.P,REF\u002A\u002A,1*%
%TO.N,N/C*%
X179524448Y-114386015D03*
D11*
%TO.P,REF\u002A\u002A,2*%
X179524448Y-116926015D03*
%TO.P,REF\u002A\u002A,3*%
X179524448Y-119466015D03*
%TO.P,REF\u002A\u002A,4*%
X179524448Y-122006015D03*
%TD*%
D10*
%TO.P,REF\u002A\u002A,1*%
%TO.N,N/C*%
X162404448Y-189226015D03*
D11*
%TO.P,REF\u002A\u002A,2*%
X162404448Y-186686015D03*
%TO.P,REF\u002A\u002A,3*%
X162404448Y-184146015D03*
%TO.P,REF\u002A\u002A,4*%
X162404448Y-181606015D03*
%TD*%
D10*
%TO.P,REF\u002A\u002A,1*%
%TO.N,N/C*%
X179534448Y-181486015D03*
D11*
%TO.P,REF\u002A\u002A,2*%
X179534448Y-184026015D03*
%TO.P,REF\u002A\u002A,3*%
X179534448Y-186566015D03*
%TO.P,REF\u002A\u002A,4*%
X179534448Y-189106015D03*
%TD*%
D10*
%TO.P,REF\u002A\u002A,1*%
%TO.N,N/C*%
X43180000Y-147760000D03*
D11*
%TO.P,REF\u002A\u002A,2*%
X43180000Y-150300000D03*
%TO.P,REF\u002A\u002A,3*%
X43180000Y-152840000D03*
%TO.P,REF\u002A\u002A,4*%
X43180000Y-155380000D03*
%TD*%
D10*
%TO.P,REF\u002A\u002A,1*%
%TO.N,N/C*%
X162224448Y-138406015D03*
D11*
%TO.P,REF\u002A\u002A,2*%
X162224448Y-135866015D03*
%TO.P,REF\u002A\u002A,3*%
X162224448Y-133326015D03*
%TO.P,REF\u002A\u002A,4*%
X162224448Y-130786015D03*
%TD*%
D10*
%TO.P,REF\u002A\u002A,1*%
%TO.N,N/C*%
X162284448Y-155816015D03*
D11*
%TO.P,REF\u002A\u002A,2*%
X162284448Y-153276015D03*
%TO.P,REF\u002A\u002A,3*%
X162284448Y-150736015D03*
%TO.P,REF\u002A\u002A,4*%
X162284448Y-148196015D03*
%TD*%
D10*
%TO.P,REF\u002A\u002A,1*%
%TO.N,N/C*%
X133844448Y-148186015D03*
D11*
%TO.P,REF\u002A\u002A,2*%
X133844448Y-150726015D03*
%TO.P,REF\u002A\u002A,3*%
X133844448Y-153266015D03*
%TO.P,REF\u002A\u002A,4*%
X133844448Y-155806015D03*
%TD*%
D10*
%TO.P,REF\u002A\u002A,1*%
%TO.N,N/C*%
X179414448Y-148076015D03*
D11*
%TO.P,REF\u002A\u002A,2*%
X179414448Y-150616015D03*
%TO.P,REF\u002A\u002A,3*%
X179414448Y-153156015D03*
%TO.P,REF\u002A\u002A,4*%
X179414448Y-155696015D03*
%TD*%
D10*
%TO.P,REF\u002A\u002A,1*%
%TO.N,N/C*%
X116714448Y-155926015D03*
D11*
%TO.P,REF\u002A\u002A,2*%
X116714448Y-153386015D03*
%TO.P,REF\u002A\u002A,3*%
X116714448Y-150846015D03*
%TO.P,REF\u002A\u002A,4*%
X116714448Y-148306015D03*
%TD*%
D10*
%TO.P,REF\u002A\u002A,1*%
%TO.N,N/C*%
X179354448Y-130666015D03*
D11*
%TO.P,REF\u002A\u002A,2*%
X179354448Y-133206015D03*
%TO.P,REF\u002A\u002A,3*%
X179354448Y-135746015D03*
%TO.P,REF\u002A\u002A,4*%
X179354448Y-138286015D03*
%TD*%
D12*
%TO.P,REF\u002A\u002A,1*%
%TO.N,N/C*%
X158754448Y-110086015D03*
%TD*%
%TO.P,REF\u002A\u002A,1*%
%TO.N,N/C*%
X188564448Y-160486015D03*
X183484448Y-160486015D03*
%TD*%
D10*
%TO.P,REF\u002A\u002A,1*%
%TO.N,N/C*%
X179394448Y-165636015D03*
D11*
%TO.P,REF\u002A\u002A,2*%
X179394448Y-168176015D03*
%TO.P,REF\u002A\u002A,3*%
X179394448Y-170716015D03*
%TO.P,REF\u002A\u002A,4*%
X179394448Y-173256015D03*
%TD*%
D10*
%TO.P,REF\u002A\u002A,1*%
%TO.N,N/C*%
X162264448Y-173376015D03*
D11*
%TO.P,REF\u002A\u002A,2*%
X162264448Y-170836015D03*
%TO.P,REF\u002A\u002A,3*%
X162264448Y-168296015D03*
%TO.P,REF\u002A\u002A,4*%
X162264448Y-165756015D03*
%TD*%
D10*
%TO.P,REF\u002A\u002A,1*%
%TO.N,N/C*%
X162394448Y-122126015D03*
D11*
%TO.P,REF\u002A\u002A,2*%
X162394448Y-119586015D03*
%TO.P,REF\u002A\u002A,3*%
X162394448Y-117046015D03*
%TO.P,REF\u002A\u002A,4*%
X162394448Y-114506015D03*
%TD*%
D12*
%TO.P,REF\u002A\u002A,1*%
%TO.N,N/C*%
X178574448Y-177886015D03*
%TD*%
%TO.P,REF\u002A\u002A,1*%
%TO.N,N/C*%
X188564448Y-143106015D03*
X183484448Y-143106015D03*
%TD*%
%TO.P,REF\u002A\u002A,1*%
%TO.N,N/C*%
X188564448Y-177786015D03*
X183484448Y-177786015D03*
%TD*%
%TO.P,REF\u002A\u002A,1*%
%TO.N,N/C*%
X178524448Y-143256015D03*
%TD*%
%TO.P,REF\u002A\u002A,1*%
%TO.N,N/C*%
X188564448Y-125806015D03*
X183484448Y-125806015D03*
%TD*%
%TO.P,REF\u002A\u002A,1*%
%TO.N,N/C*%
X178634448Y-160596015D03*
%TD*%
D10*
%TO.P,REF\u002A\u002A,1*%
%TO.N,N/C*%
X133824448Y-165746015D03*
D11*
%TO.P,REF\u002A\u002A,2*%
X133824448Y-168286015D03*
%TO.P,REF\u002A\u002A,3*%
X133824448Y-170826015D03*
%TO.P,REF\u002A\u002A,4*%
X133824448Y-173366015D03*
%TD*%
D12*
%TO.P,REF\u002A\u002A,1*%
%TO.N,N/C*%
X132954448Y-126106015D03*
%TD*%
%TO.P,REF\u002A\u002A,1*%
%TO.N,N/C*%
X142994448Y-125916015D03*
X137914448Y-125916015D03*
%TD*%
%TO.P,REF\u002A\u002A,1*%
%TO.N,N/C*%
X132954448Y-143366015D03*
%TD*%
%TO.P,REF\u002A\u002A,1*%
%TO.N,N/C*%
X133064448Y-160706015D03*
%TD*%
%TO.P,REF\u002A\u002A,1*%
%TO.N,N/C*%
X133004448Y-177996015D03*
%TD*%
D10*
%TO.P,REF\u002A\u002A,1*%
%TO.N,N/C*%
X116694448Y-173486015D03*
D11*
%TO.P,REF\u002A\u002A,2*%
X116694448Y-170946015D03*
%TO.P,REF\u002A\u002A,3*%
X116694448Y-168406015D03*
%TO.P,REF\u002A\u002A,4*%
X116694448Y-165866015D03*
%TD*%
D10*
%TO.P,REF\u002A\u002A,1*%
%TO.N,N/C*%
X116834448Y-189336015D03*
D11*
%TO.P,REF\u002A\u002A,2*%
X116834448Y-186796015D03*
%TO.P,REF\u002A\u002A,3*%
X116834448Y-184256015D03*
%TO.P,REF\u002A\u002A,4*%
X116834448Y-181716015D03*
%TD*%
D12*
%TO.P,REF\u002A\u002A,1*%
%TO.N,N/C*%
X178524448Y-125996015D03*
%TD*%
D10*
%TO.P,REF\u002A\u002A,1*%
%TO.N,N/C*%
X133964448Y-181596015D03*
D11*
%TO.P,REF\u002A\u002A,2*%
X133964448Y-184136015D03*
%TO.P,REF\u002A\u002A,3*%
X133964448Y-186676015D03*
%TO.P,REF\u002A\u002A,4*%
X133964448Y-189216015D03*
%TD*%
D12*
%TO.P,REF\u002A\u002A,1*%
%TO.N,N/C*%
X142994448Y-160596015D03*
X137914448Y-160596015D03*
%TD*%
%TO.P,REF\u002A\u002A,1*%
%TO.N,N/C*%
X142994448Y-177896015D03*
X137914448Y-177896015D03*
%TD*%
%TO.P,REF\u002A\u002A,1*%
%TO.N,N/C*%
X142994448Y-143216015D03*
X137914448Y-143216015D03*
%TD*%
%TO.P,REF\u002A\u002A,1*%
%TO.N,N/C*%
X113184448Y-110196015D03*
%TD*%
D10*
%TO.P,REF\u002A\u002A,1*%
%TO.N,N/C*%
X88750000Y-147650000D03*
D11*
%TO.P,REF\u002A\u002A,2*%
X88750000Y-150190000D03*
%TO.P,REF\u002A\u002A,3*%
X88750000Y-152730000D03*
%TO.P,REF\u002A\u002A,4*%
X88750000Y-155270000D03*
%TD*%
D10*
%TO.P,REF\u002A\u002A,1*%
%TO.N,N/C*%
X88690000Y-130240000D03*
D11*
%TO.P,REF\u002A\u002A,2*%
X88690000Y-132780000D03*
%TO.P,REF\u002A\u002A,3*%
X88690000Y-135320000D03*
%TO.P,REF\u002A\u002A,4*%
X88690000Y-137860000D03*
%TD*%
D10*
%TO.P,REF\u002A\u002A,1*%
%TO.N,N/C*%
X88860000Y-113960000D03*
D11*
%TO.P,REF\u002A\u002A,2*%
X88860000Y-116500000D03*
%TO.P,REF\u002A\u002A,3*%
X88860000Y-119040000D03*
%TO.P,REF\u002A\u002A,4*%
X88860000Y-121580000D03*
%TD*%
D10*
%TO.P,REF\u002A\u002A,1*%
%TO.N,N/C*%
X71560000Y-137980000D03*
D11*
%TO.P,REF\u002A\u002A,2*%
X71560000Y-135440000D03*
%TO.P,REF\u002A\u002A,3*%
X71560000Y-132900000D03*
%TO.P,REF\u002A\u002A,4*%
X71560000Y-130360000D03*
%TD*%
D10*
%TO.P,REF\u002A\u002A,1*%
%TO.N,N/C*%
X88870000Y-181060000D03*
D11*
%TO.P,REF\u002A\u002A,2*%
X88870000Y-183600000D03*
%TO.P,REF\u002A\u002A,3*%
X88870000Y-186140000D03*
%TO.P,REF\u002A\u002A,4*%
X88870000Y-188680000D03*
%TD*%
D10*
%TO.P,REF\u002A\u002A,1*%
%TO.N,N/C*%
X71620000Y-155390000D03*
D11*
%TO.P,REF\u002A\u002A,2*%
X71620000Y-152850000D03*
%TO.P,REF\u002A\u002A,3*%
X71620000Y-150310000D03*
%TO.P,REF\u002A\u002A,4*%
X71620000Y-147770000D03*
%TD*%
D10*
%TO.P,REF\u002A\u002A,1*%
%TO.N,N/C*%
X71740000Y-188800000D03*
D11*
%TO.P,REF\u002A\u002A,2*%
X71740000Y-186260000D03*
%TO.P,REF\u002A\u002A,3*%
X71740000Y-183720000D03*
%TO.P,REF\u002A\u002A,4*%
X71740000Y-181180000D03*
%TD*%
D10*
%TO.P,REF\u002A\u002A,1*%
%TO.N,N/C*%
X88730000Y-165210000D03*
D11*
%TO.P,REF\u002A\u002A,2*%
X88730000Y-167750000D03*
%TO.P,REF\u002A\u002A,3*%
X88730000Y-170290000D03*
%TO.P,REF\u002A\u002A,4*%
X88730000Y-172830000D03*
%TD*%
D10*
%TO.P,REF\u002A\u002A,1*%
%TO.N,N/C*%
X71730000Y-121700000D03*
D11*
%TO.P,REF\u002A\u002A,2*%
X71730000Y-119160000D03*
%TO.P,REF\u002A\u002A,3*%
X71730000Y-116620000D03*
%TO.P,REF\u002A\u002A,4*%
X71730000Y-114080000D03*
%TD*%
D10*
%TO.P,REF\u002A\u002A,1*%
%TO.N,N/C*%
X71600000Y-172950000D03*
D11*
%TO.P,REF\u002A\u002A,2*%
X71600000Y-170410000D03*
%TO.P,REF\u002A\u002A,3*%
X71600000Y-167870000D03*
%TO.P,REF\u002A\u002A,4*%
X71600000Y-165330000D03*
%TD*%
D12*
%TO.P,REF\u002A\u002A,1*%
%TO.N,N/C*%
X87910000Y-177460000D03*
%TD*%
%TO.P,REF\u002A\u002A,1*%
%TO.N,N/C*%
X97900000Y-142680000D03*
X92820000Y-142680000D03*
%TD*%
%TO.P,REF\u002A\u002A,1*%
%TO.N,N/C*%
X87860000Y-142830000D03*
%TD*%
%TO.P,REF\u002A\u002A,1*%
%TO.N,N/C*%
X97900000Y-125380000D03*
X92820000Y-125380000D03*
%TD*%
%TO.P,REF\u002A\u002A,1*%
%TO.N,N/C*%
X97900000Y-177360000D03*
X92820000Y-177360000D03*
%TD*%
%TO.P,REF\u002A\u002A,1*%
%TO.N,N/C*%
X68090000Y-109660000D03*
%TD*%
%TO.P,REF\u002A\u002A,1*%
%TO.N,N/C*%
X97900000Y-160060000D03*
X92820000Y-160060000D03*
%TD*%
%TO.P,REF\u002A\u002A,1*%
%TO.N,N/C*%
X87860000Y-125570000D03*
%TD*%
%TO.P,REF\u002A\u002A,1*%
%TO.N,N/C*%
X87970000Y-160170000D03*
%TD*%
D10*
%TO.P,REF\u002A\u002A,1*%
%TO.N,N/C*%
X26030000Y-173060000D03*
D11*
%TO.P,REF\u002A\u002A,2*%
X26030000Y-170520000D03*
%TO.P,REF\u002A\u002A,3*%
X26030000Y-167980000D03*
%TO.P,REF\u002A\u002A,4*%
X26030000Y-165440000D03*
%TD*%
D10*
%TO.P,REF\u002A\u002A,1*%
%TO.N,N/C*%
X26170000Y-188910000D03*
D11*
%TO.P,REF\u002A\u002A,2*%
X26170000Y-186370000D03*
%TO.P,REF\u002A\u002A,3*%
X26170000Y-183830000D03*
%TO.P,REF\u002A\u002A,4*%
X26170000Y-181290000D03*
%TD*%
D10*
%TO.P,REF\u002A\u002A,1*%
%TO.N,N/C*%
X43160000Y-165320000D03*
D11*
%TO.P,REF\u002A\u002A,2*%
X43160000Y-167860000D03*
%TO.P,REF\u002A\u002A,3*%
X43160000Y-170400000D03*
%TO.P,REF\u002A\u002A,4*%
X43160000Y-172940000D03*
%TD*%
D10*
%TO.P,REF\u002A\u002A,1*%
%TO.N,N/C*%
X43300000Y-181170000D03*
D11*
%TO.P,REF\u002A\u002A,2*%
X43300000Y-183710000D03*
%TO.P,REF\u002A\u002A,3*%
X43300000Y-186250000D03*
%TO.P,REF\u002A\u002A,4*%
X43300000Y-188790000D03*
%TD*%
D12*
%TO.P,REF\u002A\u002A,1*%
%TO.N,N/C*%
X42290000Y-125680000D03*
%TD*%
%TO.P,REF\u002A\u002A,1*%
%TO.N,N/C*%
X42290000Y-142940000D03*
%TD*%
%TO.P,REF\u002A\u002A,1*%
%TO.N,N/C*%
X52330000Y-125490000D03*
X47250000Y-125490000D03*
%TD*%
%TO.P,REF\u002A\u002A,1*%
%TO.N,N/C*%
X22520000Y-109770000D03*
%TD*%
%TO.P,REF\u002A\u002A,1*%
%TO.N,N/C*%
X42340000Y-177570000D03*
%TD*%
%TO.P,REF\u002A\u002A,1*%
%TO.N,N/C*%
X42400000Y-160280000D03*
%TD*%
%TO.P,REF\u002A\u002A,1*%
%TO.N,N/C*%
X52330000Y-160170000D03*
X47250000Y-160170000D03*
%TD*%
%TO.P,REF\u002A\u002A,1*%
%TO.N,N/C*%
X52330000Y-142790000D03*
X47250000Y-142790000D03*
%TD*%
%TO.P,REF\u002A\u002A,1*%
%TO.N,N/C*%
X52330000Y-177470000D03*
X47250000Y-177470000D03*
%TD*%
D10*
%TO.P,REF\u002A\u002A,1*%
%TO.N,N/C*%
X224884448Y-20926015D03*
D11*
%TO.P,REF\u002A\u002A,2*%
X224884448Y-23466015D03*
%TO.P,REF\u002A\u002A,3*%
X224884448Y-26006015D03*
%TO.P,REF\u002A\u002A,4*%
X224884448Y-28546015D03*
%TD*%
D10*
%TO.P,REF\u002A\u002A,1*%
%TO.N,N/C*%
X207764448Y-95766015D03*
D11*
%TO.P,REF\u002A\u002A,2*%
X207764448Y-93226015D03*
%TO.P,REF\u002A\u002A,3*%
X207764448Y-90686015D03*
%TO.P,REF\u002A\u002A,4*%
X207764448Y-88146015D03*
%TD*%
D10*
%TO.P,REF\u002A\u002A,1*%
%TO.N,N/C*%
X224894448Y-88026015D03*
D11*
%TO.P,REF\u002A\u002A,2*%
X224894448Y-90566015D03*
%TO.P,REF\u002A\u002A,3*%
X224894448Y-93106015D03*
%TO.P,REF\u002A\u002A,4*%
X224894448Y-95646015D03*
%TD*%
D10*
%TO.P,REF\u002A\u002A,1*%
%TO.N,N/C*%
X207584448Y-44946015D03*
D11*
%TO.P,REF\u002A\u002A,2*%
X207584448Y-42406015D03*
%TO.P,REF\u002A\u002A,3*%
X207584448Y-39866015D03*
%TO.P,REF\u002A\u002A,4*%
X207584448Y-37326015D03*
%TD*%
D10*
%TO.P,REF\u002A\u002A,1*%
%TO.N,N/C*%
X207644448Y-62356015D03*
D11*
%TO.P,REF\u002A\u002A,2*%
X207644448Y-59816015D03*
%TO.P,REF\u002A\u002A,3*%
X207644448Y-57276015D03*
%TO.P,REF\u002A\u002A,4*%
X207644448Y-54736015D03*
%TD*%
D10*
%TO.P,REF\u002A\u002A,1*%
%TO.N,N/C*%
X224774448Y-54616015D03*
D11*
%TO.P,REF\u002A\u002A,2*%
X224774448Y-57156015D03*
%TO.P,REF\u002A\u002A,3*%
X224774448Y-59696015D03*
%TO.P,REF\u002A\u002A,4*%
X224774448Y-62236015D03*
%TD*%
D10*
%TO.P,REF\u002A\u002A,1*%
%TO.N,N/C*%
X224714448Y-37206015D03*
D11*
%TO.P,REF\u002A\u002A,2*%
X224714448Y-39746015D03*
%TO.P,REF\u002A\u002A,3*%
X224714448Y-42286015D03*
%TO.P,REF\u002A\u002A,4*%
X224714448Y-44826015D03*
%TD*%
D12*
%TO.P,REF\u002A\u002A,1*%
%TO.N,N/C*%
X204114448Y-16626015D03*
%TD*%
%TO.P,REF\u002A\u002A,1*%
%TO.N,N/C*%
X233924448Y-67026015D03*
X228844448Y-67026015D03*
%TD*%
D10*
%TO.P,REF\u002A\u002A,1*%
%TO.N,N/C*%
X224754448Y-72176015D03*
D11*
%TO.P,REF\u002A\u002A,2*%
X224754448Y-74716015D03*
%TO.P,REF\u002A\u002A,3*%
X224754448Y-77256015D03*
%TO.P,REF\u002A\u002A,4*%
X224754448Y-79796015D03*
%TD*%
D10*
%TO.P,REF\u002A\u002A,1*%
%TO.N,N/C*%
X207624448Y-79916015D03*
D11*
%TO.P,REF\u002A\u002A,2*%
X207624448Y-77376015D03*
%TO.P,REF\u002A\u002A,3*%
X207624448Y-74836015D03*
%TO.P,REF\u002A\u002A,4*%
X207624448Y-72296015D03*
%TD*%
D10*
%TO.P,REF\u002A\u002A,1*%
%TO.N,N/C*%
X207754448Y-28666015D03*
D11*
%TO.P,REF\u002A\u002A,2*%
X207754448Y-26126015D03*
%TO.P,REF\u002A\u002A,3*%
X207754448Y-23586015D03*
%TO.P,REF\u002A\u002A,4*%
X207754448Y-21046015D03*
%TD*%
D12*
%TO.P,REF\u002A\u002A,1*%
%TO.N,N/C*%
X223934448Y-84426015D03*
%TD*%
%TO.P,REF\u002A\u002A,1*%
%TO.N,N/C*%
X233924448Y-49646015D03*
X228844448Y-49646015D03*
%TD*%
%TO.P,REF\u002A\u002A,1*%
%TO.N,N/C*%
X233924448Y-84326015D03*
X228844448Y-84326015D03*
%TD*%
%TO.P,REF\u002A\u002A,1*%
%TO.N,N/C*%
X223884448Y-49796015D03*
%TD*%
%TO.P,REF\u002A\u002A,1*%
%TO.N,N/C*%
X233924448Y-32346015D03*
X228844448Y-32346015D03*
%TD*%
%TO.P,REF\u002A\u002A,1*%
%TO.N,N/C*%
X223994448Y-67136015D03*
%TD*%
%TO.P,REF\u002A\u002A,1*%
%TO.N,N/C*%
X223884448Y-32536015D03*
%TD*%
D10*
%TO.P,REF\u002A\u002A,1*%
%TO.N,N/C*%
X133784448Y-37476015D03*
D11*
%TO.P,REF\u002A\u002A,2*%
X133784448Y-40016015D03*
%TO.P,REF\u002A\u002A,3*%
X133784448Y-42556015D03*
%TO.P,REF\u002A\u002A,4*%
X133784448Y-45096015D03*
%TD*%
D10*
%TO.P,REF\u002A\u002A,1*%
%TO.N,N/C*%
X116654448Y-45216015D03*
D11*
%TO.P,REF\u002A\u002A,2*%
X116654448Y-42676015D03*
%TO.P,REF\u002A\u002A,3*%
X116654448Y-40136015D03*
%TO.P,REF\u002A\u002A,4*%
X116654448Y-37596015D03*
%TD*%
%TO.P,REF\u002A\u002A,2*%
%TO.N,N/C*%
X133954448Y-23736015D03*
%TO.P,REF\u002A\u002A,3*%
X133954448Y-26276015D03*
%TO.P,REF\u002A\u002A,4*%
X133954448Y-28816015D03*
%TD*%
D10*
%TO.P,REF\u002A\u002A,1*%
%TO.N,N/C*%
X116824448Y-28936015D03*
D11*
%TO.P,REF\u002A\u002A,2*%
X116824448Y-26396015D03*
%TO.P,REF\u002A\u002A,3*%
X116824448Y-23856015D03*
%TD*%
D10*
%TO.P,REF\u002A\u002A,1*%
%TO.N,N/C*%
X116714448Y-62626015D03*
D11*
%TO.P,REF\u002A\u002A,2*%
X116714448Y-60086015D03*
%TO.P,REF\u002A\u002A,3*%
X116714448Y-57546015D03*
%TO.P,REF\u002A\u002A,4*%
X116714448Y-55006015D03*
%TD*%
D10*
%TO.P,REF\u002A\u002A,1*%
%TO.N,N/C*%
X133844448Y-54886015D03*
D11*
%TO.P,REF\u002A\u002A,2*%
X133844448Y-57426015D03*
%TO.P,REF\u002A\u002A,3*%
X133844448Y-59966015D03*
%TO.P,REF\u002A\u002A,4*%
X133844448Y-62506015D03*
%TD*%
D10*
%TO.P,REF\u002A\u002A,1*%
%TO.N,N/C*%
X179414448Y-54776015D03*
D11*
%TO.P,REF\u002A\u002A,2*%
X179414448Y-57316015D03*
%TO.P,REF\u002A\u002A,3*%
X179414448Y-59856015D03*
%TO.P,REF\u002A\u002A,4*%
X179414448Y-62396015D03*
%TD*%
D10*
%TO.P,REF\u002A\u002A,1*%
%TO.N,N/C*%
X179354448Y-37366015D03*
D11*
%TO.P,REF\u002A\u002A,2*%
X179354448Y-39906015D03*
%TO.P,REF\u002A\u002A,3*%
X179354448Y-42446015D03*
%TO.P,REF\u002A\u002A,4*%
X179354448Y-44986015D03*
%TD*%
D10*
%TO.P,REF\u002A\u002A,1*%
%TO.N,N/C*%
X179524448Y-21086015D03*
D11*
%TO.P,REF\u002A\u002A,2*%
X179524448Y-23626015D03*
%TO.P,REF\u002A\u002A,3*%
X179524448Y-26166015D03*
%TO.P,REF\u002A\u002A,4*%
X179524448Y-28706015D03*
%TD*%
D10*
%TO.P,REF\u002A\u002A,1*%
%TO.N,N/C*%
X162224448Y-45106015D03*
D11*
%TO.P,REF\u002A\u002A,2*%
X162224448Y-42566015D03*
%TO.P,REF\u002A\u002A,3*%
X162224448Y-40026015D03*
%TO.P,REF\u002A\u002A,4*%
X162224448Y-37486015D03*
%TD*%
D10*
%TO.P,REF\u002A\u002A,1*%
%TO.N,N/C*%
X179534448Y-88186015D03*
D11*
%TO.P,REF\u002A\u002A,2*%
X179534448Y-90726015D03*
%TO.P,REF\u002A\u002A,3*%
X179534448Y-93266015D03*
%TO.P,REF\u002A\u002A,4*%
X179534448Y-95806015D03*
%TD*%
D10*
%TO.P,REF\u002A\u002A,1*%
%TO.N,N/C*%
X162284448Y-62516015D03*
D11*
%TO.P,REF\u002A\u002A,2*%
X162284448Y-59976015D03*
%TO.P,REF\u002A\u002A,3*%
X162284448Y-57436015D03*
%TO.P,REF\u002A\u002A,4*%
X162284448Y-54896015D03*
%TD*%
D10*
%TO.P,REF\u002A\u002A,1*%
%TO.N,N/C*%
X162404448Y-95926015D03*
D11*
%TO.P,REF\u002A\u002A,2*%
X162404448Y-93386015D03*
%TO.P,REF\u002A\u002A,3*%
X162404448Y-90846015D03*
%TO.P,REF\u002A\u002A,4*%
X162404448Y-88306015D03*
%TD*%
D10*
%TO.P,REF\u002A\u002A,1*%
%TO.N,N/C*%
X179394448Y-72336015D03*
D11*
%TO.P,REF\u002A\u002A,2*%
X179394448Y-74876015D03*
%TO.P,REF\u002A\u002A,3*%
X179394448Y-77416015D03*
%TO.P,REF\u002A\u002A,4*%
X179394448Y-79956015D03*
%TD*%
D10*
%TO.P,REF\u002A\u002A,1*%
%TO.N,N/C*%
X162394448Y-28826015D03*
D11*
%TO.P,REF\u002A\u002A,2*%
X162394448Y-26286015D03*
%TO.P,REF\u002A\u002A,3*%
X162394448Y-23746015D03*
%TO.P,REF\u002A\u002A,4*%
X162394448Y-21206015D03*
%TD*%
D10*
%TO.P,REF\u002A\u002A,1*%
%TO.N,N/C*%
X162264448Y-80076015D03*
D11*
%TO.P,REF\u002A\u002A,2*%
X162264448Y-77536015D03*
%TO.P,REF\u002A\u002A,3*%
X162264448Y-74996015D03*
%TO.P,REF\u002A\u002A,4*%
X162264448Y-72456015D03*
%TD*%
D12*
%TO.P,REF\u002A\u002A,1*%
%TO.N,N/C*%
X178574448Y-84586015D03*
%TD*%
%TO.P,REF\u002A\u002A,1*%
%TO.N,N/C*%
X188564448Y-49806015D03*
X183484448Y-49806015D03*
%TD*%
%TO.P,REF\u002A\u002A,1*%
%TO.N,N/C*%
X178524448Y-49956015D03*
%TD*%
%TO.P,REF\u002A\u002A,1*%
%TO.N,N/C*%
X188564448Y-32506015D03*
X183484448Y-32506015D03*
%TD*%
%TO.P,REF\u002A\u002A,1*%
%TO.N,N/C*%
X188564448Y-84486015D03*
X183484448Y-84486015D03*
%TD*%
%TO.P,REF\u002A\u002A,1*%
%TO.N,N/C*%
X158754448Y-16786015D03*
%TD*%
%TO.P,REF\u002A\u002A,1*%
%TO.N,N/C*%
X188564448Y-67186015D03*
X183484448Y-67186015D03*
%TD*%
%TO.P,REF\u002A\u002A,1*%
%TO.N,N/C*%
X178524448Y-32696015D03*
%TD*%
%TO.P,REF\u002A\u002A,1*%
%TO.N,N/C*%
X178634448Y-67296015D03*
%TD*%
D10*
%TO.P,REF\u002A\u002A,1*%
%TO.N,N/C*%
X116694448Y-80186015D03*
D11*
%TO.P,REF\u002A\u002A,2*%
X116694448Y-77646015D03*
%TO.P,REF\u002A\u002A,3*%
X116694448Y-75106015D03*
%TO.P,REF\u002A\u002A,4*%
X116694448Y-72566015D03*
%TD*%
D10*
%TO.P,REF\u002A\u002A,1*%
%TO.N,N/C*%
X116834448Y-96036015D03*
D11*
%TO.P,REF\u002A\u002A,2*%
X116834448Y-93496015D03*
%TO.P,REF\u002A\u002A,3*%
X116834448Y-90956015D03*
%TO.P,REF\u002A\u002A,4*%
X116834448Y-88416015D03*
%TD*%
D10*
%TO.P,REF\u002A\u002A,1*%
%TO.N,N/C*%
X133824448Y-72446015D03*
D11*
%TO.P,REF\u002A\u002A,2*%
X133824448Y-74986015D03*
%TO.P,REF\u002A\u002A,3*%
X133824448Y-77526015D03*
%TO.P,REF\u002A\u002A,4*%
X133824448Y-80066015D03*
%TD*%
D10*
%TO.P,REF\u002A\u002A,1*%
%TO.N,N/C*%
X133964448Y-88296015D03*
D11*
%TO.P,REF\u002A\u002A,2*%
X133964448Y-90836015D03*
%TO.P,REF\u002A\u002A,3*%
X133964448Y-93376015D03*
%TO.P,REF\u002A\u002A,4*%
X133964448Y-95916015D03*
%TD*%
D12*
%TO.P,REF\u002A\u002A,1*%
%TO.N,N/C*%
X132954448Y-32806015D03*
%TD*%
%TO.P,REF\u002A\u002A,1*%
%TO.N,N/C*%
X132954448Y-50066015D03*
%TD*%
%TO.P,REF\u002A\u002A,1*%
%TO.N,N/C*%
X142994448Y-32616015D03*
X137914448Y-32616015D03*
%TD*%
%TO.P,REF\u002A\u002A,1*%
%TO.N,N/C*%
X113184448Y-16896015D03*
%TD*%
%TO.P,REF\u002A\u002A,1*%
%TO.N,N/C*%
X133004448Y-84696015D03*
%TD*%
%TO.P,REF\u002A\u002A,1*%
%TO.N,N/C*%
X133064448Y-67406015D03*
%TD*%
%TO.P,REF\u002A\u002A,1*%
%TO.N,N/C*%
X142994448Y-67296015D03*
X137914448Y-67296015D03*
%TD*%
%TO.P,REF\u002A\u002A,1*%
%TO.N,N/C*%
X142994448Y-49916015D03*
X137914448Y-49916015D03*
%TD*%
%TO.P,REF\u002A\u002A,1*%
%TO.N,N/C*%
X142994448Y-84596015D03*
X137914448Y-84596015D03*
%TD*%
D10*
%TO.P,REF\u002A\u002A,1*%
%TO.N,N/C*%
X88690000Y-36940000D03*
D11*
%TO.P,REF\u002A\u002A,2*%
X88690000Y-39480000D03*
%TO.P,REF\u002A\u002A,3*%
X88690000Y-42020000D03*
%TO.P,REF\u002A\u002A,4*%
X88690000Y-44560000D03*
%TD*%
D10*
%TO.P,REF\u002A\u002A,1*%
%TO.N,N/C*%
X71560000Y-44680000D03*
D11*
%TO.P,REF\u002A\u002A,2*%
X71560000Y-42140000D03*
%TO.P,REF\u002A\u002A,3*%
X71560000Y-39600000D03*
%TO.P,REF\u002A\u002A,4*%
X71560000Y-37060000D03*
%TD*%
D10*
%TO.P,REF\u002A\u002A,1*%
%TO.N,N/C*%
X88860000Y-20660000D03*
D11*
%TO.P,REF\u002A\u002A,2*%
X88860000Y-23200000D03*
%TO.P,REF\u002A\u002A,3*%
X88860000Y-25740000D03*
%TO.P,REF\u002A\u002A,4*%
X88860000Y-28280000D03*
%TD*%
D10*
%TO.P,REF\u002A\u002A,1*%
%TO.N,N/C*%
X71730000Y-28400000D03*
D11*
%TO.P,REF\u002A\u002A,2*%
X71730000Y-25860000D03*
%TO.P,REF\u002A\u002A,3*%
X71730000Y-23320000D03*
%TO.P,REF\u002A\u002A,4*%
X71730000Y-20780000D03*
%TD*%
D10*
%TO.P,REF\u002A\u002A,1*%
%TO.N,N/C*%
X71620000Y-62090000D03*
D11*
%TO.P,REF\u002A\u002A,2*%
X71620000Y-59550000D03*
%TO.P,REF\u002A\u002A,3*%
X71620000Y-57010000D03*
%TO.P,REF\u002A\u002A,4*%
X71620000Y-54470000D03*
%TD*%
D10*
%TO.P,REF\u002A\u002A,1*%
%TO.N,N/C*%
X88750000Y-54350000D03*
D11*
%TO.P,REF\u002A\u002A,2*%
X88750000Y-56890000D03*
%TO.P,REF\u002A\u002A,3*%
X88750000Y-59430000D03*
%TO.P,REF\u002A\u002A,4*%
X88750000Y-61970000D03*
%TD*%
D10*
%TO.P,REF\u002A\u002A,1*%
%TO.N,N/C*%
X71600000Y-79650000D03*
D11*
%TO.P,REF\u002A\u002A,2*%
X71600000Y-77110000D03*
%TO.P,REF\u002A\u002A,3*%
X71600000Y-74570000D03*
%TO.P,REF\u002A\u002A,4*%
X71600000Y-72030000D03*
%TD*%
D10*
%TO.P,REF\u002A\u002A,1*%
%TO.N,N/C*%
X71740000Y-95500000D03*
D11*
%TO.P,REF\u002A\u002A,2*%
X71740000Y-92960000D03*
%TO.P,REF\u002A\u002A,3*%
X71740000Y-90420000D03*
%TO.P,REF\u002A\u002A,4*%
X71740000Y-87880000D03*
%TD*%
D10*
%TO.P,REF\u002A\u002A,1*%
%TO.N,N/C*%
X88730000Y-71910000D03*
D11*
%TO.P,REF\u002A\u002A,2*%
X88730000Y-74450000D03*
%TO.P,REF\u002A\u002A,3*%
X88730000Y-76990000D03*
%TO.P,REF\u002A\u002A,4*%
X88730000Y-79530000D03*
%TD*%
D10*
%TO.P,REF\u002A\u002A,1*%
%TO.N,N/C*%
X88870000Y-87760000D03*
D11*
%TO.P,REF\u002A\u002A,2*%
X88870000Y-90300000D03*
%TO.P,REF\u002A\u002A,3*%
X88870000Y-92840000D03*
%TO.P,REF\u002A\u002A,4*%
X88870000Y-95380000D03*
%TD*%
D12*
%TO.P,REF\u002A\u002A,1*%
%TO.N,N/C*%
X87860000Y-32270000D03*
%TD*%
%TO.P,REF\u002A\u002A,1*%
%TO.N,N/C*%
X87860000Y-49530000D03*
%TD*%
%TO.P,REF\u002A\u002A,1*%
%TO.N,N/C*%
X97900000Y-32080000D03*
X92820000Y-32080000D03*
%TD*%
%TO.P,REF\u002A\u002A,1*%
%TO.N,N/C*%
X68090000Y-16360000D03*
%TD*%
%TO.P,REF\u002A\u002A,1*%
%TO.N,N/C*%
X87910000Y-84160000D03*
%TD*%
%TO.P,REF\u002A\u002A,1*%
%TO.N,N/C*%
X87970000Y-66870000D03*
%TD*%
%TO.P,REF\u002A\u002A,1*%
%TO.N,N/C*%
X97900000Y-66760000D03*
X92820000Y-66760000D03*
%TD*%
%TO.P,REF\u002A\u002A,1*%
%TO.N,N/C*%
X97900000Y-49380000D03*
X92820000Y-49380000D03*
%TD*%
%TO.P,REF\u002A\u002A,1*%
%TO.N,N/C*%
X97900000Y-84060000D03*
X92820000Y-84060000D03*
%TD*%
D10*
%TO.P,REF\u002A\u002A,1*%
%TO.N,N/C*%
X43300000Y-87870000D03*
D11*
%TO.P,REF\u002A\u002A,2*%
X43300000Y-90410000D03*
%TO.P,REF\u002A\u002A,3*%
X43300000Y-92950000D03*
%TO.P,REF\u002A\u002A,4*%
X43300000Y-95490000D03*
%TD*%
D10*
%TO.P,REF\u002A\u002A,1*%
%TO.N,N/C*%
X26170000Y-95610000D03*
D11*
%TO.P,REF\u002A\u002A,2*%
X26170000Y-93070000D03*
%TO.P,REF\u002A\u002A,3*%
X26170000Y-90530000D03*
%TO.P,REF\u002A\u002A,4*%
X26170000Y-87990000D03*
%TD*%
D10*
%TO.P,REF\u002A\u002A,1*%
%TO.N,N/C*%
X43160000Y-72020000D03*
D11*
%TO.P,REF\u002A\u002A,2*%
X43160000Y-74560000D03*
%TO.P,REF\u002A\u002A,3*%
X43160000Y-77100000D03*
%TO.P,REF\u002A\u002A,4*%
X43160000Y-79640000D03*
%TD*%
D10*
%TO.P,REF\u002A\u002A,1*%
%TO.N,N/C*%
X26030000Y-79760000D03*
D11*
%TO.P,REF\u002A\u002A,2*%
X26030000Y-77220000D03*
%TO.P,REF\u002A\u002A,3*%
X26030000Y-74680000D03*
%TO.P,REF\u002A\u002A,4*%
X26030000Y-72140000D03*
%TD*%
D10*
%TO.P,REF\u002A\u002A,1*%
%TO.N,N/C*%
X43180000Y-54460000D03*
D11*
%TO.P,REF\u002A\u002A,2*%
X43180000Y-57000000D03*
%TO.P,REF\u002A\u002A,3*%
X43180000Y-59540000D03*
%TO.P,REF\u002A\u002A,4*%
X43180000Y-62080000D03*
%TD*%
D10*
%TO.P,REF\u002A\u002A,1*%
%TO.N,N/C*%
X26050000Y-62200000D03*
D11*
%TO.P,REF\u002A\u002A,2*%
X26050000Y-59660000D03*
%TO.P,REF\u002A\u002A,3*%
X26050000Y-57120000D03*
%TO.P,REF\u002A\u002A,4*%
X26050000Y-54580000D03*
%TD*%
D10*
%TO.P,REF\u002A\u002A,1*%
%TO.N,N/C*%
X43120000Y-37050000D03*
D11*
%TO.P,REF\u002A\u002A,2*%
X43120000Y-39590000D03*
%TO.P,REF\u002A\u002A,3*%
X43120000Y-42130000D03*
%TO.P,REF\u002A\u002A,4*%
X43120000Y-44670000D03*
%TD*%
D10*
%TO.P,REF\u002A\u002A,1*%
%TO.N,N/C*%
X25990000Y-44790000D03*
D11*
%TO.P,REF\u002A\u002A,2*%
X25990000Y-42250000D03*
%TO.P,REF\u002A\u002A,3*%
X25990000Y-39710000D03*
%TO.P,REF\u002A\u002A,4*%
X25990000Y-37170000D03*
%TD*%
D10*
%TO.P,REF\u002A\u002A,1*%
%TO.N,N/C*%
X43290000Y-20770000D03*
D11*
%TO.P,REF\u002A\u002A,2*%
X43290000Y-23310000D03*
%TO.P,REF\u002A\u002A,3*%
X43290000Y-25850000D03*
%TO.P,REF\u002A\u002A,4*%
X43290000Y-28390000D03*
%TD*%
D10*
%TO.P,REF\u002A\u002A,1*%
%TO.N,N/C*%
X26160000Y-28510000D03*
D11*
%TO.P,REF\u002A\u002A,2*%
X26160000Y-25970000D03*
%TO.P,REF\u002A\u002A,3*%
X26160000Y-23430000D03*
%TO.P,REF\u002A\u002A,4*%
X26160000Y-20890000D03*
%TD*%
D12*
%TO.P,REF\u002A\u002A,1*%
%TO.N,N/C*%
X22520000Y-16470000D03*
%TD*%
%TO.P,REF\u002A\u002A,1*%
%TO.N,N/C*%
X52330000Y-32190000D03*
X47250000Y-32190000D03*
%TD*%
%TO.P,REF\u002A\u002A,1*%
%TO.N,N/C*%
X42290000Y-49640000D03*
%TD*%
%TO.P,REF\u002A\u002A,1*%
%TO.N,N/C*%
X42290000Y-32380000D03*
%TD*%
%TO.P,REF\u002A\u002A,1*%
%TO.N,N/C*%
X52330000Y-49490000D03*
X47250000Y-49490000D03*
%TD*%
%TO.P,REF\u002A\u002A,1*%
%TO.N,N/C*%
X52330000Y-84170000D03*
X47250000Y-84170000D03*
%TD*%
%TO.P,REF\u002A\u002A,1*%
%TO.N,N/C*%
X42400000Y-66980000D03*
%TD*%
%TO.P,REF\u002A\u002A,1*%
%TO.N,N/C*%
X52330000Y-66870000D03*
X47250000Y-66870000D03*
%TD*%
%TO.P,REF\u002A\u002A,1*%
%TO.N,N/C*%
X42340000Y-84270000D03*
%TD*%
D13*
%TO.N,*%
X133824448Y-170826015D02*
X133824448Y-173366015D01*
D14*
X179534448Y-184026015D02*
X179534448Y-181486015D01*
X224894448Y-188946015D02*
X224894448Y-186406015D01*
D13*
X205426015Y-186526015D02*
X207764448Y-186526015D01*
X204114448Y-109926015D02*
X204114448Y-185214448D01*
X204114448Y-185214448D02*
X205426015Y-186526015D01*
X160776015Y-181606015D02*
X162404448Y-181606015D01*
X158754448Y-110086015D02*
X158754448Y-179584448D01*
X158754448Y-179584448D02*
X160776015Y-181606015D01*
D14*
X162344448Y-135746015D02*
X162224448Y-135866015D01*
X179354448Y-135746015D02*
X162344448Y-135746015D01*
D13*
X142920463Y-170826015D02*
X133824448Y-170826015D01*
X142994448Y-170900000D02*
X142920463Y-170826015D01*
X142994448Y-170900000D02*
X142994448Y-143216015D01*
X142994448Y-177896015D02*
X142994448Y-170900000D01*
X114196015Y-170946015D02*
X116694448Y-170946015D01*
X112604448Y-110776015D02*
X112604448Y-169354448D01*
X113184448Y-110196015D02*
X112604448Y-110776015D01*
X112604448Y-169354448D02*
X114196015Y-170946015D01*
D14*
X116774448Y-130776015D02*
X116654448Y-130896015D01*
X133784448Y-130776015D02*
X116774448Y-130776015D01*
X88730000Y-167750000D02*
X88730000Y-165210000D01*
D13*
X68090000Y-163070000D02*
X70350000Y-165330000D01*
X70350000Y-165330000D02*
X71600000Y-165330000D01*
X68090000Y-109660000D02*
X68090000Y-163070000D01*
D14*
X88860000Y-119040000D02*
X71850000Y-119040000D01*
X71850000Y-119040000D02*
X71730000Y-119160000D01*
X43180000Y-152840000D02*
X43180000Y-155380000D01*
D13*
X20420000Y-150470000D02*
X22910000Y-152960000D01*
X20420000Y-112650000D02*
X20420000Y-150470000D01*
X22910000Y-152960000D02*
X26050000Y-152960000D01*
X22520000Y-109770000D02*
X22520000Y-110550000D01*
X22520000Y-110550000D02*
X20420000Y-112650000D01*
D14*
X207874448Y-114226015D02*
X207754448Y-114346015D01*
X224884448Y-114226015D02*
X207874448Y-114226015D01*
X207874448Y-119306015D02*
X207754448Y-119426015D01*
X224884448Y-119306015D02*
X207874448Y-119306015D01*
X116944448Y-114496015D02*
X116824448Y-114616015D01*
X133954448Y-114496015D02*
X116944448Y-114496015D01*
X207874448Y-20926015D02*
X207754448Y-21046015D01*
X224884448Y-20926015D02*
X207874448Y-20926015D01*
X207874448Y-26006015D02*
X207754448Y-26126015D01*
X224884448Y-26006015D02*
X207874448Y-26006015D01*
X26160000Y-114190000D02*
X43170000Y-114190000D01*
D13*
X233924448Y-137736015D02*
X233924448Y-134676015D01*
X233924448Y-142946015D02*
X233924448Y-137736015D01*
D14*
X43300000Y-181170000D02*
X26290000Y-181170000D01*
X88860000Y-113960000D02*
X71850000Y-113960000D01*
X43180000Y-150300000D02*
X26170000Y-150300000D01*
X43180000Y-147760000D02*
X26170000Y-147760000D01*
X43290000Y-121690000D02*
X26280000Y-121690000D01*
X26280000Y-116610000D02*
X26160000Y-116730000D01*
X43290000Y-116610000D02*
X26280000Y-116610000D01*
X179524448Y-114386015D02*
X162514448Y-114386015D01*
X207584448Y-138246015D02*
X224594448Y-138246015D01*
X162514448Y-114386015D02*
X162394448Y-114506015D01*
X43180000Y-155380000D02*
X26170000Y-155380000D01*
X43160000Y-170400000D02*
X26150000Y-170400000D01*
X43160000Y-167860000D02*
X26150000Y-167860000D01*
X43300000Y-183710000D02*
X26290000Y-183710000D01*
X43120000Y-137970000D02*
X26110000Y-137970000D01*
X43120000Y-132890000D02*
X26110000Y-132890000D01*
X116944448Y-117036015D02*
X116824448Y-117156015D01*
X133964448Y-184136015D02*
X116954448Y-184136015D01*
X133844448Y-155806015D02*
X116834448Y-155806015D01*
D13*
X162321948Y-173356015D02*
X179266948Y-173356015D01*
X183484448Y-125806015D02*
X178714448Y-125806015D01*
X162369448Y-155756015D02*
X179339448Y-155756015D01*
X162484448Y-186826015D02*
X162354448Y-186956015D01*
D14*
X179354448Y-130666015D02*
X162344448Y-130666015D01*
X179414448Y-150616015D02*
X162404448Y-150616015D01*
X179414448Y-153156015D02*
X162404448Y-153156015D01*
D13*
X179129448Y-189306015D02*
X162119448Y-189306015D01*
X188564448Y-177786015D02*
X188564448Y-143106015D01*
D14*
X133824448Y-173366015D02*
X116814448Y-173366015D01*
X179534448Y-189106015D02*
X162524448Y-189106015D01*
X133784448Y-138396015D02*
X116774448Y-138396015D01*
X133844448Y-153266015D02*
X116834448Y-153266015D01*
X133954448Y-122116015D02*
X116944448Y-122116015D01*
X179534448Y-186566015D02*
X162524448Y-186566015D01*
X133954448Y-117036015D02*
X116944448Y-117036015D01*
X179394448Y-165636015D02*
X162384448Y-165636015D01*
X133784448Y-133316015D02*
X116774448Y-133316015D01*
D13*
X162224448Y-138406015D02*
X179194448Y-138406015D01*
X188564448Y-125806015D02*
X188564448Y-134836015D01*
X183484448Y-143106015D02*
X178674448Y-143106015D01*
D14*
X133824448Y-168286015D02*
X116814448Y-168286015D01*
D13*
X228844448Y-142946015D02*
X224034448Y-142946015D01*
X228844448Y-125646015D02*
X224074448Y-125646015D01*
X233924448Y-125646015D02*
X233924448Y-134676015D01*
D14*
X224754448Y-165476015D02*
X207744448Y-165476015D01*
X224774448Y-152996015D02*
X207764448Y-152996015D01*
X224714448Y-130506015D02*
X207704448Y-130506015D01*
D13*
X207729448Y-155596015D02*
X224699448Y-155596015D01*
X224489448Y-189146015D02*
X207479448Y-189146015D01*
X207681948Y-173196015D02*
X224626948Y-173196015D01*
D14*
X224774448Y-150456015D02*
X207764448Y-150456015D01*
X224894448Y-188946015D02*
X207884448Y-188946015D01*
D13*
X207844448Y-186666015D02*
X207714448Y-186796015D01*
D14*
X224894448Y-181326015D02*
X207884448Y-181326015D01*
X207874448Y-116766015D02*
X207754448Y-116886015D01*
D13*
X71657500Y-172930000D02*
X88602500Y-172930000D01*
X92820000Y-125380000D02*
X88050000Y-125380000D01*
X71820000Y-186400000D02*
X71690000Y-186530000D01*
D14*
X88870000Y-188680000D02*
X71860000Y-188680000D01*
D13*
X71560000Y-137980000D02*
X88530000Y-137980000D01*
D14*
X88750000Y-152730000D02*
X71740000Y-152730000D01*
D13*
X71705000Y-155330000D02*
X88675000Y-155330000D01*
D14*
X88690000Y-135320000D02*
X71680000Y-135320000D01*
D13*
X97900000Y-125380000D02*
X97900000Y-134410000D01*
D14*
X88690000Y-130240000D02*
X71680000Y-130240000D01*
D13*
X97900000Y-142680000D02*
X97900000Y-134410000D01*
X88465000Y-188880000D02*
X71455000Y-188880000D01*
X97900000Y-177360000D02*
X97900000Y-142680000D01*
D14*
X88870000Y-186140000D02*
X71860000Y-186140000D01*
D13*
X92820000Y-142680000D02*
X88010000Y-142680000D01*
D14*
X133844448Y-148186015D02*
X116834448Y-148186015D01*
X133964448Y-181596015D02*
X116954448Y-181596015D01*
X133844448Y-150726015D02*
X116834448Y-150726015D01*
X43160000Y-172940000D02*
X26150000Y-172940000D01*
X43120000Y-130350000D02*
X26110000Y-130350000D01*
X88870000Y-181060000D02*
X71860000Y-181060000D01*
X88750000Y-150190000D02*
X71740000Y-150190000D01*
X88690000Y-137860000D02*
X71680000Y-137860000D01*
X88750000Y-155270000D02*
X71740000Y-155270000D01*
X88730000Y-172830000D02*
X71720000Y-172830000D01*
X88730000Y-167750000D02*
X71720000Y-167750000D01*
X88870000Y-183600000D02*
X71860000Y-183600000D01*
X88730000Y-170290000D02*
X71720000Y-170290000D01*
X88690000Y-132780000D02*
X71680000Y-132780000D01*
X88750000Y-147650000D02*
X71740000Y-147650000D01*
X88860000Y-116500000D02*
X71850000Y-116500000D01*
X88860000Y-121580000D02*
X71850000Y-121580000D01*
D13*
X233924448Y-147986015D02*
X233854448Y-147916015D01*
X233924448Y-147986015D02*
X233924448Y-142946015D01*
X233924448Y-177626015D02*
X233924448Y-147986015D01*
X233854448Y-147916015D02*
X224774448Y-147916015D01*
X142994448Y-125916015D02*
X142994448Y-130776015D01*
D14*
X43160000Y-165320000D02*
X26150000Y-165320000D01*
D13*
X188564448Y-143106015D02*
X188564448Y-137896015D01*
X188564448Y-137896015D02*
X188564448Y-134836015D01*
D14*
X207584448Y-135706015D02*
X224594448Y-135706015D01*
X43290000Y-119150000D02*
X26280000Y-119150000D01*
D13*
X52330000Y-125490000D02*
X52330000Y-123450000D01*
X26135000Y-155440000D02*
X43105000Y-155440000D01*
X52330000Y-142790000D02*
X52330000Y-134520000D01*
X52330000Y-177470000D02*
X52330000Y-142790000D01*
D14*
X43300000Y-186250000D02*
X26290000Y-186250000D01*
D13*
X97900000Y-177360000D02*
X92820000Y-177360000D01*
X88010000Y-177360000D02*
X87910000Y-177460000D01*
X92820000Y-160060000D02*
X88080000Y-160060000D01*
X95180000Y-142680000D02*
X92820000Y-142680000D01*
X97900000Y-142680000D02*
X95180000Y-142680000D01*
X88010000Y-142680000D02*
X87860000Y-142830000D01*
X92820000Y-177360000D02*
X88010000Y-177360000D01*
X97900000Y-125380000D02*
X92820000Y-125380000D01*
X97900000Y-160060000D02*
X92820000Y-160060000D01*
X88080000Y-160060000D02*
X87970000Y-160170000D01*
X88050000Y-125380000D02*
X87860000Y-125570000D01*
X133174448Y-160596015D02*
X133064448Y-160706015D01*
X140274448Y-143216015D02*
X137914448Y-143216015D01*
X137914448Y-125916015D02*
X133144448Y-125916015D01*
X137914448Y-143216015D02*
X133104448Y-143216015D01*
X137914448Y-160596015D02*
X133174448Y-160596015D01*
X133104448Y-177896015D02*
X133004448Y-177996015D01*
X142994448Y-125916015D02*
X137914448Y-125916015D01*
X142994448Y-160596015D02*
X137914448Y-160596015D01*
X133144448Y-125916015D02*
X132954448Y-126106015D01*
X142994448Y-143216015D02*
X140274448Y-143216015D01*
X133104448Y-143216015D02*
X132954448Y-143366015D01*
X137914448Y-177896015D02*
X133104448Y-177896015D01*
X142994448Y-177896015D02*
X137914448Y-177896015D01*
X116751948Y-173466015D02*
X133696948Y-173466015D01*
X142994448Y-125916015D02*
X142994448Y-134946015D01*
X116654448Y-138516015D02*
X133624448Y-138516015D01*
X133559448Y-189416015D02*
X116549448Y-189416015D01*
X116914448Y-186936015D02*
X116784448Y-187066015D01*
D14*
X179414448Y-155696015D02*
X162404448Y-155696015D01*
X179394448Y-173256015D02*
X162384448Y-173256015D01*
X179534448Y-184026015D02*
X162524448Y-184026015D01*
X179354448Y-133206015D02*
X162344448Y-133206015D01*
X133964448Y-186676015D02*
X116954448Y-186676015D01*
D13*
X183484448Y-177786015D02*
X178674448Y-177786015D01*
X178674448Y-177786015D02*
X178574448Y-177886015D01*
D14*
X179524448Y-122006015D02*
X162514448Y-122006015D01*
X179394448Y-170716015D02*
X162384448Y-170716015D01*
X179414448Y-148076015D02*
X162404448Y-148076015D01*
D13*
X185844448Y-143106015D02*
X183484448Y-143106015D01*
X188564448Y-160486015D02*
X183484448Y-160486015D01*
D14*
X133954448Y-119576015D02*
X116944448Y-119576015D01*
X133964448Y-189216015D02*
X116954448Y-189216015D01*
D13*
X188564448Y-177786015D02*
X183484448Y-177786015D01*
X188564448Y-125806015D02*
X183484448Y-125806015D01*
X183484448Y-160486015D02*
X178744448Y-160486015D01*
X178744448Y-160486015D02*
X178634448Y-160596015D01*
D14*
X133824448Y-165746015D02*
X116814448Y-165746015D01*
D13*
X142994448Y-143216015D02*
X142994448Y-134946015D01*
X188564448Y-143106015D02*
X185844448Y-143106015D01*
X178714448Y-125806015D02*
X178524448Y-125996015D01*
D14*
X133784448Y-135856015D02*
X116774448Y-135856015D01*
X179524448Y-116926015D02*
X162514448Y-116926015D01*
D13*
X116799448Y-155866015D02*
X133769448Y-155866015D01*
D14*
X179394448Y-168176015D02*
X162384448Y-168176015D01*
D13*
X178674448Y-143106015D02*
X178524448Y-143256015D01*
D14*
X179354448Y-138286015D02*
X162344448Y-138286015D01*
X43300000Y-188790000D02*
X26290000Y-188790000D01*
X43120000Y-135430000D02*
X26110000Y-135430000D01*
X179524448Y-119466015D02*
X162514448Y-119466015D01*
D13*
X224774448Y-147916015D02*
X224774448Y-150456015D01*
X25990000Y-138090000D02*
X42960000Y-138090000D01*
X26250000Y-186510000D02*
X26120000Y-186640000D01*
X42895000Y-188990000D02*
X25885000Y-188990000D01*
X52330000Y-125490000D02*
X52330000Y-134520000D01*
X26087500Y-173040000D02*
X43032500Y-173040000D01*
X47250000Y-142790000D02*
X42440000Y-142790000D01*
X47250000Y-125490000D02*
X42480000Y-125490000D01*
X52330000Y-160170000D02*
X47250000Y-160170000D01*
X42510000Y-160170000D02*
X42400000Y-160280000D01*
X42480000Y-125490000D02*
X42290000Y-125680000D01*
X52330000Y-177470000D02*
X47250000Y-177470000D01*
X42440000Y-177470000D02*
X42340000Y-177570000D01*
X47250000Y-160170000D02*
X42510000Y-160170000D01*
X49610000Y-142790000D02*
X47250000Y-142790000D01*
X52330000Y-125490000D02*
X47250000Y-125490000D01*
X52330000Y-142790000D02*
X49610000Y-142790000D01*
X42440000Y-142790000D02*
X42290000Y-142940000D01*
X47250000Y-177470000D02*
X42440000Y-177470000D01*
D14*
X224754448Y-168016015D02*
X207744448Y-168016015D01*
D13*
X233924448Y-160326015D02*
X228844448Y-160326015D01*
X233924448Y-177626015D02*
X228844448Y-177626015D01*
D14*
X224754448Y-170556015D02*
X207744448Y-170556015D01*
D13*
X228844448Y-160326015D02*
X224104448Y-160326015D01*
D14*
X224884448Y-121846015D02*
X207874448Y-121846015D01*
X224754448Y-173096015D02*
X207744448Y-173096015D01*
D13*
X224034448Y-177626015D02*
X223934448Y-177726015D01*
X233924448Y-125646015D02*
X228844448Y-125646015D01*
D14*
X224774448Y-155536015D02*
X207764448Y-155536015D01*
X224894448Y-183866015D02*
X207884448Y-183866015D01*
X224884448Y-116766015D02*
X207874448Y-116766015D01*
X224714448Y-133046015D02*
X207704448Y-133046015D01*
D13*
X228844448Y-177626015D02*
X224034448Y-177626015D01*
X224074448Y-125646015D02*
X223884448Y-125836015D01*
X224034448Y-142946015D02*
X223884448Y-143096015D01*
X231204448Y-142946015D02*
X228844448Y-142946015D01*
X224104448Y-160326015D02*
X223994448Y-160436015D01*
X233924448Y-142946015D02*
X231204448Y-142946015D01*
X224774448Y-54616015D02*
X224774448Y-57156015D01*
X233924448Y-54686015D02*
X233854448Y-54616015D01*
X233924448Y-54686015D02*
X233924448Y-49646015D01*
X233924448Y-84326015D02*
X233924448Y-54686015D01*
X233854448Y-54616015D02*
X224774448Y-54616015D01*
D14*
X207584448Y-44946015D02*
X224594448Y-44946015D01*
D13*
X204114448Y-53236015D02*
X205614448Y-54736015D01*
X205614448Y-54736015D02*
X207644448Y-54736015D01*
X204114448Y-16626015D02*
X204114448Y-53236015D01*
D14*
X207584448Y-42406015D02*
X224594448Y-42406015D01*
X162514448Y-21086015D02*
X162394448Y-21206015D01*
X179524448Y-21086015D02*
X162514448Y-21086015D01*
X179524448Y-26166015D02*
X162514448Y-26166015D01*
D13*
X207681948Y-79896015D02*
X224626948Y-79896015D01*
X228844448Y-32346015D02*
X224074448Y-32346015D01*
X207729448Y-62296015D02*
X224699448Y-62296015D01*
X207844448Y-93366015D02*
X207714448Y-93496015D01*
D14*
X224714448Y-37206015D02*
X207704448Y-37206015D01*
X224774448Y-57156015D02*
X207764448Y-57156015D01*
X224774448Y-59696015D02*
X207764448Y-59696015D01*
D13*
X224489448Y-95846015D02*
X207479448Y-95846015D01*
D14*
X224894448Y-88026015D02*
X207884448Y-88026015D01*
X224894448Y-95646015D02*
X207884448Y-95646015D01*
X207874448Y-23466015D02*
X207754448Y-23586015D01*
X224894448Y-93106015D02*
X207884448Y-93106015D01*
X224754448Y-72176015D02*
X207744448Y-72176015D01*
D13*
X233924448Y-32346015D02*
X233924448Y-41376015D01*
X228844448Y-49646015D02*
X224034448Y-49646015D01*
X233924448Y-49646015D02*
X233924448Y-44436015D01*
X233924448Y-44436015D02*
X233924448Y-41376015D01*
D14*
X224774448Y-62236015D02*
X207764448Y-62236015D01*
X224754448Y-79796015D02*
X207744448Y-79796015D01*
X224894448Y-90566015D02*
X207884448Y-90566015D01*
X224714448Y-39746015D02*
X207704448Y-39746015D01*
D13*
X228844448Y-84326015D02*
X224034448Y-84326015D01*
X224034448Y-84326015D02*
X223934448Y-84426015D01*
D14*
X224884448Y-28546015D02*
X207874448Y-28546015D01*
X224754448Y-77256015D02*
X207744448Y-77256015D01*
D13*
X231204448Y-49646015D02*
X228844448Y-49646015D01*
X233924448Y-67026015D02*
X228844448Y-67026015D01*
X233924448Y-84326015D02*
X228844448Y-84326015D01*
X233924448Y-32346015D02*
X228844448Y-32346015D01*
X228844448Y-67026015D02*
X224104448Y-67026015D01*
X224104448Y-67026015D02*
X223994448Y-67136015D01*
X233924448Y-49646015D02*
X231204448Y-49646015D01*
X224074448Y-32346015D02*
X223884448Y-32536015D01*
D14*
X224884448Y-23466015D02*
X207874448Y-23466015D01*
X224754448Y-74716015D02*
X207744448Y-74716015D01*
D13*
X224034448Y-49646015D02*
X223884448Y-49796015D01*
X188564448Y-44596015D02*
X188564448Y-41536015D01*
X188564448Y-44596015D02*
X188174448Y-44986015D01*
X188174448Y-44986015D02*
X179354448Y-44986015D01*
X188564448Y-49806015D02*
X188564448Y-44596015D01*
D14*
X179354448Y-44986015D02*
X179354448Y-42446015D01*
D13*
X133784448Y-37476015D02*
X133784448Y-40016015D01*
X160424448Y-42566015D02*
X162224448Y-42566015D01*
X158754448Y-40896015D02*
X160424448Y-42566015D01*
X158754448Y-16786015D02*
X158754448Y-40896015D01*
X142994448Y-32616015D02*
X142994448Y-37476015D01*
X142994448Y-37476015D02*
X133784448Y-37476015D01*
X69658433Y-25860000D02*
X71730000Y-25860000D01*
X68090000Y-16360000D02*
X68090000Y-24291567D01*
X68090000Y-24291567D02*
X69658433Y-25860000D01*
D14*
X88860000Y-20660000D02*
X71850000Y-20660000D01*
D13*
X112604448Y-33546015D02*
X116654448Y-37596015D01*
X112604448Y-17476015D02*
X112604448Y-33546015D01*
X113184448Y-16896015D02*
X112604448Y-17476015D01*
D14*
X133964448Y-88296015D02*
X116954448Y-88296015D01*
X133844448Y-57426015D02*
X116834448Y-57426015D01*
X133844448Y-54886015D02*
X116834448Y-54886015D01*
X133954448Y-28816015D02*
X116944448Y-28816015D01*
X116944448Y-23736015D02*
X116824448Y-23856015D01*
X133954448Y-23736015D02*
X116944448Y-23736015D01*
X133844448Y-62506015D02*
X116834448Y-62506015D01*
X133824448Y-77526015D02*
X116814448Y-77526015D01*
X133824448Y-74986015D02*
X116814448Y-74986015D01*
X133964448Y-90836015D02*
X116954448Y-90836015D01*
X133784448Y-45096015D02*
X116774448Y-45096015D01*
X133784448Y-40016015D02*
X116774448Y-40016015D01*
D13*
X162321948Y-80056015D02*
X179266948Y-80056015D01*
X183484448Y-32506015D02*
X178714448Y-32506015D01*
X162484448Y-93526015D02*
X162354448Y-93656015D01*
D14*
X179534448Y-95806015D02*
X162524448Y-95806015D01*
D13*
X162224448Y-45106015D02*
X179194448Y-45106015D01*
D14*
X179414448Y-59856015D02*
X162404448Y-59856015D01*
D13*
X162369448Y-62456015D02*
X179339448Y-62456015D01*
X188564448Y-32506015D02*
X188564448Y-41536015D01*
D14*
X179354448Y-37366015D02*
X162344448Y-37366015D01*
X179394448Y-72336015D02*
X162384448Y-72336015D01*
D13*
X179129448Y-96006015D02*
X162119448Y-96006015D01*
X188564448Y-84486015D02*
X188564448Y-49806015D01*
D14*
X179534448Y-93266015D02*
X162524448Y-93266015D01*
D13*
X183484448Y-49806015D02*
X178674448Y-49806015D01*
D14*
X133824448Y-80066015D02*
X116814448Y-80066015D01*
X133844448Y-59966015D02*
X116834448Y-59966015D01*
X179534448Y-88186015D02*
X162524448Y-88186015D01*
X179414448Y-57316015D02*
X162404448Y-57316015D01*
X179354448Y-44986015D02*
X162344448Y-44986015D01*
X179414448Y-62396015D02*
X162404448Y-62396015D01*
X179394448Y-79956015D02*
X162384448Y-79956015D01*
X179394448Y-74876015D02*
X162384448Y-74876015D01*
X179534448Y-90726015D02*
X162524448Y-90726015D01*
X179394448Y-77416015D02*
X162384448Y-77416015D01*
X179354448Y-39906015D02*
X162344448Y-39906015D01*
X179414448Y-54776015D02*
X162404448Y-54776015D01*
X179524448Y-23626015D02*
X162514448Y-23626015D01*
X179524448Y-28706015D02*
X162514448Y-28706015D01*
X133824448Y-72446015D02*
X116814448Y-72446015D01*
X133954448Y-26276015D02*
X116944448Y-26276015D01*
D13*
X116799448Y-62566015D02*
X133769448Y-62566015D01*
X142994448Y-49916015D02*
X142994448Y-41646015D01*
X142994448Y-84596015D02*
X142994448Y-49916015D01*
D14*
X133964448Y-93376015D02*
X116954448Y-93376015D01*
D13*
X188564448Y-84486015D02*
X183484448Y-84486015D01*
X178674448Y-84486015D02*
X178574448Y-84586015D01*
X183484448Y-67186015D02*
X178744448Y-67186015D01*
X185844448Y-49806015D02*
X183484448Y-49806015D01*
X188564448Y-49806015D02*
X185844448Y-49806015D01*
X178674448Y-49806015D02*
X178524448Y-49956015D01*
X183484448Y-84486015D02*
X178674448Y-84486015D01*
X188564448Y-32506015D02*
X183484448Y-32506015D01*
X188564448Y-67186015D02*
X183484448Y-67186015D01*
X178744448Y-67186015D02*
X178634448Y-67296015D01*
X178714448Y-32506015D02*
X178524448Y-32696015D01*
D14*
X133964448Y-95916015D02*
X116954448Y-95916015D01*
X133784448Y-42556015D02*
X116774448Y-42556015D01*
D13*
X116654448Y-45216015D02*
X133624448Y-45216015D01*
X116914448Y-93636015D02*
X116784448Y-93766015D01*
X133559448Y-96116015D02*
X116549448Y-96116015D01*
X142994448Y-32616015D02*
X142994448Y-41646015D01*
X116751948Y-80166015D02*
X133696948Y-80166015D01*
X137914448Y-49916015D02*
X133104448Y-49916015D01*
X137914448Y-32616015D02*
X133144448Y-32616015D01*
X142994448Y-67296015D02*
X137914448Y-67296015D01*
X133174448Y-67296015D02*
X133064448Y-67406015D01*
X133144448Y-32616015D02*
X132954448Y-32806015D01*
X142994448Y-84596015D02*
X137914448Y-84596015D01*
X133104448Y-84596015D02*
X133004448Y-84696015D01*
X137914448Y-67296015D02*
X133174448Y-67296015D01*
X140274448Y-49916015D02*
X137914448Y-49916015D01*
X142994448Y-32616015D02*
X137914448Y-32616015D01*
X142994448Y-49916015D02*
X140274448Y-49916015D01*
X133104448Y-49916015D02*
X132954448Y-50066015D01*
X137914448Y-84596015D02*
X133104448Y-84596015D01*
X88860000Y-25740000D02*
X88860000Y-28280000D01*
X89290000Y-25310000D02*
X88860000Y-25740000D01*
X97900000Y-27610000D02*
X95600000Y-25310000D01*
X95600000Y-25310000D02*
X89290000Y-25310000D01*
X97900000Y-32080000D02*
X97900000Y-27610000D01*
D14*
X88870000Y-87760000D02*
X71860000Y-87760000D01*
X88750000Y-56890000D02*
X71740000Y-56890000D01*
X88750000Y-54350000D02*
X71740000Y-54350000D01*
X88860000Y-28280000D02*
X71850000Y-28280000D01*
X88860000Y-23200000D02*
X71850000Y-23200000D01*
X88750000Y-61970000D02*
X71740000Y-61970000D01*
X88730000Y-76990000D02*
X71720000Y-76990000D01*
X88730000Y-74450000D02*
X71720000Y-74450000D01*
X88870000Y-90300000D02*
X71860000Y-90300000D01*
X88690000Y-44560000D02*
X71680000Y-44560000D01*
X88690000Y-39480000D02*
X71680000Y-39480000D01*
X88730000Y-79530000D02*
X71720000Y-79530000D01*
X88750000Y-59430000D02*
X71740000Y-59430000D01*
X88690000Y-36940000D02*
X71680000Y-36940000D01*
X88730000Y-71910000D02*
X71720000Y-71910000D01*
D13*
X97900000Y-32080000D02*
X97900000Y-30040000D01*
X71705000Y-62030000D02*
X88675000Y-62030000D01*
X97900000Y-49380000D02*
X97900000Y-41110000D01*
X97900000Y-84060000D02*
X97900000Y-49380000D01*
D14*
X88870000Y-92840000D02*
X71860000Y-92840000D01*
X88870000Y-95380000D02*
X71860000Y-95380000D01*
X88690000Y-42020000D02*
X71680000Y-42020000D01*
D13*
X71560000Y-44680000D02*
X88530000Y-44680000D01*
X71820000Y-93100000D02*
X71690000Y-93230000D01*
X88465000Y-95580000D02*
X71455000Y-95580000D01*
X97900000Y-32080000D02*
X97900000Y-41110000D01*
X71657500Y-79630000D02*
X88602500Y-79630000D01*
X92820000Y-49380000D02*
X88010000Y-49380000D01*
X92820000Y-32080000D02*
X88050000Y-32080000D01*
X97900000Y-66760000D02*
X92820000Y-66760000D01*
X88080000Y-66760000D02*
X87970000Y-66870000D01*
X88050000Y-32080000D02*
X87860000Y-32270000D01*
X97900000Y-84060000D02*
X92820000Y-84060000D01*
X88010000Y-84060000D02*
X87910000Y-84160000D01*
X92820000Y-66760000D02*
X88080000Y-66760000D01*
X95180000Y-49380000D02*
X92820000Y-49380000D01*
X97900000Y-32080000D02*
X92820000Y-32080000D01*
X97900000Y-49380000D02*
X95180000Y-49380000D01*
X88010000Y-49380000D02*
X87860000Y-49530000D01*
X92820000Y-84060000D02*
X88010000Y-84060000D01*
X43290000Y-20770000D02*
X43290000Y-23310000D01*
D14*
X26280000Y-23310000D02*
X26160000Y-23430000D01*
X43290000Y-23310000D02*
X26280000Y-23310000D01*
D13*
X22520000Y-17250000D02*
X26160000Y-20890000D01*
X22520000Y-16470000D02*
X22520000Y-17250000D01*
X49380000Y-20770000D02*
X43290000Y-20770000D01*
X52330000Y-23720000D02*
X49380000Y-20770000D01*
X52330000Y-32190000D02*
X52330000Y-23720000D01*
D14*
X43290000Y-25850000D02*
X26280000Y-25850000D01*
X43290000Y-28390000D02*
X26280000Y-28390000D01*
X43120000Y-37050000D02*
X26110000Y-37050000D01*
X43120000Y-39590000D02*
X26110000Y-39590000D01*
X43120000Y-42130000D02*
X26110000Y-42130000D01*
X43120000Y-44670000D02*
X26110000Y-44670000D01*
X43180000Y-54460000D02*
X26170000Y-54460000D01*
X43180000Y-57000000D02*
X26170000Y-57000000D01*
X43180000Y-59540000D02*
X26170000Y-59540000D01*
X43180000Y-62080000D02*
X26170000Y-62080000D01*
X43160000Y-72020000D02*
X26150000Y-72020000D01*
X43160000Y-74560000D02*
X26150000Y-74560000D01*
X43160000Y-77100000D02*
X26150000Y-77100000D01*
X43160000Y-79640000D02*
X26150000Y-79640000D01*
X43300000Y-87870000D02*
X26290000Y-87870000D01*
X43300000Y-90410000D02*
X26290000Y-90410000D01*
X43300000Y-95490000D02*
X26290000Y-95490000D01*
X43300000Y-92950000D02*
X26290000Y-92950000D01*
D13*
X52330000Y-32190000D02*
X52330000Y-30150000D01*
X52330000Y-49490000D02*
X52330000Y-41220000D01*
X52330000Y-84170000D02*
X52330000Y-49490000D01*
X26250000Y-93210000D02*
X26120000Y-93340000D01*
X42895000Y-95690000D02*
X25885000Y-95690000D01*
X52330000Y-32190000D02*
X52330000Y-41220000D01*
X25990000Y-44790000D02*
X42960000Y-44790000D01*
X26135000Y-62140000D02*
X43105000Y-62140000D01*
X26087500Y-79740000D02*
X43032500Y-79740000D01*
X49610000Y-49490000D02*
X47250000Y-49490000D01*
X52330000Y-49490000D02*
X49610000Y-49490000D01*
X42440000Y-84170000D02*
X42340000Y-84270000D01*
X47250000Y-66870000D02*
X42510000Y-66870000D01*
X42440000Y-49490000D02*
X42290000Y-49640000D01*
X52330000Y-32190000D02*
X47250000Y-32190000D01*
X47250000Y-84170000D02*
X42440000Y-84170000D01*
X42480000Y-32190000D02*
X42290000Y-32380000D01*
X52330000Y-84170000D02*
X47250000Y-84170000D01*
X52330000Y-66870000D02*
X47250000Y-66870000D01*
X42510000Y-66870000D02*
X42400000Y-66980000D01*
X47250000Y-32190000D02*
X42480000Y-32190000D01*
X47250000Y-49490000D02*
X42440000Y-49490000D01*
%TD*%
M02*
