%TF.GenerationSoftware,KiCad,Pcbnew,7.0.2*%
%TF.CreationDate,2023-05-15T10:15:07+02:00*%
%TF.ProjectId,78_1x39_1mm Solr tile,37382c31-7833-4392-9c31-6d6d20536f6c,rev?*%
%TF.SameCoordinates,Original*%
%TF.FileFunction,Copper,L2,Bot*%
%TF.FilePolarity,Positive*%
%FSLAX46Y46*%
G04 Gerber Fmt 4.6, Leading zero omitted, Abs format (unit mm)*
G04 Created by KiCad (PCBNEW 7.0.2) date 2023-05-15 10:15:07*
%MOMM*%
%LPD*%
G01*
G04 APERTURE LIST*
%TA.AperFunction,ComponentPad*%
%ADD10O,1.700000X1.700000*%
%TD*%
%TA.AperFunction,ComponentPad*%
%ADD11C,2.600000*%
%TD*%
%TA.AperFunction,ComponentPad*%
%ADD12R,1.700000X1.700000*%
%TD*%
%TA.AperFunction,ViaPad*%
%ADD13C,0.800000*%
%TD*%
%TA.AperFunction,Conductor*%
%ADD14C,1.000000*%
%TD*%
G04 APERTURE END LIST*
D10*
%TO.P,REF\u002A\u002A,2*%
%TO.N,N/C*%
X198350000Y-118130000D03*
%TD*%
%TO.P,REF\u002A\u002A,2*%
%TO.N,N/C*%
X181270000Y-132690000D03*
%TD*%
D11*
%TO.P,REF\u002A\u002A,1*%
%TO.N,N/C*%
X207520000Y-71700000D03*
X202440000Y-71700000D03*
%TD*%
%TO.P,REF\u002A\u002A,1*%
%TO.N,N/C*%
X197480000Y-89150000D03*
%TD*%
%TO.P,REF\u002A\u002A,1*%
%TO.N,N/C*%
X197480000Y-71890000D03*
%TD*%
%TO.P,REF\u002A\u002A,1*%
%TO.N,N/C*%
X207520000Y-89000000D03*
X202440000Y-89000000D03*
%TD*%
D12*
%TO.P,REF\u002A\u002A,1*%
%TO.N,N/C*%
X181350000Y-100710000D03*
%TD*%
D11*
%TO.P,REF\u002A\u002A,1*%
%TO.N,N/C*%
X207520000Y-123680000D03*
X202440000Y-123680000D03*
%TD*%
D10*
%TO.P,REF\u002A\u002A,2*%
%TO.N,N/C*%
X198360000Y-100750000D03*
%TD*%
%TO.P,REF\u002A\u002A,2*%
%TO.N,N/C*%
X198490000Y-67910000D03*
%TD*%
D12*
%TO.P,REF\u002A\u002A,1*%
%TO.N,N/C*%
X181310000Y-83400000D03*
%TD*%
D10*
%TO.P,REF\u002A\u002A,2*%
%TO.N,N/C*%
X198320000Y-83440000D03*
%TD*%
D12*
%TO.P,REF\u002A\u002A,1*%
%TO.N,N/C*%
X181345000Y-118070000D03*
%TD*%
%TO.P,REF\u002A\u002A,1*%
%TO.N,N/C*%
X181350000Y-68020000D03*
%TD*%
%TO.P,REF\u002A\u002A,1*%
%TO.N,N/C*%
X198500000Y-132740000D03*
%TD*%
D11*
%TO.P,REF\u002A\u002A,1*%
%TO.N,N/C*%
X197590000Y-106490000D03*
%TD*%
%TO.P,REF\u002A\u002A,1*%
%TO.N,N/C*%
X207520000Y-106380000D03*
X202440000Y-106380000D03*
%TD*%
%TO.P,REF\u002A\u002A,1*%
%TO.N,N/C*%
X197530000Y-123780000D03*
%TD*%
D13*
%TO.N,*%
X181540000Y-56630000D03*
X180580000Y-56630000D03*
%TD*%
D14*
%TO.N,*%
X204800000Y-89000000D02*
X202440000Y-89000000D01*
X207520000Y-71700000D02*
X207520000Y-70080000D01*
X207520000Y-70080000D02*
X205330000Y-67890000D01*
X207520000Y-120640000D02*
X207520000Y-124730000D01*
X207240000Y-118070000D02*
X207520000Y-118350000D01*
X175820000Y-58560000D02*
X177750000Y-56630000D01*
X199300000Y-132720000D02*
X198450000Y-132720000D01*
X207430000Y-83400000D02*
X207520000Y-83310000D01*
X207520000Y-89000000D02*
X204800000Y-89000000D01*
X207520000Y-124730000D02*
X199530000Y-132720000D01*
X177320000Y-68020000D02*
X175820000Y-66520000D01*
X197630000Y-123680000D02*
X197530000Y-123780000D01*
X202440000Y-106380000D02*
X197700000Y-106380000D01*
X197630000Y-89000000D02*
X197480000Y-89150000D01*
X199300000Y-132720000D02*
X199270000Y-132750000D01*
X181410000Y-132750000D02*
X181310000Y-132850000D01*
X181350000Y-68020000D02*
X177320000Y-68020000D01*
X175820000Y-66520000D02*
X175820000Y-58560000D01*
X177750000Y-56630000D02*
X181540000Y-56630000D01*
X181350000Y-100710000D02*
X207230000Y-100710000D01*
X207520000Y-123680000D02*
X207520000Y-120640000D01*
X207230000Y-100710000D02*
X207520000Y-100420000D01*
X207520000Y-120640000D02*
X207520000Y-118350000D01*
X205330000Y-67890000D02*
X198490000Y-67890000D01*
X207520000Y-100420000D02*
X207520000Y-83310000D01*
X207520000Y-118350000D02*
X207520000Y-100420000D01*
X199530000Y-132720000D02*
X199300000Y-132720000D01*
X207520000Y-71700000D02*
X202440000Y-71700000D01*
X207520000Y-83310000D02*
X207520000Y-71700000D01*
X202440000Y-123680000D02*
X197630000Y-123680000D01*
X199270000Y-132750000D02*
X181410000Y-132750000D01*
X197670000Y-71700000D02*
X197480000Y-71890000D01*
X207520000Y-123680000D02*
X202440000Y-123680000D01*
X181345000Y-118070000D02*
X207240000Y-118070000D01*
X207520000Y-106380000D02*
X202440000Y-106380000D01*
X197700000Y-106380000D02*
X197590000Y-106490000D01*
X181310000Y-83400000D02*
X207430000Y-83400000D01*
X202440000Y-71700000D02*
X197670000Y-71700000D01*
X202440000Y-89000000D02*
X197630000Y-89000000D01*
%TD*%
M02*
