%TF.GenerationSoftware,KiCad,Pcbnew,7.0.6*%
%TF.CreationDate,2023-07-14T07:46:06+02:00*%
%TF.ProjectId,78_1x39_1mm Solr tile,37382c31-7833-4392-9c31-6d6d20536f6c,rev?*%
%TF.SameCoordinates,Original*%
%TF.FileFunction,Profile,NP*%
%FSLAX46Y46*%
G04 Gerber Fmt 4.6, Leading zero omitted, Abs format (unit mm)*
G04 Created by KiCad (PCBNEW 7.0.6) date 2023-07-14 07:46:06*
%MOMM*%
%LPD*%
G01*
G04 APERTURE LIST*
%TA.AperFunction,Profile*%
%ADD10C,0.100000*%
%TD*%
G04 APERTURE END LIST*
D10*
X26355000Y-83920000D02*
X37395000Y-83920000D01*
X37395000Y-84800000D01*
X26355000Y-84800000D01*
X26355000Y-83920000D01*
X32375000Y-31940000D02*
X38585000Y-31940000D01*
X38585000Y-32820000D01*
X32375000Y-32820000D01*
X32375000Y-31940000D01*
X26935000Y-49170000D02*
X39725000Y-49170000D01*
X39725000Y-50050000D01*
X26935000Y-50050000D01*
X26935000Y-49170000D01*
X26800000Y-66620000D02*
X39590000Y-66620000D01*
X39590000Y-67500000D01*
X26800000Y-67500000D01*
X26800000Y-66620000D01*
X15958534Y-34368532D02*
X15960000Y-47512893D01*
X15948534Y-86398532D02*
X15950000Y-97820000D01*
X16946601Y-68077601D02*
G75*
G03*
X15946602Y-69076171I-1J-999999D01*
G01*
X16950000Y-85400000D02*
X16950000Y-83382893D01*
X41700000Y-66620000D02*
X53640000Y-66620000D01*
X53640000Y-67500000D01*
X41700000Y-67500000D01*
X41700000Y-66620000D01*
X15960007Y-30352893D02*
G75*
G03*
X16960000Y-31352893I999993J-7D01*
G01*
X42410000Y-83910000D02*
X53640000Y-83910000D01*
X53640000Y-84790000D01*
X42410000Y-84790000D01*
X42410000Y-83910000D01*
X16948533Y-85399993D02*
G75*
G03*
X15948534Y-86398532I-43J-999957D01*
G01*
X16960000Y-33370000D02*
X16960000Y-31352893D01*
X16960000Y-50530000D02*
X16960000Y-48512893D01*
X16958533Y-33369993D02*
G75*
G03*
X15958534Y-34368532I-43J-999957D01*
G01*
X56080000Y-97810000D02*
X56090000Y-18630000D01*
X15958534Y-51528532D02*
X15948068Y-65060532D01*
X15948068Y-65060532D02*
G75*
G03*
X16948068Y-66060532I1000032J32D01*
G01*
X15960007Y-47512893D02*
G75*
G03*
X16960000Y-48512893I999993J-7D01*
G01*
X41865000Y-31950000D02*
X53635000Y-31950000D01*
X53635000Y-32830000D01*
X41865000Y-32830000D01*
X41865000Y-31950000D01*
X15950007Y-82382893D02*
G75*
G03*
X16950000Y-83382893I999993J-7D01*
G01*
X16958533Y-50529993D02*
G75*
G03*
X15958534Y-51528532I-43J-999957D01*
G01*
X15946602Y-69076171D02*
X15950000Y-82382893D01*
X16948068Y-68077639D02*
X16948068Y-66060532D01*
X15960000Y-18620000D02*
X56090000Y-18630000D01*
X41835000Y-49170000D02*
X53635000Y-49170000D01*
X53635000Y-50050000D01*
X41835000Y-50050000D01*
X41835000Y-49170000D01*
X15950000Y-97820000D02*
X56080000Y-97810000D01*
X15960000Y-18620000D02*
X15960000Y-30352893D01*
M02*
