%TF.GenerationSoftware,KiCad,Pcbnew,7.0.6*%
%TF.CreationDate,2023-08-04T08:10:23+02:00*%
%TF.ProjectId,78_1x39_1mm Solr tile,37382c31-7833-4392-9c31-6d6d20536f6c,rev?*%
%TF.SameCoordinates,Original*%
%TF.FileFunction,Drillmap*%
%TF.FilePolarity,Positive*%
%FSLAX45Y45*%
G04 Gerber Fmt 4.5, Leading zero omitted, Abs format (unit mm)*
G04 Created by KiCad (PCBNEW 7.0.6) date 2023-08-04 08:10:23*
%MOMM*%
%LPD*%
G01*
G04 APERTURE LIST*
%ADD10C,0.100000*%
%ADD11C,0.200000*%
%ADD12C,0.350000*%
G04 APERTURE END LIST*
D10*
X1595853Y-3436853D02*
X1596000Y-4751289D01*
X1594853Y-8639853D02*
X1595000Y-9782000D01*
X1694660Y-6807760D02*
G75*
G03*
X1594660Y-6907617I0J-100000D01*
G01*
X1695000Y-8540000D02*
X1695000Y-8338289D01*
X1596001Y-3035289D02*
G75*
G03*
X1696000Y-3135289I99999J-1D01*
G01*
X1694853Y-8539999D02*
G75*
G03*
X1594853Y-8639853I-4J-99996D01*
G01*
X1696000Y-3337000D02*
X1696000Y-3135289D01*
X1696000Y-5053000D02*
X1696000Y-4851289D01*
X1695853Y-3336999D02*
G75*
G03*
X1595853Y-3436853I-4J-99996D01*
G01*
X5608000Y-9781000D02*
X5609000Y-1863000D01*
X1595853Y-5152853D02*
X1594807Y-6506053D01*
X1594807Y-6506053D02*
G75*
G03*
X1694807Y-6606053I100003J3D01*
G01*
X1596001Y-4751289D02*
G75*
G03*
X1696000Y-4851289I99999J-1D01*
G01*
X1595001Y-8238289D02*
G75*
G03*
X1695000Y-8338289I99999J-1D01*
G01*
X1695853Y-5052999D02*
G75*
G03*
X1595853Y-5152853I-4J-99996D01*
G01*
X1594660Y-6907617D02*
X1595000Y-8238289D01*
X1694807Y-6807764D02*
X1694807Y-6606053D01*
X1596000Y-1862000D02*
X5609000Y-1863000D01*
X1595000Y-9782000D02*
X5608000Y-9781000D01*
X1596000Y-1862000D02*
X1596000Y-3035289D01*
D11*
D12*
X1814000Y-9244000D02*
X2164000Y-9594000D01*
X2164000Y-9244000D02*
X1814000Y-9594000D01*
X1815000Y-1976000D02*
X2165000Y-2326000D01*
X2165000Y-1976000D02*
X1815000Y-2326000D01*
X5038000Y-1973000D02*
X5388000Y-2323000D01*
X5388000Y-1973000D02*
X5038000Y-2323000D01*
X5045000Y-9235000D02*
X5395000Y-9585000D01*
X5395000Y-9235000D02*
X5045000Y-9585000D01*
D11*
X1850437Y-10098484D02*
X1850437Y-9898484D01*
X1850437Y-9898484D02*
X1898056Y-9898484D01*
X1898056Y-9898484D02*
X1926627Y-9908008D01*
X1926627Y-9908008D02*
X1945675Y-9927055D01*
X1945675Y-9927055D02*
X1955199Y-9946103D01*
X1955199Y-9946103D02*
X1964723Y-9984198D01*
X1964723Y-9984198D02*
X1964723Y-10012770D01*
X1964723Y-10012770D02*
X1955199Y-10050865D01*
X1955199Y-10050865D02*
X1945675Y-10069912D01*
X1945675Y-10069912D02*
X1926627Y-10088960D01*
X1926627Y-10088960D02*
X1898056Y-10098484D01*
X1898056Y-10098484D02*
X1850437Y-10098484D01*
X2050437Y-10098484D02*
X2050437Y-9965150D01*
X2050437Y-10003246D02*
X2059961Y-9984198D01*
X2059961Y-9984198D02*
X2069485Y-9974674D01*
X2069485Y-9974674D02*
X2088532Y-9965150D01*
X2088532Y-9965150D02*
X2107580Y-9965150D01*
X2174247Y-10098484D02*
X2174247Y-9965150D01*
X2174247Y-9898484D02*
X2164723Y-9908008D01*
X2164723Y-9908008D02*
X2174247Y-9917531D01*
X2174247Y-9917531D02*
X2183770Y-9908008D01*
X2183770Y-9908008D02*
X2174247Y-9898484D01*
X2174247Y-9898484D02*
X2174247Y-9917531D01*
X2298056Y-10098484D02*
X2279008Y-10088960D01*
X2279008Y-10088960D02*
X2269485Y-10069912D01*
X2269485Y-10069912D02*
X2269485Y-9898484D01*
X2402818Y-10098484D02*
X2383770Y-10088960D01*
X2383770Y-10088960D02*
X2374247Y-10069912D01*
X2374247Y-10069912D02*
X2374247Y-9898484D01*
X2631389Y-10098484D02*
X2631389Y-9898484D01*
X2631389Y-9898484D02*
X2698056Y-10041341D01*
X2698056Y-10041341D02*
X2764723Y-9898484D01*
X2764723Y-9898484D02*
X2764723Y-10098484D01*
X2945675Y-10098484D02*
X2945675Y-9993722D01*
X2945675Y-9993722D02*
X2936151Y-9974674D01*
X2936151Y-9974674D02*
X2917104Y-9965150D01*
X2917104Y-9965150D02*
X2879008Y-9965150D01*
X2879008Y-9965150D02*
X2859961Y-9974674D01*
X2945675Y-10088960D02*
X2926627Y-10098484D01*
X2926627Y-10098484D02*
X2879008Y-10098484D01*
X2879008Y-10098484D02*
X2859961Y-10088960D01*
X2859961Y-10088960D02*
X2850437Y-10069912D01*
X2850437Y-10069912D02*
X2850437Y-10050865D01*
X2850437Y-10050865D02*
X2859961Y-10031817D01*
X2859961Y-10031817D02*
X2879008Y-10022293D01*
X2879008Y-10022293D02*
X2926627Y-10022293D01*
X2926627Y-10022293D02*
X2945675Y-10012770D01*
X3040913Y-9965150D02*
X3040913Y-10165150D01*
X3040913Y-9974674D02*
X3059961Y-9965150D01*
X3059961Y-9965150D02*
X3098056Y-9965150D01*
X3098056Y-9965150D02*
X3117104Y-9974674D01*
X3117104Y-9974674D02*
X3126627Y-9984198D01*
X3126627Y-9984198D02*
X3136151Y-10003246D01*
X3136151Y-10003246D02*
X3136151Y-10060389D01*
X3136151Y-10060389D02*
X3126627Y-10079436D01*
X3126627Y-10079436D02*
X3117104Y-10088960D01*
X3117104Y-10088960D02*
X3098056Y-10098484D01*
X3098056Y-10098484D02*
X3059961Y-10098484D01*
X3059961Y-10098484D02*
X3040913Y-10088960D01*
X3221866Y-10079436D02*
X3231389Y-10088960D01*
X3231389Y-10088960D02*
X3221866Y-10098484D01*
X3221866Y-10098484D02*
X3212342Y-10088960D01*
X3212342Y-10088960D02*
X3221866Y-10079436D01*
X3221866Y-10079436D02*
X3221866Y-10098484D01*
X3221866Y-9974674D02*
X3231389Y-9984198D01*
X3231389Y-9984198D02*
X3221866Y-9993722D01*
X3221866Y-9993722D02*
X3212342Y-9984198D01*
X3212342Y-9984198D02*
X3221866Y-9974674D01*
X3221866Y-9974674D02*
X3221866Y-9993722D01*
X1389660Y-10327000D02*
X1589660Y-10527000D01*
X1589660Y-10327000D02*
X1389660Y-10527000D01*
X1831389Y-10318484D02*
X1955199Y-10318484D01*
X1955199Y-10318484D02*
X1888532Y-10394674D01*
X1888532Y-10394674D02*
X1917104Y-10394674D01*
X1917104Y-10394674D02*
X1936151Y-10404198D01*
X1936151Y-10404198D02*
X1945675Y-10413722D01*
X1945675Y-10413722D02*
X1955199Y-10432770D01*
X1955199Y-10432770D02*
X1955199Y-10480389D01*
X1955199Y-10480389D02*
X1945675Y-10499436D01*
X1945675Y-10499436D02*
X1936151Y-10508960D01*
X1936151Y-10508960D02*
X1917104Y-10518484D01*
X1917104Y-10518484D02*
X1859961Y-10518484D01*
X1859961Y-10518484D02*
X1840913Y-10508960D01*
X1840913Y-10508960D02*
X1831389Y-10499436D01*
X2040913Y-10499436D02*
X2050437Y-10508960D01*
X2050437Y-10508960D02*
X2040913Y-10518484D01*
X2040913Y-10518484D02*
X2031389Y-10508960D01*
X2031389Y-10508960D02*
X2040913Y-10499436D01*
X2040913Y-10499436D02*
X2040913Y-10518484D01*
X2231389Y-10318484D02*
X2136151Y-10318484D01*
X2136151Y-10318484D02*
X2126628Y-10413722D01*
X2126628Y-10413722D02*
X2136151Y-10404198D01*
X2136151Y-10404198D02*
X2155199Y-10394674D01*
X2155199Y-10394674D02*
X2202818Y-10394674D01*
X2202818Y-10394674D02*
X2221866Y-10404198D01*
X2221866Y-10404198D02*
X2231389Y-10413722D01*
X2231389Y-10413722D02*
X2240913Y-10432770D01*
X2240913Y-10432770D02*
X2240913Y-10480389D01*
X2240913Y-10480389D02*
X2231389Y-10499436D01*
X2231389Y-10499436D02*
X2221866Y-10508960D01*
X2221866Y-10508960D02*
X2202818Y-10518484D01*
X2202818Y-10518484D02*
X2155199Y-10518484D01*
X2155199Y-10518484D02*
X2136151Y-10508960D01*
X2136151Y-10508960D02*
X2126628Y-10499436D01*
X2364723Y-10318484D02*
X2383770Y-10318484D01*
X2383770Y-10318484D02*
X2402818Y-10328008D01*
X2402818Y-10328008D02*
X2412342Y-10337531D01*
X2412342Y-10337531D02*
X2421866Y-10356579D01*
X2421866Y-10356579D02*
X2431389Y-10394674D01*
X2431389Y-10394674D02*
X2431389Y-10442293D01*
X2431389Y-10442293D02*
X2421866Y-10480389D01*
X2421866Y-10480389D02*
X2412342Y-10499436D01*
X2412342Y-10499436D02*
X2402818Y-10508960D01*
X2402818Y-10508960D02*
X2383770Y-10518484D01*
X2383770Y-10518484D02*
X2364723Y-10518484D01*
X2364723Y-10518484D02*
X2345675Y-10508960D01*
X2345675Y-10508960D02*
X2336151Y-10499436D01*
X2336151Y-10499436D02*
X2326628Y-10480389D01*
X2326628Y-10480389D02*
X2317104Y-10442293D01*
X2317104Y-10442293D02*
X2317104Y-10394674D01*
X2317104Y-10394674D02*
X2326628Y-10356579D01*
X2326628Y-10356579D02*
X2336151Y-10337531D01*
X2336151Y-10337531D02*
X2345675Y-10328008D01*
X2345675Y-10328008D02*
X2364723Y-10318484D01*
X2555199Y-10318484D02*
X2574247Y-10318484D01*
X2574247Y-10318484D02*
X2593294Y-10328008D01*
X2593294Y-10328008D02*
X2602818Y-10337531D01*
X2602818Y-10337531D02*
X2612342Y-10356579D01*
X2612342Y-10356579D02*
X2621866Y-10394674D01*
X2621866Y-10394674D02*
X2621866Y-10442293D01*
X2621866Y-10442293D02*
X2612342Y-10480389D01*
X2612342Y-10480389D02*
X2602818Y-10499436D01*
X2602818Y-10499436D02*
X2593294Y-10508960D01*
X2593294Y-10508960D02*
X2574247Y-10518484D01*
X2574247Y-10518484D02*
X2555199Y-10518484D01*
X2555199Y-10518484D02*
X2536151Y-10508960D01*
X2536151Y-10508960D02*
X2526628Y-10499436D01*
X2526628Y-10499436D02*
X2517104Y-10480389D01*
X2517104Y-10480389D02*
X2507580Y-10442293D01*
X2507580Y-10442293D02*
X2507580Y-10394674D01*
X2507580Y-10394674D02*
X2517104Y-10356579D01*
X2517104Y-10356579D02*
X2526628Y-10337531D01*
X2526628Y-10337531D02*
X2536151Y-10328008D01*
X2536151Y-10328008D02*
X2555199Y-10318484D01*
X2707580Y-10518484D02*
X2707580Y-10385150D01*
X2707580Y-10404198D02*
X2717104Y-10394674D01*
X2717104Y-10394674D02*
X2736151Y-10385150D01*
X2736151Y-10385150D02*
X2764723Y-10385150D01*
X2764723Y-10385150D02*
X2783770Y-10394674D01*
X2783770Y-10394674D02*
X2793294Y-10413722D01*
X2793294Y-10413722D02*
X2793294Y-10518484D01*
X2793294Y-10413722D02*
X2802818Y-10394674D01*
X2802818Y-10394674D02*
X2821866Y-10385150D01*
X2821866Y-10385150D02*
X2850437Y-10385150D01*
X2850437Y-10385150D02*
X2869485Y-10394674D01*
X2869485Y-10394674D02*
X2879008Y-10413722D01*
X2879008Y-10413722D02*
X2879008Y-10518484D01*
X2974247Y-10518484D02*
X2974247Y-10385150D01*
X2974247Y-10404198D02*
X2983770Y-10394674D01*
X2983770Y-10394674D02*
X3002818Y-10385150D01*
X3002818Y-10385150D02*
X3031389Y-10385150D01*
X3031389Y-10385150D02*
X3050437Y-10394674D01*
X3050437Y-10394674D02*
X3059961Y-10413722D01*
X3059961Y-10413722D02*
X3059961Y-10518484D01*
X3059961Y-10413722D02*
X3069485Y-10394674D01*
X3069485Y-10394674D02*
X3088532Y-10385150D01*
X3088532Y-10385150D02*
X3117104Y-10385150D01*
X3117104Y-10385150D02*
X3136151Y-10394674D01*
X3136151Y-10394674D02*
X3145675Y-10413722D01*
X3145675Y-10413722D02*
X3145675Y-10518484D01*
X3536151Y-10308960D02*
X3364723Y-10566103D01*
X3793294Y-10318484D02*
X3812342Y-10318484D01*
X3812342Y-10318484D02*
X3831390Y-10328008D01*
X3831390Y-10328008D02*
X3840913Y-10337531D01*
X3840913Y-10337531D02*
X3850437Y-10356579D01*
X3850437Y-10356579D02*
X3859961Y-10394674D01*
X3859961Y-10394674D02*
X3859961Y-10442293D01*
X3859961Y-10442293D02*
X3850437Y-10480389D01*
X3850437Y-10480389D02*
X3840913Y-10499436D01*
X3840913Y-10499436D02*
X3831390Y-10508960D01*
X3831390Y-10508960D02*
X3812342Y-10518484D01*
X3812342Y-10518484D02*
X3793294Y-10518484D01*
X3793294Y-10518484D02*
X3774247Y-10508960D01*
X3774247Y-10508960D02*
X3764723Y-10499436D01*
X3764723Y-10499436D02*
X3755199Y-10480389D01*
X3755199Y-10480389D02*
X3745675Y-10442293D01*
X3745675Y-10442293D02*
X3745675Y-10394674D01*
X3745675Y-10394674D02*
X3755199Y-10356579D01*
X3755199Y-10356579D02*
X3764723Y-10337531D01*
X3764723Y-10337531D02*
X3774247Y-10328008D01*
X3774247Y-10328008D02*
X3793294Y-10318484D01*
X3945675Y-10499436D02*
X3955199Y-10508960D01*
X3955199Y-10508960D02*
X3945675Y-10518484D01*
X3945675Y-10518484D02*
X3936151Y-10508960D01*
X3936151Y-10508960D02*
X3945675Y-10499436D01*
X3945675Y-10499436D02*
X3945675Y-10518484D01*
X4145675Y-10518484D02*
X4031390Y-10518484D01*
X4088532Y-10518484D02*
X4088532Y-10318484D01*
X4088532Y-10318484D02*
X4069485Y-10347055D01*
X4069485Y-10347055D02*
X4050437Y-10366103D01*
X4050437Y-10366103D02*
X4031390Y-10375627D01*
X4212342Y-10318484D02*
X4336152Y-10318484D01*
X4336152Y-10318484D02*
X4269485Y-10394674D01*
X4269485Y-10394674D02*
X4298056Y-10394674D01*
X4298056Y-10394674D02*
X4317104Y-10404198D01*
X4317104Y-10404198D02*
X4326628Y-10413722D01*
X4326628Y-10413722D02*
X4336152Y-10432770D01*
X4336152Y-10432770D02*
X4336152Y-10480389D01*
X4336152Y-10480389D02*
X4326628Y-10499436D01*
X4326628Y-10499436D02*
X4317104Y-10508960D01*
X4317104Y-10508960D02*
X4298056Y-10518484D01*
X4298056Y-10518484D02*
X4240913Y-10518484D01*
X4240913Y-10518484D02*
X4221866Y-10508960D01*
X4221866Y-10508960D02*
X4212342Y-10499436D01*
X4402818Y-10318484D02*
X4536152Y-10318484D01*
X4536152Y-10318484D02*
X4450437Y-10518484D01*
X4640913Y-10404198D02*
X4621866Y-10394674D01*
X4621866Y-10394674D02*
X4612342Y-10385150D01*
X4612342Y-10385150D02*
X4602818Y-10366103D01*
X4602818Y-10366103D02*
X4602818Y-10356579D01*
X4602818Y-10356579D02*
X4612342Y-10337531D01*
X4612342Y-10337531D02*
X4621866Y-10328008D01*
X4621866Y-10328008D02*
X4640913Y-10318484D01*
X4640913Y-10318484D02*
X4679009Y-10318484D01*
X4679009Y-10318484D02*
X4698056Y-10328008D01*
X4698056Y-10328008D02*
X4707580Y-10337531D01*
X4707580Y-10337531D02*
X4717104Y-10356579D01*
X4717104Y-10356579D02*
X4717104Y-10366103D01*
X4717104Y-10366103D02*
X4707580Y-10385150D01*
X4707580Y-10385150D02*
X4698056Y-10394674D01*
X4698056Y-10394674D02*
X4679009Y-10404198D01*
X4679009Y-10404198D02*
X4640913Y-10404198D01*
X4640913Y-10404198D02*
X4621866Y-10413722D01*
X4621866Y-10413722D02*
X4612342Y-10423246D01*
X4612342Y-10423246D02*
X4602818Y-10442293D01*
X4602818Y-10442293D02*
X4602818Y-10480389D01*
X4602818Y-10480389D02*
X4612342Y-10499436D01*
X4612342Y-10499436D02*
X4621866Y-10508960D01*
X4621866Y-10508960D02*
X4640913Y-10518484D01*
X4640913Y-10518484D02*
X4679009Y-10518484D01*
X4679009Y-10518484D02*
X4698056Y-10508960D01*
X4698056Y-10508960D02*
X4707580Y-10499436D01*
X4707580Y-10499436D02*
X4717104Y-10480389D01*
X4717104Y-10480389D02*
X4717104Y-10442293D01*
X4717104Y-10442293D02*
X4707580Y-10423246D01*
X4707580Y-10423246D02*
X4698056Y-10413722D01*
X4698056Y-10413722D02*
X4679009Y-10404198D01*
X4793294Y-10318484D02*
X4793294Y-10356579D01*
X4869485Y-10318484D02*
X4869485Y-10356579D01*
X5164723Y-10594674D02*
X5155199Y-10585150D01*
X5155199Y-10585150D02*
X5136152Y-10556579D01*
X5136152Y-10556579D02*
X5126628Y-10537531D01*
X5126628Y-10537531D02*
X5117104Y-10508960D01*
X5117104Y-10508960D02*
X5107580Y-10461341D01*
X5107580Y-10461341D02*
X5107580Y-10423246D01*
X5107580Y-10423246D02*
X5117104Y-10375627D01*
X5117104Y-10375627D02*
X5126628Y-10347055D01*
X5126628Y-10347055D02*
X5136152Y-10328008D01*
X5136152Y-10328008D02*
X5155199Y-10299436D01*
X5155199Y-10299436D02*
X5164723Y-10289912D01*
X5326628Y-10385150D02*
X5326628Y-10518484D01*
X5279009Y-10308960D02*
X5231390Y-10451817D01*
X5231390Y-10451817D02*
X5355199Y-10451817D01*
X5583771Y-10518484D02*
X5583771Y-10318484D01*
X5669485Y-10518484D02*
X5669485Y-10413722D01*
X5669485Y-10413722D02*
X5659961Y-10394674D01*
X5659961Y-10394674D02*
X5640914Y-10385150D01*
X5640914Y-10385150D02*
X5612342Y-10385150D01*
X5612342Y-10385150D02*
X5593294Y-10394674D01*
X5593294Y-10394674D02*
X5583771Y-10404198D01*
X5793294Y-10518484D02*
X5774247Y-10508960D01*
X5774247Y-10508960D02*
X5764723Y-10499436D01*
X5764723Y-10499436D02*
X5755199Y-10480389D01*
X5755199Y-10480389D02*
X5755199Y-10423246D01*
X5755199Y-10423246D02*
X5764723Y-10404198D01*
X5764723Y-10404198D02*
X5774247Y-10394674D01*
X5774247Y-10394674D02*
X5793294Y-10385150D01*
X5793294Y-10385150D02*
X5821866Y-10385150D01*
X5821866Y-10385150D02*
X5840914Y-10394674D01*
X5840914Y-10394674D02*
X5850437Y-10404198D01*
X5850437Y-10404198D02*
X5859961Y-10423246D01*
X5859961Y-10423246D02*
X5859961Y-10480389D01*
X5859961Y-10480389D02*
X5850437Y-10499436D01*
X5850437Y-10499436D02*
X5840914Y-10508960D01*
X5840914Y-10508960D02*
X5821866Y-10518484D01*
X5821866Y-10518484D02*
X5793294Y-10518484D01*
X5974247Y-10518484D02*
X5955199Y-10508960D01*
X5955199Y-10508960D02*
X5945675Y-10489912D01*
X5945675Y-10489912D02*
X5945675Y-10318484D01*
X6126628Y-10508960D02*
X6107580Y-10518484D01*
X6107580Y-10518484D02*
X6069485Y-10518484D01*
X6069485Y-10518484D02*
X6050437Y-10508960D01*
X6050437Y-10508960D02*
X6040914Y-10489912D01*
X6040914Y-10489912D02*
X6040914Y-10413722D01*
X6040914Y-10413722D02*
X6050437Y-10394674D01*
X6050437Y-10394674D02*
X6069485Y-10385150D01*
X6069485Y-10385150D02*
X6107580Y-10385150D01*
X6107580Y-10385150D02*
X6126628Y-10394674D01*
X6126628Y-10394674D02*
X6136152Y-10413722D01*
X6136152Y-10413722D02*
X6136152Y-10432770D01*
X6136152Y-10432770D02*
X6040914Y-10451817D01*
X6212342Y-10508960D02*
X6231390Y-10518484D01*
X6231390Y-10518484D02*
X6269485Y-10518484D01*
X6269485Y-10518484D02*
X6288533Y-10508960D01*
X6288533Y-10508960D02*
X6298056Y-10489912D01*
X6298056Y-10489912D02*
X6298056Y-10480389D01*
X6298056Y-10480389D02*
X6288533Y-10461341D01*
X6288533Y-10461341D02*
X6269485Y-10451817D01*
X6269485Y-10451817D02*
X6240914Y-10451817D01*
X6240914Y-10451817D02*
X6221866Y-10442293D01*
X6221866Y-10442293D02*
X6212342Y-10423246D01*
X6212342Y-10423246D02*
X6212342Y-10413722D01*
X6212342Y-10413722D02*
X6221866Y-10394674D01*
X6221866Y-10394674D02*
X6240914Y-10385150D01*
X6240914Y-10385150D02*
X6269485Y-10385150D01*
X6269485Y-10385150D02*
X6288533Y-10394674D01*
X6364723Y-10594674D02*
X6374247Y-10585150D01*
X6374247Y-10585150D02*
X6393295Y-10556579D01*
X6393295Y-10556579D02*
X6402818Y-10537531D01*
X6402818Y-10537531D02*
X6412342Y-10508960D01*
X6412342Y-10508960D02*
X6421866Y-10461341D01*
X6421866Y-10461341D02*
X6421866Y-10423246D01*
X6421866Y-10423246D02*
X6412342Y-10375627D01*
X6412342Y-10375627D02*
X6402818Y-10347055D01*
X6402818Y-10347055D02*
X6393295Y-10328008D01*
X6393295Y-10328008D02*
X6374247Y-10299436D01*
X6374247Y-10299436D02*
X6364723Y-10289912D01*
X6726628Y-10594674D02*
X6717104Y-10585150D01*
X6717104Y-10585150D02*
X6698056Y-10556579D01*
X6698056Y-10556579D02*
X6688533Y-10537531D01*
X6688533Y-10537531D02*
X6679009Y-10508960D01*
X6679009Y-10508960D02*
X6669485Y-10461341D01*
X6669485Y-10461341D02*
X6669485Y-10423246D01*
X6669485Y-10423246D02*
X6679009Y-10375627D01*
X6679009Y-10375627D02*
X6688533Y-10347055D01*
X6688533Y-10347055D02*
X6698056Y-10328008D01*
X6698056Y-10328008D02*
X6717104Y-10299436D01*
X6717104Y-10299436D02*
X6726628Y-10289912D01*
X6802818Y-10385150D02*
X6802818Y-10518484D01*
X6802818Y-10404198D02*
X6812342Y-10394674D01*
X6812342Y-10394674D02*
X6831390Y-10385150D01*
X6831390Y-10385150D02*
X6859961Y-10385150D01*
X6859961Y-10385150D02*
X6879009Y-10394674D01*
X6879009Y-10394674D02*
X6888533Y-10413722D01*
X6888533Y-10413722D02*
X6888533Y-10518484D01*
X7012342Y-10518484D02*
X6993295Y-10508960D01*
X6993295Y-10508960D02*
X6983771Y-10499436D01*
X6983771Y-10499436D02*
X6974247Y-10480389D01*
X6974247Y-10480389D02*
X6974247Y-10423246D01*
X6974247Y-10423246D02*
X6983771Y-10404198D01*
X6983771Y-10404198D02*
X6993295Y-10394674D01*
X6993295Y-10394674D02*
X7012342Y-10385150D01*
X7012342Y-10385150D02*
X7040914Y-10385150D01*
X7040914Y-10385150D02*
X7059961Y-10394674D01*
X7059961Y-10394674D02*
X7069485Y-10404198D01*
X7069485Y-10404198D02*
X7079009Y-10423246D01*
X7079009Y-10423246D02*
X7079009Y-10480389D01*
X7079009Y-10480389D02*
X7069485Y-10499436D01*
X7069485Y-10499436D02*
X7059961Y-10508960D01*
X7059961Y-10508960D02*
X7040914Y-10518484D01*
X7040914Y-10518484D02*
X7012342Y-10518484D01*
X7136152Y-10385150D02*
X7212342Y-10385150D01*
X7164723Y-10318484D02*
X7164723Y-10489912D01*
X7164723Y-10489912D02*
X7174247Y-10508960D01*
X7174247Y-10508960D02*
X7193295Y-10518484D01*
X7193295Y-10518484D02*
X7212342Y-10518484D01*
X7431390Y-10385150D02*
X7431390Y-10585150D01*
X7431390Y-10394674D02*
X7450437Y-10385150D01*
X7450437Y-10385150D02*
X7488533Y-10385150D01*
X7488533Y-10385150D02*
X7507580Y-10394674D01*
X7507580Y-10394674D02*
X7517104Y-10404198D01*
X7517104Y-10404198D02*
X7526628Y-10423246D01*
X7526628Y-10423246D02*
X7526628Y-10480389D01*
X7526628Y-10480389D02*
X7517104Y-10499436D01*
X7517104Y-10499436D02*
X7507580Y-10508960D01*
X7507580Y-10508960D02*
X7488533Y-10518484D01*
X7488533Y-10518484D02*
X7450437Y-10518484D01*
X7450437Y-10518484D02*
X7431390Y-10508960D01*
X7640914Y-10518484D02*
X7621866Y-10508960D01*
X7621866Y-10508960D02*
X7612342Y-10489912D01*
X7612342Y-10489912D02*
X7612342Y-10318484D01*
X7802818Y-10518484D02*
X7802818Y-10413722D01*
X7802818Y-10413722D02*
X7793295Y-10394674D01*
X7793295Y-10394674D02*
X7774247Y-10385150D01*
X7774247Y-10385150D02*
X7736152Y-10385150D01*
X7736152Y-10385150D02*
X7717104Y-10394674D01*
X7802818Y-10508960D02*
X7783771Y-10518484D01*
X7783771Y-10518484D02*
X7736152Y-10518484D01*
X7736152Y-10518484D02*
X7717104Y-10508960D01*
X7717104Y-10508960D02*
X7707580Y-10489912D01*
X7707580Y-10489912D02*
X7707580Y-10470865D01*
X7707580Y-10470865D02*
X7717104Y-10451817D01*
X7717104Y-10451817D02*
X7736152Y-10442293D01*
X7736152Y-10442293D02*
X7783771Y-10442293D01*
X7783771Y-10442293D02*
X7802818Y-10432770D01*
X7869485Y-10385150D02*
X7945676Y-10385150D01*
X7898057Y-10318484D02*
X7898057Y-10489912D01*
X7898057Y-10489912D02*
X7907580Y-10508960D01*
X7907580Y-10508960D02*
X7926628Y-10518484D01*
X7926628Y-10518484D02*
X7945676Y-10518484D01*
X8088533Y-10508960D02*
X8069485Y-10518484D01*
X8069485Y-10518484D02*
X8031390Y-10518484D01*
X8031390Y-10518484D02*
X8012342Y-10508960D01*
X8012342Y-10508960D02*
X8002818Y-10489912D01*
X8002818Y-10489912D02*
X8002818Y-10413722D01*
X8002818Y-10413722D02*
X8012342Y-10394674D01*
X8012342Y-10394674D02*
X8031390Y-10385150D01*
X8031390Y-10385150D02*
X8069485Y-10385150D01*
X8069485Y-10385150D02*
X8088533Y-10394674D01*
X8088533Y-10394674D02*
X8098057Y-10413722D01*
X8098057Y-10413722D02*
X8098057Y-10432770D01*
X8098057Y-10432770D02*
X8002818Y-10451817D01*
X8269485Y-10518484D02*
X8269485Y-10318484D01*
X8269485Y-10508960D02*
X8250438Y-10518484D01*
X8250438Y-10518484D02*
X8212342Y-10518484D01*
X8212342Y-10518484D02*
X8193295Y-10508960D01*
X8193295Y-10508960D02*
X8183771Y-10499436D01*
X8183771Y-10499436D02*
X8174247Y-10480389D01*
X8174247Y-10480389D02*
X8174247Y-10423246D01*
X8174247Y-10423246D02*
X8183771Y-10404198D01*
X8183771Y-10404198D02*
X8193295Y-10394674D01*
X8193295Y-10394674D02*
X8212342Y-10385150D01*
X8212342Y-10385150D02*
X8250438Y-10385150D01*
X8250438Y-10385150D02*
X8269485Y-10394674D01*
X8345676Y-10594674D02*
X8355199Y-10585150D01*
X8355199Y-10585150D02*
X8374247Y-10556579D01*
X8374247Y-10556579D02*
X8383771Y-10537531D01*
X8383771Y-10537531D02*
X8393295Y-10508960D01*
X8393295Y-10508960D02*
X8402819Y-10461341D01*
X8402819Y-10461341D02*
X8402819Y-10423246D01*
X8402819Y-10423246D02*
X8393295Y-10375627D01*
X8393295Y-10375627D02*
X8383771Y-10347055D01*
X8383771Y-10347055D02*
X8374247Y-10328008D01*
X8374247Y-10328008D02*
X8355199Y-10299436D01*
X8355199Y-10299436D02*
X8345676Y-10289912D01*
M02*
