%TF.GenerationSoftware,KiCad,Pcbnew,7.0.2*%
%TF.CreationDate,2023-05-15T10:15:09+02:00*%
%TF.ProjectId,78_1x39_1mm Solr tile,37382c31-7833-4392-9c31-6d6d20536f6c,rev?*%
%TF.SameCoordinates,Original*%
%TF.FileFunction,Drillmap*%
%TF.FilePolarity,Positive*%
%FSLAX45Y45*%
G04 Gerber Fmt 4.5, Leading zero omitted, Abs format (unit mm)*
G04 Created by KiCad (PCBNEW 7.0.2) date 2023-05-15 10:15:09*
%MOMM*%
%LPD*%
G01*
G04 APERTURE LIST*
%ADD10C,0.100000*%
%ADD11C,0.200000*%
%ADD12C,0.210000*%
G04 APERTURE END LIST*
D10*
X16984000Y-5324000D02*
X20997000Y-5324000D01*
X20997000Y-14250000D01*
X16984000Y-14250000D01*
X16984000Y-5324000D01*
D11*
D12*
X17162000Y-5485000D02*
X17372000Y-5695000D01*
X17372000Y-5485000D02*
X17162000Y-5695000D01*
X17173000Y-13869000D02*
X17383000Y-14079000D01*
X17383000Y-13869000D02*
X17173000Y-14079000D01*
X20585000Y-13869000D02*
X20795000Y-14079000D01*
X20795000Y-13869000D02*
X20585000Y-14079000D01*
X20620000Y-5475000D02*
X20830000Y-5685000D01*
X20830000Y-5475000D02*
X20620000Y-5685000D01*
D11*
X17226619Y-14567524D02*
X17226619Y-14367524D01*
X17226619Y-14367524D02*
X17274238Y-14367524D01*
X17274238Y-14367524D02*
X17302810Y-14377048D01*
X17302810Y-14377048D02*
X17321857Y-14396095D01*
X17321857Y-14396095D02*
X17331381Y-14415143D01*
X17331381Y-14415143D02*
X17340905Y-14453238D01*
X17340905Y-14453238D02*
X17340905Y-14481809D01*
X17340905Y-14481809D02*
X17331381Y-14519905D01*
X17331381Y-14519905D02*
X17321857Y-14538952D01*
X17321857Y-14538952D02*
X17302810Y-14558000D01*
X17302810Y-14558000D02*
X17274238Y-14567524D01*
X17274238Y-14567524D02*
X17226619Y-14567524D01*
X17426619Y-14567524D02*
X17426619Y-14434190D01*
X17426619Y-14472286D02*
X17436143Y-14453238D01*
X17436143Y-14453238D02*
X17445667Y-14443714D01*
X17445667Y-14443714D02*
X17464714Y-14434190D01*
X17464714Y-14434190D02*
X17483762Y-14434190D01*
X17550429Y-14567524D02*
X17550429Y-14434190D01*
X17550429Y-14367524D02*
X17540905Y-14377048D01*
X17540905Y-14377048D02*
X17550429Y-14386571D01*
X17550429Y-14386571D02*
X17559952Y-14377048D01*
X17559952Y-14377048D02*
X17550429Y-14367524D01*
X17550429Y-14367524D02*
X17550429Y-14386571D01*
X17674238Y-14567524D02*
X17655190Y-14558000D01*
X17655190Y-14558000D02*
X17645667Y-14538952D01*
X17645667Y-14538952D02*
X17645667Y-14367524D01*
X17779000Y-14567524D02*
X17759952Y-14558000D01*
X17759952Y-14558000D02*
X17750429Y-14538952D01*
X17750429Y-14538952D02*
X17750429Y-14367524D01*
X18007571Y-14567524D02*
X18007571Y-14367524D01*
X18007571Y-14367524D02*
X18074238Y-14510381D01*
X18074238Y-14510381D02*
X18140905Y-14367524D01*
X18140905Y-14367524D02*
X18140905Y-14567524D01*
X18321857Y-14567524D02*
X18321857Y-14462762D01*
X18321857Y-14462762D02*
X18312333Y-14443714D01*
X18312333Y-14443714D02*
X18293286Y-14434190D01*
X18293286Y-14434190D02*
X18255190Y-14434190D01*
X18255190Y-14434190D02*
X18236143Y-14443714D01*
X18321857Y-14558000D02*
X18302810Y-14567524D01*
X18302810Y-14567524D02*
X18255190Y-14567524D01*
X18255190Y-14567524D02*
X18236143Y-14558000D01*
X18236143Y-14558000D02*
X18226619Y-14538952D01*
X18226619Y-14538952D02*
X18226619Y-14519905D01*
X18226619Y-14519905D02*
X18236143Y-14500857D01*
X18236143Y-14500857D02*
X18255190Y-14491333D01*
X18255190Y-14491333D02*
X18302810Y-14491333D01*
X18302810Y-14491333D02*
X18321857Y-14481809D01*
X18417095Y-14434190D02*
X18417095Y-14634190D01*
X18417095Y-14443714D02*
X18436143Y-14434190D01*
X18436143Y-14434190D02*
X18474238Y-14434190D01*
X18474238Y-14434190D02*
X18493286Y-14443714D01*
X18493286Y-14443714D02*
X18502810Y-14453238D01*
X18502810Y-14453238D02*
X18512333Y-14472286D01*
X18512333Y-14472286D02*
X18512333Y-14529428D01*
X18512333Y-14529428D02*
X18502810Y-14548476D01*
X18502810Y-14548476D02*
X18493286Y-14558000D01*
X18493286Y-14558000D02*
X18474238Y-14567524D01*
X18474238Y-14567524D02*
X18436143Y-14567524D01*
X18436143Y-14567524D02*
X18417095Y-14558000D01*
X18598048Y-14548476D02*
X18607571Y-14558000D01*
X18607571Y-14558000D02*
X18598048Y-14567524D01*
X18598048Y-14567524D02*
X18588524Y-14558000D01*
X18588524Y-14558000D02*
X18598048Y-14548476D01*
X18598048Y-14548476D02*
X18598048Y-14567524D01*
X18598048Y-14443714D02*
X18607571Y-14453238D01*
X18607571Y-14453238D02*
X18598048Y-14462762D01*
X18598048Y-14462762D02*
X18588524Y-14453238D01*
X18588524Y-14453238D02*
X18598048Y-14443714D01*
X18598048Y-14443714D02*
X18598048Y-14462762D01*
X16779000Y-14795000D02*
X16979000Y-14995000D01*
X16979000Y-14795000D02*
X16779000Y-14995000D01*
X17217095Y-14806571D02*
X17226619Y-14797048D01*
X17226619Y-14797048D02*
X17245667Y-14787524D01*
X17245667Y-14787524D02*
X17293286Y-14787524D01*
X17293286Y-14787524D02*
X17312333Y-14797048D01*
X17312333Y-14797048D02*
X17321857Y-14806571D01*
X17321857Y-14806571D02*
X17331381Y-14825619D01*
X17331381Y-14825619D02*
X17331381Y-14844667D01*
X17331381Y-14844667D02*
X17321857Y-14873238D01*
X17321857Y-14873238D02*
X17207571Y-14987524D01*
X17207571Y-14987524D02*
X17331381Y-14987524D01*
X17417095Y-14968476D02*
X17426619Y-14978000D01*
X17426619Y-14978000D02*
X17417095Y-14987524D01*
X17417095Y-14987524D02*
X17407571Y-14978000D01*
X17407571Y-14978000D02*
X17417095Y-14968476D01*
X17417095Y-14968476D02*
X17417095Y-14987524D01*
X17617095Y-14987524D02*
X17502810Y-14987524D01*
X17559952Y-14987524D02*
X17559952Y-14787524D01*
X17559952Y-14787524D02*
X17540905Y-14816095D01*
X17540905Y-14816095D02*
X17521857Y-14835143D01*
X17521857Y-14835143D02*
X17502810Y-14844667D01*
X17740905Y-14787524D02*
X17759952Y-14787524D01*
X17759952Y-14787524D02*
X17779000Y-14797048D01*
X17779000Y-14797048D02*
X17788524Y-14806571D01*
X17788524Y-14806571D02*
X17798048Y-14825619D01*
X17798048Y-14825619D02*
X17807571Y-14863714D01*
X17807571Y-14863714D02*
X17807571Y-14911333D01*
X17807571Y-14911333D02*
X17798048Y-14949428D01*
X17798048Y-14949428D02*
X17788524Y-14968476D01*
X17788524Y-14968476D02*
X17779000Y-14978000D01*
X17779000Y-14978000D02*
X17759952Y-14987524D01*
X17759952Y-14987524D02*
X17740905Y-14987524D01*
X17740905Y-14987524D02*
X17721857Y-14978000D01*
X17721857Y-14978000D02*
X17712333Y-14968476D01*
X17712333Y-14968476D02*
X17702810Y-14949428D01*
X17702810Y-14949428D02*
X17693286Y-14911333D01*
X17693286Y-14911333D02*
X17693286Y-14863714D01*
X17693286Y-14863714D02*
X17702810Y-14825619D01*
X17702810Y-14825619D02*
X17712333Y-14806571D01*
X17712333Y-14806571D02*
X17721857Y-14797048D01*
X17721857Y-14797048D02*
X17740905Y-14787524D01*
X17931381Y-14787524D02*
X17950429Y-14787524D01*
X17950429Y-14787524D02*
X17969476Y-14797048D01*
X17969476Y-14797048D02*
X17979000Y-14806571D01*
X17979000Y-14806571D02*
X17988524Y-14825619D01*
X17988524Y-14825619D02*
X17998048Y-14863714D01*
X17998048Y-14863714D02*
X17998048Y-14911333D01*
X17998048Y-14911333D02*
X17988524Y-14949428D01*
X17988524Y-14949428D02*
X17979000Y-14968476D01*
X17979000Y-14968476D02*
X17969476Y-14978000D01*
X17969476Y-14978000D02*
X17950429Y-14987524D01*
X17950429Y-14987524D02*
X17931381Y-14987524D01*
X17931381Y-14987524D02*
X17912333Y-14978000D01*
X17912333Y-14978000D02*
X17902810Y-14968476D01*
X17902810Y-14968476D02*
X17893286Y-14949428D01*
X17893286Y-14949428D02*
X17883762Y-14911333D01*
X17883762Y-14911333D02*
X17883762Y-14863714D01*
X17883762Y-14863714D02*
X17893286Y-14825619D01*
X17893286Y-14825619D02*
X17902810Y-14806571D01*
X17902810Y-14806571D02*
X17912333Y-14797048D01*
X17912333Y-14797048D02*
X17931381Y-14787524D01*
X18083762Y-14987524D02*
X18083762Y-14854190D01*
X18083762Y-14873238D02*
X18093286Y-14863714D01*
X18093286Y-14863714D02*
X18112333Y-14854190D01*
X18112333Y-14854190D02*
X18140905Y-14854190D01*
X18140905Y-14854190D02*
X18159952Y-14863714D01*
X18159952Y-14863714D02*
X18169476Y-14882762D01*
X18169476Y-14882762D02*
X18169476Y-14987524D01*
X18169476Y-14882762D02*
X18179000Y-14863714D01*
X18179000Y-14863714D02*
X18198048Y-14854190D01*
X18198048Y-14854190D02*
X18226619Y-14854190D01*
X18226619Y-14854190D02*
X18245667Y-14863714D01*
X18245667Y-14863714D02*
X18255191Y-14882762D01*
X18255191Y-14882762D02*
X18255191Y-14987524D01*
X18350429Y-14987524D02*
X18350429Y-14854190D01*
X18350429Y-14873238D02*
X18359952Y-14863714D01*
X18359952Y-14863714D02*
X18379000Y-14854190D01*
X18379000Y-14854190D02*
X18407572Y-14854190D01*
X18407572Y-14854190D02*
X18426619Y-14863714D01*
X18426619Y-14863714D02*
X18436143Y-14882762D01*
X18436143Y-14882762D02*
X18436143Y-14987524D01*
X18436143Y-14882762D02*
X18445667Y-14863714D01*
X18445667Y-14863714D02*
X18464714Y-14854190D01*
X18464714Y-14854190D02*
X18493286Y-14854190D01*
X18493286Y-14854190D02*
X18512333Y-14863714D01*
X18512333Y-14863714D02*
X18521857Y-14882762D01*
X18521857Y-14882762D02*
X18521857Y-14987524D01*
X18912333Y-14778000D02*
X18740905Y-15035143D01*
X19169476Y-14787524D02*
X19188524Y-14787524D01*
X19188524Y-14787524D02*
X19207572Y-14797048D01*
X19207572Y-14797048D02*
X19217095Y-14806571D01*
X19217095Y-14806571D02*
X19226619Y-14825619D01*
X19226619Y-14825619D02*
X19236143Y-14863714D01*
X19236143Y-14863714D02*
X19236143Y-14911333D01*
X19236143Y-14911333D02*
X19226619Y-14949428D01*
X19226619Y-14949428D02*
X19217095Y-14968476D01*
X19217095Y-14968476D02*
X19207572Y-14978000D01*
X19207572Y-14978000D02*
X19188524Y-14987524D01*
X19188524Y-14987524D02*
X19169476Y-14987524D01*
X19169476Y-14987524D02*
X19150429Y-14978000D01*
X19150429Y-14978000D02*
X19140905Y-14968476D01*
X19140905Y-14968476D02*
X19131381Y-14949428D01*
X19131381Y-14949428D02*
X19121857Y-14911333D01*
X19121857Y-14911333D02*
X19121857Y-14863714D01*
X19121857Y-14863714D02*
X19131381Y-14825619D01*
X19131381Y-14825619D02*
X19140905Y-14806571D01*
X19140905Y-14806571D02*
X19150429Y-14797048D01*
X19150429Y-14797048D02*
X19169476Y-14787524D01*
X19321857Y-14968476D02*
X19331381Y-14978000D01*
X19331381Y-14978000D02*
X19321857Y-14987524D01*
X19321857Y-14987524D02*
X19312334Y-14978000D01*
X19312334Y-14978000D02*
X19321857Y-14968476D01*
X19321857Y-14968476D02*
X19321857Y-14987524D01*
X19455191Y-14787524D02*
X19474238Y-14787524D01*
X19474238Y-14787524D02*
X19493286Y-14797048D01*
X19493286Y-14797048D02*
X19502810Y-14806571D01*
X19502810Y-14806571D02*
X19512334Y-14825619D01*
X19512334Y-14825619D02*
X19521857Y-14863714D01*
X19521857Y-14863714D02*
X19521857Y-14911333D01*
X19521857Y-14911333D02*
X19512334Y-14949428D01*
X19512334Y-14949428D02*
X19502810Y-14968476D01*
X19502810Y-14968476D02*
X19493286Y-14978000D01*
X19493286Y-14978000D02*
X19474238Y-14987524D01*
X19474238Y-14987524D02*
X19455191Y-14987524D01*
X19455191Y-14987524D02*
X19436143Y-14978000D01*
X19436143Y-14978000D02*
X19426619Y-14968476D01*
X19426619Y-14968476D02*
X19417095Y-14949428D01*
X19417095Y-14949428D02*
X19407572Y-14911333D01*
X19407572Y-14911333D02*
X19407572Y-14863714D01*
X19407572Y-14863714D02*
X19417095Y-14825619D01*
X19417095Y-14825619D02*
X19426619Y-14806571D01*
X19426619Y-14806571D02*
X19436143Y-14797048D01*
X19436143Y-14797048D02*
X19455191Y-14787524D01*
X19636143Y-14873238D02*
X19617095Y-14863714D01*
X19617095Y-14863714D02*
X19607572Y-14854190D01*
X19607572Y-14854190D02*
X19598048Y-14835143D01*
X19598048Y-14835143D02*
X19598048Y-14825619D01*
X19598048Y-14825619D02*
X19607572Y-14806571D01*
X19607572Y-14806571D02*
X19617095Y-14797048D01*
X19617095Y-14797048D02*
X19636143Y-14787524D01*
X19636143Y-14787524D02*
X19674238Y-14787524D01*
X19674238Y-14787524D02*
X19693286Y-14797048D01*
X19693286Y-14797048D02*
X19702810Y-14806571D01*
X19702810Y-14806571D02*
X19712334Y-14825619D01*
X19712334Y-14825619D02*
X19712334Y-14835143D01*
X19712334Y-14835143D02*
X19702810Y-14854190D01*
X19702810Y-14854190D02*
X19693286Y-14863714D01*
X19693286Y-14863714D02*
X19674238Y-14873238D01*
X19674238Y-14873238D02*
X19636143Y-14873238D01*
X19636143Y-14873238D02*
X19617095Y-14882762D01*
X19617095Y-14882762D02*
X19607572Y-14892286D01*
X19607572Y-14892286D02*
X19598048Y-14911333D01*
X19598048Y-14911333D02*
X19598048Y-14949428D01*
X19598048Y-14949428D02*
X19607572Y-14968476D01*
X19607572Y-14968476D02*
X19617095Y-14978000D01*
X19617095Y-14978000D02*
X19636143Y-14987524D01*
X19636143Y-14987524D02*
X19674238Y-14987524D01*
X19674238Y-14987524D02*
X19693286Y-14978000D01*
X19693286Y-14978000D02*
X19702810Y-14968476D01*
X19702810Y-14968476D02*
X19712334Y-14949428D01*
X19712334Y-14949428D02*
X19712334Y-14911333D01*
X19712334Y-14911333D02*
X19702810Y-14892286D01*
X19702810Y-14892286D02*
X19693286Y-14882762D01*
X19693286Y-14882762D02*
X19674238Y-14873238D01*
X19788524Y-14806571D02*
X19798048Y-14797048D01*
X19798048Y-14797048D02*
X19817095Y-14787524D01*
X19817095Y-14787524D02*
X19864715Y-14787524D01*
X19864715Y-14787524D02*
X19883762Y-14797048D01*
X19883762Y-14797048D02*
X19893286Y-14806571D01*
X19893286Y-14806571D02*
X19902810Y-14825619D01*
X19902810Y-14825619D02*
X19902810Y-14844667D01*
X19902810Y-14844667D02*
X19893286Y-14873238D01*
X19893286Y-14873238D02*
X19779000Y-14987524D01*
X19779000Y-14987524D02*
X19902810Y-14987524D01*
X19969476Y-14787524D02*
X20102810Y-14787524D01*
X20102810Y-14787524D02*
X20017095Y-14987524D01*
X20169476Y-14787524D02*
X20169476Y-14825619D01*
X20245667Y-14787524D02*
X20245667Y-14825619D01*
X20540905Y-15063714D02*
X20531381Y-15054190D01*
X20531381Y-15054190D02*
X20512334Y-15025619D01*
X20512334Y-15025619D02*
X20502810Y-15006571D01*
X20502810Y-15006571D02*
X20493286Y-14978000D01*
X20493286Y-14978000D02*
X20483762Y-14930381D01*
X20483762Y-14930381D02*
X20483762Y-14892286D01*
X20483762Y-14892286D02*
X20493286Y-14844667D01*
X20493286Y-14844667D02*
X20502810Y-14816095D01*
X20502810Y-14816095D02*
X20512334Y-14797048D01*
X20512334Y-14797048D02*
X20531381Y-14768476D01*
X20531381Y-14768476D02*
X20540905Y-14758952D01*
X20702810Y-14854190D02*
X20702810Y-14987524D01*
X20655191Y-14778000D02*
X20607572Y-14920857D01*
X20607572Y-14920857D02*
X20731381Y-14920857D01*
X20959953Y-14987524D02*
X20959953Y-14787524D01*
X21045667Y-14987524D02*
X21045667Y-14882762D01*
X21045667Y-14882762D02*
X21036143Y-14863714D01*
X21036143Y-14863714D02*
X21017096Y-14854190D01*
X21017096Y-14854190D02*
X20988524Y-14854190D01*
X20988524Y-14854190D02*
X20969477Y-14863714D01*
X20969477Y-14863714D02*
X20959953Y-14873238D01*
X21169477Y-14987524D02*
X21150429Y-14978000D01*
X21150429Y-14978000D02*
X21140905Y-14968476D01*
X21140905Y-14968476D02*
X21131381Y-14949428D01*
X21131381Y-14949428D02*
X21131381Y-14892286D01*
X21131381Y-14892286D02*
X21140905Y-14873238D01*
X21140905Y-14873238D02*
X21150429Y-14863714D01*
X21150429Y-14863714D02*
X21169477Y-14854190D01*
X21169477Y-14854190D02*
X21198048Y-14854190D01*
X21198048Y-14854190D02*
X21217096Y-14863714D01*
X21217096Y-14863714D02*
X21226619Y-14873238D01*
X21226619Y-14873238D02*
X21236143Y-14892286D01*
X21236143Y-14892286D02*
X21236143Y-14949428D01*
X21236143Y-14949428D02*
X21226619Y-14968476D01*
X21226619Y-14968476D02*
X21217096Y-14978000D01*
X21217096Y-14978000D02*
X21198048Y-14987524D01*
X21198048Y-14987524D02*
X21169477Y-14987524D01*
X21350429Y-14987524D02*
X21331381Y-14978000D01*
X21331381Y-14978000D02*
X21321858Y-14958952D01*
X21321858Y-14958952D02*
X21321858Y-14787524D01*
X21502810Y-14978000D02*
X21483762Y-14987524D01*
X21483762Y-14987524D02*
X21445667Y-14987524D01*
X21445667Y-14987524D02*
X21426619Y-14978000D01*
X21426619Y-14978000D02*
X21417096Y-14958952D01*
X21417096Y-14958952D02*
X21417096Y-14882762D01*
X21417096Y-14882762D02*
X21426619Y-14863714D01*
X21426619Y-14863714D02*
X21445667Y-14854190D01*
X21445667Y-14854190D02*
X21483762Y-14854190D01*
X21483762Y-14854190D02*
X21502810Y-14863714D01*
X21502810Y-14863714D02*
X21512334Y-14882762D01*
X21512334Y-14882762D02*
X21512334Y-14901809D01*
X21512334Y-14901809D02*
X21417096Y-14920857D01*
X21588524Y-14978000D02*
X21607572Y-14987524D01*
X21607572Y-14987524D02*
X21645667Y-14987524D01*
X21645667Y-14987524D02*
X21664715Y-14978000D01*
X21664715Y-14978000D02*
X21674239Y-14958952D01*
X21674239Y-14958952D02*
X21674239Y-14949428D01*
X21674239Y-14949428D02*
X21664715Y-14930381D01*
X21664715Y-14930381D02*
X21645667Y-14920857D01*
X21645667Y-14920857D02*
X21617096Y-14920857D01*
X21617096Y-14920857D02*
X21598048Y-14911333D01*
X21598048Y-14911333D02*
X21588524Y-14892286D01*
X21588524Y-14892286D02*
X21588524Y-14882762D01*
X21588524Y-14882762D02*
X21598048Y-14863714D01*
X21598048Y-14863714D02*
X21617096Y-14854190D01*
X21617096Y-14854190D02*
X21645667Y-14854190D01*
X21645667Y-14854190D02*
X21664715Y-14863714D01*
X21740905Y-15063714D02*
X21750429Y-15054190D01*
X21750429Y-15054190D02*
X21769477Y-15025619D01*
X21769477Y-15025619D02*
X21779000Y-15006571D01*
X21779000Y-15006571D02*
X21788524Y-14978000D01*
X21788524Y-14978000D02*
X21798048Y-14930381D01*
X21798048Y-14930381D02*
X21798048Y-14892286D01*
X21798048Y-14892286D02*
X21788524Y-14844667D01*
X21788524Y-14844667D02*
X21779000Y-14816095D01*
X21779000Y-14816095D02*
X21769477Y-14797048D01*
X21769477Y-14797048D02*
X21750429Y-14768476D01*
X21750429Y-14768476D02*
X21740905Y-14758952D01*
X22102810Y-15063714D02*
X22093286Y-15054190D01*
X22093286Y-15054190D02*
X22074239Y-15025619D01*
X22074239Y-15025619D02*
X22064715Y-15006571D01*
X22064715Y-15006571D02*
X22055191Y-14978000D01*
X22055191Y-14978000D02*
X22045667Y-14930381D01*
X22045667Y-14930381D02*
X22045667Y-14892286D01*
X22045667Y-14892286D02*
X22055191Y-14844667D01*
X22055191Y-14844667D02*
X22064715Y-14816095D01*
X22064715Y-14816095D02*
X22074239Y-14797048D01*
X22074239Y-14797048D02*
X22093286Y-14768476D01*
X22093286Y-14768476D02*
X22102810Y-14758952D01*
X22179000Y-14854190D02*
X22179000Y-14987524D01*
X22179000Y-14873238D02*
X22188524Y-14863714D01*
X22188524Y-14863714D02*
X22207572Y-14854190D01*
X22207572Y-14854190D02*
X22236143Y-14854190D01*
X22236143Y-14854190D02*
X22255191Y-14863714D01*
X22255191Y-14863714D02*
X22264715Y-14882762D01*
X22264715Y-14882762D02*
X22264715Y-14987524D01*
X22388524Y-14987524D02*
X22369477Y-14978000D01*
X22369477Y-14978000D02*
X22359953Y-14968476D01*
X22359953Y-14968476D02*
X22350429Y-14949428D01*
X22350429Y-14949428D02*
X22350429Y-14892286D01*
X22350429Y-14892286D02*
X22359953Y-14873238D01*
X22359953Y-14873238D02*
X22369477Y-14863714D01*
X22369477Y-14863714D02*
X22388524Y-14854190D01*
X22388524Y-14854190D02*
X22417096Y-14854190D01*
X22417096Y-14854190D02*
X22436143Y-14863714D01*
X22436143Y-14863714D02*
X22445667Y-14873238D01*
X22445667Y-14873238D02*
X22455191Y-14892286D01*
X22455191Y-14892286D02*
X22455191Y-14949428D01*
X22455191Y-14949428D02*
X22445667Y-14968476D01*
X22445667Y-14968476D02*
X22436143Y-14978000D01*
X22436143Y-14978000D02*
X22417096Y-14987524D01*
X22417096Y-14987524D02*
X22388524Y-14987524D01*
X22512334Y-14854190D02*
X22588524Y-14854190D01*
X22540905Y-14787524D02*
X22540905Y-14958952D01*
X22540905Y-14958952D02*
X22550429Y-14978000D01*
X22550429Y-14978000D02*
X22569477Y-14987524D01*
X22569477Y-14987524D02*
X22588524Y-14987524D01*
X22807572Y-14854190D02*
X22807572Y-15054190D01*
X22807572Y-14863714D02*
X22826619Y-14854190D01*
X22826619Y-14854190D02*
X22864715Y-14854190D01*
X22864715Y-14854190D02*
X22883762Y-14863714D01*
X22883762Y-14863714D02*
X22893286Y-14873238D01*
X22893286Y-14873238D02*
X22902810Y-14892286D01*
X22902810Y-14892286D02*
X22902810Y-14949428D01*
X22902810Y-14949428D02*
X22893286Y-14968476D01*
X22893286Y-14968476D02*
X22883762Y-14978000D01*
X22883762Y-14978000D02*
X22864715Y-14987524D01*
X22864715Y-14987524D02*
X22826619Y-14987524D01*
X22826619Y-14987524D02*
X22807572Y-14978000D01*
X23017096Y-14987524D02*
X22998048Y-14978000D01*
X22998048Y-14978000D02*
X22988524Y-14958952D01*
X22988524Y-14958952D02*
X22988524Y-14787524D01*
X23179000Y-14987524D02*
X23179000Y-14882762D01*
X23179000Y-14882762D02*
X23169477Y-14863714D01*
X23169477Y-14863714D02*
X23150429Y-14854190D01*
X23150429Y-14854190D02*
X23112334Y-14854190D01*
X23112334Y-14854190D02*
X23093286Y-14863714D01*
X23179000Y-14978000D02*
X23159953Y-14987524D01*
X23159953Y-14987524D02*
X23112334Y-14987524D01*
X23112334Y-14987524D02*
X23093286Y-14978000D01*
X23093286Y-14978000D02*
X23083762Y-14958952D01*
X23083762Y-14958952D02*
X23083762Y-14939905D01*
X23083762Y-14939905D02*
X23093286Y-14920857D01*
X23093286Y-14920857D02*
X23112334Y-14911333D01*
X23112334Y-14911333D02*
X23159953Y-14911333D01*
X23159953Y-14911333D02*
X23179000Y-14901809D01*
X23245667Y-14854190D02*
X23321858Y-14854190D01*
X23274239Y-14787524D02*
X23274239Y-14958952D01*
X23274239Y-14958952D02*
X23283762Y-14978000D01*
X23283762Y-14978000D02*
X23302810Y-14987524D01*
X23302810Y-14987524D02*
X23321858Y-14987524D01*
X23464715Y-14978000D02*
X23445667Y-14987524D01*
X23445667Y-14987524D02*
X23407572Y-14987524D01*
X23407572Y-14987524D02*
X23388524Y-14978000D01*
X23388524Y-14978000D02*
X23379000Y-14958952D01*
X23379000Y-14958952D02*
X23379000Y-14882762D01*
X23379000Y-14882762D02*
X23388524Y-14863714D01*
X23388524Y-14863714D02*
X23407572Y-14854190D01*
X23407572Y-14854190D02*
X23445667Y-14854190D01*
X23445667Y-14854190D02*
X23464715Y-14863714D01*
X23464715Y-14863714D02*
X23474239Y-14882762D01*
X23474239Y-14882762D02*
X23474239Y-14901809D01*
X23474239Y-14901809D02*
X23379000Y-14920857D01*
X23645667Y-14987524D02*
X23645667Y-14787524D01*
X23645667Y-14978000D02*
X23626620Y-14987524D01*
X23626620Y-14987524D02*
X23588524Y-14987524D01*
X23588524Y-14987524D02*
X23569477Y-14978000D01*
X23569477Y-14978000D02*
X23559953Y-14968476D01*
X23559953Y-14968476D02*
X23550429Y-14949428D01*
X23550429Y-14949428D02*
X23550429Y-14892286D01*
X23550429Y-14892286D02*
X23559953Y-14873238D01*
X23559953Y-14873238D02*
X23569477Y-14863714D01*
X23569477Y-14863714D02*
X23588524Y-14854190D01*
X23588524Y-14854190D02*
X23626620Y-14854190D01*
X23626620Y-14854190D02*
X23645667Y-14863714D01*
X23721858Y-15063714D02*
X23731381Y-15054190D01*
X23731381Y-15054190D02*
X23750429Y-15025619D01*
X23750429Y-15025619D02*
X23759953Y-15006571D01*
X23759953Y-15006571D02*
X23769477Y-14978000D01*
X23769477Y-14978000D02*
X23779000Y-14930381D01*
X23779000Y-14930381D02*
X23779000Y-14892286D01*
X23779000Y-14892286D02*
X23769477Y-14844667D01*
X23769477Y-14844667D02*
X23759953Y-14816095D01*
X23759953Y-14816095D02*
X23750429Y-14797048D01*
X23750429Y-14797048D02*
X23731381Y-14768476D01*
X23731381Y-14768476D02*
X23721858Y-14758952D01*
M02*
