M48
; DRILL file {KiCad 7.0.5} date Wed May 31 19:25:18 2023
; FORMAT={-:-/ absolute / inch / decimal}
; #@! TF.CreationDate,2023-05-31T19:25:18+02:00
; #@! TF.GenerationSoftware,Kicad,Pcbnew,7.0.5
; #@! TF.FileFunction,Plated,1,2,PTH
FMAT,2
INCH
; #@! TA.AperFunction,Plated,PTH,ViaDrill
T1C0.0157
; #@! TA.AperFunction,Plated,PTH,ComponentDrill
T2C0.0394
%
G90
G05
T1
X2.0772Y-2.6665
X2.078Y-2.6161
X2.0823Y-1.3024
X2.0831Y-1.252
X2.085Y-1.9815
X2.0858Y-1.9311
X2.0874Y-3.3437
X2.0882Y-3.2933
X2.1295Y-2.6657
X2.1303Y-2.6146
X2.1346Y-1.3016
X2.1354Y-1.2504
X2.1374Y-1.9807
X2.1382Y-1.9295
X2.1398Y-3.3429
X2.1406Y-3.2917
T2
X1.0736Y-1.0528
X1.0736Y-1.1528
X1.0744Y-1.4701
X1.0744Y-1.5701
X1.0744Y-1.6701
X1.0744Y-1.7701
X1.076Y-2.8461
X1.076Y-2.9461
X1.0768Y-2.1555
X1.0768Y-2.2555
X1.0768Y-2.3555
X1.0768Y-2.4555
X1.3709Y-1.1453
X1.3787Y-3.3957
X1.4709Y-1.1453
X1.4787Y-3.3957
X1.7433Y-2.8406
X1.7433Y-2.9406
X1.7437Y-2.1496
X1.7437Y-2.2496
X1.7437Y-2.3496
X1.7437Y-2.4496
X1.7488Y-1.4657
X1.7488Y-1.5657
X1.7488Y-1.6657
X1.7488Y-1.7657
X1.7579Y-1.0469
X1.7579Y-1.1469
T0
M30
