%TF.GenerationSoftware,KiCad,Pcbnew,7.0.6*%
%TF.CreationDate,2023-07-14T07:46:06+02:00*%
%TF.ProjectId,78_1x39_1mm Solr tile,37382c31-7833-4392-9c31-6d6d20536f6c,rev?*%
%TF.SameCoordinates,Original*%
%TF.FileFunction,Soldermask,Bot*%
%TF.FilePolarity,Negative*%
%FSLAX46Y46*%
G04 Gerber Fmt 4.6, Leading zero omitted, Abs format (unit mm)*
G04 Created by KiCad (PCBNEW 7.0.6) date 2023-07-14 07:46:06*
%MOMM*%
%LPD*%
G01*
G04 APERTURE LIST*
%ADD10C,3.450000*%
%ADD11R,2.000000X2.000000*%
%ADD12R,1.700000X2.500000*%
%ADD13R,2.500000X1.700000*%
%ADD14R,5.000000X2.000000*%
G04 APERTURE END LIST*
D10*
%TO.C,REF\u002A\u002A*%
X52200000Y-94100000D03*
%TD*%
%TO.C,REF\u002A\u002A*%
X19890000Y-94190000D03*
%TD*%
%TO.C,REF\u002A\u002A*%
X19900000Y-21510000D03*
%TD*%
%TO.C,REF\u002A\u002A*%
X52130000Y-21480000D03*
%TD*%
D11*
%TO.C,REF\u002A\u002A*%
X23320000Y-48240000D03*
%TD*%
D12*
%TO.C,REF\u002A\u002A*%
X34820000Y-29090000D03*
X37360000Y-29090000D03*
%TD*%
D13*
%TO.C,REF\u002A\u002A*%
X26900000Y-74840000D03*
X26900000Y-72300000D03*
%TD*%
D14*
%TO.C,REF\u002A\u002A*%
X19511932Y-32362361D03*
%TD*%
D11*
%TO.C,REF\u002A\u002A*%
X44080000Y-77210000D03*
%TD*%
%TO.C,REF\u002A\u002A*%
X44700000Y-23270000D03*
%TD*%
D14*
%TO.C,REF\u002A\u002A*%
X19500000Y-67070000D03*
%TD*%
D11*
%TO.C,REF\u002A\u002A*%
X23350000Y-68650000D03*
%TD*%
%TO.C,REF\u002A\u002A*%
X23330000Y-65680000D03*
%TD*%
D13*
%TO.C,J8*%
X27290000Y-44960000D03*
X27290000Y-42420000D03*
X27290000Y-39880000D03*
X27290000Y-37340000D03*
%TD*%
D11*
%TO.C,REF\u002A\u002A*%
X23340000Y-51210000D03*
%TD*%
D13*
%TO.C,J8*%
X44290000Y-54600000D03*
X44290000Y-57140000D03*
X44290000Y-59680000D03*
X44290000Y-62220000D03*
%TD*%
D11*
%TO.C,REF\u002A\u002A*%
X43920000Y-64890000D03*
%TD*%
D14*
%TO.C,REF\u002A\u002A*%
X19501932Y-84392361D03*
%TD*%
D11*
%TO.C,REF\u002A\u002A*%
X51500000Y-51850000D03*
%TD*%
%TO.C,REF\u002A\u002A*%
X48970000Y-34490000D03*
%TD*%
D13*
%TO.C,J8*%
X44420000Y-37230000D03*
X44420000Y-39770000D03*
X44420000Y-42310000D03*
X44420000Y-44850000D03*
%TD*%
D14*
%TO.C,REF\u002A\u002A*%
X19511932Y-49522361D03*
%TD*%
D11*
%TO.C,REF\u002A\u002A*%
X51510000Y-34500000D03*
%TD*%
D13*
%TO.C,REF\u002A\u002A*%
X27270000Y-29280000D03*
X27270000Y-26740000D03*
%TD*%
D11*
%TO.C,REF\u002A\u002A*%
X27330000Y-34750000D03*
%TD*%
D13*
%TO.C,J8*%
X27160000Y-62330000D03*
X27160000Y-59790000D03*
X27160000Y-57250000D03*
X27160000Y-54710000D03*
%TD*%
%TO.C,REF\u002A\u002A*%
X44650000Y-26590000D03*
X44650000Y-29130000D03*
%TD*%
D11*
%TO.C,REF\u002A\u002A*%
X44400000Y-47490000D03*
%TD*%
%TO.C,REF\u002A\u002A*%
X27330000Y-32350000D03*
%TD*%
D12*
%TO.C,REF\u002A\u002A*%
X37560000Y-86250000D03*
X35020000Y-86250000D03*
%TD*%
D13*
%TO.C,REF\u002A\u002A*%
X44280000Y-72150000D03*
X44280000Y-74690000D03*
%TD*%
D11*
%TO.C,REF\u002A\u002A*%
X41930000Y-23270000D03*
%TD*%
%TO.C,REF\u002A\u002A*%
X48960000Y-51840000D03*
%TD*%
M02*
