%TF.GenerationSoftware,KiCad,Pcbnew,7.0.6*%
%TF.CreationDate,2023-08-04T08:10:22+02:00*%
%TF.ProjectId,78_1x39_1mm Solr tile,37382c31-7833-4392-9c31-6d6d20536f6c,rev?*%
%TF.SameCoordinates,Original*%
%TF.FileFunction,Legend,Top*%
%TF.FilePolarity,Positive*%
%FSLAX46Y46*%
G04 Gerber Fmt 4.6, Leading zero omitted, Abs format (unit mm)*
G04 Created by KiCad (PCBNEW 7.0.6) date 2023-08-04 08:10:22*
%MOMM*%
%LPD*%
G01*
G04 APERTURE LIST*
%ADD10C,0.150000*%
%ADD11C,0.120000*%
%ADD12C,0.050000*%
G04 APERTURE END LIST*
D10*
X16280000Y-19170000D02*
X55400000Y-19170000D01*
X55400000Y-97350000D01*
X16280000Y-97350000D01*
X16280000Y-19170000D01*
G36*
X16280000Y-19170000D02*
G01*
X55400000Y-19170000D01*
X55400000Y-97350000D01*
X16280000Y-97350000D01*
X16280000Y-19170000D01*
G37*
X31966666Y-30756819D02*
X31633333Y-30280628D01*
X31395238Y-30756819D02*
X31395238Y-29756819D01*
X31395238Y-29756819D02*
X31776190Y-29756819D01*
X31776190Y-29756819D02*
X31871428Y-29804438D01*
X31871428Y-29804438D02*
X31919047Y-29852057D01*
X31919047Y-29852057D02*
X31966666Y-29947295D01*
X31966666Y-29947295D02*
X31966666Y-30090152D01*
X31966666Y-30090152D02*
X31919047Y-30185390D01*
X31919047Y-30185390D02*
X31871428Y-30233009D01*
X31871428Y-30233009D02*
X31776190Y-30280628D01*
X31776190Y-30280628D02*
X31395238Y-30280628D01*
X32395238Y-30233009D02*
X32728571Y-30233009D01*
X32871428Y-30756819D02*
X32395238Y-30756819D01*
X32395238Y-30756819D02*
X32395238Y-29756819D01*
X32395238Y-29756819D02*
X32871428Y-29756819D01*
X33633333Y-30233009D02*
X33300000Y-30233009D01*
X33300000Y-30756819D02*
X33300000Y-29756819D01*
X33300000Y-29756819D02*
X33776190Y-29756819D01*
X34300000Y-29756819D02*
X34300000Y-29994914D01*
X34061905Y-29899676D02*
X34300000Y-29994914D01*
X34300000Y-29994914D02*
X34538095Y-29899676D01*
X34157143Y-30185390D02*
X34300000Y-29994914D01*
X34300000Y-29994914D02*
X34442857Y-30185390D01*
X35061905Y-29756819D02*
X35061905Y-29994914D01*
X34823810Y-29899676D02*
X35061905Y-29994914D01*
X35061905Y-29994914D02*
X35300000Y-29899676D01*
X34919048Y-30185390D02*
X35061905Y-29994914D01*
X35061905Y-29994914D02*
X35204762Y-30185390D01*
X46416666Y-30756819D02*
X46083333Y-30280628D01*
X45845238Y-30756819D02*
X45845238Y-29756819D01*
X45845238Y-29756819D02*
X46226190Y-29756819D01*
X46226190Y-29756819D02*
X46321428Y-29804438D01*
X46321428Y-29804438D02*
X46369047Y-29852057D01*
X46369047Y-29852057D02*
X46416666Y-29947295D01*
X46416666Y-29947295D02*
X46416666Y-30090152D01*
X46416666Y-30090152D02*
X46369047Y-30185390D01*
X46369047Y-30185390D02*
X46321428Y-30233009D01*
X46321428Y-30233009D02*
X46226190Y-30280628D01*
X46226190Y-30280628D02*
X45845238Y-30280628D01*
X46845238Y-30233009D02*
X47178571Y-30233009D01*
X47321428Y-30756819D02*
X46845238Y-30756819D01*
X46845238Y-30756819D02*
X46845238Y-29756819D01*
X46845238Y-29756819D02*
X47321428Y-29756819D01*
X48083333Y-30233009D02*
X47750000Y-30233009D01*
X47750000Y-30756819D02*
X47750000Y-29756819D01*
X47750000Y-29756819D02*
X48226190Y-29756819D01*
X48750000Y-29756819D02*
X48750000Y-29994914D01*
X48511905Y-29899676D02*
X48750000Y-29994914D01*
X48750000Y-29994914D02*
X48988095Y-29899676D01*
X48607143Y-30185390D02*
X48750000Y-29994914D01*
X48750000Y-29994914D02*
X48892857Y-30185390D01*
X49511905Y-29756819D02*
X49511905Y-29994914D01*
X49273810Y-29899676D02*
X49511905Y-29994914D01*
X49511905Y-29994914D02*
X49750000Y-29899676D01*
X49369048Y-30185390D02*
X49511905Y-29994914D01*
X49511905Y-29994914D02*
X49654762Y-30185390D01*
X31996666Y-81306819D02*
X31663333Y-80830628D01*
X31425238Y-81306819D02*
X31425238Y-80306819D01*
X31425238Y-80306819D02*
X31806190Y-80306819D01*
X31806190Y-80306819D02*
X31901428Y-80354438D01*
X31901428Y-80354438D02*
X31949047Y-80402057D01*
X31949047Y-80402057D02*
X31996666Y-80497295D01*
X31996666Y-80497295D02*
X31996666Y-80640152D01*
X31996666Y-80640152D02*
X31949047Y-80735390D01*
X31949047Y-80735390D02*
X31901428Y-80783009D01*
X31901428Y-80783009D02*
X31806190Y-80830628D01*
X31806190Y-80830628D02*
X31425238Y-80830628D01*
X32425238Y-80783009D02*
X32758571Y-80783009D01*
X32901428Y-81306819D02*
X32425238Y-81306819D01*
X32425238Y-81306819D02*
X32425238Y-80306819D01*
X32425238Y-80306819D02*
X32901428Y-80306819D01*
X33663333Y-80783009D02*
X33330000Y-80783009D01*
X33330000Y-81306819D02*
X33330000Y-80306819D01*
X33330000Y-80306819D02*
X33806190Y-80306819D01*
X34330000Y-80306819D02*
X34330000Y-80544914D01*
X34091905Y-80449676D02*
X34330000Y-80544914D01*
X34330000Y-80544914D02*
X34568095Y-80449676D01*
X34187143Y-80735390D02*
X34330000Y-80544914D01*
X34330000Y-80544914D02*
X34472857Y-80735390D01*
X35091905Y-80306819D02*
X35091905Y-80544914D01*
X34853810Y-80449676D02*
X35091905Y-80544914D01*
X35091905Y-80544914D02*
X35330000Y-80449676D01*
X34949048Y-80735390D02*
X35091905Y-80544914D01*
X35091905Y-80544914D02*
X35234762Y-80735390D01*
X46446666Y-81306819D02*
X46113333Y-80830628D01*
X45875238Y-81306819D02*
X45875238Y-80306819D01*
X45875238Y-80306819D02*
X46256190Y-80306819D01*
X46256190Y-80306819D02*
X46351428Y-80354438D01*
X46351428Y-80354438D02*
X46399047Y-80402057D01*
X46399047Y-80402057D02*
X46446666Y-80497295D01*
X46446666Y-80497295D02*
X46446666Y-80640152D01*
X46446666Y-80640152D02*
X46399047Y-80735390D01*
X46399047Y-80735390D02*
X46351428Y-80783009D01*
X46351428Y-80783009D02*
X46256190Y-80830628D01*
X46256190Y-80830628D02*
X45875238Y-80830628D01*
X46875238Y-80783009D02*
X47208571Y-80783009D01*
X47351428Y-81306819D02*
X46875238Y-81306819D01*
X46875238Y-81306819D02*
X46875238Y-80306819D01*
X46875238Y-80306819D02*
X47351428Y-80306819D01*
X48113333Y-80783009D02*
X47780000Y-80783009D01*
X47780000Y-81306819D02*
X47780000Y-80306819D01*
X47780000Y-80306819D02*
X48256190Y-80306819D01*
X48780000Y-80306819D02*
X48780000Y-80544914D01*
X48541905Y-80449676D02*
X48780000Y-80544914D01*
X48780000Y-80544914D02*
X49018095Y-80449676D01*
X48637143Y-80735390D02*
X48780000Y-80544914D01*
X48780000Y-80544914D02*
X48922857Y-80735390D01*
X49541905Y-80306819D02*
X49541905Y-80544914D01*
X49303810Y-80449676D02*
X49541905Y-80544914D01*
X49541905Y-80544914D02*
X49780000Y-80449676D01*
X49399048Y-80735390D02*
X49541905Y-80544914D01*
X49541905Y-80544914D02*
X49684762Y-80735390D01*
X31946666Y-65286819D02*
X31613333Y-64810628D01*
X31375238Y-65286819D02*
X31375238Y-64286819D01*
X31375238Y-64286819D02*
X31756190Y-64286819D01*
X31756190Y-64286819D02*
X31851428Y-64334438D01*
X31851428Y-64334438D02*
X31899047Y-64382057D01*
X31899047Y-64382057D02*
X31946666Y-64477295D01*
X31946666Y-64477295D02*
X31946666Y-64620152D01*
X31946666Y-64620152D02*
X31899047Y-64715390D01*
X31899047Y-64715390D02*
X31851428Y-64763009D01*
X31851428Y-64763009D02*
X31756190Y-64810628D01*
X31756190Y-64810628D02*
X31375238Y-64810628D01*
X32375238Y-64763009D02*
X32708571Y-64763009D01*
X32851428Y-65286819D02*
X32375238Y-65286819D01*
X32375238Y-65286819D02*
X32375238Y-64286819D01*
X32375238Y-64286819D02*
X32851428Y-64286819D01*
X33613333Y-64763009D02*
X33280000Y-64763009D01*
X33280000Y-65286819D02*
X33280000Y-64286819D01*
X33280000Y-64286819D02*
X33756190Y-64286819D01*
X34280000Y-64286819D02*
X34280000Y-64524914D01*
X34041905Y-64429676D02*
X34280000Y-64524914D01*
X34280000Y-64524914D02*
X34518095Y-64429676D01*
X34137143Y-64715390D02*
X34280000Y-64524914D01*
X34280000Y-64524914D02*
X34422857Y-64715390D01*
X35041905Y-64286819D02*
X35041905Y-64524914D01*
X34803810Y-64429676D02*
X35041905Y-64524914D01*
X35041905Y-64524914D02*
X35280000Y-64429676D01*
X34899048Y-64715390D02*
X35041905Y-64524914D01*
X35041905Y-64524914D02*
X35184762Y-64715390D01*
X46396666Y-65286819D02*
X46063333Y-64810628D01*
X45825238Y-65286819D02*
X45825238Y-64286819D01*
X45825238Y-64286819D02*
X46206190Y-64286819D01*
X46206190Y-64286819D02*
X46301428Y-64334438D01*
X46301428Y-64334438D02*
X46349047Y-64382057D01*
X46349047Y-64382057D02*
X46396666Y-64477295D01*
X46396666Y-64477295D02*
X46396666Y-64620152D01*
X46396666Y-64620152D02*
X46349047Y-64715390D01*
X46349047Y-64715390D02*
X46301428Y-64763009D01*
X46301428Y-64763009D02*
X46206190Y-64810628D01*
X46206190Y-64810628D02*
X45825238Y-64810628D01*
X46825238Y-64763009D02*
X47158571Y-64763009D01*
X47301428Y-65286819D02*
X46825238Y-65286819D01*
X46825238Y-65286819D02*
X46825238Y-64286819D01*
X46825238Y-64286819D02*
X47301428Y-64286819D01*
X48063333Y-64763009D02*
X47730000Y-64763009D01*
X47730000Y-65286819D02*
X47730000Y-64286819D01*
X47730000Y-64286819D02*
X48206190Y-64286819D01*
X48730000Y-64286819D02*
X48730000Y-64524914D01*
X48491905Y-64429676D02*
X48730000Y-64524914D01*
X48730000Y-64524914D02*
X48968095Y-64429676D01*
X48587143Y-64715390D02*
X48730000Y-64524914D01*
X48730000Y-64524914D02*
X48872857Y-64715390D01*
X49491905Y-64286819D02*
X49491905Y-64524914D01*
X49253810Y-64429676D02*
X49491905Y-64524914D01*
X49491905Y-64524914D02*
X49730000Y-64429676D01*
X49349048Y-64715390D02*
X49491905Y-64524914D01*
X49491905Y-64524914D02*
X49634762Y-64715390D01*
X32096666Y-47916819D02*
X31763333Y-47440628D01*
X31525238Y-47916819D02*
X31525238Y-46916819D01*
X31525238Y-46916819D02*
X31906190Y-46916819D01*
X31906190Y-46916819D02*
X32001428Y-46964438D01*
X32001428Y-46964438D02*
X32049047Y-47012057D01*
X32049047Y-47012057D02*
X32096666Y-47107295D01*
X32096666Y-47107295D02*
X32096666Y-47250152D01*
X32096666Y-47250152D02*
X32049047Y-47345390D01*
X32049047Y-47345390D02*
X32001428Y-47393009D01*
X32001428Y-47393009D02*
X31906190Y-47440628D01*
X31906190Y-47440628D02*
X31525238Y-47440628D01*
X32525238Y-47393009D02*
X32858571Y-47393009D01*
X33001428Y-47916819D02*
X32525238Y-47916819D01*
X32525238Y-47916819D02*
X32525238Y-46916819D01*
X32525238Y-46916819D02*
X33001428Y-46916819D01*
X33763333Y-47393009D02*
X33430000Y-47393009D01*
X33430000Y-47916819D02*
X33430000Y-46916819D01*
X33430000Y-46916819D02*
X33906190Y-46916819D01*
X34430000Y-46916819D02*
X34430000Y-47154914D01*
X34191905Y-47059676D02*
X34430000Y-47154914D01*
X34430000Y-47154914D02*
X34668095Y-47059676D01*
X34287143Y-47345390D02*
X34430000Y-47154914D01*
X34430000Y-47154914D02*
X34572857Y-47345390D01*
X35191905Y-46916819D02*
X35191905Y-47154914D01*
X34953810Y-47059676D02*
X35191905Y-47154914D01*
X35191905Y-47154914D02*
X35430000Y-47059676D01*
X35049048Y-47345390D02*
X35191905Y-47154914D01*
X35191905Y-47154914D02*
X35334762Y-47345390D01*
X46546666Y-47916819D02*
X46213333Y-47440628D01*
X45975238Y-47916819D02*
X45975238Y-46916819D01*
X45975238Y-46916819D02*
X46356190Y-46916819D01*
X46356190Y-46916819D02*
X46451428Y-46964438D01*
X46451428Y-46964438D02*
X46499047Y-47012057D01*
X46499047Y-47012057D02*
X46546666Y-47107295D01*
X46546666Y-47107295D02*
X46546666Y-47250152D01*
X46546666Y-47250152D02*
X46499047Y-47345390D01*
X46499047Y-47345390D02*
X46451428Y-47393009D01*
X46451428Y-47393009D02*
X46356190Y-47440628D01*
X46356190Y-47440628D02*
X45975238Y-47440628D01*
X46975238Y-47393009D02*
X47308571Y-47393009D01*
X47451428Y-47916819D02*
X46975238Y-47916819D01*
X46975238Y-47916819D02*
X46975238Y-46916819D01*
X46975238Y-46916819D02*
X47451428Y-46916819D01*
X48213333Y-47393009D02*
X47880000Y-47393009D01*
X47880000Y-47916819D02*
X47880000Y-46916819D01*
X47880000Y-46916819D02*
X48356190Y-46916819D01*
X48880000Y-46916819D02*
X48880000Y-47154914D01*
X48641905Y-47059676D02*
X48880000Y-47154914D01*
X48880000Y-47154914D02*
X49118095Y-47059676D01*
X48737143Y-47345390D02*
X48880000Y-47154914D01*
X48880000Y-47154914D02*
X49022857Y-47345390D01*
X49641905Y-46916819D02*
X49641905Y-47154914D01*
X49403810Y-47059676D02*
X49641905Y-47154914D01*
X49641905Y-47154914D02*
X49880000Y-47059676D01*
X49499048Y-47345390D02*
X49641905Y-47154914D01*
X49641905Y-47154914D02*
X49784762Y-47345390D01*
D11*
%TO.C,REF\u002A\u002A*%
X31850000Y-31000000D02*
X34750000Y-31000000D01*
X31850000Y-33900000D02*
X31850000Y-31000000D01*
X34750000Y-31000000D02*
X34750000Y-33900000D01*
X34750000Y-33900000D02*
X31850000Y-33900000D01*
X46300000Y-31000000D02*
X49200000Y-31000000D01*
X46300000Y-33900000D02*
X46300000Y-31000000D01*
X49200000Y-31000000D02*
X49200000Y-33900000D01*
X49200000Y-33900000D02*
X46300000Y-33900000D01*
X31880000Y-81550000D02*
X34780000Y-81550000D01*
X31880000Y-84450000D02*
X31880000Y-81550000D01*
X34780000Y-81550000D02*
X34780000Y-84450000D01*
X34780000Y-84450000D02*
X31880000Y-84450000D01*
X49230000Y-84450000D02*
X46330000Y-84450000D01*
X49230000Y-81550000D02*
X49230000Y-84450000D01*
X46330000Y-84450000D02*
X46330000Y-81550000D01*
X46330000Y-81550000D02*
X49230000Y-81550000D01*
X31830000Y-65530000D02*
X34730000Y-65530000D01*
X31830000Y-68430000D02*
X31830000Y-65530000D01*
X34730000Y-65530000D02*
X34730000Y-68430000D01*
X34730000Y-68430000D02*
X31830000Y-68430000D01*
X46280000Y-65530000D02*
X49180000Y-65530000D01*
X46280000Y-68430000D02*
X46280000Y-65530000D01*
X49180000Y-65530000D02*
X49180000Y-68430000D01*
X49180000Y-68430000D02*
X46280000Y-68430000D01*
X31980000Y-48160000D02*
X34880000Y-48160000D01*
X31980000Y-51060000D02*
X31980000Y-48160000D01*
X34880000Y-48160000D02*
X34880000Y-51060000D01*
X34880000Y-51060000D02*
X31980000Y-51060000D01*
X46430000Y-48160000D02*
X49330000Y-48160000D01*
X49330000Y-51060000D02*
X46430000Y-51060000D01*
X46430000Y-51060000D02*
X46430000Y-48160000D01*
X49330000Y-48160000D02*
X49330000Y-51060000D01*
D12*
X16280000Y-19170000D02*
X55400000Y-19170000D01*
X55400000Y-19170000D02*
X55400000Y-97350000D01*
X55400000Y-97350000D02*
X16280000Y-97350000D01*
X16280000Y-97350000D02*
X16280000Y-19170000D01*
%TD*%
M02*
