%TF.GenerationSoftware,KiCad,Pcbnew,7.0.5*%
%TF.CreationDate,2023-07-07T20:16:54+02:00*%
%TF.ProjectId,78_1x39_1mm Solr tile,37382c31-7833-4392-9c31-6d6d20536f6c,rev?*%
%TF.SameCoordinates,Original*%
%TF.FileFunction,Copper,L2,Bot*%
%TF.FilePolarity,Positive*%
%FSLAX46Y46*%
G04 Gerber Fmt 4.6, Leading zero omitted, Abs format (unit mm)*
G04 Created by KiCad (PCBNEW 7.0.5) date 2023-07-07 20:16:54*
%MOMM*%
%LPD*%
G01*
G04 APERTURE LIST*
%TA.AperFunction,SMDPad,CuDef*%
%ADD10R,2.000000X2.000000*%
%TD*%
%TA.AperFunction,SMDPad,CuDef*%
%ADD11R,1.700000X2.500000*%
%TD*%
%TA.AperFunction,SMDPad,CuDef*%
%ADD12R,2.500000X1.700000*%
%TD*%
%TA.AperFunction,SMDPad,CuDef*%
%ADD13R,5.000000X2.000000*%
%TD*%
%TA.AperFunction,ViaPad*%
%ADD14C,0.800000*%
%TD*%
%TA.AperFunction,Conductor*%
%ADD15C,2.000000*%
%TD*%
%TA.AperFunction,Conductor*%
%ADD16C,1.000000*%
%TD*%
%TA.AperFunction,Conductor*%
%ADD17C,1.500000*%
%TD*%
%TA.AperFunction,Conductor*%
%ADD18C,0.000000*%
%TD*%
G04 APERTURE END LIST*
D10*
%TO.P,REF\u002A\u002A,1*%
%TO.N,N/C*%
X23320000Y-48240000D03*
%TD*%
D11*
%TO.P,REF\u002A\u002A,1*%
%TO.N,N/C*%
X34820000Y-29090000D03*
%TO.P,REF\u002A\u002A,2*%
X37360000Y-29090000D03*
%TD*%
D12*
%TO.P,REF\u002A\u002A,1*%
%TO.N,N/C*%
X26900000Y-74840000D03*
%TO.P,REF\u002A\u002A,2*%
X26900000Y-72300000D03*
%TD*%
D13*
%TO.P,REF\u002A\u002A,1*%
%TO.N,N/C*%
X19511932Y-32362361D03*
%TD*%
D10*
%TO.P,REF\u002A\u002A,1*%
%TO.N,N/C*%
X44080000Y-77210000D03*
%TD*%
%TO.P,REF\u002A\u002A,1*%
%TO.N,N/C*%
X41600000Y-29540000D03*
%TD*%
D13*
%TO.P,REF\u002A\u002A,1*%
%TO.N,N/C*%
X19500000Y-67070000D03*
%TD*%
D10*
%TO.P,REF\u002A\u002A,1*%
%TO.N,N/C*%
X23350000Y-68650000D03*
%TD*%
%TO.P,REF\u002A\u002A,1*%
%TO.N,N/C*%
X37630000Y-31950000D03*
%TD*%
%TO.P,REF\u002A\u002A,1*%
%TO.N,N/C*%
X23330000Y-65680000D03*
%TD*%
D12*
%TO.P,J8,1,Pin_1*%
%TO.N,N/C*%
X27290000Y-44960000D03*
%TO.P,J8,2,Pin_2*%
X27290000Y-42420000D03*
%TO.P,J8,3,Pin_3*%
X27290000Y-39880000D03*
%TO.P,J8,4,Pin_4*%
X27290000Y-37340000D03*
%TD*%
D10*
%TO.P,REF\u002A\u002A,1*%
%TO.N,N/C*%
X23340000Y-51210000D03*
%TD*%
D12*
%TO.P,J8,1,Pin_1*%
%TO.N,N/C*%
X44290000Y-54600000D03*
%TO.P,J8,2,Pin_2*%
X44290000Y-57140000D03*
%TO.P,J8,3,Pin_3*%
X44290000Y-59680000D03*
%TO.P,J8,4,Pin_4*%
X44290000Y-62220000D03*
%TD*%
D10*
%TO.P,REF\u002A\u002A,1*%
%TO.N,N/C*%
X43920000Y-64890000D03*
%TD*%
D13*
%TO.P,REF\u002A\u002A,1*%
%TO.N,N/C*%
X19501932Y-84392361D03*
%TD*%
D10*
%TO.P,REF\u002A\u002A,1*%
%TO.N,N/C*%
X29860000Y-32350000D03*
%TD*%
%TO.P,REF\u002A\u002A,1*%
%TO.N,N/C*%
X51500000Y-51850000D03*
%TD*%
%TO.P,REF\u002A\u002A,1*%
%TO.N,N/C*%
X48970000Y-34490000D03*
%TD*%
D12*
%TO.P,J8,1,Pin_1*%
%TO.N,N/C*%
X44420000Y-37230000D03*
%TO.P,J8,2,Pin_2*%
X44420000Y-39770000D03*
%TO.P,J8,3,Pin_3*%
X44420000Y-42310000D03*
%TO.P,J8,4,Pin_4*%
X44420000Y-44850000D03*
%TD*%
D13*
%TO.P,REF\u002A\u002A,1*%
%TO.N,N/C*%
X19511932Y-49522361D03*
%TD*%
D10*
%TO.P,REF\u002A\u002A,1*%
%TO.N,N/C*%
X51510000Y-34500000D03*
%TD*%
D12*
%TO.P,REF\u002A\u002A,1*%
%TO.N,N/C*%
X27270000Y-29280000D03*
%TO.P,REF\u002A\u002A,2*%
X27270000Y-26740000D03*
%TD*%
D10*
%TO.P,REF\u002A\u002A,1*%
%TO.N,N/C*%
X27330000Y-34750000D03*
%TD*%
D12*
%TO.P,J8,1,Pin_1*%
%TO.N,N/C*%
X27160000Y-62330000D03*
%TO.P,J8,2,Pin_2*%
X27160000Y-59790000D03*
%TO.P,J8,3,Pin_3*%
X27160000Y-57250000D03*
%TO.P,J8,4,Pin_4*%
X27160000Y-54710000D03*
%TD*%
D10*
%TO.P,REF\u002A\u002A,1*%
%TO.N,N/C*%
X40020000Y-31950000D03*
%TD*%
D12*
%TO.P,REF\u002A\u002A,1*%
%TO.N,N/C*%
X44650000Y-26590000D03*
%TO.P,REF\u002A\u002A,2*%
X44650000Y-29130000D03*
%TD*%
D10*
%TO.P,REF\u002A\u002A,1*%
%TO.N,N/C*%
X44400000Y-47490000D03*
%TD*%
%TO.P,REF\u002A\u002A,1*%
%TO.N,N/C*%
X27330000Y-32350000D03*
%TD*%
%TO.P,REF\u002A\u002A,1*%
%TO.N,N/C*%
X34760000Y-83930000D03*
%TD*%
D11*
%TO.P,REF\u002A\u002A,1*%
%TO.N,N/C*%
X37560000Y-86250000D03*
%TO.P,REF\u002A\u002A,2*%
X35020000Y-86250000D03*
%TD*%
D12*
%TO.P,REF\u002A\u002A,1*%
%TO.N,N/C*%
X44280000Y-72150000D03*
%TO.P,REF\u002A\u002A,2*%
X44280000Y-74690000D03*
%TD*%
D10*
%TO.P,REF\u002A\u002A,1*%
%TO.N,N/C*%
X41590000Y-27140000D03*
%TD*%
%TO.P,REF\u002A\u002A,1*%
%TO.N,N/C*%
X37960000Y-83930000D03*
%TD*%
%TO.P,REF\u002A\u002A,1*%
%TO.N,N/C*%
X48960000Y-51840000D03*
%TD*%
D14*
%TO.N,*%
X52860000Y-65410000D03*
X52900000Y-34010000D03*
X54360000Y-65400000D03*
X52910000Y-51080000D03*
X52980000Y-82800000D03*
X54350000Y-34050000D03*
X40950000Y-32880000D03*
X52810000Y-68720000D03*
X54410000Y-82800000D03*
X54330000Y-68700000D03*
X52850000Y-30750000D03*
X54360000Y-47970000D03*
X54200000Y-30770000D03*
X40950000Y-31710000D03*
X53030000Y-48020000D03*
X54300000Y-51040000D03*
%TD*%
D15*
%TO.N,*%
X20350000Y-33220000D02*
X20350000Y-29910000D01*
X44280000Y-57150000D02*
X44290000Y-57140000D01*
X46320000Y-39770000D02*
X48970000Y-37120000D01*
X27170000Y-57150000D02*
X44280000Y-57150000D01*
D16*
X37560000Y-86250000D02*
X38990000Y-86250000D01*
D17*
X53860000Y-47470000D02*
X44420000Y-47470000D01*
X24930000Y-54750000D02*
X27350000Y-54750000D01*
X54180000Y-30750000D02*
X54200000Y-30770000D01*
D15*
X44050000Y-80520000D02*
X44050000Y-78210000D01*
D17*
X24440000Y-72140000D02*
X26570000Y-72140000D01*
D15*
X37970000Y-82280000D02*
X39730000Y-80520000D01*
D16*
X34710000Y-83930000D02*
X34670000Y-83970000D01*
D18*
X53550000Y-49740000D02*
X53630000Y-49660000D01*
D17*
X52810000Y-68720000D02*
X53750000Y-68720000D01*
X54360000Y-65400000D02*
X54020000Y-65060000D01*
D15*
X44280000Y-72150000D02*
X44270000Y-72140000D01*
D17*
X23320000Y-48240000D02*
X23320000Y-43450000D01*
D16*
X20330000Y-68830000D02*
X20000000Y-68500000D01*
D15*
X27610000Y-44860000D02*
X36790000Y-44860000D01*
D17*
X44420000Y-47470000D02*
X44400000Y-47490000D01*
D15*
X46090000Y-57140000D02*
X48960000Y-54270000D01*
X44420000Y-42310000D02*
X27400000Y-42310000D01*
X27270000Y-29280000D02*
X29760000Y-29280000D01*
D17*
X24350000Y-42420000D02*
X27290000Y-42420000D01*
D15*
X52980000Y-81370000D02*
X52980000Y-82800000D01*
D16*
X34990000Y-86280000D02*
X33610000Y-86280000D01*
D15*
X44410000Y-44860000D02*
X44420000Y-44850000D01*
D16*
X35020000Y-86250000D02*
X34990000Y-86280000D01*
X20000000Y-66050000D02*
X20350000Y-65700000D01*
D15*
X44280000Y-74690000D02*
X44290000Y-74680000D01*
X44240000Y-59730000D02*
X27450000Y-59730000D01*
D17*
X52850000Y-30750000D02*
X54180000Y-30750000D01*
X23340000Y-51210000D02*
X23340000Y-53160000D01*
X53750000Y-68720000D02*
X54310000Y-68720000D01*
D15*
X29860000Y-32350000D02*
X31860000Y-32350000D01*
D17*
X53030000Y-48020000D02*
X54310000Y-48020000D01*
D16*
X26910000Y-26750000D02*
X27300000Y-27140000D01*
D15*
X53630000Y-82020000D02*
X54410000Y-82800000D01*
X23520000Y-26740000D02*
X25490000Y-26740000D01*
D17*
X52860000Y-65410000D02*
X52860000Y-51130000D01*
D15*
X44290000Y-59680000D02*
X44240000Y-59730000D01*
D18*
X37360000Y-29090000D02*
X37410000Y-29140000D01*
D15*
X44290000Y-57140000D02*
X44340000Y-57090000D01*
X37970000Y-83920000D02*
X37970000Y-82280000D01*
X27450000Y-59730000D02*
X27350000Y-59830000D01*
D16*
X20350000Y-65700000D02*
X20020000Y-65370000D01*
D15*
X45390000Y-74690000D02*
X45640000Y-74940000D01*
D17*
X52910000Y-51080000D02*
X54260000Y-51080000D01*
D15*
X20350000Y-79120000D02*
X25160000Y-83930000D01*
X27170000Y-74690000D02*
X30440000Y-74690000D01*
X25160000Y-83930000D02*
X34760000Y-83930000D01*
X20350000Y-71300000D02*
X20370000Y-71320000D01*
D17*
X37670000Y-31950000D02*
X37370000Y-31650000D01*
X54310000Y-48020000D02*
X54360000Y-47970000D01*
D15*
X44270000Y-54580000D02*
X44290000Y-54600000D01*
X39200000Y-62340000D02*
X43920000Y-62340000D01*
X30440000Y-74690000D02*
X44280000Y-74690000D01*
D18*
X37410000Y-29140000D02*
X38250000Y-29140000D01*
D16*
X27350000Y-54750000D02*
X27350000Y-54220000D01*
D17*
X54310000Y-34010000D02*
X54350000Y-34050000D01*
D16*
X35080000Y-84300000D02*
X34710000Y-83930000D01*
D15*
X27600000Y-44850000D02*
X27610000Y-44860000D01*
D17*
X37370000Y-29100000D02*
X37360000Y-29090000D01*
D15*
X52980000Y-82800000D02*
X54410000Y-82800000D01*
X33580000Y-25460000D02*
X39910000Y-25460000D01*
D17*
X44090000Y-65060000D02*
X43920000Y-64890000D01*
X24460000Y-59830000D02*
X27350000Y-59830000D01*
D15*
X52130000Y-80520000D02*
X52980000Y-81370000D01*
X27330000Y-34750000D02*
X27330000Y-37120000D01*
X20610000Y-32360000D02*
X27290000Y-32360000D01*
D17*
X23350000Y-68650000D02*
X23350000Y-71050000D01*
D15*
X39910000Y-25460000D02*
X41590000Y-27140000D01*
D17*
X54350000Y-65410000D02*
X54360000Y-65400000D01*
X23330000Y-65680000D02*
X23330000Y-60960000D01*
D15*
X44420000Y-44850000D02*
X44440000Y-44870000D01*
D16*
X38990000Y-86250000D02*
X39000000Y-86240000D01*
D18*
X27290000Y-37340000D02*
X27420000Y-37210000D01*
D15*
X41600000Y-29540000D02*
X41620000Y-29560000D01*
X25490000Y-26740000D02*
X27270000Y-26740000D01*
D17*
X53030000Y-34140000D02*
X52900000Y-34010000D01*
X37370000Y-31650000D02*
X37370000Y-29100000D01*
D15*
X29190000Y-54580000D02*
X44270000Y-54580000D01*
X27470000Y-39780000D02*
X44410000Y-39780000D01*
X48960000Y-54270000D02*
X48960000Y-51840000D01*
X53010000Y-30750000D02*
X48850000Y-26590000D01*
X48970000Y-37120000D02*
X48970000Y-34490000D01*
D17*
X54260000Y-51080000D02*
X54300000Y-51040000D01*
X23340000Y-53160000D02*
X24930000Y-54750000D01*
X54310000Y-68720000D02*
X54330000Y-68700000D01*
D15*
X20370000Y-83524293D02*
X19501932Y-84392361D01*
X20350000Y-29910000D02*
X23520000Y-26740000D01*
D17*
X54360000Y-47970000D02*
X53860000Y-47470000D01*
D15*
X39200000Y-62340000D02*
X44170000Y-62340000D01*
D17*
X54020000Y-65060000D02*
X44090000Y-65060000D01*
D15*
X36790000Y-44860000D02*
X44410000Y-44860000D01*
X27170000Y-62340000D02*
X39200000Y-62340000D01*
X44290000Y-57140000D02*
X46090000Y-57140000D01*
X36790000Y-44860000D02*
X44430000Y-44860000D01*
X44420000Y-39770000D02*
X46320000Y-39770000D01*
D17*
X53030000Y-48020000D02*
X53030000Y-34140000D01*
D15*
X44410000Y-39780000D02*
X44420000Y-39770000D01*
D17*
X23330000Y-60960000D02*
X24460000Y-59830000D01*
D15*
X20350000Y-71300000D02*
X20350000Y-33220000D01*
X44280000Y-74690000D02*
X45390000Y-74690000D01*
D17*
X52860000Y-51130000D02*
X52910000Y-51080000D01*
D15*
X44270000Y-72140000D02*
X26570000Y-72140000D01*
X52980000Y-69490000D02*
X53750000Y-68720000D01*
D17*
X52900000Y-34010000D02*
X54310000Y-34010000D01*
D15*
X27330000Y-37120000D02*
X27420000Y-37210000D01*
X29190000Y-54580000D02*
X26710000Y-54580000D01*
X29760000Y-29280000D02*
X33580000Y-25460000D01*
X31860000Y-32350000D02*
X34820000Y-29390000D01*
X20350000Y-71300000D02*
X20350000Y-79120000D01*
D17*
X52860000Y-65410000D02*
X54350000Y-65410000D01*
D15*
X20350000Y-71300000D02*
X20350000Y-65700000D01*
X27170000Y-54580000D02*
X29190000Y-54580000D01*
X44050000Y-80520000D02*
X52130000Y-80520000D01*
D16*
X20210000Y-68950000D02*
X20330000Y-68830000D01*
D15*
X41620000Y-29560000D02*
X44220000Y-29560000D01*
X39730000Y-80520000D02*
X44050000Y-80520000D01*
X48850000Y-26590000D02*
X44650000Y-26590000D01*
D17*
X23320000Y-43450000D02*
X24350000Y-42420000D01*
D15*
X27420000Y-37210000D02*
X44400000Y-37210000D01*
X27150000Y-74710000D02*
X27170000Y-74690000D01*
D17*
X23350000Y-71050000D02*
X24440000Y-72140000D01*
D15*
X54180000Y-30750000D02*
X53010000Y-30750000D01*
X20370000Y-71320000D02*
X20370000Y-83524293D01*
X52980000Y-82800000D02*
X52980000Y-69490000D01*
%TD*%
M02*
