%TF.GenerationSoftware,KiCad,Pcbnew,7.0.2*%
%TF.CreationDate,2023-05-17T15:36:20+02:00*%
%TF.ProjectId,78_1x39_1mm Solr tile,37382c31-7833-4392-9c31-6d6d20536f6c,rev?*%
%TF.SameCoordinates,Original*%
%TF.FileFunction,Drillmap*%
%TF.FilePolarity,Positive*%
%FSLAX45Y45*%
G04 Gerber Fmt 4.5, Leading zero omitted, Abs format (unit mm)*
G04 Created by KiCad (PCBNEW 7.0.2) date 2023-05-17 15:36:20*
%MOMM*%
%LPD*%
G01*
G04 APERTURE LIST*
%ADD10C,0.100000*%
%ADD11C,0.200000*%
%ADD12C,0.210000*%
G04 APERTURE END LIST*
D10*
X10531445Y-10745602D02*
X14544445Y-10745602D01*
X14544445Y-19671602D01*
X10531445Y-19671602D01*
X10531445Y-10745602D01*
X15088445Y-10734602D02*
X19101445Y-10734602D01*
X19101445Y-19660602D01*
X15088445Y-19660602D01*
X15088445Y-10734602D01*
X19624445Y-10718602D02*
X23637445Y-10718602D01*
X23637445Y-19644602D01*
X19624445Y-19644602D01*
X19624445Y-10718602D01*
X6022000Y-10692000D02*
X10035000Y-10692000D01*
X10035000Y-19618000D01*
X6022000Y-19618000D01*
X6022000Y-10692000D01*
X1465000Y-10703000D02*
X5478000Y-10703000D01*
X5478000Y-19629000D01*
X1465000Y-19629000D01*
X1465000Y-10703000D01*
X19624445Y-1388602D02*
X23637445Y-1388602D01*
X23637445Y-10314602D01*
X19624445Y-10314602D01*
X19624445Y-1388602D01*
X15088445Y-1404601D02*
X19101445Y-1404601D01*
X19101445Y-10330602D01*
X15088445Y-10330602D01*
X15088445Y-1404601D01*
X10531445Y-1415601D02*
X14544445Y-1415601D01*
X14544445Y-10341602D01*
X10531445Y-10341602D01*
X10531445Y-1415601D01*
X6022000Y-1362000D02*
X10035000Y-1362000D01*
X10035000Y-10288000D01*
X6022000Y-10288000D01*
X6022000Y-1362000D01*
X1465000Y-1373000D02*
X5478000Y-1373000D01*
X5478000Y-10299000D01*
X1465000Y-10299000D01*
X1465000Y-1373000D01*
D11*
D12*
X1643000Y-1534000D02*
X1853000Y-1744000D01*
X1853000Y-1534000D02*
X1643000Y-1744000D01*
X1643000Y-10864000D02*
X1853000Y-11074000D01*
X1853000Y-10864000D02*
X1643000Y-11074000D01*
X1654000Y-9918000D02*
X1864000Y-10128000D01*
X1864000Y-9918000D02*
X1654000Y-10128000D01*
X1654000Y-19248000D02*
X1864000Y-19458000D01*
X1864000Y-19248000D02*
X1654000Y-19458000D01*
X5066000Y-9918000D02*
X5276000Y-10128000D01*
X5276000Y-9918000D02*
X5066000Y-10128000D01*
X5066000Y-19248000D02*
X5276000Y-19458000D01*
X5276000Y-19248000D02*
X5066000Y-19458000D01*
X5101000Y-1524000D02*
X5311000Y-1734000D01*
X5311000Y-1524000D02*
X5101000Y-1734000D01*
X5101000Y-10854000D02*
X5311000Y-11064000D01*
X5311000Y-10854000D02*
X5101000Y-11064000D01*
X6200000Y-1523000D02*
X6410000Y-1733000D01*
X6410000Y-1523000D02*
X6200000Y-1733000D01*
X6200000Y-10853000D02*
X6410000Y-11063000D01*
X6410000Y-10853000D02*
X6200000Y-11063000D01*
X6211000Y-9907000D02*
X6421000Y-10117000D01*
X6421000Y-9907000D02*
X6211000Y-10117000D01*
X6211000Y-19237000D02*
X6421000Y-19447000D01*
X6421000Y-19237000D02*
X6211000Y-19447000D01*
X9623000Y-9907000D02*
X9833000Y-10117000D01*
X9833000Y-9907000D02*
X9623000Y-10117000D01*
X9623000Y-19237000D02*
X9833000Y-19447000D01*
X9833000Y-19237000D02*
X9623000Y-19447000D01*
X9658000Y-1513000D02*
X9868000Y-1723000D01*
X9868000Y-1513000D02*
X9658000Y-1723000D01*
X9658000Y-10843000D02*
X9868000Y-11053000D01*
X9868000Y-10843000D02*
X9658000Y-11053000D01*
X10709445Y-1576601D02*
X10919445Y-1786601D01*
X10919445Y-1576601D02*
X10709445Y-1786601D01*
X10709445Y-10906602D02*
X10919445Y-11116602D01*
X10919445Y-10906602D02*
X10709445Y-11116602D01*
X10720445Y-9960602D02*
X10930445Y-10170602D01*
X10930445Y-9960602D02*
X10720445Y-10170602D01*
X10720445Y-19290602D02*
X10930445Y-19500602D01*
X10930445Y-19290602D02*
X10720445Y-19500602D01*
X14132445Y-9960602D02*
X14342445Y-10170602D01*
X14342445Y-9960602D02*
X14132445Y-10170602D01*
X14132445Y-19290602D02*
X14342445Y-19500602D01*
X14342445Y-19290602D02*
X14132445Y-19500602D01*
X14167445Y-1566601D02*
X14377445Y-1776601D01*
X14377445Y-1566601D02*
X14167445Y-1776601D01*
X14167445Y-10896602D02*
X14377445Y-11106602D01*
X14377445Y-10896602D02*
X14167445Y-11106602D01*
X15266445Y-1565601D02*
X15476445Y-1775601D01*
X15476445Y-1565601D02*
X15266445Y-1775601D01*
X15266445Y-10895602D02*
X15476445Y-11105602D01*
X15476445Y-10895602D02*
X15266445Y-11105602D01*
X15277445Y-9949602D02*
X15487445Y-10159602D01*
X15487445Y-9949602D02*
X15277445Y-10159602D01*
X15277445Y-19279602D02*
X15487445Y-19489602D01*
X15487445Y-19279602D02*
X15277445Y-19489602D01*
X18689445Y-9949602D02*
X18899445Y-10159602D01*
X18899445Y-9949602D02*
X18689445Y-10159602D01*
X18689445Y-19279602D02*
X18899445Y-19489602D01*
X18899445Y-19279602D02*
X18689445Y-19489602D01*
X18724445Y-1555601D02*
X18934445Y-1765601D01*
X18934445Y-1555601D02*
X18724445Y-1765601D01*
X18724445Y-10885602D02*
X18934445Y-11095602D01*
X18934445Y-10885602D02*
X18724445Y-11095602D01*
X19802445Y-1549601D02*
X20012445Y-1759601D01*
X20012445Y-1549601D02*
X19802445Y-1759601D01*
X19802445Y-10879602D02*
X20012445Y-11089602D01*
X20012445Y-10879602D02*
X19802445Y-11089602D01*
X19813445Y-9933602D02*
X20023445Y-10143602D01*
X20023445Y-9933602D02*
X19813445Y-10143602D01*
X19813445Y-19263602D02*
X20023445Y-19473602D01*
X20023445Y-19263602D02*
X19813445Y-19473602D01*
X23225445Y-9933602D02*
X23435445Y-10143602D01*
X23435445Y-9933602D02*
X23225445Y-10143602D01*
X23225445Y-19263602D02*
X23435445Y-19473602D01*
X23435445Y-19263602D02*
X23225445Y-19473602D01*
X23260445Y-1539601D02*
X23470445Y-1749601D01*
X23470445Y-1539601D02*
X23260445Y-1749601D01*
X23260445Y-10869602D02*
X23470445Y-11079602D01*
X23470445Y-10869602D02*
X23260445Y-11079602D01*
D11*
X1707619Y-19989125D02*
X1707619Y-19789125D01*
X1707619Y-19789125D02*
X1755238Y-19789125D01*
X1755238Y-19789125D02*
X1783809Y-19798649D01*
X1783809Y-19798649D02*
X1802857Y-19817697D01*
X1802857Y-19817697D02*
X1812381Y-19836744D01*
X1812381Y-19836744D02*
X1821905Y-19874840D01*
X1821905Y-19874840D02*
X1821905Y-19903411D01*
X1821905Y-19903411D02*
X1812381Y-19941506D01*
X1812381Y-19941506D02*
X1802857Y-19960554D01*
X1802857Y-19960554D02*
X1783809Y-19979602D01*
X1783809Y-19979602D02*
X1755238Y-19989125D01*
X1755238Y-19989125D02*
X1707619Y-19989125D01*
X1907619Y-19989125D02*
X1907619Y-19855792D01*
X1907619Y-19893887D02*
X1917143Y-19874840D01*
X1917143Y-19874840D02*
X1926667Y-19865316D01*
X1926667Y-19865316D02*
X1945714Y-19855792D01*
X1945714Y-19855792D02*
X1964762Y-19855792D01*
X2031428Y-19989125D02*
X2031428Y-19855792D01*
X2031428Y-19789125D02*
X2021905Y-19798649D01*
X2021905Y-19798649D02*
X2031428Y-19808173D01*
X2031428Y-19808173D02*
X2040952Y-19798649D01*
X2040952Y-19798649D02*
X2031428Y-19789125D01*
X2031428Y-19789125D02*
X2031428Y-19808173D01*
X2155238Y-19989125D02*
X2136190Y-19979602D01*
X2136190Y-19979602D02*
X2126667Y-19960554D01*
X2126667Y-19960554D02*
X2126667Y-19789125D01*
X2260000Y-19989125D02*
X2240952Y-19979602D01*
X2240952Y-19979602D02*
X2231429Y-19960554D01*
X2231429Y-19960554D02*
X2231429Y-19789125D01*
X2488571Y-19989125D02*
X2488571Y-19789125D01*
X2488571Y-19789125D02*
X2555238Y-19931982D01*
X2555238Y-19931982D02*
X2621905Y-19789125D01*
X2621905Y-19789125D02*
X2621905Y-19989125D01*
X2802857Y-19989125D02*
X2802857Y-19884363D01*
X2802857Y-19884363D02*
X2793333Y-19865316D01*
X2793333Y-19865316D02*
X2774286Y-19855792D01*
X2774286Y-19855792D02*
X2736190Y-19855792D01*
X2736190Y-19855792D02*
X2717143Y-19865316D01*
X2802857Y-19979602D02*
X2783810Y-19989125D01*
X2783810Y-19989125D02*
X2736190Y-19989125D01*
X2736190Y-19989125D02*
X2717143Y-19979602D01*
X2717143Y-19979602D02*
X2707619Y-19960554D01*
X2707619Y-19960554D02*
X2707619Y-19941506D01*
X2707619Y-19941506D02*
X2717143Y-19922459D01*
X2717143Y-19922459D02*
X2736190Y-19912935D01*
X2736190Y-19912935D02*
X2783810Y-19912935D01*
X2783810Y-19912935D02*
X2802857Y-19903411D01*
X2898095Y-19855792D02*
X2898095Y-20055792D01*
X2898095Y-19865316D02*
X2917143Y-19855792D01*
X2917143Y-19855792D02*
X2955238Y-19855792D01*
X2955238Y-19855792D02*
X2974286Y-19865316D01*
X2974286Y-19865316D02*
X2983809Y-19874840D01*
X2983809Y-19874840D02*
X2993333Y-19893887D01*
X2993333Y-19893887D02*
X2993333Y-19951030D01*
X2993333Y-19951030D02*
X2983809Y-19970078D01*
X2983809Y-19970078D02*
X2974286Y-19979602D01*
X2974286Y-19979602D02*
X2955238Y-19989125D01*
X2955238Y-19989125D02*
X2917143Y-19989125D01*
X2917143Y-19989125D02*
X2898095Y-19979602D01*
X3079048Y-19970078D02*
X3088571Y-19979602D01*
X3088571Y-19979602D02*
X3079048Y-19989125D01*
X3079048Y-19989125D02*
X3069524Y-19979602D01*
X3069524Y-19979602D02*
X3079048Y-19970078D01*
X3079048Y-19970078D02*
X3079048Y-19989125D01*
X3079048Y-19865316D02*
X3088571Y-19874840D01*
X3088571Y-19874840D02*
X3079048Y-19884363D01*
X3079048Y-19884363D02*
X3069524Y-19874840D01*
X3069524Y-19874840D02*
X3079048Y-19865316D01*
X3079048Y-19865316D02*
X3079048Y-19884363D01*
X1260000Y-20216602D02*
X1460000Y-20416602D01*
X1460000Y-20216602D02*
X1260000Y-20416602D01*
X1698095Y-20228173D02*
X1707619Y-20218649D01*
X1707619Y-20218649D02*
X1726667Y-20209125D01*
X1726667Y-20209125D02*
X1774286Y-20209125D01*
X1774286Y-20209125D02*
X1793333Y-20218649D01*
X1793333Y-20218649D02*
X1802857Y-20228173D01*
X1802857Y-20228173D02*
X1812381Y-20247221D01*
X1812381Y-20247221D02*
X1812381Y-20266268D01*
X1812381Y-20266268D02*
X1802857Y-20294840D01*
X1802857Y-20294840D02*
X1688571Y-20409125D01*
X1688571Y-20409125D02*
X1812381Y-20409125D01*
X1898095Y-20390078D02*
X1907619Y-20399602D01*
X1907619Y-20399602D02*
X1898095Y-20409125D01*
X1898095Y-20409125D02*
X1888571Y-20399602D01*
X1888571Y-20399602D02*
X1898095Y-20390078D01*
X1898095Y-20390078D02*
X1898095Y-20409125D01*
X2098095Y-20409125D02*
X1983809Y-20409125D01*
X2040952Y-20409125D02*
X2040952Y-20209125D01*
X2040952Y-20209125D02*
X2021905Y-20237697D01*
X2021905Y-20237697D02*
X2002857Y-20256744D01*
X2002857Y-20256744D02*
X1983809Y-20266268D01*
X2221905Y-20209125D02*
X2240952Y-20209125D01*
X2240952Y-20209125D02*
X2260000Y-20218649D01*
X2260000Y-20218649D02*
X2269524Y-20228173D01*
X2269524Y-20228173D02*
X2279048Y-20247221D01*
X2279048Y-20247221D02*
X2288571Y-20285316D01*
X2288571Y-20285316D02*
X2288571Y-20332935D01*
X2288571Y-20332935D02*
X2279048Y-20371030D01*
X2279048Y-20371030D02*
X2269524Y-20390078D01*
X2269524Y-20390078D02*
X2260000Y-20399602D01*
X2260000Y-20399602D02*
X2240952Y-20409125D01*
X2240952Y-20409125D02*
X2221905Y-20409125D01*
X2221905Y-20409125D02*
X2202857Y-20399602D01*
X2202857Y-20399602D02*
X2193333Y-20390078D01*
X2193333Y-20390078D02*
X2183810Y-20371030D01*
X2183810Y-20371030D02*
X2174286Y-20332935D01*
X2174286Y-20332935D02*
X2174286Y-20285316D01*
X2174286Y-20285316D02*
X2183810Y-20247221D01*
X2183810Y-20247221D02*
X2193333Y-20228173D01*
X2193333Y-20228173D02*
X2202857Y-20218649D01*
X2202857Y-20218649D02*
X2221905Y-20209125D01*
X2412381Y-20209125D02*
X2431429Y-20209125D01*
X2431429Y-20209125D02*
X2450476Y-20218649D01*
X2450476Y-20218649D02*
X2460000Y-20228173D01*
X2460000Y-20228173D02*
X2469524Y-20247221D01*
X2469524Y-20247221D02*
X2479048Y-20285316D01*
X2479048Y-20285316D02*
X2479048Y-20332935D01*
X2479048Y-20332935D02*
X2469524Y-20371030D01*
X2469524Y-20371030D02*
X2460000Y-20390078D01*
X2460000Y-20390078D02*
X2450476Y-20399602D01*
X2450476Y-20399602D02*
X2431429Y-20409125D01*
X2431429Y-20409125D02*
X2412381Y-20409125D01*
X2412381Y-20409125D02*
X2393333Y-20399602D01*
X2393333Y-20399602D02*
X2383810Y-20390078D01*
X2383810Y-20390078D02*
X2374286Y-20371030D01*
X2374286Y-20371030D02*
X2364762Y-20332935D01*
X2364762Y-20332935D02*
X2364762Y-20285316D01*
X2364762Y-20285316D02*
X2374286Y-20247221D01*
X2374286Y-20247221D02*
X2383810Y-20228173D01*
X2383810Y-20228173D02*
X2393333Y-20218649D01*
X2393333Y-20218649D02*
X2412381Y-20209125D01*
X2564762Y-20409125D02*
X2564762Y-20275792D01*
X2564762Y-20294840D02*
X2574286Y-20285316D01*
X2574286Y-20285316D02*
X2593333Y-20275792D01*
X2593333Y-20275792D02*
X2621905Y-20275792D01*
X2621905Y-20275792D02*
X2640952Y-20285316D01*
X2640952Y-20285316D02*
X2650476Y-20304363D01*
X2650476Y-20304363D02*
X2650476Y-20409125D01*
X2650476Y-20304363D02*
X2660000Y-20285316D01*
X2660000Y-20285316D02*
X2679048Y-20275792D01*
X2679048Y-20275792D02*
X2707619Y-20275792D01*
X2707619Y-20275792D02*
X2726667Y-20285316D01*
X2726667Y-20285316D02*
X2736191Y-20304363D01*
X2736191Y-20304363D02*
X2736191Y-20409125D01*
X2831429Y-20409125D02*
X2831429Y-20275792D01*
X2831429Y-20294840D02*
X2840952Y-20285316D01*
X2840952Y-20285316D02*
X2860000Y-20275792D01*
X2860000Y-20275792D02*
X2888571Y-20275792D01*
X2888571Y-20275792D02*
X2907619Y-20285316D01*
X2907619Y-20285316D02*
X2917143Y-20304363D01*
X2917143Y-20304363D02*
X2917143Y-20409125D01*
X2917143Y-20304363D02*
X2926667Y-20285316D01*
X2926667Y-20285316D02*
X2945714Y-20275792D01*
X2945714Y-20275792D02*
X2974286Y-20275792D01*
X2974286Y-20275792D02*
X2993333Y-20285316D01*
X2993333Y-20285316D02*
X3002857Y-20304363D01*
X3002857Y-20304363D02*
X3002857Y-20409125D01*
X3393333Y-20199602D02*
X3221905Y-20456744D01*
X3650476Y-20209125D02*
X3669524Y-20209125D01*
X3669524Y-20209125D02*
X3688572Y-20218649D01*
X3688572Y-20218649D02*
X3698095Y-20228173D01*
X3698095Y-20228173D02*
X3707619Y-20247221D01*
X3707619Y-20247221D02*
X3717143Y-20285316D01*
X3717143Y-20285316D02*
X3717143Y-20332935D01*
X3717143Y-20332935D02*
X3707619Y-20371030D01*
X3707619Y-20371030D02*
X3698095Y-20390078D01*
X3698095Y-20390078D02*
X3688572Y-20399602D01*
X3688572Y-20399602D02*
X3669524Y-20409125D01*
X3669524Y-20409125D02*
X3650476Y-20409125D01*
X3650476Y-20409125D02*
X3631429Y-20399602D01*
X3631429Y-20399602D02*
X3621905Y-20390078D01*
X3621905Y-20390078D02*
X3612381Y-20371030D01*
X3612381Y-20371030D02*
X3602857Y-20332935D01*
X3602857Y-20332935D02*
X3602857Y-20285316D01*
X3602857Y-20285316D02*
X3612381Y-20247221D01*
X3612381Y-20247221D02*
X3621905Y-20228173D01*
X3621905Y-20228173D02*
X3631429Y-20218649D01*
X3631429Y-20218649D02*
X3650476Y-20209125D01*
X3802857Y-20390078D02*
X3812381Y-20399602D01*
X3812381Y-20399602D02*
X3802857Y-20409125D01*
X3802857Y-20409125D02*
X3793333Y-20399602D01*
X3793333Y-20399602D02*
X3802857Y-20390078D01*
X3802857Y-20390078D02*
X3802857Y-20409125D01*
X3936191Y-20209125D02*
X3955238Y-20209125D01*
X3955238Y-20209125D02*
X3974286Y-20218649D01*
X3974286Y-20218649D02*
X3983810Y-20228173D01*
X3983810Y-20228173D02*
X3993333Y-20247221D01*
X3993333Y-20247221D02*
X4002857Y-20285316D01*
X4002857Y-20285316D02*
X4002857Y-20332935D01*
X4002857Y-20332935D02*
X3993333Y-20371030D01*
X3993333Y-20371030D02*
X3983810Y-20390078D01*
X3983810Y-20390078D02*
X3974286Y-20399602D01*
X3974286Y-20399602D02*
X3955238Y-20409125D01*
X3955238Y-20409125D02*
X3936191Y-20409125D01*
X3936191Y-20409125D02*
X3917143Y-20399602D01*
X3917143Y-20399602D02*
X3907619Y-20390078D01*
X3907619Y-20390078D02*
X3898095Y-20371030D01*
X3898095Y-20371030D02*
X3888572Y-20332935D01*
X3888572Y-20332935D02*
X3888572Y-20285316D01*
X3888572Y-20285316D02*
X3898095Y-20247221D01*
X3898095Y-20247221D02*
X3907619Y-20228173D01*
X3907619Y-20228173D02*
X3917143Y-20218649D01*
X3917143Y-20218649D02*
X3936191Y-20209125D01*
X4117143Y-20294840D02*
X4098095Y-20285316D01*
X4098095Y-20285316D02*
X4088572Y-20275792D01*
X4088572Y-20275792D02*
X4079048Y-20256744D01*
X4079048Y-20256744D02*
X4079048Y-20247221D01*
X4079048Y-20247221D02*
X4088572Y-20228173D01*
X4088572Y-20228173D02*
X4098095Y-20218649D01*
X4098095Y-20218649D02*
X4117143Y-20209125D01*
X4117143Y-20209125D02*
X4155238Y-20209125D01*
X4155238Y-20209125D02*
X4174286Y-20218649D01*
X4174286Y-20218649D02*
X4183810Y-20228173D01*
X4183810Y-20228173D02*
X4193333Y-20247221D01*
X4193333Y-20247221D02*
X4193333Y-20256744D01*
X4193333Y-20256744D02*
X4183810Y-20275792D01*
X4183810Y-20275792D02*
X4174286Y-20285316D01*
X4174286Y-20285316D02*
X4155238Y-20294840D01*
X4155238Y-20294840D02*
X4117143Y-20294840D01*
X4117143Y-20294840D02*
X4098095Y-20304363D01*
X4098095Y-20304363D02*
X4088572Y-20313887D01*
X4088572Y-20313887D02*
X4079048Y-20332935D01*
X4079048Y-20332935D02*
X4079048Y-20371030D01*
X4079048Y-20371030D02*
X4088572Y-20390078D01*
X4088572Y-20390078D02*
X4098095Y-20399602D01*
X4098095Y-20399602D02*
X4117143Y-20409125D01*
X4117143Y-20409125D02*
X4155238Y-20409125D01*
X4155238Y-20409125D02*
X4174286Y-20399602D01*
X4174286Y-20399602D02*
X4183810Y-20390078D01*
X4183810Y-20390078D02*
X4193333Y-20371030D01*
X4193333Y-20371030D02*
X4193333Y-20332935D01*
X4193333Y-20332935D02*
X4183810Y-20313887D01*
X4183810Y-20313887D02*
X4174286Y-20304363D01*
X4174286Y-20304363D02*
X4155238Y-20294840D01*
X4269524Y-20228173D02*
X4279048Y-20218649D01*
X4279048Y-20218649D02*
X4298095Y-20209125D01*
X4298095Y-20209125D02*
X4345715Y-20209125D01*
X4345715Y-20209125D02*
X4364762Y-20218649D01*
X4364762Y-20218649D02*
X4374286Y-20228173D01*
X4374286Y-20228173D02*
X4383810Y-20247221D01*
X4383810Y-20247221D02*
X4383810Y-20266268D01*
X4383810Y-20266268D02*
X4374286Y-20294840D01*
X4374286Y-20294840D02*
X4260000Y-20409125D01*
X4260000Y-20409125D02*
X4383810Y-20409125D01*
X4450476Y-20209125D02*
X4583810Y-20209125D01*
X4583810Y-20209125D02*
X4498095Y-20409125D01*
X4650476Y-20209125D02*
X4650476Y-20247221D01*
X4726667Y-20209125D02*
X4726667Y-20247221D01*
X5021905Y-20485316D02*
X5012381Y-20475792D01*
X5012381Y-20475792D02*
X4993334Y-20447221D01*
X4993334Y-20447221D02*
X4983810Y-20428173D01*
X4983810Y-20428173D02*
X4974286Y-20399602D01*
X4974286Y-20399602D02*
X4964762Y-20351982D01*
X4964762Y-20351982D02*
X4964762Y-20313887D01*
X4964762Y-20313887D02*
X4974286Y-20266268D01*
X4974286Y-20266268D02*
X4983810Y-20237697D01*
X4983810Y-20237697D02*
X4993334Y-20218649D01*
X4993334Y-20218649D02*
X5012381Y-20190078D01*
X5012381Y-20190078D02*
X5021905Y-20180554D01*
X5183810Y-20275792D02*
X5183810Y-20409125D01*
X5136191Y-20199602D02*
X5088572Y-20342459D01*
X5088572Y-20342459D02*
X5212381Y-20342459D01*
X5326667Y-20209125D02*
X5345715Y-20209125D01*
X5345715Y-20209125D02*
X5364762Y-20218649D01*
X5364762Y-20218649D02*
X5374286Y-20228173D01*
X5374286Y-20228173D02*
X5383810Y-20247221D01*
X5383810Y-20247221D02*
X5393334Y-20285316D01*
X5393334Y-20285316D02*
X5393334Y-20332935D01*
X5393334Y-20332935D02*
X5383810Y-20371030D01*
X5383810Y-20371030D02*
X5374286Y-20390078D01*
X5374286Y-20390078D02*
X5364762Y-20399602D01*
X5364762Y-20399602D02*
X5345715Y-20409125D01*
X5345715Y-20409125D02*
X5326667Y-20409125D01*
X5326667Y-20409125D02*
X5307619Y-20399602D01*
X5307619Y-20399602D02*
X5298096Y-20390078D01*
X5298096Y-20390078D02*
X5288572Y-20371030D01*
X5288572Y-20371030D02*
X5279048Y-20332935D01*
X5279048Y-20332935D02*
X5279048Y-20285316D01*
X5279048Y-20285316D02*
X5288572Y-20247221D01*
X5288572Y-20247221D02*
X5298096Y-20228173D01*
X5298096Y-20228173D02*
X5307619Y-20218649D01*
X5307619Y-20218649D02*
X5326667Y-20209125D01*
X5631429Y-20409125D02*
X5631429Y-20209125D01*
X5717143Y-20409125D02*
X5717143Y-20304363D01*
X5717143Y-20304363D02*
X5707619Y-20285316D01*
X5707619Y-20285316D02*
X5688572Y-20275792D01*
X5688572Y-20275792D02*
X5660000Y-20275792D01*
X5660000Y-20275792D02*
X5640953Y-20285316D01*
X5640953Y-20285316D02*
X5631429Y-20294840D01*
X5840953Y-20409125D02*
X5821905Y-20399602D01*
X5821905Y-20399602D02*
X5812381Y-20390078D01*
X5812381Y-20390078D02*
X5802857Y-20371030D01*
X5802857Y-20371030D02*
X5802857Y-20313887D01*
X5802857Y-20313887D02*
X5812381Y-20294840D01*
X5812381Y-20294840D02*
X5821905Y-20285316D01*
X5821905Y-20285316D02*
X5840953Y-20275792D01*
X5840953Y-20275792D02*
X5869524Y-20275792D01*
X5869524Y-20275792D02*
X5888572Y-20285316D01*
X5888572Y-20285316D02*
X5898096Y-20294840D01*
X5898096Y-20294840D02*
X5907619Y-20313887D01*
X5907619Y-20313887D02*
X5907619Y-20371030D01*
X5907619Y-20371030D02*
X5898096Y-20390078D01*
X5898096Y-20390078D02*
X5888572Y-20399602D01*
X5888572Y-20399602D02*
X5869524Y-20409125D01*
X5869524Y-20409125D02*
X5840953Y-20409125D01*
X6021905Y-20409125D02*
X6002857Y-20399602D01*
X6002857Y-20399602D02*
X5993334Y-20380554D01*
X5993334Y-20380554D02*
X5993334Y-20209125D01*
X6174286Y-20399602D02*
X6155238Y-20409125D01*
X6155238Y-20409125D02*
X6117143Y-20409125D01*
X6117143Y-20409125D02*
X6098096Y-20399602D01*
X6098096Y-20399602D02*
X6088572Y-20380554D01*
X6088572Y-20380554D02*
X6088572Y-20304363D01*
X6088572Y-20304363D02*
X6098096Y-20285316D01*
X6098096Y-20285316D02*
X6117143Y-20275792D01*
X6117143Y-20275792D02*
X6155238Y-20275792D01*
X6155238Y-20275792D02*
X6174286Y-20285316D01*
X6174286Y-20285316D02*
X6183810Y-20304363D01*
X6183810Y-20304363D02*
X6183810Y-20323411D01*
X6183810Y-20323411D02*
X6088572Y-20342459D01*
X6260000Y-20399602D02*
X6279048Y-20409125D01*
X6279048Y-20409125D02*
X6317143Y-20409125D01*
X6317143Y-20409125D02*
X6336191Y-20399602D01*
X6336191Y-20399602D02*
X6345715Y-20380554D01*
X6345715Y-20380554D02*
X6345715Y-20371030D01*
X6345715Y-20371030D02*
X6336191Y-20351982D01*
X6336191Y-20351982D02*
X6317143Y-20342459D01*
X6317143Y-20342459D02*
X6288572Y-20342459D01*
X6288572Y-20342459D02*
X6269524Y-20332935D01*
X6269524Y-20332935D02*
X6260000Y-20313887D01*
X6260000Y-20313887D02*
X6260000Y-20304363D01*
X6260000Y-20304363D02*
X6269524Y-20285316D01*
X6269524Y-20285316D02*
X6288572Y-20275792D01*
X6288572Y-20275792D02*
X6317143Y-20275792D01*
X6317143Y-20275792D02*
X6336191Y-20285316D01*
X6412381Y-20485316D02*
X6421905Y-20475792D01*
X6421905Y-20475792D02*
X6440953Y-20447221D01*
X6440953Y-20447221D02*
X6450477Y-20428173D01*
X6450477Y-20428173D02*
X6460000Y-20399602D01*
X6460000Y-20399602D02*
X6469524Y-20351982D01*
X6469524Y-20351982D02*
X6469524Y-20313887D01*
X6469524Y-20313887D02*
X6460000Y-20266268D01*
X6460000Y-20266268D02*
X6450477Y-20237697D01*
X6450477Y-20237697D02*
X6440953Y-20218649D01*
X6440953Y-20218649D02*
X6421905Y-20190078D01*
X6421905Y-20190078D02*
X6412381Y-20180554D01*
X6774286Y-20485316D02*
X6764762Y-20475792D01*
X6764762Y-20475792D02*
X6745715Y-20447221D01*
X6745715Y-20447221D02*
X6736191Y-20428173D01*
X6736191Y-20428173D02*
X6726667Y-20399602D01*
X6726667Y-20399602D02*
X6717143Y-20351982D01*
X6717143Y-20351982D02*
X6717143Y-20313887D01*
X6717143Y-20313887D02*
X6726667Y-20266268D01*
X6726667Y-20266268D02*
X6736191Y-20237697D01*
X6736191Y-20237697D02*
X6745715Y-20218649D01*
X6745715Y-20218649D02*
X6764762Y-20190078D01*
X6764762Y-20190078D02*
X6774286Y-20180554D01*
X6850477Y-20275792D02*
X6850477Y-20409125D01*
X6850477Y-20294840D02*
X6860000Y-20285316D01*
X6860000Y-20285316D02*
X6879048Y-20275792D01*
X6879048Y-20275792D02*
X6907619Y-20275792D01*
X6907619Y-20275792D02*
X6926667Y-20285316D01*
X6926667Y-20285316D02*
X6936191Y-20304363D01*
X6936191Y-20304363D02*
X6936191Y-20409125D01*
X7060000Y-20409125D02*
X7040953Y-20399602D01*
X7040953Y-20399602D02*
X7031429Y-20390078D01*
X7031429Y-20390078D02*
X7021905Y-20371030D01*
X7021905Y-20371030D02*
X7021905Y-20313887D01*
X7021905Y-20313887D02*
X7031429Y-20294840D01*
X7031429Y-20294840D02*
X7040953Y-20285316D01*
X7040953Y-20285316D02*
X7060000Y-20275792D01*
X7060000Y-20275792D02*
X7088572Y-20275792D01*
X7088572Y-20275792D02*
X7107619Y-20285316D01*
X7107619Y-20285316D02*
X7117143Y-20294840D01*
X7117143Y-20294840D02*
X7126667Y-20313887D01*
X7126667Y-20313887D02*
X7126667Y-20371030D01*
X7126667Y-20371030D02*
X7117143Y-20390078D01*
X7117143Y-20390078D02*
X7107619Y-20399602D01*
X7107619Y-20399602D02*
X7088572Y-20409125D01*
X7088572Y-20409125D02*
X7060000Y-20409125D01*
X7183810Y-20275792D02*
X7260000Y-20275792D01*
X7212381Y-20209125D02*
X7212381Y-20380554D01*
X7212381Y-20380554D02*
X7221905Y-20399602D01*
X7221905Y-20399602D02*
X7240953Y-20409125D01*
X7240953Y-20409125D02*
X7260000Y-20409125D01*
X7479048Y-20275792D02*
X7479048Y-20475792D01*
X7479048Y-20285316D02*
X7498096Y-20275792D01*
X7498096Y-20275792D02*
X7536191Y-20275792D01*
X7536191Y-20275792D02*
X7555239Y-20285316D01*
X7555239Y-20285316D02*
X7564762Y-20294840D01*
X7564762Y-20294840D02*
X7574286Y-20313887D01*
X7574286Y-20313887D02*
X7574286Y-20371030D01*
X7574286Y-20371030D02*
X7564762Y-20390078D01*
X7564762Y-20390078D02*
X7555239Y-20399602D01*
X7555239Y-20399602D02*
X7536191Y-20409125D01*
X7536191Y-20409125D02*
X7498096Y-20409125D01*
X7498096Y-20409125D02*
X7479048Y-20399602D01*
X7688572Y-20409125D02*
X7669524Y-20399602D01*
X7669524Y-20399602D02*
X7660000Y-20380554D01*
X7660000Y-20380554D02*
X7660000Y-20209125D01*
X7850477Y-20409125D02*
X7850477Y-20304363D01*
X7850477Y-20304363D02*
X7840953Y-20285316D01*
X7840953Y-20285316D02*
X7821905Y-20275792D01*
X7821905Y-20275792D02*
X7783810Y-20275792D01*
X7783810Y-20275792D02*
X7764762Y-20285316D01*
X7850477Y-20399602D02*
X7831429Y-20409125D01*
X7831429Y-20409125D02*
X7783810Y-20409125D01*
X7783810Y-20409125D02*
X7764762Y-20399602D01*
X7764762Y-20399602D02*
X7755239Y-20380554D01*
X7755239Y-20380554D02*
X7755239Y-20361506D01*
X7755239Y-20361506D02*
X7764762Y-20342459D01*
X7764762Y-20342459D02*
X7783810Y-20332935D01*
X7783810Y-20332935D02*
X7831429Y-20332935D01*
X7831429Y-20332935D02*
X7850477Y-20323411D01*
X7917143Y-20275792D02*
X7993334Y-20275792D01*
X7945715Y-20209125D02*
X7945715Y-20380554D01*
X7945715Y-20380554D02*
X7955239Y-20399602D01*
X7955239Y-20399602D02*
X7974286Y-20409125D01*
X7974286Y-20409125D02*
X7993334Y-20409125D01*
X8136191Y-20399602D02*
X8117143Y-20409125D01*
X8117143Y-20409125D02*
X8079048Y-20409125D01*
X8079048Y-20409125D02*
X8060000Y-20399602D01*
X8060000Y-20399602D02*
X8050477Y-20380554D01*
X8050477Y-20380554D02*
X8050477Y-20304363D01*
X8050477Y-20304363D02*
X8060000Y-20285316D01*
X8060000Y-20285316D02*
X8079048Y-20275792D01*
X8079048Y-20275792D02*
X8117143Y-20275792D01*
X8117143Y-20275792D02*
X8136191Y-20285316D01*
X8136191Y-20285316D02*
X8145715Y-20304363D01*
X8145715Y-20304363D02*
X8145715Y-20323411D01*
X8145715Y-20323411D02*
X8050477Y-20342459D01*
X8317143Y-20409125D02*
X8317143Y-20209125D01*
X8317143Y-20399602D02*
X8298096Y-20409125D01*
X8298096Y-20409125D02*
X8260000Y-20409125D01*
X8260000Y-20409125D02*
X8240953Y-20399602D01*
X8240953Y-20399602D02*
X8231429Y-20390078D01*
X8231429Y-20390078D02*
X8221905Y-20371030D01*
X8221905Y-20371030D02*
X8221905Y-20313887D01*
X8221905Y-20313887D02*
X8231429Y-20294840D01*
X8231429Y-20294840D02*
X8240953Y-20285316D01*
X8240953Y-20285316D02*
X8260000Y-20275792D01*
X8260000Y-20275792D02*
X8298096Y-20275792D01*
X8298096Y-20275792D02*
X8317143Y-20285316D01*
X8393334Y-20485316D02*
X8402858Y-20475792D01*
X8402858Y-20475792D02*
X8421905Y-20447221D01*
X8421905Y-20447221D02*
X8431429Y-20428173D01*
X8431429Y-20428173D02*
X8440953Y-20399602D01*
X8440953Y-20399602D02*
X8450477Y-20351982D01*
X8450477Y-20351982D02*
X8450477Y-20313887D01*
X8450477Y-20313887D02*
X8440953Y-20266268D01*
X8440953Y-20266268D02*
X8431429Y-20237697D01*
X8431429Y-20237697D02*
X8421905Y-20218649D01*
X8421905Y-20218649D02*
X8402858Y-20190078D01*
X8402858Y-20190078D02*
X8393334Y-20180554D01*
M02*
