%TF.GenerationSoftware,KiCad,Pcbnew,7.0.5*%
%TF.CreationDate,2023-05-31T19:25:17+02:00*%
%TF.ProjectId,78_1x39_1mm Solr tile,37382c31-7833-4392-9c31-6d6d20536f6c,rev?*%
%TF.SameCoordinates,Original*%
%TF.FileFunction,Drillmap*%
%TF.FilePolarity,Positive*%
%FSLAX45Y45*%
G04 Gerber Fmt 4.5, Leading zero omitted, Abs format (unit mm)*
G04 Created by KiCad (PCBNEW 7.0.5) date 2023-05-31 19:25:17*
%MOMM*%
%LPD*%
G01*
G04 APERTURE LIST*
%ADD10C,0.100000*%
%ADD11C,0.200000*%
%ADD12C,0.040000*%
G04 APERTURE END LIST*
D10*
X1595000Y-1763000D02*
X2221147Y-1763853D01*
X2545000Y-1764000D02*
G75*
G03*
X2445000Y-1864000I0J-100000D01*
G01*
X5608000Y-9781000D02*
X5608000Y-1764000D01*
X2321000Y-1863853D02*
X2321000Y-1864000D01*
X2321007Y-1863853D02*
G75*
G03*
X2221147Y-1763853I-100007J-7D01*
G01*
X2545000Y-1764000D02*
X5608000Y-1764000D01*
X2445000Y-1864000D02*
X2445000Y-1864000D01*
X2321000Y-1864000D02*
X2445000Y-1864000D01*
X1595000Y-9782000D02*
X5608000Y-9781000D01*
X1595000Y-1763000D02*
X1595000Y-9782000D01*
D11*
D12*
X5256000Y-6753000D02*
X5296000Y-6793000D01*
X5296000Y-6753000D02*
X5256000Y-6793000D01*
X5258000Y-6625000D02*
X5298000Y-6665000D01*
X5298000Y-6625000D02*
X5258000Y-6665000D01*
X5269000Y-3288000D02*
X5309000Y-3328000D01*
X5309000Y-3288000D02*
X5269000Y-3328000D01*
X5271000Y-3160000D02*
X5311000Y-3200000D01*
X5311000Y-3160000D02*
X5271000Y-3200000D01*
X5276000Y-5013000D02*
X5316000Y-5053000D01*
X5316000Y-5013000D02*
X5276000Y-5053000D01*
X5278000Y-4885000D02*
X5318000Y-4925000D01*
X5318000Y-4885000D02*
X5278000Y-4925000D01*
X5282000Y-8473000D02*
X5322000Y-8513000D01*
X5322000Y-8473000D02*
X5282000Y-8513000D01*
X5284000Y-8345000D02*
X5324000Y-8385000D01*
X5324000Y-8345000D02*
X5284000Y-8385000D01*
X5389000Y-6751000D02*
X5429000Y-6791000D01*
X5429000Y-6751000D02*
X5389000Y-6791000D01*
X5391000Y-6621000D02*
X5431000Y-6661000D01*
X5431000Y-6621000D02*
X5391000Y-6661000D01*
X5402000Y-3286000D02*
X5442000Y-3326000D01*
X5442000Y-3286000D02*
X5402000Y-3326000D01*
X5404000Y-3156000D02*
X5444000Y-3196000D01*
X5444000Y-3156000D02*
X5404000Y-3196000D01*
X5409000Y-5011000D02*
X5449000Y-5051000D01*
X5449000Y-5011000D02*
X5409000Y-5051000D01*
X5411000Y-4881000D02*
X5451000Y-4921000D01*
X5451000Y-4881000D02*
X5411000Y-4921000D01*
X5415000Y-8471000D02*
X5455000Y-8511000D01*
X5455000Y-8471000D02*
X5415000Y-8511000D01*
X5417000Y-8341000D02*
X5457000Y-8381000D01*
X5457000Y-8341000D02*
X5417000Y-8381000D01*
D10*
X2777000Y-2674000D02*
G75*
G03*
X2777000Y-2674000I-50000J0D01*
G01*
X2777000Y-2928000D02*
G75*
G03*
X2777000Y-2928000I-50000J0D01*
G01*
X2779000Y-3734000D02*
G75*
G03*
X2779000Y-3734000I-50000J0D01*
G01*
X2779000Y-3988000D02*
G75*
G03*
X2779000Y-3988000I-50000J0D01*
G01*
X2779000Y-4242000D02*
G75*
G03*
X2779000Y-4242000I-50000J0D01*
G01*
X2779000Y-4496000D02*
G75*
G03*
X2779000Y-4496000I-50000J0D01*
G01*
X2783000Y-7229000D02*
G75*
G03*
X2783000Y-7229000I-50000J0D01*
G01*
X2783000Y-7483000D02*
G75*
G03*
X2783000Y-7483000I-50000J0D01*
G01*
X2785000Y-5475000D02*
G75*
G03*
X2785000Y-5475000I-50000J0D01*
G01*
X2785000Y-5729000D02*
G75*
G03*
X2785000Y-5729000I-50000J0D01*
G01*
X2785000Y-5983000D02*
G75*
G03*
X2785000Y-5983000I-50000J0D01*
G01*
X2785000Y-6237000D02*
G75*
G03*
X2785000Y-6237000I-50000J0D01*
G01*
X3532000Y-2909000D02*
G75*
G03*
X3532000Y-2909000I-50000J0D01*
G01*
X3552000Y-8625000D02*
G75*
G03*
X3552000Y-8625000I-50000J0D01*
G01*
X3786000Y-2909000D02*
G75*
G03*
X3786000Y-2909000I-50000J0D01*
G01*
X3806000Y-8625000D02*
G75*
G03*
X3806000Y-8625000I-50000J0D01*
G01*
X4478000Y-7215000D02*
G75*
G03*
X4478000Y-7215000I-50000J0D01*
G01*
X4478000Y-7469000D02*
G75*
G03*
X4478000Y-7469000I-50000J0D01*
G01*
X4479000Y-5460000D02*
G75*
G03*
X4479000Y-5460000I-50000J0D01*
G01*
X4479000Y-5714000D02*
G75*
G03*
X4479000Y-5714000I-50000J0D01*
G01*
X4479000Y-5968000D02*
G75*
G03*
X4479000Y-5968000I-50000J0D01*
G01*
X4479000Y-6222000D02*
G75*
G03*
X4479000Y-6222000I-50000J0D01*
G01*
X4492000Y-3723000D02*
G75*
G03*
X4492000Y-3723000I-50000J0D01*
G01*
X4492000Y-3977000D02*
G75*
G03*
X4492000Y-3977000I-50000J0D01*
G01*
X4492000Y-4231000D02*
G75*
G03*
X4492000Y-4231000I-50000J0D01*
G01*
X4492000Y-4485000D02*
G75*
G03*
X4492000Y-4485000I-50000J0D01*
G01*
X4515000Y-2659000D02*
G75*
G03*
X4515000Y-2659000I-50000J0D01*
G01*
X4515000Y-2913000D02*
G75*
G03*
X4515000Y-2913000I-50000J0D01*
G01*
D11*
X1850777Y-10098484D02*
X1850777Y-9898484D01*
X1850777Y-9898484D02*
X1898396Y-9898484D01*
X1898396Y-9898484D02*
X1926967Y-9908008D01*
X1926967Y-9908008D02*
X1946015Y-9927055D01*
X1946015Y-9927055D02*
X1955539Y-9946103D01*
X1955539Y-9946103D02*
X1965062Y-9984198D01*
X1965062Y-9984198D02*
X1965062Y-10012770D01*
X1965062Y-10012770D02*
X1955539Y-10050865D01*
X1955539Y-10050865D02*
X1946015Y-10069912D01*
X1946015Y-10069912D02*
X1926967Y-10088960D01*
X1926967Y-10088960D02*
X1898396Y-10098484D01*
X1898396Y-10098484D02*
X1850777Y-10098484D01*
X2050777Y-10098484D02*
X2050777Y-9965150D01*
X2050777Y-10003246D02*
X2060301Y-9984198D01*
X2060301Y-9984198D02*
X2069824Y-9974674D01*
X2069824Y-9974674D02*
X2088872Y-9965150D01*
X2088872Y-9965150D02*
X2107920Y-9965150D01*
X2174586Y-10098484D02*
X2174586Y-9965150D01*
X2174586Y-9898484D02*
X2165063Y-9908008D01*
X2165063Y-9908008D02*
X2174586Y-9917531D01*
X2174586Y-9917531D02*
X2184110Y-9908008D01*
X2184110Y-9908008D02*
X2174586Y-9898484D01*
X2174586Y-9898484D02*
X2174586Y-9917531D01*
X2298396Y-10098484D02*
X2279348Y-10088960D01*
X2279348Y-10088960D02*
X2269824Y-10069912D01*
X2269824Y-10069912D02*
X2269824Y-9898484D01*
X2403158Y-10098484D02*
X2384110Y-10088960D01*
X2384110Y-10088960D02*
X2374586Y-10069912D01*
X2374586Y-10069912D02*
X2374586Y-9898484D01*
X2631729Y-10098484D02*
X2631729Y-9898484D01*
X2631729Y-9898484D02*
X2698396Y-10041341D01*
X2698396Y-10041341D02*
X2765063Y-9898484D01*
X2765063Y-9898484D02*
X2765063Y-10098484D01*
X2946015Y-10098484D02*
X2946015Y-9993722D01*
X2946015Y-9993722D02*
X2936491Y-9974674D01*
X2936491Y-9974674D02*
X2917443Y-9965150D01*
X2917443Y-9965150D02*
X2879348Y-9965150D01*
X2879348Y-9965150D02*
X2860301Y-9974674D01*
X2946015Y-10088960D02*
X2926967Y-10098484D01*
X2926967Y-10098484D02*
X2879348Y-10098484D01*
X2879348Y-10098484D02*
X2860301Y-10088960D01*
X2860301Y-10088960D02*
X2850777Y-10069912D01*
X2850777Y-10069912D02*
X2850777Y-10050865D01*
X2850777Y-10050865D02*
X2860301Y-10031817D01*
X2860301Y-10031817D02*
X2879348Y-10022293D01*
X2879348Y-10022293D02*
X2926967Y-10022293D01*
X2926967Y-10022293D02*
X2946015Y-10012770D01*
X3041253Y-9965150D02*
X3041253Y-10165150D01*
X3041253Y-9974674D02*
X3060301Y-9965150D01*
X3060301Y-9965150D02*
X3098396Y-9965150D01*
X3098396Y-9965150D02*
X3117443Y-9974674D01*
X3117443Y-9974674D02*
X3126967Y-9984198D01*
X3126967Y-9984198D02*
X3136491Y-10003246D01*
X3136491Y-10003246D02*
X3136491Y-10060389D01*
X3136491Y-10060389D02*
X3126967Y-10079436D01*
X3126967Y-10079436D02*
X3117443Y-10088960D01*
X3117443Y-10088960D02*
X3098396Y-10098484D01*
X3098396Y-10098484D02*
X3060301Y-10098484D01*
X3060301Y-10098484D02*
X3041253Y-10088960D01*
X3222205Y-10079436D02*
X3231729Y-10088960D01*
X3231729Y-10088960D02*
X3222205Y-10098484D01*
X3222205Y-10098484D02*
X3212682Y-10088960D01*
X3212682Y-10088960D02*
X3222205Y-10079436D01*
X3222205Y-10079436D02*
X3222205Y-10098484D01*
X3222205Y-9974674D02*
X3231729Y-9984198D01*
X3231729Y-9984198D02*
X3222205Y-9993722D01*
X3222205Y-9993722D02*
X3212682Y-9984198D01*
X3212682Y-9984198D02*
X3222205Y-9974674D01*
X3222205Y-9974674D02*
X3222205Y-9993722D01*
D12*
X1550000Y-10407000D02*
X1590000Y-10447000D01*
X1590000Y-10407000D02*
X1550000Y-10447000D01*
D11*
X1888872Y-10318484D02*
X1907920Y-10318484D01*
X1907920Y-10318484D02*
X1926967Y-10328008D01*
X1926967Y-10328008D02*
X1936491Y-10337531D01*
X1936491Y-10337531D02*
X1946015Y-10356579D01*
X1946015Y-10356579D02*
X1955539Y-10394674D01*
X1955539Y-10394674D02*
X1955539Y-10442293D01*
X1955539Y-10442293D02*
X1946015Y-10480389D01*
X1946015Y-10480389D02*
X1936491Y-10499436D01*
X1936491Y-10499436D02*
X1926967Y-10508960D01*
X1926967Y-10508960D02*
X1907920Y-10518484D01*
X1907920Y-10518484D02*
X1888872Y-10518484D01*
X1888872Y-10518484D02*
X1869824Y-10508960D01*
X1869824Y-10508960D02*
X1860301Y-10499436D01*
X1860301Y-10499436D02*
X1850777Y-10480389D01*
X1850777Y-10480389D02*
X1841253Y-10442293D01*
X1841253Y-10442293D02*
X1841253Y-10394674D01*
X1841253Y-10394674D02*
X1850777Y-10356579D01*
X1850777Y-10356579D02*
X1860301Y-10337531D01*
X1860301Y-10337531D02*
X1869824Y-10328008D01*
X1869824Y-10328008D02*
X1888872Y-10318484D01*
X2041253Y-10499436D02*
X2050777Y-10508960D01*
X2050777Y-10508960D02*
X2041253Y-10518484D01*
X2041253Y-10518484D02*
X2031729Y-10508960D01*
X2031729Y-10508960D02*
X2041253Y-10499436D01*
X2041253Y-10499436D02*
X2041253Y-10518484D01*
X2222205Y-10385150D02*
X2222205Y-10518484D01*
X2174586Y-10308960D02*
X2126967Y-10451817D01*
X2126967Y-10451817D02*
X2250777Y-10451817D01*
X2365063Y-10318484D02*
X2384110Y-10318484D01*
X2384110Y-10318484D02*
X2403158Y-10328008D01*
X2403158Y-10328008D02*
X2412682Y-10337531D01*
X2412682Y-10337531D02*
X2422205Y-10356579D01*
X2422205Y-10356579D02*
X2431729Y-10394674D01*
X2431729Y-10394674D02*
X2431729Y-10442293D01*
X2431729Y-10442293D02*
X2422205Y-10480389D01*
X2422205Y-10480389D02*
X2412682Y-10499436D01*
X2412682Y-10499436D02*
X2403158Y-10508960D01*
X2403158Y-10508960D02*
X2384110Y-10518484D01*
X2384110Y-10518484D02*
X2365063Y-10518484D01*
X2365063Y-10518484D02*
X2346015Y-10508960D01*
X2346015Y-10508960D02*
X2336491Y-10499436D01*
X2336491Y-10499436D02*
X2326967Y-10480389D01*
X2326967Y-10480389D02*
X2317444Y-10442293D01*
X2317444Y-10442293D02*
X2317444Y-10394674D01*
X2317444Y-10394674D02*
X2326967Y-10356579D01*
X2326967Y-10356579D02*
X2336491Y-10337531D01*
X2336491Y-10337531D02*
X2346015Y-10328008D01*
X2346015Y-10328008D02*
X2365063Y-10318484D01*
X2555539Y-10318484D02*
X2574586Y-10318484D01*
X2574586Y-10318484D02*
X2593634Y-10328008D01*
X2593634Y-10328008D02*
X2603158Y-10337531D01*
X2603158Y-10337531D02*
X2612682Y-10356579D01*
X2612682Y-10356579D02*
X2622205Y-10394674D01*
X2622205Y-10394674D02*
X2622205Y-10442293D01*
X2622205Y-10442293D02*
X2612682Y-10480389D01*
X2612682Y-10480389D02*
X2603158Y-10499436D01*
X2603158Y-10499436D02*
X2593634Y-10508960D01*
X2593634Y-10508960D02*
X2574586Y-10518484D01*
X2574586Y-10518484D02*
X2555539Y-10518484D01*
X2555539Y-10518484D02*
X2536491Y-10508960D01*
X2536491Y-10508960D02*
X2526967Y-10499436D01*
X2526967Y-10499436D02*
X2517444Y-10480389D01*
X2517444Y-10480389D02*
X2507920Y-10442293D01*
X2507920Y-10442293D02*
X2507920Y-10394674D01*
X2507920Y-10394674D02*
X2517444Y-10356579D01*
X2517444Y-10356579D02*
X2526967Y-10337531D01*
X2526967Y-10337531D02*
X2536491Y-10328008D01*
X2536491Y-10328008D02*
X2555539Y-10318484D01*
X2707920Y-10518484D02*
X2707920Y-10385150D01*
X2707920Y-10404198D02*
X2717444Y-10394674D01*
X2717444Y-10394674D02*
X2736491Y-10385150D01*
X2736491Y-10385150D02*
X2765063Y-10385150D01*
X2765063Y-10385150D02*
X2784110Y-10394674D01*
X2784110Y-10394674D02*
X2793634Y-10413722D01*
X2793634Y-10413722D02*
X2793634Y-10518484D01*
X2793634Y-10413722D02*
X2803158Y-10394674D01*
X2803158Y-10394674D02*
X2822205Y-10385150D01*
X2822205Y-10385150D02*
X2850777Y-10385150D01*
X2850777Y-10385150D02*
X2869824Y-10394674D01*
X2869824Y-10394674D02*
X2879348Y-10413722D01*
X2879348Y-10413722D02*
X2879348Y-10518484D01*
X2974586Y-10518484D02*
X2974586Y-10385150D01*
X2974586Y-10404198D02*
X2984110Y-10394674D01*
X2984110Y-10394674D02*
X3003158Y-10385150D01*
X3003158Y-10385150D02*
X3031729Y-10385150D01*
X3031729Y-10385150D02*
X3050777Y-10394674D01*
X3050777Y-10394674D02*
X3060301Y-10413722D01*
X3060301Y-10413722D02*
X3060301Y-10518484D01*
X3060301Y-10413722D02*
X3069824Y-10394674D01*
X3069824Y-10394674D02*
X3088872Y-10385150D01*
X3088872Y-10385150D02*
X3117443Y-10385150D01*
X3117443Y-10385150D02*
X3136491Y-10394674D01*
X3136491Y-10394674D02*
X3146015Y-10413722D01*
X3146015Y-10413722D02*
X3146015Y-10518484D01*
X3536491Y-10308960D02*
X3365063Y-10566103D01*
X3793634Y-10318484D02*
X3812682Y-10318484D01*
X3812682Y-10318484D02*
X3831729Y-10328008D01*
X3831729Y-10328008D02*
X3841253Y-10337531D01*
X3841253Y-10337531D02*
X3850777Y-10356579D01*
X3850777Y-10356579D02*
X3860301Y-10394674D01*
X3860301Y-10394674D02*
X3860301Y-10442293D01*
X3860301Y-10442293D02*
X3850777Y-10480389D01*
X3850777Y-10480389D02*
X3841253Y-10499436D01*
X3841253Y-10499436D02*
X3831729Y-10508960D01*
X3831729Y-10508960D02*
X3812682Y-10518484D01*
X3812682Y-10518484D02*
X3793634Y-10518484D01*
X3793634Y-10518484D02*
X3774586Y-10508960D01*
X3774586Y-10508960D02*
X3765063Y-10499436D01*
X3765063Y-10499436D02*
X3755539Y-10480389D01*
X3755539Y-10480389D02*
X3746015Y-10442293D01*
X3746015Y-10442293D02*
X3746015Y-10394674D01*
X3746015Y-10394674D02*
X3755539Y-10356579D01*
X3755539Y-10356579D02*
X3765063Y-10337531D01*
X3765063Y-10337531D02*
X3774586Y-10328008D01*
X3774586Y-10328008D02*
X3793634Y-10318484D01*
X3946015Y-10499436D02*
X3955539Y-10508960D01*
X3955539Y-10508960D02*
X3946015Y-10518484D01*
X3946015Y-10518484D02*
X3936491Y-10508960D01*
X3936491Y-10508960D02*
X3946015Y-10499436D01*
X3946015Y-10499436D02*
X3946015Y-10518484D01*
X4079348Y-10318484D02*
X4098396Y-10318484D01*
X4098396Y-10318484D02*
X4117444Y-10328008D01*
X4117444Y-10328008D02*
X4126967Y-10337531D01*
X4126967Y-10337531D02*
X4136491Y-10356579D01*
X4136491Y-10356579D02*
X4146015Y-10394674D01*
X4146015Y-10394674D02*
X4146015Y-10442293D01*
X4146015Y-10442293D02*
X4136491Y-10480389D01*
X4136491Y-10480389D02*
X4126967Y-10499436D01*
X4126967Y-10499436D02*
X4117444Y-10508960D01*
X4117444Y-10508960D02*
X4098396Y-10518484D01*
X4098396Y-10518484D02*
X4079348Y-10518484D01*
X4079348Y-10518484D02*
X4060301Y-10508960D01*
X4060301Y-10508960D02*
X4050777Y-10499436D01*
X4050777Y-10499436D02*
X4041253Y-10480389D01*
X4041253Y-10480389D02*
X4031729Y-10442293D01*
X4031729Y-10442293D02*
X4031729Y-10394674D01*
X4031729Y-10394674D02*
X4041253Y-10356579D01*
X4041253Y-10356579D02*
X4050777Y-10337531D01*
X4050777Y-10337531D02*
X4060301Y-10328008D01*
X4060301Y-10328008D02*
X4079348Y-10318484D01*
X4336491Y-10518484D02*
X4222206Y-10518484D01*
X4279348Y-10518484D02*
X4279348Y-10318484D01*
X4279348Y-10318484D02*
X4260301Y-10347055D01*
X4260301Y-10347055D02*
X4241253Y-10366103D01*
X4241253Y-10366103D02*
X4222206Y-10375627D01*
X4517444Y-10318484D02*
X4422206Y-10318484D01*
X4422206Y-10318484D02*
X4412682Y-10413722D01*
X4412682Y-10413722D02*
X4422206Y-10404198D01*
X4422206Y-10404198D02*
X4441253Y-10394674D01*
X4441253Y-10394674D02*
X4488872Y-10394674D01*
X4488872Y-10394674D02*
X4507920Y-10404198D01*
X4507920Y-10404198D02*
X4517444Y-10413722D01*
X4517444Y-10413722D02*
X4526968Y-10432770D01*
X4526968Y-10432770D02*
X4526968Y-10480389D01*
X4526968Y-10480389D02*
X4517444Y-10499436D01*
X4517444Y-10499436D02*
X4507920Y-10508960D01*
X4507920Y-10508960D02*
X4488872Y-10518484D01*
X4488872Y-10518484D02*
X4441253Y-10518484D01*
X4441253Y-10518484D02*
X4422206Y-10508960D01*
X4422206Y-10508960D02*
X4412682Y-10499436D01*
X4593634Y-10318484D02*
X4726968Y-10318484D01*
X4726968Y-10318484D02*
X4641253Y-10518484D01*
X4793634Y-10318484D02*
X4793634Y-10356579D01*
X4869825Y-10318484D02*
X4869825Y-10356579D01*
X5165063Y-10594674D02*
X5155539Y-10585150D01*
X5155539Y-10585150D02*
X5136491Y-10556579D01*
X5136491Y-10556579D02*
X5126968Y-10537531D01*
X5126968Y-10537531D02*
X5117444Y-10508960D01*
X5117444Y-10508960D02*
X5107920Y-10461341D01*
X5107920Y-10461341D02*
X5107920Y-10423246D01*
X5107920Y-10423246D02*
X5117444Y-10375627D01*
X5117444Y-10375627D02*
X5126968Y-10347055D01*
X5126968Y-10347055D02*
X5136491Y-10328008D01*
X5136491Y-10328008D02*
X5155539Y-10299436D01*
X5155539Y-10299436D02*
X5165063Y-10289912D01*
X5346015Y-10518484D02*
X5231730Y-10518484D01*
X5288872Y-10518484D02*
X5288872Y-10318484D01*
X5288872Y-10318484D02*
X5269825Y-10347055D01*
X5269825Y-10347055D02*
X5250777Y-10366103D01*
X5250777Y-10366103D02*
X5231730Y-10375627D01*
X5517444Y-10318484D02*
X5479349Y-10318484D01*
X5479349Y-10318484D02*
X5460301Y-10328008D01*
X5460301Y-10328008D02*
X5450777Y-10337531D01*
X5450777Y-10337531D02*
X5431730Y-10366103D01*
X5431730Y-10366103D02*
X5422206Y-10404198D01*
X5422206Y-10404198D02*
X5422206Y-10480389D01*
X5422206Y-10480389D02*
X5431730Y-10499436D01*
X5431730Y-10499436D02*
X5441253Y-10508960D01*
X5441253Y-10508960D02*
X5460301Y-10518484D01*
X5460301Y-10518484D02*
X5498396Y-10518484D01*
X5498396Y-10518484D02*
X5517444Y-10508960D01*
X5517444Y-10508960D02*
X5526968Y-10499436D01*
X5526968Y-10499436D02*
X5536491Y-10480389D01*
X5536491Y-10480389D02*
X5536491Y-10432770D01*
X5536491Y-10432770D02*
X5526968Y-10413722D01*
X5526968Y-10413722D02*
X5517444Y-10404198D01*
X5517444Y-10404198D02*
X5498396Y-10394674D01*
X5498396Y-10394674D02*
X5460301Y-10394674D01*
X5460301Y-10394674D02*
X5441253Y-10404198D01*
X5441253Y-10404198D02*
X5431730Y-10413722D01*
X5431730Y-10413722D02*
X5422206Y-10432770D01*
X5774587Y-10518484D02*
X5774587Y-10318484D01*
X5860301Y-10518484D02*
X5860301Y-10413722D01*
X5860301Y-10413722D02*
X5850777Y-10394674D01*
X5850777Y-10394674D02*
X5831730Y-10385150D01*
X5831730Y-10385150D02*
X5803158Y-10385150D01*
X5803158Y-10385150D02*
X5784110Y-10394674D01*
X5784110Y-10394674D02*
X5774587Y-10404198D01*
X5984110Y-10518484D02*
X5965063Y-10508960D01*
X5965063Y-10508960D02*
X5955539Y-10499436D01*
X5955539Y-10499436D02*
X5946015Y-10480389D01*
X5946015Y-10480389D02*
X5946015Y-10423246D01*
X5946015Y-10423246D02*
X5955539Y-10404198D01*
X5955539Y-10404198D02*
X5965063Y-10394674D01*
X5965063Y-10394674D02*
X5984110Y-10385150D01*
X5984110Y-10385150D02*
X6012682Y-10385150D01*
X6012682Y-10385150D02*
X6031730Y-10394674D01*
X6031730Y-10394674D02*
X6041253Y-10404198D01*
X6041253Y-10404198D02*
X6050777Y-10423246D01*
X6050777Y-10423246D02*
X6050777Y-10480389D01*
X6050777Y-10480389D02*
X6041253Y-10499436D01*
X6041253Y-10499436D02*
X6031730Y-10508960D01*
X6031730Y-10508960D02*
X6012682Y-10518484D01*
X6012682Y-10518484D02*
X5984110Y-10518484D01*
X6165063Y-10518484D02*
X6146015Y-10508960D01*
X6146015Y-10508960D02*
X6136491Y-10489912D01*
X6136491Y-10489912D02*
X6136491Y-10318484D01*
X6317444Y-10508960D02*
X6298396Y-10518484D01*
X6298396Y-10518484D02*
X6260301Y-10518484D01*
X6260301Y-10518484D02*
X6241253Y-10508960D01*
X6241253Y-10508960D02*
X6231730Y-10489912D01*
X6231730Y-10489912D02*
X6231730Y-10413722D01*
X6231730Y-10413722D02*
X6241253Y-10394674D01*
X6241253Y-10394674D02*
X6260301Y-10385150D01*
X6260301Y-10385150D02*
X6298396Y-10385150D01*
X6298396Y-10385150D02*
X6317444Y-10394674D01*
X6317444Y-10394674D02*
X6326968Y-10413722D01*
X6326968Y-10413722D02*
X6326968Y-10432770D01*
X6326968Y-10432770D02*
X6231730Y-10451817D01*
X6403158Y-10508960D02*
X6422206Y-10518484D01*
X6422206Y-10518484D02*
X6460301Y-10518484D01*
X6460301Y-10518484D02*
X6479349Y-10508960D01*
X6479349Y-10508960D02*
X6488872Y-10489912D01*
X6488872Y-10489912D02*
X6488872Y-10480389D01*
X6488872Y-10480389D02*
X6479349Y-10461341D01*
X6479349Y-10461341D02*
X6460301Y-10451817D01*
X6460301Y-10451817D02*
X6431730Y-10451817D01*
X6431730Y-10451817D02*
X6412682Y-10442293D01*
X6412682Y-10442293D02*
X6403158Y-10423246D01*
X6403158Y-10423246D02*
X6403158Y-10413722D01*
X6403158Y-10413722D02*
X6412682Y-10394674D01*
X6412682Y-10394674D02*
X6431730Y-10385150D01*
X6431730Y-10385150D02*
X6460301Y-10385150D01*
X6460301Y-10385150D02*
X6479349Y-10394674D01*
X6555539Y-10594674D02*
X6565063Y-10585150D01*
X6565063Y-10585150D02*
X6584111Y-10556579D01*
X6584111Y-10556579D02*
X6593634Y-10537531D01*
X6593634Y-10537531D02*
X6603158Y-10508960D01*
X6603158Y-10508960D02*
X6612682Y-10461341D01*
X6612682Y-10461341D02*
X6612682Y-10423246D01*
X6612682Y-10423246D02*
X6603158Y-10375627D01*
X6603158Y-10375627D02*
X6593634Y-10347055D01*
X6593634Y-10347055D02*
X6584111Y-10328008D01*
X6584111Y-10328008D02*
X6565063Y-10299436D01*
X6565063Y-10299436D02*
X6555539Y-10289912D01*
D10*
X1590000Y-10691000D02*
G75*
G03*
X1590000Y-10691000I-50000J0D01*
G01*
D11*
X1955539Y-10782484D02*
X1841253Y-10782484D01*
X1898396Y-10782484D02*
X1898396Y-10582484D01*
X1898396Y-10582484D02*
X1879348Y-10611055D01*
X1879348Y-10611055D02*
X1860301Y-10630103D01*
X1860301Y-10630103D02*
X1841253Y-10639627D01*
X2041253Y-10763436D02*
X2050777Y-10772960D01*
X2050777Y-10772960D02*
X2041253Y-10782484D01*
X2041253Y-10782484D02*
X2031729Y-10772960D01*
X2031729Y-10772960D02*
X2041253Y-10763436D01*
X2041253Y-10763436D02*
X2041253Y-10782484D01*
X2174586Y-10582484D02*
X2193634Y-10582484D01*
X2193634Y-10582484D02*
X2212682Y-10592008D01*
X2212682Y-10592008D02*
X2222205Y-10601531D01*
X2222205Y-10601531D02*
X2231729Y-10620579D01*
X2231729Y-10620579D02*
X2241253Y-10658674D01*
X2241253Y-10658674D02*
X2241253Y-10706293D01*
X2241253Y-10706293D02*
X2231729Y-10744389D01*
X2231729Y-10744389D02*
X2222205Y-10763436D01*
X2222205Y-10763436D02*
X2212682Y-10772960D01*
X2212682Y-10772960D02*
X2193634Y-10782484D01*
X2193634Y-10782484D02*
X2174586Y-10782484D01*
X2174586Y-10782484D02*
X2155539Y-10772960D01*
X2155539Y-10772960D02*
X2146015Y-10763436D01*
X2146015Y-10763436D02*
X2136491Y-10744389D01*
X2136491Y-10744389D02*
X2126967Y-10706293D01*
X2126967Y-10706293D02*
X2126967Y-10658674D01*
X2126967Y-10658674D02*
X2136491Y-10620579D01*
X2136491Y-10620579D02*
X2146015Y-10601531D01*
X2146015Y-10601531D02*
X2155539Y-10592008D01*
X2155539Y-10592008D02*
X2174586Y-10582484D01*
X2365063Y-10582484D02*
X2384110Y-10582484D01*
X2384110Y-10582484D02*
X2403158Y-10592008D01*
X2403158Y-10592008D02*
X2412682Y-10601531D01*
X2412682Y-10601531D02*
X2422205Y-10620579D01*
X2422205Y-10620579D02*
X2431729Y-10658674D01*
X2431729Y-10658674D02*
X2431729Y-10706293D01*
X2431729Y-10706293D02*
X2422205Y-10744389D01*
X2422205Y-10744389D02*
X2412682Y-10763436D01*
X2412682Y-10763436D02*
X2403158Y-10772960D01*
X2403158Y-10772960D02*
X2384110Y-10782484D01*
X2384110Y-10782484D02*
X2365063Y-10782484D01*
X2365063Y-10782484D02*
X2346015Y-10772960D01*
X2346015Y-10772960D02*
X2336491Y-10763436D01*
X2336491Y-10763436D02*
X2326967Y-10744389D01*
X2326967Y-10744389D02*
X2317444Y-10706293D01*
X2317444Y-10706293D02*
X2317444Y-10658674D01*
X2317444Y-10658674D02*
X2326967Y-10620579D01*
X2326967Y-10620579D02*
X2336491Y-10601531D01*
X2336491Y-10601531D02*
X2346015Y-10592008D01*
X2346015Y-10592008D02*
X2365063Y-10582484D01*
X2555539Y-10582484D02*
X2574586Y-10582484D01*
X2574586Y-10582484D02*
X2593634Y-10592008D01*
X2593634Y-10592008D02*
X2603158Y-10601531D01*
X2603158Y-10601531D02*
X2612682Y-10620579D01*
X2612682Y-10620579D02*
X2622205Y-10658674D01*
X2622205Y-10658674D02*
X2622205Y-10706293D01*
X2622205Y-10706293D02*
X2612682Y-10744389D01*
X2612682Y-10744389D02*
X2603158Y-10763436D01*
X2603158Y-10763436D02*
X2593634Y-10772960D01*
X2593634Y-10772960D02*
X2574586Y-10782484D01*
X2574586Y-10782484D02*
X2555539Y-10782484D01*
X2555539Y-10782484D02*
X2536491Y-10772960D01*
X2536491Y-10772960D02*
X2526967Y-10763436D01*
X2526967Y-10763436D02*
X2517444Y-10744389D01*
X2517444Y-10744389D02*
X2507920Y-10706293D01*
X2507920Y-10706293D02*
X2507920Y-10658674D01*
X2507920Y-10658674D02*
X2517444Y-10620579D01*
X2517444Y-10620579D02*
X2526967Y-10601531D01*
X2526967Y-10601531D02*
X2536491Y-10592008D01*
X2536491Y-10592008D02*
X2555539Y-10582484D01*
X2707920Y-10782484D02*
X2707920Y-10649150D01*
X2707920Y-10668198D02*
X2717444Y-10658674D01*
X2717444Y-10658674D02*
X2736491Y-10649150D01*
X2736491Y-10649150D02*
X2765063Y-10649150D01*
X2765063Y-10649150D02*
X2784110Y-10658674D01*
X2784110Y-10658674D02*
X2793634Y-10677722D01*
X2793634Y-10677722D02*
X2793634Y-10782484D01*
X2793634Y-10677722D02*
X2803158Y-10658674D01*
X2803158Y-10658674D02*
X2822205Y-10649150D01*
X2822205Y-10649150D02*
X2850777Y-10649150D01*
X2850777Y-10649150D02*
X2869824Y-10658674D01*
X2869824Y-10658674D02*
X2879348Y-10677722D01*
X2879348Y-10677722D02*
X2879348Y-10782484D01*
X2974586Y-10782484D02*
X2974586Y-10649150D01*
X2974586Y-10668198D02*
X2984110Y-10658674D01*
X2984110Y-10658674D02*
X3003158Y-10649150D01*
X3003158Y-10649150D02*
X3031729Y-10649150D01*
X3031729Y-10649150D02*
X3050777Y-10658674D01*
X3050777Y-10658674D02*
X3060301Y-10677722D01*
X3060301Y-10677722D02*
X3060301Y-10782484D01*
X3060301Y-10677722D02*
X3069824Y-10658674D01*
X3069824Y-10658674D02*
X3088872Y-10649150D01*
X3088872Y-10649150D02*
X3117443Y-10649150D01*
X3117443Y-10649150D02*
X3136491Y-10658674D01*
X3136491Y-10658674D02*
X3146015Y-10677722D01*
X3146015Y-10677722D02*
X3146015Y-10782484D01*
X3536491Y-10572960D02*
X3365063Y-10830103D01*
X3793634Y-10582484D02*
X3812682Y-10582484D01*
X3812682Y-10582484D02*
X3831729Y-10592008D01*
X3831729Y-10592008D02*
X3841253Y-10601531D01*
X3841253Y-10601531D02*
X3850777Y-10620579D01*
X3850777Y-10620579D02*
X3860301Y-10658674D01*
X3860301Y-10658674D02*
X3860301Y-10706293D01*
X3860301Y-10706293D02*
X3850777Y-10744389D01*
X3850777Y-10744389D02*
X3841253Y-10763436D01*
X3841253Y-10763436D02*
X3831729Y-10772960D01*
X3831729Y-10772960D02*
X3812682Y-10782484D01*
X3812682Y-10782484D02*
X3793634Y-10782484D01*
X3793634Y-10782484D02*
X3774586Y-10772960D01*
X3774586Y-10772960D02*
X3765063Y-10763436D01*
X3765063Y-10763436D02*
X3755539Y-10744389D01*
X3755539Y-10744389D02*
X3746015Y-10706293D01*
X3746015Y-10706293D02*
X3746015Y-10658674D01*
X3746015Y-10658674D02*
X3755539Y-10620579D01*
X3755539Y-10620579D02*
X3765063Y-10601531D01*
X3765063Y-10601531D02*
X3774586Y-10592008D01*
X3774586Y-10592008D02*
X3793634Y-10582484D01*
X3946015Y-10763436D02*
X3955539Y-10772960D01*
X3955539Y-10772960D02*
X3946015Y-10782484D01*
X3946015Y-10782484D02*
X3936491Y-10772960D01*
X3936491Y-10772960D02*
X3946015Y-10763436D01*
X3946015Y-10763436D02*
X3946015Y-10782484D01*
X4079348Y-10582484D02*
X4098396Y-10582484D01*
X4098396Y-10582484D02*
X4117444Y-10592008D01*
X4117444Y-10592008D02*
X4126967Y-10601531D01*
X4126967Y-10601531D02*
X4136491Y-10620579D01*
X4136491Y-10620579D02*
X4146015Y-10658674D01*
X4146015Y-10658674D02*
X4146015Y-10706293D01*
X4146015Y-10706293D02*
X4136491Y-10744389D01*
X4136491Y-10744389D02*
X4126967Y-10763436D01*
X4126967Y-10763436D02*
X4117444Y-10772960D01*
X4117444Y-10772960D02*
X4098396Y-10782484D01*
X4098396Y-10782484D02*
X4079348Y-10782484D01*
X4079348Y-10782484D02*
X4060301Y-10772960D01*
X4060301Y-10772960D02*
X4050777Y-10763436D01*
X4050777Y-10763436D02*
X4041253Y-10744389D01*
X4041253Y-10744389D02*
X4031729Y-10706293D01*
X4031729Y-10706293D02*
X4031729Y-10658674D01*
X4031729Y-10658674D02*
X4041253Y-10620579D01*
X4041253Y-10620579D02*
X4050777Y-10601531D01*
X4050777Y-10601531D02*
X4060301Y-10592008D01*
X4060301Y-10592008D02*
X4079348Y-10582484D01*
X4212682Y-10582484D02*
X4336491Y-10582484D01*
X4336491Y-10582484D02*
X4269825Y-10658674D01*
X4269825Y-10658674D02*
X4298396Y-10658674D01*
X4298396Y-10658674D02*
X4317444Y-10668198D01*
X4317444Y-10668198D02*
X4326968Y-10677722D01*
X4326968Y-10677722D02*
X4336491Y-10696770D01*
X4336491Y-10696770D02*
X4336491Y-10744389D01*
X4336491Y-10744389D02*
X4326968Y-10763436D01*
X4326968Y-10763436D02*
X4317444Y-10772960D01*
X4317444Y-10772960D02*
X4298396Y-10782484D01*
X4298396Y-10782484D02*
X4241253Y-10782484D01*
X4241253Y-10782484D02*
X4222206Y-10772960D01*
X4222206Y-10772960D02*
X4212682Y-10763436D01*
X4431729Y-10782484D02*
X4469825Y-10782484D01*
X4469825Y-10782484D02*
X4488872Y-10772960D01*
X4488872Y-10772960D02*
X4498396Y-10763436D01*
X4498396Y-10763436D02*
X4517444Y-10734865D01*
X4517444Y-10734865D02*
X4526968Y-10696770D01*
X4526968Y-10696770D02*
X4526968Y-10620579D01*
X4526968Y-10620579D02*
X4517444Y-10601531D01*
X4517444Y-10601531D02*
X4507920Y-10592008D01*
X4507920Y-10592008D02*
X4488872Y-10582484D01*
X4488872Y-10582484D02*
X4450777Y-10582484D01*
X4450777Y-10582484D02*
X4431729Y-10592008D01*
X4431729Y-10592008D02*
X4422206Y-10601531D01*
X4422206Y-10601531D02*
X4412682Y-10620579D01*
X4412682Y-10620579D02*
X4412682Y-10668198D01*
X4412682Y-10668198D02*
X4422206Y-10687246D01*
X4422206Y-10687246D02*
X4431729Y-10696770D01*
X4431729Y-10696770D02*
X4450777Y-10706293D01*
X4450777Y-10706293D02*
X4488872Y-10706293D01*
X4488872Y-10706293D02*
X4507920Y-10696770D01*
X4507920Y-10696770D02*
X4517444Y-10687246D01*
X4517444Y-10687246D02*
X4526968Y-10668198D01*
X4698396Y-10649150D02*
X4698396Y-10782484D01*
X4650777Y-10572960D02*
X4603158Y-10715817D01*
X4603158Y-10715817D02*
X4726968Y-10715817D01*
X4793634Y-10582484D02*
X4793634Y-10620579D01*
X4869825Y-10582484D02*
X4869825Y-10620579D01*
X5165063Y-10858674D02*
X5155539Y-10849150D01*
X5155539Y-10849150D02*
X5136491Y-10820579D01*
X5136491Y-10820579D02*
X5126968Y-10801531D01*
X5126968Y-10801531D02*
X5117444Y-10772960D01*
X5117444Y-10772960D02*
X5107920Y-10725341D01*
X5107920Y-10725341D02*
X5107920Y-10687246D01*
X5107920Y-10687246D02*
X5117444Y-10639627D01*
X5117444Y-10639627D02*
X5126968Y-10611055D01*
X5126968Y-10611055D02*
X5136491Y-10592008D01*
X5136491Y-10592008D02*
X5155539Y-10563436D01*
X5155539Y-10563436D02*
X5165063Y-10553912D01*
X5231730Y-10601531D02*
X5241253Y-10592008D01*
X5241253Y-10592008D02*
X5260301Y-10582484D01*
X5260301Y-10582484D02*
X5307920Y-10582484D01*
X5307920Y-10582484D02*
X5326968Y-10592008D01*
X5326968Y-10592008D02*
X5336491Y-10601531D01*
X5336491Y-10601531D02*
X5346015Y-10620579D01*
X5346015Y-10620579D02*
X5346015Y-10639627D01*
X5346015Y-10639627D02*
X5336491Y-10668198D01*
X5336491Y-10668198D02*
X5222206Y-10782484D01*
X5222206Y-10782484D02*
X5346015Y-10782484D01*
X5460301Y-10668198D02*
X5441253Y-10658674D01*
X5441253Y-10658674D02*
X5431730Y-10649150D01*
X5431730Y-10649150D02*
X5422206Y-10630103D01*
X5422206Y-10630103D02*
X5422206Y-10620579D01*
X5422206Y-10620579D02*
X5431730Y-10601531D01*
X5431730Y-10601531D02*
X5441253Y-10592008D01*
X5441253Y-10592008D02*
X5460301Y-10582484D01*
X5460301Y-10582484D02*
X5498396Y-10582484D01*
X5498396Y-10582484D02*
X5517444Y-10592008D01*
X5517444Y-10592008D02*
X5526968Y-10601531D01*
X5526968Y-10601531D02*
X5536491Y-10620579D01*
X5536491Y-10620579D02*
X5536491Y-10630103D01*
X5536491Y-10630103D02*
X5526968Y-10649150D01*
X5526968Y-10649150D02*
X5517444Y-10658674D01*
X5517444Y-10658674D02*
X5498396Y-10668198D01*
X5498396Y-10668198D02*
X5460301Y-10668198D01*
X5460301Y-10668198D02*
X5441253Y-10677722D01*
X5441253Y-10677722D02*
X5431730Y-10687246D01*
X5431730Y-10687246D02*
X5422206Y-10706293D01*
X5422206Y-10706293D02*
X5422206Y-10744389D01*
X5422206Y-10744389D02*
X5431730Y-10763436D01*
X5431730Y-10763436D02*
X5441253Y-10772960D01*
X5441253Y-10772960D02*
X5460301Y-10782484D01*
X5460301Y-10782484D02*
X5498396Y-10782484D01*
X5498396Y-10782484D02*
X5517444Y-10772960D01*
X5517444Y-10772960D02*
X5526968Y-10763436D01*
X5526968Y-10763436D02*
X5536491Y-10744389D01*
X5536491Y-10744389D02*
X5536491Y-10706293D01*
X5536491Y-10706293D02*
X5526968Y-10687246D01*
X5526968Y-10687246D02*
X5517444Y-10677722D01*
X5517444Y-10677722D02*
X5498396Y-10668198D01*
X5774587Y-10782484D02*
X5774587Y-10582484D01*
X5860301Y-10782484D02*
X5860301Y-10677722D01*
X5860301Y-10677722D02*
X5850777Y-10658674D01*
X5850777Y-10658674D02*
X5831730Y-10649150D01*
X5831730Y-10649150D02*
X5803158Y-10649150D01*
X5803158Y-10649150D02*
X5784110Y-10658674D01*
X5784110Y-10658674D02*
X5774587Y-10668198D01*
X5984110Y-10782484D02*
X5965063Y-10772960D01*
X5965063Y-10772960D02*
X5955539Y-10763436D01*
X5955539Y-10763436D02*
X5946015Y-10744389D01*
X5946015Y-10744389D02*
X5946015Y-10687246D01*
X5946015Y-10687246D02*
X5955539Y-10668198D01*
X5955539Y-10668198D02*
X5965063Y-10658674D01*
X5965063Y-10658674D02*
X5984110Y-10649150D01*
X5984110Y-10649150D02*
X6012682Y-10649150D01*
X6012682Y-10649150D02*
X6031730Y-10658674D01*
X6031730Y-10658674D02*
X6041253Y-10668198D01*
X6041253Y-10668198D02*
X6050777Y-10687246D01*
X6050777Y-10687246D02*
X6050777Y-10744389D01*
X6050777Y-10744389D02*
X6041253Y-10763436D01*
X6041253Y-10763436D02*
X6031730Y-10772960D01*
X6031730Y-10772960D02*
X6012682Y-10782484D01*
X6012682Y-10782484D02*
X5984110Y-10782484D01*
X6165063Y-10782484D02*
X6146015Y-10772960D01*
X6146015Y-10772960D02*
X6136491Y-10753912D01*
X6136491Y-10753912D02*
X6136491Y-10582484D01*
X6317444Y-10772960D02*
X6298396Y-10782484D01*
X6298396Y-10782484D02*
X6260301Y-10782484D01*
X6260301Y-10782484D02*
X6241253Y-10772960D01*
X6241253Y-10772960D02*
X6231730Y-10753912D01*
X6231730Y-10753912D02*
X6231730Y-10677722D01*
X6231730Y-10677722D02*
X6241253Y-10658674D01*
X6241253Y-10658674D02*
X6260301Y-10649150D01*
X6260301Y-10649150D02*
X6298396Y-10649150D01*
X6298396Y-10649150D02*
X6317444Y-10658674D01*
X6317444Y-10658674D02*
X6326968Y-10677722D01*
X6326968Y-10677722D02*
X6326968Y-10696770D01*
X6326968Y-10696770D02*
X6231730Y-10715817D01*
X6403158Y-10772960D02*
X6422206Y-10782484D01*
X6422206Y-10782484D02*
X6460301Y-10782484D01*
X6460301Y-10782484D02*
X6479349Y-10772960D01*
X6479349Y-10772960D02*
X6488872Y-10753912D01*
X6488872Y-10753912D02*
X6488872Y-10744389D01*
X6488872Y-10744389D02*
X6479349Y-10725341D01*
X6479349Y-10725341D02*
X6460301Y-10715817D01*
X6460301Y-10715817D02*
X6431730Y-10715817D01*
X6431730Y-10715817D02*
X6412682Y-10706293D01*
X6412682Y-10706293D02*
X6403158Y-10687246D01*
X6403158Y-10687246D02*
X6403158Y-10677722D01*
X6403158Y-10677722D02*
X6412682Y-10658674D01*
X6412682Y-10658674D02*
X6431730Y-10649150D01*
X6431730Y-10649150D02*
X6460301Y-10649150D01*
X6460301Y-10649150D02*
X6479349Y-10658674D01*
X6555539Y-10858674D02*
X6565063Y-10849150D01*
X6565063Y-10849150D02*
X6584111Y-10820579D01*
X6584111Y-10820579D02*
X6593634Y-10801531D01*
X6593634Y-10801531D02*
X6603158Y-10772960D01*
X6603158Y-10772960D02*
X6612682Y-10725341D01*
X6612682Y-10725341D02*
X6612682Y-10687246D01*
X6612682Y-10687246D02*
X6603158Y-10639627D01*
X6603158Y-10639627D02*
X6593634Y-10611055D01*
X6593634Y-10611055D02*
X6584111Y-10592008D01*
X6584111Y-10592008D02*
X6565063Y-10563436D01*
X6565063Y-10563436D02*
X6555539Y-10553912D01*
M02*
