%TF.GenerationSoftware,KiCad,Pcbnew,7.0.2*%
%TF.CreationDate,2023-05-17T15:36:20+02:00*%
%TF.ProjectId,78_1x39_1mm Solr tile,37382c31-7833-4392-9c31-6d6d20536f6c,rev?*%
%TF.SameCoordinates,Original*%
%TF.FileFunction,Drillmap*%
%TF.FilePolarity,Positive*%
%FSLAX45Y45*%
G04 Gerber Fmt 4.5, Leading zero omitted, Abs format (unit mm)*
G04 Created by KiCad (PCBNEW 7.0.2) date 2023-05-17 15:36:20*
%MOMM*%
%LPD*%
G01*
G04 APERTURE LIST*
%ADD10C,0.100000*%
%ADD11C,0.200000*%
G04 APERTURE END LIST*
D10*
X10531445Y-10745602D02*
X14544445Y-10745602D01*
X14544445Y-19671602D01*
X10531445Y-19671602D01*
X10531445Y-10745602D01*
X15088445Y-10734602D02*
X19101445Y-10734602D01*
X19101445Y-19660602D01*
X15088445Y-19660602D01*
X15088445Y-10734602D01*
X19624445Y-10718602D02*
X23637445Y-10718602D01*
X23637445Y-19644602D01*
X19624445Y-19644602D01*
X19624445Y-10718602D01*
X6022000Y-10692000D02*
X10035000Y-10692000D01*
X10035000Y-19618000D01*
X6022000Y-19618000D01*
X6022000Y-10692000D01*
X1465000Y-10703000D02*
X5478000Y-10703000D01*
X5478000Y-19629000D01*
X1465000Y-19629000D01*
X1465000Y-10703000D01*
X19624445Y-1388602D02*
X23637445Y-1388602D01*
X23637445Y-10314602D01*
X19624445Y-10314602D01*
X19624445Y-1388602D01*
X15088445Y-1404601D02*
X19101445Y-1404601D01*
X19101445Y-10330602D01*
X15088445Y-10330602D01*
X15088445Y-1404601D01*
X10531445Y-1415601D02*
X14544445Y-1415601D01*
X14544445Y-10341602D01*
X10531445Y-10341602D01*
X10531445Y-1415601D01*
X6022000Y-1362000D02*
X10035000Y-1362000D01*
X10035000Y-10288000D01*
X6022000Y-10288000D01*
X6022000Y-1362000D01*
X1465000Y-1373000D02*
X5478000Y-1373000D01*
X5478000Y-10299000D01*
X1465000Y-10299000D01*
X1465000Y-1373000D01*
D11*
D10*
X2549000Y-3667000D02*
X2649000Y-3767000D01*
X2649000Y-3667000D02*
X2549000Y-3767000D01*
X2549000Y-3921000D02*
X2649000Y-4021000D01*
X2649000Y-3921000D02*
X2549000Y-4021000D01*
X2549000Y-4175000D02*
X2649000Y-4275000D01*
X2649000Y-4175000D02*
X2549000Y-4275000D01*
X2549000Y-4429000D02*
X2649000Y-4529000D01*
X2649000Y-4429000D02*
X2549000Y-4529000D01*
X2549000Y-12997000D02*
X2649000Y-13097000D01*
X2649000Y-12997000D02*
X2549000Y-13097000D01*
X2549000Y-13251000D02*
X2649000Y-13351000D01*
X2649000Y-13251000D02*
X2549000Y-13351000D01*
X2549000Y-13505000D02*
X2649000Y-13605000D01*
X2649000Y-13505000D02*
X2549000Y-13605000D01*
X2549000Y-13759000D02*
X2649000Y-13859000D01*
X2649000Y-13759000D02*
X2549000Y-13859000D01*
X2553000Y-7164000D02*
X2653000Y-7264000D01*
X2653000Y-7164000D02*
X2553000Y-7264000D01*
X2553000Y-7418000D02*
X2653000Y-7518000D01*
X2653000Y-7418000D02*
X2553000Y-7518000D01*
X2553000Y-7672000D02*
X2653000Y-7772000D01*
X2653000Y-7672000D02*
X2553000Y-7772000D01*
X2553000Y-7926000D02*
X2653000Y-8026000D01*
X2653000Y-7926000D02*
X2553000Y-8026000D01*
X2553000Y-16494000D02*
X2653000Y-16594000D01*
X2653000Y-16494000D02*
X2553000Y-16594000D01*
X2553000Y-16748000D02*
X2653000Y-16848000D01*
X2653000Y-16748000D02*
X2553000Y-16848000D01*
X2553000Y-17002000D02*
X2653000Y-17102000D01*
X2653000Y-17002000D02*
X2553000Y-17102000D01*
X2553000Y-17256000D02*
X2653000Y-17356000D01*
X2653000Y-17256000D02*
X2553000Y-17356000D01*
X2555000Y-5408000D02*
X2655000Y-5508000D01*
X2655000Y-5408000D02*
X2555000Y-5508000D01*
X2555000Y-5662000D02*
X2655000Y-5762000D01*
X2655000Y-5662000D02*
X2555000Y-5762000D01*
X2555000Y-5916000D02*
X2655000Y-6016000D01*
X2655000Y-5916000D02*
X2555000Y-6016000D01*
X2555000Y-6170000D02*
X2655000Y-6270000D01*
X2655000Y-6170000D02*
X2555000Y-6270000D01*
X2555000Y-14738000D02*
X2655000Y-14838000D01*
X2655000Y-14738000D02*
X2555000Y-14838000D01*
X2555000Y-14992000D02*
X2655000Y-15092000D01*
X2655000Y-14992000D02*
X2555000Y-15092000D01*
X2555000Y-15246000D02*
X2655000Y-15346000D01*
X2655000Y-15246000D02*
X2555000Y-15346000D01*
X2555000Y-15500000D02*
X2655000Y-15600000D01*
X2655000Y-15500000D02*
X2555000Y-15600000D01*
X2566000Y-2039000D02*
X2666000Y-2139000D01*
X2666000Y-2039000D02*
X2566000Y-2139000D01*
X2566000Y-2293000D02*
X2666000Y-2393000D01*
X2666000Y-2293000D02*
X2566000Y-2393000D01*
X2566000Y-2547000D02*
X2666000Y-2647000D01*
X2666000Y-2547000D02*
X2566000Y-2647000D01*
X2566000Y-2801000D02*
X2666000Y-2901000D01*
X2666000Y-2801000D02*
X2566000Y-2901000D01*
X2566000Y-11369000D02*
X2666000Y-11469000D01*
X2666000Y-11369000D02*
X2566000Y-11469000D01*
X2566000Y-11623000D02*
X2666000Y-11723000D01*
X2666000Y-11623000D02*
X2566000Y-11723000D01*
X2566000Y-11877000D02*
X2666000Y-11977000D01*
X2666000Y-11877000D02*
X2566000Y-11977000D01*
X2566000Y-12131000D02*
X2666000Y-12231000D01*
X2666000Y-12131000D02*
X2566000Y-12231000D01*
X2567000Y-8749000D02*
X2667000Y-8849000D01*
X2667000Y-8749000D02*
X2567000Y-8849000D01*
X2567000Y-9003000D02*
X2667000Y-9103000D01*
X2667000Y-9003000D02*
X2567000Y-9103000D01*
X2567000Y-9257000D02*
X2667000Y-9357000D01*
X2667000Y-9257000D02*
X2567000Y-9357000D01*
X2567000Y-9511000D02*
X2667000Y-9611000D01*
X2667000Y-9511000D02*
X2567000Y-9611000D01*
X2567000Y-18079000D02*
X2667000Y-18179000D01*
X2667000Y-18079000D02*
X2567000Y-18179000D01*
X2567000Y-18333000D02*
X2667000Y-18433000D01*
X2667000Y-18333000D02*
X2567000Y-18433000D01*
X2567000Y-18587000D02*
X2667000Y-18687000D01*
X2667000Y-18587000D02*
X2567000Y-18687000D01*
X2567000Y-18841000D02*
X2667000Y-18941000D01*
X2667000Y-18841000D02*
X2567000Y-18941000D01*
X4262000Y-3655000D02*
X4362000Y-3755000D01*
X4362000Y-3655000D02*
X4262000Y-3755000D01*
X4262000Y-3909000D02*
X4362000Y-4009000D01*
X4362000Y-3909000D02*
X4262000Y-4009000D01*
X4262000Y-4163000D02*
X4362000Y-4263000D01*
X4362000Y-4163000D02*
X4262000Y-4263000D01*
X4262000Y-4417000D02*
X4362000Y-4517000D01*
X4362000Y-4417000D02*
X4262000Y-4517000D01*
X4262000Y-12985000D02*
X4362000Y-13085000D01*
X4362000Y-12985000D02*
X4262000Y-13085000D01*
X4262000Y-13239000D02*
X4362000Y-13339000D01*
X4362000Y-13239000D02*
X4262000Y-13339000D01*
X4262000Y-13493000D02*
X4362000Y-13593000D01*
X4362000Y-13493000D02*
X4262000Y-13593000D01*
X4262000Y-13747000D02*
X4362000Y-13847000D01*
X4362000Y-13747000D02*
X4262000Y-13847000D01*
X4266000Y-7152000D02*
X4366000Y-7252000D01*
X4366000Y-7152000D02*
X4266000Y-7252000D01*
X4266000Y-7406000D02*
X4366000Y-7506000D01*
X4366000Y-7406000D02*
X4266000Y-7506000D01*
X4266000Y-7660000D02*
X4366000Y-7760000D01*
X4366000Y-7660000D02*
X4266000Y-7760000D01*
X4266000Y-7914000D02*
X4366000Y-8014000D01*
X4366000Y-7914000D02*
X4266000Y-8014000D01*
X4266000Y-16482000D02*
X4366000Y-16582000D01*
X4366000Y-16482000D02*
X4266000Y-16582000D01*
X4266000Y-16736000D02*
X4366000Y-16836000D01*
X4366000Y-16736000D02*
X4266000Y-16836000D01*
X4266000Y-16990000D02*
X4366000Y-17090000D01*
X4366000Y-16990000D02*
X4266000Y-17090000D01*
X4266000Y-17244000D02*
X4366000Y-17344000D01*
X4366000Y-17244000D02*
X4266000Y-17344000D01*
X4268000Y-5396000D02*
X4368000Y-5496000D01*
X4368000Y-5396000D02*
X4268000Y-5496000D01*
X4268000Y-5650000D02*
X4368000Y-5750000D01*
X4368000Y-5650000D02*
X4268000Y-5750000D01*
X4268000Y-5904000D02*
X4368000Y-6004000D01*
X4368000Y-5904000D02*
X4268000Y-6004000D01*
X4268000Y-6158000D02*
X4368000Y-6258000D01*
X4368000Y-6158000D02*
X4268000Y-6258000D01*
X4268000Y-14726000D02*
X4368000Y-14826000D01*
X4368000Y-14726000D02*
X4268000Y-14826000D01*
X4268000Y-14980000D02*
X4368000Y-15080000D01*
X4368000Y-14980000D02*
X4268000Y-15080000D01*
X4268000Y-15234000D02*
X4368000Y-15334000D01*
X4368000Y-15234000D02*
X4268000Y-15334000D01*
X4268000Y-15488000D02*
X4368000Y-15588000D01*
X4368000Y-15488000D02*
X4268000Y-15588000D01*
X4279000Y-2027000D02*
X4379000Y-2127000D01*
X4379000Y-2027000D02*
X4279000Y-2127000D01*
X4279000Y-2281000D02*
X4379000Y-2381000D01*
X4379000Y-2281000D02*
X4279000Y-2381000D01*
X4279000Y-2535000D02*
X4379000Y-2635000D01*
X4379000Y-2535000D02*
X4279000Y-2635000D01*
X4279000Y-2789000D02*
X4379000Y-2889000D01*
X4379000Y-2789000D02*
X4279000Y-2889000D01*
X4279000Y-11357000D02*
X4379000Y-11457000D01*
X4379000Y-11357000D02*
X4279000Y-11457000D01*
X4279000Y-11611000D02*
X4379000Y-11711000D01*
X4379000Y-11611000D02*
X4279000Y-11711000D01*
X4279000Y-11865000D02*
X4379000Y-11965000D01*
X4379000Y-11865000D02*
X4279000Y-11965000D01*
X4279000Y-12119000D02*
X4379000Y-12219000D01*
X4379000Y-12119000D02*
X4279000Y-12219000D01*
X4280000Y-8737000D02*
X4380000Y-8837000D01*
X4380000Y-8737000D02*
X4280000Y-8837000D01*
X4280000Y-8991000D02*
X4380000Y-9091000D01*
X4380000Y-8991000D02*
X4280000Y-9091000D01*
X4280000Y-9245000D02*
X4380000Y-9345000D01*
X4380000Y-9245000D02*
X4280000Y-9345000D01*
X4280000Y-9499000D02*
X4380000Y-9599000D01*
X4380000Y-9499000D02*
X4280000Y-9599000D01*
X4280000Y-18067000D02*
X4380000Y-18167000D01*
X4380000Y-18067000D02*
X4280000Y-18167000D01*
X4280000Y-18321000D02*
X4380000Y-18421000D01*
X4380000Y-18321000D02*
X4280000Y-18421000D01*
X4280000Y-18575000D02*
X4380000Y-18675000D01*
X4380000Y-18575000D02*
X4280000Y-18675000D01*
X4280000Y-18829000D02*
X4380000Y-18929000D01*
X4380000Y-18829000D02*
X4280000Y-18929000D01*
X7106000Y-3656000D02*
X7206000Y-3756000D01*
X7206000Y-3656000D02*
X7106000Y-3756000D01*
X7106000Y-3910000D02*
X7206000Y-4010000D01*
X7206000Y-3910000D02*
X7106000Y-4010000D01*
X7106000Y-4164000D02*
X7206000Y-4264000D01*
X7206000Y-4164000D02*
X7106000Y-4264000D01*
X7106000Y-4418000D02*
X7206000Y-4518000D01*
X7206000Y-4418000D02*
X7106000Y-4518000D01*
X7106000Y-12986000D02*
X7206000Y-13086000D01*
X7206000Y-12986000D02*
X7106000Y-13086000D01*
X7106000Y-13240000D02*
X7206000Y-13340000D01*
X7206000Y-13240000D02*
X7106000Y-13340000D01*
X7106000Y-13494000D02*
X7206000Y-13594000D01*
X7206000Y-13494000D02*
X7106000Y-13594000D01*
X7106000Y-13748000D02*
X7206000Y-13848000D01*
X7206000Y-13748000D02*
X7106000Y-13848000D01*
X7110000Y-7153000D02*
X7210000Y-7253000D01*
X7210000Y-7153000D02*
X7110000Y-7253000D01*
X7110000Y-7407000D02*
X7210000Y-7507000D01*
X7210000Y-7407000D02*
X7110000Y-7507000D01*
X7110000Y-7661000D02*
X7210000Y-7761000D01*
X7210000Y-7661000D02*
X7110000Y-7761000D01*
X7110000Y-7915000D02*
X7210000Y-8015000D01*
X7210000Y-7915000D02*
X7110000Y-8015000D01*
X7110000Y-16483000D02*
X7210000Y-16583000D01*
X7210000Y-16483000D02*
X7110000Y-16583000D01*
X7110000Y-16737000D02*
X7210000Y-16837000D01*
X7210000Y-16737000D02*
X7110000Y-16837000D01*
X7110000Y-16991000D02*
X7210000Y-17091000D01*
X7210000Y-16991000D02*
X7110000Y-17091000D01*
X7110000Y-17245000D02*
X7210000Y-17345000D01*
X7210000Y-17245000D02*
X7110000Y-17345000D01*
X7112000Y-5397000D02*
X7212000Y-5497000D01*
X7212000Y-5397000D02*
X7112000Y-5497000D01*
X7112000Y-5651000D02*
X7212000Y-5751000D01*
X7212000Y-5651000D02*
X7112000Y-5751000D01*
X7112000Y-5905000D02*
X7212000Y-6005000D01*
X7212000Y-5905000D02*
X7112000Y-6005000D01*
X7112000Y-6159000D02*
X7212000Y-6259000D01*
X7212000Y-6159000D02*
X7112000Y-6259000D01*
X7112000Y-14727000D02*
X7212000Y-14827000D01*
X7212000Y-14727000D02*
X7112000Y-14827000D01*
X7112000Y-14981000D02*
X7212000Y-15081000D01*
X7212000Y-14981000D02*
X7112000Y-15081000D01*
X7112000Y-15235000D02*
X7212000Y-15335000D01*
X7212000Y-15235000D02*
X7112000Y-15335000D01*
X7112000Y-15489000D02*
X7212000Y-15589000D01*
X7212000Y-15489000D02*
X7112000Y-15589000D01*
X7123000Y-2028000D02*
X7223000Y-2128000D01*
X7223000Y-2028000D02*
X7123000Y-2128000D01*
X7123000Y-2282000D02*
X7223000Y-2382000D01*
X7223000Y-2282000D02*
X7123000Y-2382000D01*
X7123000Y-2536000D02*
X7223000Y-2636000D01*
X7223000Y-2536000D02*
X7123000Y-2636000D01*
X7123000Y-2790000D02*
X7223000Y-2890000D01*
X7223000Y-2790000D02*
X7123000Y-2890000D01*
X7123000Y-11358000D02*
X7223000Y-11458000D01*
X7223000Y-11358000D02*
X7123000Y-11458000D01*
X7123000Y-11612000D02*
X7223000Y-11712000D01*
X7223000Y-11612000D02*
X7123000Y-11712000D01*
X7123000Y-11866000D02*
X7223000Y-11966000D01*
X7223000Y-11866000D02*
X7123000Y-11966000D01*
X7123000Y-12120000D02*
X7223000Y-12220000D01*
X7223000Y-12120000D02*
X7123000Y-12220000D01*
X7124000Y-8738000D02*
X7224000Y-8838000D01*
X7224000Y-8738000D02*
X7124000Y-8838000D01*
X7124000Y-8992000D02*
X7224000Y-9092000D01*
X7224000Y-8992000D02*
X7124000Y-9092000D01*
X7124000Y-9246000D02*
X7224000Y-9346000D01*
X7224000Y-9246000D02*
X7124000Y-9346000D01*
X7124000Y-9500000D02*
X7224000Y-9600000D01*
X7224000Y-9500000D02*
X7124000Y-9600000D01*
X7124000Y-18068000D02*
X7224000Y-18168000D01*
X7224000Y-18068000D02*
X7124000Y-18168000D01*
X7124000Y-18322000D02*
X7224000Y-18422000D01*
X7224000Y-18322000D02*
X7124000Y-18422000D01*
X7124000Y-18576000D02*
X7224000Y-18676000D01*
X7224000Y-18576000D02*
X7124000Y-18676000D01*
X7124000Y-18830000D02*
X7224000Y-18930000D01*
X7224000Y-18830000D02*
X7124000Y-18930000D01*
X8819000Y-3644000D02*
X8919000Y-3744000D01*
X8919000Y-3644000D02*
X8819000Y-3744000D01*
X8819000Y-3898000D02*
X8919000Y-3998000D01*
X8919000Y-3898000D02*
X8819000Y-3998000D01*
X8819000Y-4152000D02*
X8919000Y-4252000D01*
X8919000Y-4152000D02*
X8819000Y-4252000D01*
X8819000Y-4406000D02*
X8919000Y-4506000D01*
X8919000Y-4406000D02*
X8819000Y-4506000D01*
X8819000Y-12974000D02*
X8919000Y-13074000D01*
X8919000Y-12974000D02*
X8819000Y-13074000D01*
X8819000Y-13228000D02*
X8919000Y-13328000D01*
X8919000Y-13228000D02*
X8819000Y-13328000D01*
X8819000Y-13482000D02*
X8919000Y-13582000D01*
X8919000Y-13482000D02*
X8819000Y-13582000D01*
X8819000Y-13736000D02*
X8919000Y-13836000D01*
X8919000Y-13736000D02*
X8819000Y-13836000D01*
X8823000Y-7141000D02*
X8923000Y-7241000D01*
X8923000Y-7141000D02*
X8823000Y-7241000D01*
X8823000Y-7395000D02*
X8923000Y-7495000D01*
X8923000Y-7395000D02*
X8823000Y-7495000D01*
X8823000Y-7649000D02*
X8923000Y-7749000D01*
X8923000Y-7649000D02*
X8823000Y-7749000D01*
X8823000Y-7903000D02*
X8923000Y-8003000D01*
X8923000Y-7903000D02*
X8823000Y-8003000D01*
X8823000Y-16471000D02*
X8923000Y-16571000D01*
X8923000Y-16471000D02*
X8823000Y-16571000D01*
X8823000Y-16725000D02*
X8923000Y-16825000D01*
X8923000Y-16725000D02*
X8823000Y-16825000D01*
X8823000Y-16979000D02*
X8923000Y-17079000D01*
X8923000Y-16979000D02*
X8823000Y-17079000D01*
X8823000Y-17233000D02*
X8923000Y-17333000D01*
X8923000Y-17233000D02*
X8823000Y-17333000D01*
X8825000Y-5385000D02*
X8925000Y-5485000D01*
X8925000Y-5385000D02*
X8825000Y-5485000D01*
X8825000Y-5639000D02*
X8925000Y-5739000D01*
X8925000Y-5639000D02*
X8825000Y-5739000D01*
X8825000Y-5893000D02*
X8925000Y-5993000D01*
X8925000Y-5893000D02*
X8825000Y-5993000D01*
X8825000Y-6147000D02*
X8925000Y-6247000D01*
X8925000Y-6147000D02*
X8825000Y-6247000D01*
X8825000Y-14715000D02*
X8925000Y-14815000D01*
X8925000Y-14715000D02*
X8825000Y-14815000D01*
X8825000Y-14969000D02*
X8925000Y-15069000D01*
X8925000Y-14969000D02*
X8825000Y-15069000D01*
X8825000Y-15223000D02*
X8925000Y-15323000D01*
X8925000Y-15223000D02*
X8825000Y-15323000D01*
X8825000Y-15477000D02*
X8925000Y-15577000D01*
X8925000Y-15477000D02*
X8825000Y-15577000D01*
X8836000Y-2016000D02*
X8936000Y-2116000D01*
X8936000Y-2016000D02*
X8836000Y-2116000D01*
X8836000Y-2270000D02*
X8936000Y-2370000D01*
X8936000Y-2270000D02*
X8836000Y-2370000D01*
X8836000Y-2524000D02*
X8936000Y-2624000D01*
X8936000Y-2524000D02*
X8836000Y-2624000D01*
X8836000Y-2778000D02*
X8936000Y-2878000D01*
X8936000Y-2778000D02*
X8836000Y-2878000D01*
X8836000Y-11346000D02*
X8936000Y-11446000D01*
X8936000Y-11346000D02*
X8836000Y-11446000D01*
X8836000Y-11600000D02*
X8936000Y-11700000D01*
X8936000Y-11600000D02*
X8836000Y-11700000D01*
X8836000Y-11854000D02*
X8936000Y-11954000D01*
X8936000Y-11854000D02*
X8836000Y-11954000D01*
X8836000Y-12108000D02*
X8936000Y-12208000D01*
X8936000Y-12108000D02*
X8836000Y-12208000D01*
X8837000Y-8726000D02*
X8937000Y-8826000D01*
X8937000Y-8726000D02*
X8837000Y-8826000D01*
X8837000Y-8980000D02*
X8937000Y-9080000D01*
X8937000Y-8980000D02*
X8837000Y-9080000D01*
X8837000Y-9234000D02*
X8937000Y-9334000D01*
X8937000Y-9234000D02*
X8837000Y-9334000D01*
X8837000Y-9488000D02*
X8937000Y-9588000D01*
X8937000Y-9488000D02*
X8837000Y-9588000D01*
X8837000Y-18056000D02*
X8937000Y-18156000D01*
X8937000Y-18056000D02*
X8837000Y-18156000D01*
X8837000Y-18310000D02*
X8937000Y-18410000D01*
X8937000Y-18310000D02*
X8837000Y-18410000D01*
X8837000Y-18564000D02*
X8937000Y-18664000D01*
X8937000Y-18564000D02*
X8837000Y-18664000D01*
X8837000Y-18818000D02*
X8937000Y-18918000D01*
X8937000Y-18818000D02*
X8837000Y-18918000D01*
X11615445Y-3709601D02*
X11715445Y-3809601D01*
X11715445Y-3709601D02*
X11615445Y-3809601D01*
X11615445Y-3963601D02*
X11715445Y-4063601D01*
X11715445Y-3963601D02*
X11615445Y-4063601D01*
X11615445Y-4217602D02*
X11715445Y-4317602D01*
X11715445Y-4217602D02*
X11615445Y-4317602D01*
X11615445Y-4471602D02*
X11715445Y-4571602D01*
X11715445Y-4471602D02*
X11615445Y-4571602D01*
X11615445Y-13039601D02*
X11715445Y-13139601D01*
X11715445Y-13039601D02*
X11615445Y-13139601D01*
X11615445Y-13293601D02*
X11715445Y-13393601D01*
X11715445Y-13293601D02*
X11615445Y-13393601D01*
X11615445Y-13547601D02*
X11715445Y-13647601D01*
X11715445Y-13547601D02*
X11615445Y-13647601D01*
X11615445Y-13801601D02*
X11715445Y-13901601D01*
X11715445Y-13801601D02*
X11615445Y-13901601D01*
X11619445Y-7206601D02*
X11719445Y-7306601D01*
X11719445Y-7206601D02*
X11619445Y-7306601D01*
X11619445Y-7460601D02*
X11719445Y-7560601D01*
X11719445Y-7460601D02*
X11619445Y-7560601D01*
X11619445Y-7714601D02*
X11719445Y-7814601D01*
X11719445Y-7714601D02*
X11619445Y-7814601D01*
X11619445Y-7968601D02*
X11719445Y-8068601D01*
X11719445Y-7968601D02*
X11619445Y-8068601D01*
X11619445Y-16536601D02*
X11719445Y-16636601D01*
X11719445Y-16536601D02*
X11619445Y-16636601D01*
X11619445Y-16790602D02*
X11719445Y-16890602D01*
X11719445Y-16790602D02*
X11619445Y-16890602D01*
X11619445Y-17044602D02*
X11719445Y-17144602D01*
X11719445Y-17044602D02*
X11619445Y-17144602D01*
X11619445Y-17298602D02*
X11719445Y-17398602D01*
X11719445Y-17298602D02*
X11619445Y-17398602D01*
X11621445Y-5450602D02*
X11721445Y-5550602D01*
X11721445Y-5450602D02*
X11621445Y-5550602D01*
X11621445Y-5704601D02*
X11721445Y-5804601D01*
X11721445Y-5704601D02*
X11621445Y-5804601D01*
X11621445Y-5958601D02*
X11721445Y-6058601D01*
X11721445Y-5958601D02*
X11621445Y-6058601D01*
X11621445Y-6212601D02*
X11721445Y-6312601D01*
X11721445Y-6212601D02*
X11621445Y-6312601D01*
X11621445Y-14780601D02*
X11721445Y-14880601D01*
X11721445Y-14780601D02*
X11621445Y-14880601D01*
X11621445Y-15034601D02*
X11721445Y-15134601D01*
X11721445Y-15034601D02*
X11621445Y-15134601D01*
X11621445Y-15288601D02*
X11721445Y-15388601D01*
X11721445Y-15288601D02*
X11621445Y-15388601D01*
X11621445Y-15542601D02*
X11721445Y-15642601D01*
X11721445Y-15542601D02*
X11621445Y-15642601D01*
X11632445Y-2081601D02*
X11732445Y-2181602D01*
X11732445Y-2081601D02*
X11632445Y-2181602D01*
X11632445Y-2335602D02*
X11732445Y-2435602D01*
X11732445Y-2335602D02*
X11632445Y-2435602D01*
X11632445Y-2589602D02*
X11732445Y-2689602D01*
X11732445Y-2589602D02*
X11632445Y-2689602D01*
X11632445Y-2843601D02*
X11732445Y-2943601D01*
X11732445Y-2843601D02*
X11632445Y-2943601D01*
X11632445Y-11411601D02*
X11732445Y-11511601D01*
X11732445Y-11411601D02*
X11632445Y-11511601D01*
X11632445Y-11665601D02*
X11732445Y-11765601D01*
X11732445Y-11665601D02*
X11632445Y-11765601D01*
X11632445Y-11919601D02*
X11732445Y-12019601D01*
X11732445Y-11919601D02*
X11632445Y-12019601D01*
X11632445Y-12173601D02*
X11732445Y-12273601D01*
X11732445Y-12173601D02*
X11632445Y-12273601D01*
X11633445Y-8791602D02*
X11733445Y-8891602D01*
X11733445Y-8791602D02*
X11633445Y-8891602D01*
X11633445Y-9045602D02*
X11733445Y-9145602D01*
X11733445Y-9045602D02*
X11633445Y-9145602D01*
X11633445Y-9299602D02*
X11733445Y-9399602D01*
X11733445Y-9299602D02*
X11633445Y-9399602D01*
X11633445Y-9553602D02*
X11733445Y-9653602D01*
X11733445Y-9553602D02*
X11633445Y-9653602D01*
X11633445Y-18121602D02*
X11733445Y-18221602D01*
X11733445Y-18121602D02*
X11633445Y-18221602D01*
X11633445Y-18375602D02*
X11733445Y-18475602D01*
X11733445Y-18375602D02*
X11633445Y-18475602D01*
X11633445Y-18629602D02*
X11733445Y-18729602D01*
X11733445Y-18629602D02*
X11633445Y-18729602D01*
X11633445Y-18883602D02*
X11733445Y-18983602D01*
X11733445Y-18883602D02*
X11633445Y-18983602D01*
X13328445Y-3697601D02*
X13428445Y-3797601D01*
X13428445Y-3697601D02*
X13328445Y-3797601D01*
X13328445Y-3951601D02*
X13428445Y-4051601D01*
X13428445Y-3951601D02*
X13328445Y-4051601D01*
X13328445Y-4205602D02*
X13428445Y-4305602D01*
X13428445Y-4205602D02*
X13328445Y-4305602D01*
X13328445Y-4459602D02*
X13428445Y-4559602D01*
X13428445Y-4459602D02*
X13328445Y-4559602D01*
X13328445Y-13027601D02*
X13428445Y-13127601D01*
X13428445Y-13027601D02*
X13328445Y-13127601D01*
X13328445Y-13281601D02*
X13428445Y-13381601D01*
X13428445Y-13281601D02*
X13328445Y-13381601D01*
X13328445Y-13535601D02*
X13428445Y-13635601D01*
X13428445Y-13535601D02*
X13328445Y-13635601D01*
X13328445Y-13789601D02*
X13428445Y-13889601D01*
X13428445Y-13789601D02*
X13328445Y-13889601D01*
X13332445Y-7194601D02*
X13432445Y-7294601D01*
X13432445Y-7194601D02*
X13332445Y-7294601D01*
X13332445Y-7448601D02*
X13432445Y-7548601D01*
X13432445Y-7448601D02*
X13332445Y-7548601D01*
X13332445Y-7702601D02*
X13432445Y-7802601D01*
X13432445Y-7702601D02*
X13332445Y-7802601D01*
X13332445Y-7956601D02*
X13432445Y-8056601D01*
X13432445Y-7956601D02*
X13332445Y-8056601D01*
X13332445Y-16524601D02*
X13432445Y-16624601D01*
X13432445Y-16524601D02*
X13332445Y-16624601D01*
X13332445Y-16778602D02*
X13432445Y-16878602D01*
X13432445Y-16778602D02*
X13332445Y-16878602D01*
X13332445Y-17032602D02*
X13432445Y-17132602D01*
X13432445Y-17032602D02*
X13332445Y-17132602D01*
X13332445Y-17286602D02*
X13432445Y-17386602D01*
X13432445Y-17286602D02*
X13332445Y-17386602D01*
X13334445Y-5438602D02*
X13434445Y-5538602D01*
X13434445Y-5438602D02*
X13334445Y-5538602D01*
X13334445Y-5692601D02*
X13434445Y-5792601D01*
X13434445Y-5692601D02*
X13334445Y-5792601D01*
X13334445Y-5946601D02*
X13434445Y-6046601D01*
X13434445Y-5946601D02*
X13334445Y-6046601D01*
X13334445Y-6200601D02*
X13434445Y-6300601D01*
X13434445Y-6200601D02*
X13334445Y-6300601D01*
X13334445Y-14768601D02*
X13434445Y-14868601D01*
X13434445Y-14768601D02*
X13334445Y-14868601D01*
X13334445Y-15022601D02*
X13434445Y-15122601D01*
X13434445Y-15022601D02*
X13334445Y-15122601D01*
X13334445Y-15276601D02*
X13434445Y-15376601D01*
X13434445Y-15276601D02*
X13334445Y-15376601D01*
X13334445Y-15530601D02*
X13434445Y-15630601D01*
X13434445Y-15530601D02*
X13334445Y-15630601D01*
X13345445Y-2069601D02*
X13445445Y-2169602D01*
X13445445Y-2069601D02*
X13345445Y-2169602D01*
X13345445Y-2323602D02*
X13445445Y-2423602D01*
X13445445Y-2323602D02*
X13345445Y-2423602D01*
X13345445Y-2577602D02*
X13445445Y-2677602D01*
X13445445Y-2577602D02*
X13345445Y-2677602D01*
X13345445Y-2831601D02*
X13445445Y-2931601D01*
X13445445Y-2831601D02*
X13345445Y-2931601D01*
X13345445Y-11399601D02*
X13445445Y-11499601D01*
X13445445Y-11399601D02*
X13345445Y-11499601D01*
X13345445Y-11653601D02*
X13445445Y-11753601D01*
X13445445Y-11653601D02*
X13345445Y-11753601D01*
X13345445Y-11907601D02*
X13445445Y-12007601D01*
X13445445Y-11907601D02*
X13345445Y-12007601D01*
X13345445Y-12161601D02*
X13445445Y-12261601D01*
X13445445Y-12161601D02*
X13345445Y-12261601D01*
X13346445Y-8779602D02*
X13446445Y-8879602D01*
X13446445Y-8779602D02*
X13346445Y-8879602D01*
X13346445Y-9033602D02*
X13446445Y-9133602D01*
X13446445Y-9033602D02*
X13346445Y-9133602D01*
X13346445Y-9287602D02*
X13446445Y-9387602D01*
X13446445Y-9287602D02*
X13346445Y-9387602D01*
X13346445Y-9541602D02*
X13446445Y-9641602D01*
X13446445Y-9541602D02*
X13346445Y-9641602D01*
X13346445Y-18109602D02*
X13446445Y-18209602D01*
X13446445Y-18109602D02*
X13346445Y-18209602D01*
X13346445Y-18363602D02*
X13446445Y-18463602D01*
X13446445Y-18363602D02*
X13346445Y-18463602D01*
X13346445Y-18617602D02*
X13446445Y-18717602D01*
X13446445Y-18617602D02*
X13346445Y-18717602D01*
X13346445Y-18871602D02*
X13446445Y-18971602D01*
X13446445Y-18871602D02*
X13346445Y-18971602D01*
X16172445Y-3698601D02*
X16272445Y-3798601D01*
X16272445Y-3698601D02*
X16172445Y-3798601D01*
X16172445Y-3952601D02*
X16272445Y-4052601D01*
X16272445Y-3952601D02*
X16172445Y-4052601D01*
X16172445Y-4206602D02*
X16272445Y-4306602D01*
X16272445Y-4206602D02*
X16172445Y-4306602D01*
X16172445Y-4460602D02*
X16272445Y-4560602D01*
X16272445Y-4460602D02*
X16172445Y-4560602D01*
X16172445Y-13028601D02*
X16272445Y-13128601D01*
X16272445Y-13028601D02*
X16172445Y-13128601D01*
X16172445Y-13282601D02*
X16272445Y-13382601D01*
X16272445Y-13282601D02*
X16172445Y-13382601D01*
X16172445Y-13536601D02*
X16272445Y-13636601D01*
X16272445Y-13536601D02*
X16172445Y-13636601D01*
X16172445Y-13790601D02*
X16272445Y-13890601D01*
X16272445Y-13790601D02*
X16172445Y-13890601D01*
X16176445Y-7195601D02*
X16276445Y-7295601D01*
X16276445Y-7195601D02*
X16176445Y-7295601D01*
X16176445Y-7449601D02*
X16276445Y-7549601D01*
X16276445Y-7449601D02*
X16176445Y-7549601D01*
X16176445Y-7703601D02*
X16276445Y-7803601D01*
X16276445Y-7703601D02*
X16176445Y-7803601D01*
X16176445Y-7957601D02*
X16276445Y-8057601D01*
X16276445Y-7957601D02*
X16176445Y-8057601D01*
X16176445Y-16525601D02*
X16276445Y-16625601D01*
X16276445Y-16525601D02*
X16176445Y-16625601D01*
X16176445Y-16779602D02*
X16276445Y-16879602D01*
X16276445Y-16779602D02*
X16176445Y-16879602D01*
X16176445Y-17033602D02*
X16276445Y-17133602D01*
X16276445Y-17033602D02*
X16176445Y-17133602D01*
X16176445Y-17287602D02*
X16276445Y-17387602D01*
X16276445Y-17287602D02*
X16176445Y-17387602D01*
X16178445Y-5439602D02*
X16278445Y-5539602D01*
X16278445Y-5439602D02*
X16178445Y-5539602D01*
X16178445Y-5693601D02*
X16278445Y-5793601D01*
X16278445Y-5693601D02*
X16178445Y-5793601D01*
X16178445Y-5947601D02*
X16278445Y-6047601D01*
X16278445Y-5947601D02*
X16178445Y-6047601D01*
X16178445Y-6201601D02*
X16278445Y-6301601D01*
X16278445Y-6201601D02*
X16178445Y-6301601D01*
X16178445Y-14769601D02*
X16278445Y-14869601D01*
X16278445Y-14769601D02*
X16178445Y-14869601D01*
X16178445Y-15023601D02*
X16278445Y-15123601D01*
X16278445Y-15023601D02*
X16178445Y-15123601D01*
X16178445Y-15277601D02*
X16278445Y-15377601D01*
X16278445Y-15277601D02*
X16178445Y-15377601D01*
X16178445Y-15531601D02*
X16278445Y-15631601D01*
X16278445Y-15531601D02*
X16178445Y-15631601D01*
X16189445Y-2070601D02*
X16289445Y-2170602D01*
X16289445Y-2070601D02*
X16189445Y-2170602D01*
X16189445Y-2324602D02*
X16289445Y-2424602D01*
X16289445Y-2324602D02*
X16189445Y-2424602D01*
X16189445Y-2578602D02*
X16289445Y-2678602D01*
X16289445Y-2578602D02*
X16189445Y-2678602D01*
X16189445Y-2832601D02*
X16289445Y-2932601D01*
X16289445Y-2832601D02*
X16189445Y-2932601D01*
X16189445Y-11400601D02*
X16289445Y-11500601D01*
X16289445Y-11400601D02*
X16189445Y-11500601D01*
X16189445Y-11654601D02*
X16289445Y-11754601D01*
X16289445Y-11654601D02*
X16189445Y-11754601D01*
X16189445Y-11908601D02*
X16289445Y-12008601D01*
X16289445Y-11908601D02*
X16189445Y-12008601D01*
X16189445Y-12162601D02*
X16289445Y-12262601D01*
X16289445Y-12162601D02*
X16189445Y-12262601D01*
X16190445Y-8780602D02*
X16290445Y-8880602D01*
X16290445Y-8780602D02*
X16190445Y-8880602D01*
X16190445Y-9034602D02*
X16290445Y-9134602D01*
X16290445Y-9034602D02*
X16190445Y-9134602D01*
X16190445Y-9288602D02*
X16290445Y-9388602D01*
X16290445Y-9288602D02*
X16190445Y-9388602D01*
X16190445Y-9542602D02*
X16290445Y-9642602D01*
X16290445Y-9542602D02*
X16190445Y-9642602D01*
X16190445Y-18110602D02*
X16290445Y-18210602D01*
X16290445Y-18110602D02*
X16190445Y-18210602D01*
X16190445Y-18364602D02*
X16290445Y-18464602D01*
X16290445Y-18364602D02*
X16190445Y-18464602D01*
X16190445Y-18618602D02*
X16290445Y-18718602D01*
X16290445Y-18618602D02*
X16190445Y-18718602D01*
X16190445Y-18872602D02*
X16290445Y-18972602D01*
X16290445Y-18872602D02*
X16190445Y-18972602D01*
X17885445Y-3686601D02*
X17985445Y-3786601D01*
X17985445Y-3686601D02*
X17885445Y-3786601D01*
X17885445Y-3940601D02*
X17985445Y-4040601D01*
X17985445Y-3940601D02*
X17885445Y-4040601D01*
X17885445Y-4194602D02*
X17985445Y-4294602D01*
X17985445Y-4194602D02*
X17885445Y-4294602D01*
X17885445Y-4448602D02*
X17985445Y-4548602D01*
X17985445Y-4448602D02*
X17885445Y-4548602D01*
X17885445Y-13016601D02*
X17985445Y-13116601D01*
X17985445Y-13016601D02*
X17885445Y-13116601D01*
X17885445Y-13270601D02*
X17985445Y-13370601D01*
X17985445Y-13270601D02*
X17885445Y-13370601D01*
X17885445Y-13524601D02*
X17985445Y-13624601D01*
X17985445Y-13524601D02*
X17885445Y-13624601D01*
X17885445Y-13778601D02*
X17985445Y-13878601D01*
X17985445Y-13778601D02*
X17885445Y-13878601D01*
X17889445Y-7183601D02*
X17989445Y-7283601D01*
X17989445Y-7183601D02*
X17889445Y-7283601D01*
X17889445Y-7437601D02*
X17989445Y-7537601D01*
X17989445Y-7437601D02*
X17889445Y-7537601D01*
X17889445Y-7691601D02*
X17989445Y-7791601D01*
X17989445Y-7691601D02*
X17889445Y-7791601D01*
X17889445Y-7945601D02*
X17989445Y-8045601D01*
X17989445Y-7945601D02*
X17889445Y-8045601D01*
X17889445Y-16513601D02*
X17989445Y-16613601D01*
X17989445Y-16513601D02*
X17889445Y-16613601D01*
X17889445Y-16767601D02*
X17989445Y-16867602D01*
X17989445Y-16767601D02*
X17889445Y-16867602D01*
X17889445Y-17021602D02*
X17989445Y-17121602D01*
X17989445Y-17021602D02*
X17889445Y-17121602D01*
X17889445Y-17275602D02*
X17989445Y-17375602D01*
X17989445Y-17275602D02*
X17889445Y-17375602D01*
X17891445Y-5427602D02*
X17991445Y-5527602D01*
X17991445Y-5427602D02*
X17891445Y-5527602D01*
X17891445Y-5681601D02*
X17991445Y-5781601D01*
X17991445Y-5681601D02*
X17891445Y-5781601D01*
X17891445Y-5935601D02*
X17991445Y-6035601D01*
X17991445Y-5935601D02*
X17891445Y-6035601D01*
X17891445Y-6189601D02*
X17991445Y-6289601D01*
X17991445Y-6189601D02*
X17891445Y-6289601D01*
X17891445Y-14757601D02*
X17991445Y-14857601D01*
X17991445Y-14757601D02*
X17891445Y-14857601D01*
X17891445Y-15011601D02*
X17991445Y-15111601D01*
X17991445Y-15011601D02*
X17891445Y-15111601D01*
X17891445Y-15265601D02*
X17991445Y-15365601D01*
X17991445Y-15265601D02*
X17891445Y-15365601D01*
X17891445Y-15519601D02*
X17991445Y-15619601D01*
X17991445Y-15519601D02*
X17891445Y-15619601D01*
X17902445Y-2058601D02*
X18002445Y-2158602D01*
X18002445Y-2058601D02*
X17902445Y-2158602D01*
X17902445Y-2312602D02*
X18002445Y-2412602D01*
X18002445Y-2312602D02*
X17902445Y-2412602D01*
X17902445Y-2566602D02*
X18002445Y-2666602D01*
X18002445Y-2566602D02*
X17902445Y-2666602D01*
X17902445Y-2820601D02*
X18002445Y-2920601D01*
X18002445Y-2820601D02*
X17902445Y-2920601D01*
X17902445Y-11388601D02*
X18002445Y-11488601D01*
X18002445Y-11388601D02*
X17902445Y-11488601D01*
X17902445Y-11642601D02*
X18002445Y-11742601D01*
X18002445Y-11642601D02*
X17902445Y-11742601D01*
X17902445Y-11896601D02*
X18002445Y-11996601D01*
X18002445Y-11896601D02*
X17902445Y-11996601D01*
X17902445Y-12150601D02*
X18002445Y-12250601D01*
X18002445Y-12150601D02*
X17902445Y-12250601D01*
X17903445Y-8768602D02*
X18003445Y-8868602D01*
X18003445Y-8768602D02*
X17903445Y-8868602D01*
X17903445Y-9022602D02*
X18003445Y-9122602D01*
X18003445Y-9022602D02*
X17903445Y-9122602D01*
X17903445Y-9276602D02*
X18003445Y-9376602D01*
X18003445Y-9276602D02*
X17903445Y-9376602D01*
X17903445Y-9530602D02*
X18003445Y-9630602D01*
X18003445Y-9530602D02*
X17903445Y-9630602D01*
X17903445Y-18098602D02*
X18003445Y-18198602D01*
X18003445Y-18098602D02*
X17903445Y-18198602D01*
X17903445Y-18352602D02*
X18003445Y-18452602D01*
X18003445Y-18352602D02*
X17903445Y-18452602D01*
X17903445Y-18606602D02*
X18003445Y-18706602D01*
X18003445Y-18606602D02*
X17903445Y-18706602D01*
X17903445Y-18860602D02*
X18003445Y-18960602D01*
X18003445Y-18860602D02*
X17903445Y-18960602D01*
X20708445Y-3682601D02*
X20808445Y-3782601D01*
X20808445Y-3682601D02*
X20708445Y-3782601D01*
X20708445Y-3936601D02*
X20808445Y-4036601D01*
X20808445Y-3936601D02*
X20708445Y-4036601D01*
X20708445Y-4190601D02*
X20808445Y-4290602D01*
X20808445Y-4190601D02*
X20708445Y-4290602D01*
X20708445Y-4444602D02*
X20808445Y-4544602D01*
X20808445Y-4444602D02*
X20708445Y-4544602D01*
X20708445Y-13012601D02*
X20808445Y-13112601D01*
X20808445Y-13012601D02*
X20708445Y-13112601D01*
X20708445Y-13266601D02*
X20808445Y-13366601D01*
X20808445Y-13266601D02*
X20708445Y-13366601D01*
X20708445Y-13520601D02*
X20808445Y-13620601D01*
X20808445Y-13520601D02*
X20708445Y-13620601D01*
X20708445Y-13774601D02*
X20808445Y-13874601D01*
X20808445Y-13774601D02*
X20708445Y-13874601D01*
X20712445Y-7179601D02*
X20812445Y-7279601D01*
X20812445Y-7179601D02*
X20712445Y-7279601D01*
X20712445Y-7433601D02*
X20812445Y-7533601D01*
X20812445Y-7433601D02*
X20712445Y-7533601D01*
X20712445Y-7687601D02*
X20812445Y-7787601D01*
X20812445Y-7687601D02*
X20712445Y-7787601D01*
X20712445Y-7941601D02*
X20812445Y-8041601D01*
X20812445Y-7941601D02*
X20712445Y-8041601D01*
X20712445Y-16509601D02*
X20812445Y-16609601D01*
X20812445Y-16509601D02*
X20712445Y-16609601D01*
X20712445Y-16763601D02*
X20812445Y-16863602D01*
X20812445Y-16763601D02*
X20712445Y-16863602D01*
X20712445Y-17017602D02*
X20812445Y-17117602D01*
X20812445Y-17017602D02*
X20712445Y-17117602D01*
X20712445Y-17271602D02*
X20812445Y-17371602D01*
X20812445Y-17271602D02*
X20712445Y-17371602D01*
X20714445Y-5423602D02*
X20814445Y-5523602D01*
X20814445Y-5423602D02*
X20714445Y-5523602D01*
X20714445Y-5677601D02*
X20814445Y-5777601D01*
X20814445Y-5677601D02*
X20714445Y-5777601D01*
X20714445Y-5931601D02*
X20814445Y-6031601D01*
X20814445Y-5931601D02*
X20714445Y-6031601D01*
X20714445Y-6185601D02*
X20814445Y-6285601D01*
X20814445Y-6185601D02*
X20714445Y-6285601D01*
X20714445Y-14753601D02*
X20814445Y-14853601D01*
X20814445Y-14753601D02*
X20714445Y-14853601D01*
X20714445Y-15007601D02*
X20814445Y-15107601D01*
X20814445Y-15007601D02*
X20714445Y-15107601D01*
X20714445Y-15261601D02*
X20814445Y-15361601D01*
X20814445Y-15261601D02*
X20714445Y-15361601D01*
X20714445Y-15515601D02*
X20814445Y-15615601D01*
X20814445Y-15515601D02*
X20714445Y-15615601D01*
X20725445Y-2054601D02*
X20825445Y-2154602D01*
X20825445Y-2054601D02*
X20725445Y-2154602D01*
X20725445Y-2308602D02*
X20825445Y-2408602D01*
X20825445Y-2308602D02*
X20725445Y-2408602D01*
X20725445Y-2562602D02*
X20825445Y-2662602D01*
X20825445Y-2562602D02*
X20725445Y-2662602D01*
X20725445Y-2816601D02*
X20825445Y-2916601D01*
X20825445Y-2816601D02*
X20725445Y-2916601D01*
X20725445Y-11384601D02*
X20825445Y-11484601D01*
X20825445Y-11384601D02*
X20725445Y-11484601D01*
X20725445Y-11638601D02*
X20825445Y-11738601D01*
X20825445Y-11638601D02*
X20725445Y-11738601D01*
X20725445Y-11892601D02*
X20825445Y-11992601D01*
X20825445Y-11892601D02*
X20725445Y-11992601D01*
X20725445Y-12146601D02*
X20825445Y-12246601D01*
X20825445Y-12146601D02*
X20725445Y-12246601D01*
X20726445Y-8764602D02*
X20826445Y-8864602D01*
X20826445Y-8764602D02*
X20726445Y-8864602D01*
X20726445Y-9018602D02*
X20826445Y-9118602D01*
X20826445Y-9018602D02*
X20726445Y-9118602D01*
X20726445Y-9272602D02*
X20826445Y-9372602D01*
X20826445Y-9272602D02*
X20726445Y-9372602D01*
X20726445Y-9526602D02*
X20826445Y-9626602D01*
X20826445Y-9526602D02*
X20726445Y-9626602D01*
X20726445Y-18094602D02*
X20826445Y-18194602D01*
X20826445Y-18094602D02*
X20726445Y-18194602D01*
X20726445Y-18348602D02*
X20826445Y-18448602D01*
X20826445Y-18348602D02*
X20726445Y-18448602D01*
X20726445Y-18602602D02*
X20826445Y-18702602D01*
X20826445Y-18602602D02*
X20726445Y-18702602D01*
X20726445Y-18856602D02*
X20826445Y-18956602D01*
X20826445Y-18856602D02*
X20726445Y-18956602D01*
X22421445Y-3670601D02*
X22521445Y-3770601D01*
X22521445Y-3670601D02*
X22421445Y-3770601D01*
X22421445Y-3924601D02*
X22521445Y-4024601D01*
X22521445Y-3924601D02*
X22421445Y-4024601D01*
X22421445Y-4178601D02*
X22521445Y-4278602D01*
X22521445Y-4178601D02*
X22421445Y-4278602D01*
X22421445Y-4432602D02*
X22521445Y-4532602D01*
X22521445Y-4432602D02*
X22421445Y-4532602D01*
X22421445Y-13000601D02*
X22521445Y-13100601D01*
X22521445Y-13000601D02*
X22421445Y-13100601D01*
X22421445Y-13254601D02*
X22521445Y-13354601D01*
X22521445Y-13254601D02*
X22421445Y-13354601D01*
X22421445Y-13508601D02*
X22521445Y-13608601D01*
X22521445Y-13508601D02*
X22421445Y-13608601D01*
X22421445Y-13762601D02*
X22521445Y-13862601D01*
X22521445Y-13762601D02*
X22421445Y-13862601D01*
X22425445Y-7167601D02*
X22525445Y-7267601D01*
X22525445Y-7167601D02*
X22425445Y-7267601D01*
X22425445Y-7421601D02*
X22525445Y-7521601D01*
X22525445Y-7421601D02*
X22425445Y-7521601D01*
X22425445Y-7675601D02*
X22525445Y-7775601D01*
X22525445Y-7675601D02*
X22425445Y-7775601D01*
X22425445Y-7929601D02*
X22525445Y-8029601D01*
X22525445Y-7929601D02*
X22425445Y-8029601D01*
X22425445Y-16497601D02*
X22525445Y-16597601D01*
X22525445Y-16497601D02*
X22425445Y-16597601D01*
X22425445Y-16751601D02*
X22525445Y-16851602D01*
X22525445Y-16751601D02*
X22425445Y-16851602D01*
X22425445Y-17005602D02*
X22525445Y-17105602D01*
X22525445Y-17005602D02*
X22425445Y-17105602D01*
X22425445Y-17259602D02*
X22525445Y-17359602D01*
X22525445Y-17259602D02*
X22425445Y-17359602D01*
X22427445Y-5411602D02*
X22527445Y-5511602D01*
X22527445Y-5411602D02*
X22427445Y-5511602D01*
X22427445Y-5665601D02*
X22527445Y-5765601D01*
X22527445Y-5665601D02*
X22427445Y-5765601D01*
X22427445Y-5919601D02*
X22527445Y-6019601D01*
X22527445Y-5919601D02*
X22427445Y-6019601D01*
X22427445Y-6173601D02*
X22527445Y-6273601D01*
X22527445Y-6173601D02*
X22427445Y-6273601D01*
X22427445Y-14741601D02*
X22527445Y-14841601D01*
X22527445Y-14741601D02*
X22427445Y-14841601D01*
X22427445Y-14995601D02*
X22527445Y-15095601D01*
X22527445Y-14995601D02*
X22427445Y-15095601D01*
X22427445Y-15249601D02*
X22527445Y-15349601D01*
X22527445Y-15249601D02*
X22427445Y-15349601D01*
X22427445Y-15503601D02*
X22527445Y-15603601D01*
X22527445Y-15503601D02*
X22427445Y-15603601D01*
X22438445Y-2042601D02*
X22538445Y-2142602D01*
X22538445Y-2042601D02*
X22438445Y-2142602D01*
X22438445Y-2296602D02*
X22538445Y-2396602D01*
X22538445Y-2296602D02*
X22438445Y-2396602D01*
X22438445Y-2550602D02*
X22538445Y-2650602D01*
X22538445Y-2550602D02*
X22438445Y-2650602D01*
X22438445Y-2804601D02*
X22538445Y-2904601D01*
X22538445Y-2804601D02*
X22438445Y-2904601D01*
X22438445Y-11372601D02*
X22538445Y-11472601D01*
X22538445Y-11372601D02*
X22438445Y-11472601D01*
X22438445Y-11626601D02*
X22538445Y-11726601D01*
X22538445Y-11626601D02*
X22438445Y-11726601D01*
X22438445Y-11880601D02*
X22538445Y-11980601D01*
X22538445Y-11880601D02*
X22438445Y-11980601D01*
X22438445Y-12134601D02*
X22538445Y-12234601D01*
X22538445Y-12134601D02*
X22438445Y-12234601D01*
X22439445Y-8752602D02*
X22539445Y-8852602D01*
X22539445Y-8752602D02*
X22439445Y-8852602D01*
X22439445Y-9006602D02*
X22539445Y-9106602D01*
X22539445Y-9006602D02*
X22439445Y-9106602D01*
X22439445Y-9260602D02*
X22539445Y-9360602D01*
X22539445Y-9260602D02*
X22439445Y-9360602D01*
X22439445Y-9514602D02*
X22539445Y-9614602D01*
X22539445Y-9514602D02*
X22439445Y-9614602D01*
X22439445Y-18082602D02*
X22539445Y-18182602D01*
X22539445Y-18082602D02*
X22439445Y-18182602D01*
X22439445Y-18336602D02*
X22539445Y-18436602D01*
X22539445Y-18336602D02*
X22439445Y-18436602D01*
X22439445Y-18590602D02*
X22539445Y-18690602D01*
X22539445Y-18590602D02*
X22439445Y-18690602D01*
X22439445Y-18844602D02*
X22539445Y-18944602D01*
X22539445Y-18844602D02*
X22439445Y-18944602D01*
D11*
X2352000Y-1647000D02*
G75*
G03*
X2352000Y-1647000I-100000J0D01*
G01*
X2352000Y-10977000D02*
G75*
G03*
X2352000Y-10977000I-100000J0D01*
G01*
X4329000Y-3238000D02*
G75*
G03*
X4329000Y-3238000I-100000J0D01*
G01*
X4329000Y-4964000D02*
G75*
G03*
X4329000Y-4964000I-100000J0D01*
G01*
X4329000Y-12568000D02*
G75*
G03*
X4329000Y-12568000I-100000J0D01*
G01*
X4329000Y-14294000D02*
G75*
G03*
X4329000Y-14294000I-100000J0D01*
G01*
X4334000Y-8427000D02*
G75*
G03*
X4334000Y-8427000I-100000J0D01*
G01*
X4334000Y-17757000D02*
G75*
G03*
X4334000Y-17757000I-100000J0D01*
G01*
X4340000Y-6698000D02*
G75*
G03*
X4340000Y-6698000I-100000J0D01*
G01*
X4340000Y-16028000D02*
G75*
G03*
X4340000Y-16028000I-100000J0D01*
G01*
X4825000Y-3219000D02*
G75*
G03*
X4825000Y-3219000I-100000J0D01*
G01*
X4825000Y-4949000D02*
G75*
G03*
X4825000Y-4949000I-100000J0D01*
G01*
X4825000Y-6687000D02*
G75*
G03*
X4825000Y-6687000I-100000J0D01*
G01*
X4825000Y-8417000D02*
G75*
G03*
X4825000Y-8417000I-100000J0D01*
G01*
X4825000Y-12549000D02*
G75*
G03*
X4825000Y-12549000I-100000J0D01*
G01*
X4825000Y-14279000D02*
G75*
G03*
X4825000Y-14279000I-100000J0D01*
G01*
X4825000Y-16017000D02*
G75*
G03*
X4825000Y-16017000I-100000J0D01*
G01*
X4825000Y-17747000D02*
G75*
G03*
X4825000Y-17747000I-100000J0D01*
G01*
X5333000Y-3219000D02*
G75*
G03*
X5333000Y-3219000I-100000J0D01*
G01*
X5333000Y-4949000D02*
G75*
G03*
X5333000Y-4949000I-100000J0D01*
G01*
X5333000Y-6687000D02*
G75*
G03*
X5333000Y-6687000I-100000J0D01*
G01*
X5333000Y-8417000D02*
G75*
G03*
X5333000Y-8417000I-100000J0D01*
G01*
X5333000Y-12549000D02*
G75*
G03*
X5333000Y-12549000I-100000J0D01*
G01*
X5333000Y-14279000D02*
G75*
G03*
X5333000Y-14279000I-100000J0D01*
G01*
X5333000Y-16017000D02*
G75*
G03*
X5333000Y-16017000I-100000J0D01*
G01*
X5333000Y-17747000D02*
G75*
G03*
X5333000Y-17747000I-100000J0D01*
G01*
X6909000Y-1636000D02*
G75*
G03*
X6909000Y-1636000I-100000J0D01*
G01*
X6909000Y-10966000D02*
G75*
G03*
X6909000Y-10966000I-100000J0D01*
G01*
X8886000Y-3227000D02*
G75*
G03*
X8886000Y-3227000I-100000J0D01*
G01*
X8886000Y-4953000D02*
G75*
G03*
X8886000Y-4953000I-100000J0D01*
G01*
X8886000Y-12557000D02*
G75*
G03*
X8886000Y-12557000I-100000J0D01*
G01*
X8886000Y-14283000D02*
G75*
G03*
X8886000Y-14283000I-100000J0D01*
G01*
X8891000Y-8416000D02*
G75*
G03*
X8891000Y-8416000I-100000J0D01*
G01*
X8891000Y-17746000D02*
G75*
G03*
X8891000Y-17746000I-100000J0D01*
G01*
X8897000Y-6687000D02*
G75*
G03*
X8897000Y-6687000I-100000J0D01*
G01*
X8897000Y-16017000D02*
G75*
G03*
X8897000Y-16017000I-100000J0D01*
G01*
X9382000Y-3208000D02*
G75*
G03*
X9382000Y-3208000I-100000J0D01*
G01*
X9382000Y-4938000D02*
G75*
G03*
X9382000Y-4938000I-100000J0D01*
G01*
X9382000Y-6676000D02*
G75*
G03*
X9382000Y-6676000I-100000J0D01*
G01*
X9382000Y-8406000D02*
G75*
G03*
X9382000Y-8406000I-100000J0D01*
G01*
X9382000Y-12538000D02*
G75*
G03*
X9382000Y-12538000I-100000J0D01*
G01*
X9382000Y-14268000D02*
G75*
G03*
X9382000Y-14268000I-100000J0D01*
G01*
X9382000Y-16006000D02*
G75*
G03*
X9382000Y-16006000I-100000J0D01*
G01*
X9382000Y-17736000D02*
G75*
G03*
X9382000Y-17736000I-100000J0D01*
G01*
X9890000Y-3208000D02*
G75*
G03*
X9890000Y-3208000I-100000J0D01*
G01*
X9890000Y-4938000D02*
G75*
G03*
X9890000Y-4938000I-100000J0D01*
G01*
X9890000Y-6676000D02*
G75*
G03*
X9890000Y-6676000I-100000J0D01*
G01*
X9890000Y-8406000D02*
G75*
G03*
X9890000Y-8406000I-100000J0D01*
G01*
X9890000Y-12538000D02*
G75*
G03*
X9890000Y-12538000I-100000J0D01*
G01*
X9890000Y-14268000D02*
G75*
G03*
X9890000Y-14268000I-100000J0D01*
G01*
X9890000Y-16006000D02*
G75*
G03*
X9890000Y-16006000I-100000J0D01*
G01*
X9890000Y-17736000D02*
G75*
G03*
X9890000Y-17736000I-100000J0D01*
G01*
X11418445Y-1689601D02*
G75*
G03*
X11418445Y-1689601I-100000J0D01*
G01*
X11418445Y-11019602D02*
G75*
G03*
X11418445Y-11019602I-100000J0D01*
G01*
X13395445Y-3280601D02*
G75*
G03*
X13395445Y-3280601I-100000J0D01*
G01*
X13395445Y-5006602D02*
G75*
G03*
X13395445Y-5006602I-100000J0D01*
G01*
X13395445Y-12610601D02*
G75*
G03*
X13395445Y-12610601I-100000J0D01*
G01*
X13395445Y-14336601D02*
G75*
G03*
X13395445Y-14336601I-100000J0D01*
G01*
X13400445Y-8469602D02*
G75*
G03*
X13400445Y-8469602I-100000J0D01*
G01*
X13400445Y-17799602D02*
G75*
G03*
X13400445Y-17799602I-100000J0D01*
G01*
X13406445Y-6740601D02*
G75*
G03*
X13406445Y-6740601I-100000J0D01*
G01*
X13406445Y-16070601D02*
G75*
G03*
X13406445Y-16070601I-100000J0D01*
G01*
X13891445Y-3261601D02*
G75*
G03*
X13891445Y-3261601I-100000J0D01*
G01*
X13891445Y-4991602D02*
G75*
G03*
X13891445Y-4991602I-100000J0D01*
G01*
X13891445Y-6729601D02*
G75*
G03*
X13891445Y-6729601I-100000J0D01*
G01*
X13891445Y-8459602D02*
G75*
G03*
X13891445Y-8459602I-100000J0D01*
G01*
X13891445Y-12591601D02*
G75*
G03*
X13891445Y-12591601I-100000J0D01*
G01*
X13891445Y-14321601D02*
G75*
G03*
X13891445Y-14321601I-100000J0D01*
G01*
X13891445Y-16059601D02*
G75*
G03*
X13891445Y-16059601I-100000J0D01*
G01*
X13891445Y-17789602D02*
G75*
G03*
X13891445Y-17789602I-100000J0D01*
G01*
X14399445Y-3261601D02*
G75*
G03*
X14399445Y-3261601I-100000J0D01*
G01*
X14399445Y-4991602D02*
G75*
G03*
X14399445Y-4991602I-100000J0D01*
G01*
X14399445Y-6729601D02*
G75*
G03*
X14399445Y-6729601I-100000J0D01*
G01*
X14399445Y-8459602D02*
G75*
G03*
X14399445Y-8459602I-100000J0D01*
G01*
X14399445Y-12591601D02*
G75*
G03*
X14399445Y-12591601I-100000J0D01*
G01*
X14399445Y-14321601D02*
G75*
G03*
X14399445Y-14321601I-100000J0D01*
G01*
X14399445Y-16059601D02*
G75*
G03*
X14399445Y-16059601I-100000J0D01*
G01*
X14399445Y-17789602D02*
G75*
G03*
X14399445Y-17789602I-100000J0D01*
G01*
X15975445Y-1678601D02*
G75*
G03*
X15975445Y-1678601I-100000J0D01*
G01*
X15975445Y-11008602D02*
G75*
G03*
X15975445Y-11008602I-100000J0D01*
G01*
X17952445Y-3269601D02*
G75*
G03*
X17952445Y-3269601I-100000J0D01*
G01*
X17952445Y-4995602D02*
G75*
G03*
X17952445Y-4995602I-100000J0D01*
G01*
X17952445Y-12599601D02*
G75*
G03*
X17952445Y-12599601I-100000J0D01*
G01*
X17952445Y-14325601D02*
G75*
G03*
X17952445Y-14325601I-100000J0D01*
G01*
X17957445Y-8458602D02*
G75*
G03*
X17957445Y-8458602I-100000J0D01*
G01*
X17957445Y-17788602D02*
G75*
G03*
X17957445Y-17788602I-100000J0D01*
G01*
X17963445Y-6729601D02*
G75*
G03*
X17963445Y-6729601I-100000J0D01*
G01*
X17963445Y-16059601D02*
G75*
G03*
X17963445Y-16059601I-100000J0D01*
G01*
X18448445Y-3250601D02*
G75*
G03*
X18448445Y-3250601I-100000J0D01*
G01*
X18448445Y-4980602D02*
G75*
G03*
X18448445Y-4980602I-100000J0D01*
G01*
X18448445Y-6718601D02*
G75*
G03*
X18448445Y-6718601I-100000J0D01*
G01*
X18448445Y-8448602D02*
G75*
G03*
X18448445Y-8448602I-100000J0D01*
G01*
X18448445Y-12580601D02*
G75*
G03*
X18448445Y-12580601I-100000J0D01*
G01*
X18448445Y-14310601D02*
G75*
G03*
X18448445Y-14310601I-100000J0D01*
G01*
X18448445Y-16048601D02*
G75*
G03*
X18448445Y-16048601I-100000J0D01*
G01*
X18448445Y-17778602D02*
G75*
G03*
X18448445Y-17778602I-100000J0D01*
G01*
X18956445Y-3250601D02*
G75*
G03*
X18956445Y-3250601I-100000J0D01*
G01*
X18956445Y-4980602D02*
G75*
G03*
X18956445Y-4980602I-100000J0D01*
G01*
X18956445Y-6718601D02*
G75*
G03*
X18956445Y-6718601I-100000J0D01*
G01*
X18956445Y-8448602D02*
G75*
G03*
X18956445Y-8448602I-100000J0D01*
G01*
X18956445Y-12580601D02*
G75*
G03*
X18956445Y-12580601I-100000J0D01*
G01*
X18956445Y-14310601D02*
G75*
G03*
X18956445Y-14310601I-100000J0D01*
G01*
X18956445Y-16048601D02*
G75*
G03*
X18956445Y-16048601I-100000J0D01*
G01*
X18956445Y-17778602D02*
G75*
G03*
X18956445Y-17778602I-100000J0D01*
G01*
X20511445Y-1662601D02*
G75*
G03*
X20511445Y-1662601I-100000J0D01*
G01*
X20511445Y-10992602D02*
G75*
G03*
X20511445Y-10992602I-100000J0D01*
G01*
X22488445Y-3253601D02*
G75*
G03*
X22488445Y-3253601I-100000J0D01*
G01*
X22488445Y-4979602D02*
G75*
G03*
X22488445Y-4979602I-100000J0D01*
G01*
X22488445Y-12583601D02*
G75*
G03*
X22488445Y-12583601I-100000J0D01*
G01*
X22488445Y-14309601D02*
G75*
G03*
X22488445Y-14309601I-100000J0D01*
G01*
X22493445Y-8442602D02*
G75*
G03*
X22493445Y-8442602I-100000J0D01*
G01*
X22493445Y-17772602D02*
G75*
G03*
X22493445Y-17772602I-100000J0D01*
G01*
X22499445Y-6713601D02*
G75*
G03*
X22499445Y-6713601I-100000J0D01*
G01*
X22499445Y-16043601D02*
G75*
G03*
X22499445Y-16043601I-100000J0D01*
G01*
X22984445Y-3234601D02*
G75*
G03*
X22984445Y-3234601I-100000J0D01*
G01*
X22984445Y-4964602D02*
G75*
G03*
X22984445Y-4964602I-100000J0D01*
G01*
X22984445Y-6702601D02*
G75*
G03*
X22984445Y-6702601I-100000J0D01*
G01*
X22984445Y-8432602D02*
G75*
G03*
X22984445Y-8432602I-100000J0D01*
G01*
X22984445Y-12564601D02*
G75*
G03*
X22984445Y-12564601I-100000J0D01*
G01*
X22984445Y-14294601D02*
G75*
G03*
X22984445Y-14294601I-100000J0D01*
G01*
X22984445Y-16032601D02*
G75*
G03*
X22984445Y-16032601I-100000J0D01*
G01*
X22984445Y-17762602D02*
G75*
G03*
X22984445Y-17762602I-100000J0D01*
G01*
X23492445Y-3234601D02*
G75*
G03*
X23492445Y-3234601I-100000J0D01*
G01*
X23492445Y-4964602D02*
G75*
G03*
X23492445Y-4964602I-100000J0D01*
G01*
X23492445Y-6702601D02*
G75*
G03*
X23492445Y-6702601I-100000J0D01*
G01*
X23492445Y-8432602D02*
G75*
G03*
X23492445Y-8432602I-100000J0D01*
G01*
X23492445Y-12564601D02*
G75*
G03*
X23492445Y-12564601I-100000J0D01*
G01*
X23492445Y-14294601D02*
G75*
G03*
X23492445Y-14294601I-100000J0D01*
G01*
X23492445Y-16032601D02*
G75*
G03*
X23492445Y-16032601I-100000J0D01*
G01*
X23492445Y-17762602D02*
G75*
G03*
X23492445Y-17762602I-100000J0D01*
G01*
X1707619Y-19989125D02*
X1707619Y-19789125D01*
X1707619Y-19789125D02*
X1755238Y-19789125D01*
X1755238Y-19789125D02*
X1783809Y-19798649D01*
X1783809Y-19798649D02*
X1802857Y-19817697D01*
X1802857Y-19817697D02*
X1812381Y-19836744D01*
X1812381Y-19836744D02*
X1821905Y-19874840D01*
X1821905Y-19874840D02*
X1821905Y-19903411D01*
X1821905Y-19903411D02*
X1812381Y-19941506D01*
X1812381Y-19941506D02*
X1802857Y-19960554D01*
X1802857Y-19960554D02*
X1783809Y-19979602D01*
X1783809Y-19979602D02*
X1755238Y-19989125D01*
X1755238Y-19989125D02*
X1707619Y-19989125D01*
X1907619Y-19989125D02*
X1907619Y-19855792D01*
X1907619Y-19893887D02*
X1917143Y-19874840D01*
X1917143Y-19874840D02*
X1926667Y-19865316D01*
X1926667Y-19865316D02*
X1945714Y-19855792D01*
X1945714Y-19855792D02*
X1964762Y-19855792D01*
X2031428Y-19989125D02*
X2031428Y-19855792D01*
X2031428Y-19789125D02*
X2021905Y-19798649D01*
X2021905Y-19798649D02*
X2031428Y-19808173D01*
X2031428Y-19808173D02*
X2040952Y-19798649D01*
X2040952Y-19798649D02*
X2031428Y-19789125D01*
X2031428Y-19789125D02*
X2031428Y-19808173D01*
X2155238Y-19989125D02*
X2136190Y-19979602D01*
X2136190Y-19979602D02*
X2126667Y-19960554D01*
X2126667Y-19960554D02*
X2126667Y-19789125D01*
X2260000Y-19989125D02*
X2240952Y-19979602D01*
X2240952Y-19979602D02*
X2231429Y-19960554D01*
X2231429Y-19960554D02*
X2231429Y-19789125D01*
X2488571Y-19989125D02*
X2488571Y-19789125D01*
X2488571Y-19789125D02*
X2555238Y-19931982D01*
X2555238Y-19931982D02*
X2621905Y-19789125D01*
X2621905Y-19789125D02*
X2621905Y-19989125D01*
X2802857Y-19989125D02*
X2802857Y-19884363D01*
X2802857Y-19884363D02*
X2793333Y-19865316D01*
X2793333Y-19865316D02*
X2774286Y-19855792D01*
X2774286Y-19855792D02*
X2736190Y-19855792D01*
X2736190Y-19855792D02*
X2717143Y-19865316D01*
X2802857Y-19979602D02*
X2783810Y-19989125D01*
X2783810Y-19989125D02*
X2736190Y-19989125D01*
X2736190Y-19989125D02*
X2717143Y-19979602D01*
X2717143Y-19979602D02*
X2707619Y-19960554D01*
X2707619Y-19960554D02*
X2707619Y-19941506D01*
X2707619Y-19941506D02*
X2717143Y-19922459D01*
X2717143Y-19922459D02*
X2736190Y-19912935D01*
X2736190Y-19912935D02*
X2783810Y-19912935D01*
X2783810Y-19912935D02*
X2802857Y-19903411D01*
X2898095Y-19855792D02*
X2898095Y-20055792D01*
X2898095Y-19865316D02*
X2917143Y-19855792D01*
X2917143Y-19855792D02*
X2955238Y-19855792D01*
X2955238Y-19855792D02*
X2974286Y-19865316D01*
X2974286Y-19865316D02*
X2983809Y-19874840D01*
X2983809Y-19874840D02*
X2993333Y-19893887D01*
X2993333Y-19893887D02*
X2993333Y-19951030D01*
X2993333Y-19951030D02*
X2983809Y-19970078D01*
X2983809Y-19970078D02*
X2974286Y-19979602D01*
X2974286Y-19979602D02*
X2955238Y-19989125D01*
X2955238Y-19989125D02*
X2917143Y-19989125D01*
X2917143Y-19989125D02*
X2898095Y-19979602D01*
X3079048Y-19970078D02*
X3088571Y-19979602D01*
X3088571Y-19979602D02*
X3079048Y-19989125D01*
X3079048Y-19989125D02*
X3069524Y-19979602D01*
X3069524Y-19979602D02*
X3079048Y-19970078D01*
X3079048Y-19970078D02*
X3079048Y-19989125D01*
X3079048Y-19865316D02*
X3088571Y-19874840D01*
X3088571Y-19874840D02*
X3079048Y-19884363D01*
X3079048Y-19884363D02*
X3069524Y-19874840D01*
X3069524Y-19874840D02*
X3079048Y-19865316D01*
X3079048Y-19865316D02*
X3079048Y-19884363D01*
D10*
X1360000Y-20266602D02*
X1460000Y-20366602D01*
X1460000Y-20266602D02*
X1360000Y-20366602D01*
D11*
X1812381Y-20409125D02*
X1698095Y-20409125D01*
X1755238Y-20409125D02*
X1755238Y-20209125D01*
X1755238Y-20209125D02*
X1736190Y-20237697D01*
X1736190Y-20237697D02*
X1717143Y-20256744D01*
X1717143Y-20256744D02*
X1698095Y-20266268D01*
X1898095Y-20390078D02*
X1907619Y-20399602D01*
X1907619Y-20399602D02*
X1898095Y-20409125D01*
X1898095Y-20409125D02*
X1888571Y-20399602D01*
X1888571Y-20399602D02*
X1898095Y-20390078D01*
X1898095Y-20390078D02*
X1898095Y-20409125D01*
X2031428Y-20209125D02*
X2050476Y-20209125D01*
X2050476Y-20209125D02*
X2069524Y-20218649D01*
X2069524Y-20218649D02*
X2079048Y-20228173D01*
X2079048Y-20228173D02*
X2088571Y-20247221D01*
X2088571Y-20247221D02*
X2098095Y-20285316D01*
X2098095Y-20285316D02*
X2098095Y-20332935D01*
X2098095Y-20332935D02*
X2088571Y-20371030D01*
X2088571Y-20371030D02*
X2079048Y-20390078D01*
X2079048Y-20390078D02*
X2069524Y-20399602D01*
X2069524Y-20399602D02*
X2050476Y-20409125D01*
X2050476Y-20409125D02*
X2031428Y-20409125D01*
X2031428Y-20409125D02*
X2012381Y-20399602D01*
X2012381Y-20399602D02*
X2002857Y-20390078D01*
X2002857Y-20390078D02*
X1993333Y-20371030D01*
X1993333Y-20371030D02*
X1983809Y-20332935D01*
X1983809Y-20332935D02*
X1983809Y-20285316D01*
X1983809Y-20285316D02*
X1993333Y-20247221D01*
X1993333Y-20247221D02*
X2002857Y-20228173D01*
X2002857Y-20228173D02*
X2012381Y-20218649D01*
X2012381Y-20218649D02*
X2031428Y-20209125D01*
X2221905Y-20209125D02*
X2240952Y-20209125D01*
X2240952Y-20209125D02*
X2260000Y-20218649D01*
X2260000Y-20218649D02*
X2269524Y-20228173D01*
X2269524Y-20228173D02*
X2279048Y-20247221D01*
X2279048Y-20247221D02*
X2288571Y-20285316D01*
X2288571Y-20285316D02*
X2288571Y-20332935D01*
X2288571Y-20332935D02*
X2279048Y-20371030D01*
X2279048Y-20371030D02*
X2269524Y-20390078D01*
X2269524Y-20390078D02*
X2260000Y-20399602D01*
X2260000Y-20399602D02*
X2240952Y-20409125D01*
X2240952Y-20409125D02*
X2221905Y-20409125D01*
X2221905Y-20409125D02*
X2202857Y-20399602D01*
X2202857Y-20399602D02*
X2193333Y-20390078D01*
X2193333Y-20390078D02*
X2183810Y-20371030D01*
X2183810Y-20371030D02*
X2174286Y-20332935D01*
X2174286Y-20332935D02*
X2174286Y-20285316D01*
X2174286Y-20285316D02*
X2183810Y-20247221D01*
X2183810Y-20247221D02*
X2193333Y-20228173D01*
X2193333Y-20228173D02*
X2202857Y-20218649D01*
X2202857Y-20218649D02*
X2221905Y-20209125D01*
X2412381Y-20209125D02*
X2431429Y-20209125D01*
X2431429Y-20209125D02*
X2450476Y-20218649D01*
X2450476Y-20218649D02*
X2460000Y-20228173D01*
X2460000Y-20228173D02*
X2469524Y-20247221D01*
X2469524Y-20247221D02*
X2479048Y-20285316D01*
X2479048Y-20285316D02*
X2479048Y-20332935D01*
X2479048Y-20332935D02*
X2469524Y-20371030D01*
X2469524Y-20371030D02*
X2460000Y-20390078D01*
X2460000Y-20390078D02*
X2450476Y-20399602D01*
X2450476Y-20399602D02*
X2431429Y-20409125D01*
X2431429Y-20409125D02*
X2412381Y-20409125D01*
X2412381Y-20409125D02*
X2393333Y-20399602D01*
X2393333Y-20399602D02*
X2383810Y-20390078D01*
X2383810Y-20390078D02*
X2374286Y-20371030D01*
X2374286Y-20371030D02*
X2364762Y-20332935D01*
X2364762Y-20332935D02*
X2364762Y-20285316D01*
X2364762Y-20285316D02*
X2374286Y-20247221D01*
X2374286Y-20247221D02*
X2383810Y-20228173D01*
X2383810Y-20228173D02*
X2393333Y-20218649D01*
X2393333Y-20218649D02*
X2412381Y-20209125D01*
X2564762Y-20409125D02*
X2564762Y-20275792D01*
X2564762Y-20294840D02*
X2574286Y-20285316D01*
X2574286Y-20285316D02*
X2593333Y-20275792D01*
X2593333Y-20275792D02*
X2621905Y-20275792D01*
X2621905Y-20275792D02*
X2640952Y-20285316D01*
X2640952Y-20285316D02*
X2650476Y-20304363D01*
X2650476Y-20304363D02*
X2650476Y-20409125D01*
X2650476Y-20304363D02*
X2660000Y-20285316D01*
X2660000Y-20285316D02*
X2679048Y-20275792D01*
X2679048Y-20275792D02*
X2707619Y-20275792D01*
X2707619Y-20275792D02*
X2726667Y-20285316D01*
X2726667Y-20285316D02*
X2736191Y-20304363D01*
X2736191Y-20304363D02*
X2736191Y-20409125D01*
X2831429Y-20409125D02*
X2831429Y-20275792D01*
X2831429Y-20294840D02*
X2840952Y-20285316D01*
X2840952Y-20285316D02*
X2860000Y-20275792D01*
X2860000Y-20275792D02*
X2888571Y-20275792D01*
X2888571Y-20275792D02*
X2907619Y-20285316D01*
X2907619Y-20285316D02*
X2917143Y-20304363D01*
X2917143Y-20304363D02*
X2917143Y-20409125D01*
X2917143Y-20304363D02*
X2926667Y-20285316D01*
X2926667Y-20285316D02*
X2945714Y-20275792D01*
X2945714Y-20275792D02*
X2974286Y-20275792D01*
X2974286Y-20275792D02*
X2993333Y-20285316D01*
X2993333Y-20285316D02*
X3002857Y-20304363D01*
X3002857Y-20304363D02*
X3002857Y-20409125D01*
X3393333Y-20199602D02*
X3221905Y-20456744D01*
X3650476Y-20209125D02*
X3669524Y-20209125D01*
X3669524Y-20209125D02*
X3688572Y-20218649D01*
X3688572Y-20218649D02*
X3698095Y-20228173D01*
X3698095Y-20228173D02*
X3707619Y-20247221D01*
X3707619Y-20247221D02*
X3717143Y-20285316D01*
X3717143Y-20285316D02*
X3717143Y-20332935D01*
X3717143Y-20332935D02*
X3707619Y-20371030D01*
X3707619Y-20371030D02*
X3698095Y-20390078D01*
X3698095Y-20390078D02*
X3688572Y-20399602D01*
X3688572Y-20399602D02*
X3669524Y-20409125D01*
X3669524Y-20409125D02*
X3650476Y-20409125D01*
X3650476Y-20409125D02*
X3631429Y-20399602D01*
X3631429Y-20399602D02*
X3621905Y-20390078D01*
X3621905Y-20390078D02*
X3612381Y-20371030D01*
X3612381Y-20371030D02*
X3602857Y-20332935D01*
X3602857Y-20332935D02*
X3602857Y-20285316D01*
X3602857Y-20285316D02*
X3612381Y-20247221D01*
X3612381Y-20247221D02*
X3621905Y-20228173D01*
X3621905Y-20228173D02*
X3631429Y-20218649D01*
X3631429Y-20218649D02*
X3650476Y-20209125D01*
X3802857Y-20390078D02*
X3812381Y-20399602D01*
X3812381Y-20399602D02*
X3802857Y-20409125D01*
X3802857Y-20409125D02*
X3793333Y-20399602D01*
X3793333Y-20399602D02*
X3802857Y-20390078D01*
X3802857Y-20390078D02*
X3802857Y-20409125D01*
X3936191Y-20209125D02*
X3955238Y-20209125D01*
X3955238Y-20209125D02*
X3974286Y-20218649D01*
X3974286Y-20218649D02*
X3983810Y-20228173D01*
X3983810Y-20228173D02*
X3993333Y-20247221D01*
X3993333Y-20247221D02*
X4002857Y-20285316D01*
X4002857Y-20285316D02*
X4002857Y-20332935D01*
X4002857Y-20332935D02*
X3993333Y-20371030D01*
X3993333Y-20371030D02*
X3983810Y-20390078D01*
X3983810Y-20390078D02*
X3974286Y-20399602D01*
X3974286Y-20399602D02*
X3955238Y-20409125D01*
X3955238Y-20409125D02*
X3936191Y-20409125D01*
X3936191Y-20409125D02*
X3917143Y-20399602D01*
X3917143Y-20399602D02*
X3907619Y-20390078D01*
X3907619Y-20390078D02*
X3898095Y-20371030D01*
X3898095Y-20371030D02*
X3888572Y-20332935D01*
X3888572Y-20332935D02*
X3888572Y-20285316D01*
X3888572Y-20285316D02*
X3898095Y-20247221D01*
X3898095Y-20247221D02*
X3907619Y-20228173D01*
X3907619Y-20228173D02*
X3917143Y-20218649D01*
X3917143Y-20218649D02*
X3936191Y-20209125D01*
X4069524Y-20209125D02*
X4193333Y-20209125D01*
X4193333Y-20209125D02*
X4126667Y-20285316D01*
X4126667Y-20285316D02*
X4155238Y-20285316D01*
X4155238Y-20285316D02*
X4174286Y-20294840D01*
X4174286Y-20294840D02*
X4183810Y-20304363D01*
X4183810Y-20304363D02*
X4193333Y-20323411D01*
X4193333Y-20323411D02*
X4193333Y-20371030D01*
X4193333Y-20371030D02*
X4183810Y-20390078D01*
X4183810Y-20390078D02*
X4174286Y-20399602D01*
X4174286Y-20399602D02*
X4155238Y-20409125D01*
X4155238Y-20409125D02*
X4098095Y-20409125D01*
X4098095Y-20409125D02*
X4079048Y-20399602D01*
X4079048Y-20399602D02*
X4069524Y-20390078D01*
X4288572Y-20409125D02*
X4326667Y-20409125D01*
X4326667Y-20409125D02*
X4345715Y-20399602D01*
X4345715Y-20399602D02*
X4355238Y-20390078D01*
X4355238Y-20390078D02*
X4374286Y-20361506D01*
X4374286Y-20361506D02*
X4383810Y-20323411D01*
X4383810Y-20323411D02*
X4383810Y-20247221D01*
X4383810Y-20247221D02*
X4374286Y-20228173D01*
X4374286Y-20228173D02*
X4364762Y-20218649D01*
X4364762Y-20218649D02*
X4345715Y-20209125D01*
X4345715Y-20209125D02*
X4307619Y-20209125D01*
X4307619Y-20209125D02*
X4288572Y-20218649D01*
X4288572Y-20218649D02*
X4279048Y-20228173D01*
X4279048Y-20228173D02*
X4269524Y-20247221D01*
X4269524Y-20247221D02*
X4269524Y-20294840D01*
X4269524Y-20294840D02*
X4279048Y-20313887D01*
X4279048Y-20313887D02*
X4288572Y-20323411D01*
X4288572Y-20323411D02*
X4307619Y-20332935D01*
X4307619Y-20332935D02*
X4345715Y-20332935D01*
X4345715Y-20332935D02*
X4364762Y-20323411D01*
X4364762Y-20323411D02*
X4374286Y-20313887D01*
X4374286Y-20313887D02*
X4383810Y-20294840D01*
X4555238Y-20275792D02*
X4555238Y-20409125D01*
X4507619Y-20199602D02*
X4460000Y-20342459D01*
X4460000Y-20342459D02*
X4583810Y-20342459D01*
X4650476Y-20209125D02*
X4650476Y-20247221D01*
X4726667Y-20209125D02*
X4726667Y-20247221D01*
X5021905Y-20485316D02*
X5012381Y-20475792D01*
X5012381Y-20475792D02*
X4993334Y-20447221D01*
X4993334Y-20447221D02*
X4983810Y-20428173D01*
X4983810Y-20428173D02*
X4974286Y-20399602D01*
X4974286Y-20399602D02*
X4964762Y-20351982D01*
X4964762Y-20351982D02*
X4964762Y-20313887D01*
X4964762Y-20313887D02*
X4974286Y-20266268D01*
X4974286Y-20266268D02*
X4983810Y-20237697D01*
X4983810Y-20237697D02*
X4993334Y-20218649D01*
X4993334Y-20218649D02*
X5012381Y-20190078D01*
X5012381Y-20190078D02*
X5021905Y-20180554D01*
X5183810Y-20275792D02*
X5183810Y-20409125D01*
X5136191Y-20199602D02*
X5088572Y-20342459D01*
X5088572Y-20342459D02*
X5212381Y-20342459D01*
X5326667Y-20209125D02*
X5345715Y-20209125D01*
X5345715Y-20209125D02*
X5364762Y-20218649D01*
X5364762Y-20218649D02*
X5374286Y-20228173D01*
X5374286Y-20228173D02*
X5383810Y-20247221D01*
X5383810Y-20247221D02*
X5393334Y-20285316D01*
X5393334Y-20285316D02*
X5393334Y-20332935D01*
X5393334Y-20332935D02*
X5383810Y-20371030D01*
X5383810Y-20371030D02*
X5374286Y-20390078D01*
X5374286Y-20390078D02*
X5364762Y-20399602D01*
X5364762Y-20399602D02*
X5345715Y-20409125D01*
X5345715Y-20409125D02*
X5326667Y-20409125D01*
X5326667Y-20409125D02*
X5307619Y-20399602D01*
X5307619Y-20399602D02*
X5298096Y-20390078D01*
X5298096Y-20390078D02*
X5288572Y-20371030D01*
X5288572Y-20371030D02*
X5279048Y-20332935D01*
X5279048Y-20332935D02*
X5279048Y-20285316D01*
X5279048Y-20285316D02*
X5288572Y-20247221D01*
X5288572Y-20247221D02*
X5298096Y-20228173D01*
X5298096Y-20228173D02*
X5307619Y-20218649D01*
X5307619Y-20218649D02*
X5326667Y-20209125D01*
X5517143Y-20209125D02*
X5536191Y-20209125D01*
X5536191Y-20209125D02*
X5555238Y-20218649D01*
X5555238Y-20218649D02*
X5564762Y-20228173D01*
X5564762Y-20228173D02*
X5574286Y-20247221D01*
X5574286Y-20247221D02*
X5583810Y-20285316D01*
X5583810Y-20285316D02*
X5583810Y-20332935D01*
X5583810Y-20332935D02*
X5574286Y-20371030D01*
X5574286Y-20371030D02*
X5564762Y-20390078D01*
X5564762Y-20390078D02*
X5555238Y-20399602D01*
X5555238Y-20399602D02*
X5536191Y-20409125D01*
X5536191Y-20409125D02*
X5517143Y-20409125D01*
X5517143Y-20409125D02*
X5498096Y-20399602D01*
X5498096Y-20399602D02*
X5488572Y-20390078D01*
X5488572Y-20390078D02*
X5479048Y-20371030D01*
X5479048Y-20371030D02*
X5469524Y-20332935D01*
X5469524Y-20332935D02*
X5469524Y-20285316D01*
X5469524Y-20285316D02*
X5479048Y-20247221D01*
X5479048Y-20247221D02*
X5488572Y-20228173D01*
X5488572Y-20228173D02*
X5498096Y-20218649D01*
X5498096Y-20218649D02*
X5517143Y-20209125D01*
X5821905Y-20409125D02*
X5821905Y-20209125D01*
X5907619Y-20409125D02*
X5907619Y-20304363D01*
X5907619Y-20304363D02*
X5898096Y-20285316D01*
X5898096Y-20285316D02*
X5879048Y-20275792D01*
X5879048Y-20275792D02*
X5850476Y-20275792D01*
X5850476Y-20275792D02*
X5831429Y-20285316D01*
X5831429Y-20285316D02*
X5821905Y-20294840D01*
X6031429Y-20409125D02*
X6012381Y-20399602D01*
X6012381Y-20399602D02*
X6002857Y-20390078D01*
X6002857Y-20390078D02*
X5993334Y-20371030D01*
X5993334Y-20371030D02*
X5993334Y-20313887D01*
X5993334Y-20313887D02*
X6002857Y-20294840D01*
X6002857Y-20294840D02*
X6012381Y-20285316D01*
X6012381Y-20285316D02*
X6031429Y-20275792D01*
X6031429Y-20275792D02*
X6060000Y-20275792D01*
X6060000Y-20275792D02*
X6079048Y-20285316D01*
X6079048Y-20285316D02*
X6088572Y-20294840D01*
X6088572Y-20294840D02*
X6098096Y-20313887D01*
X6098096Y-20313887D02*
X6098096Y-20371030D01*
X6098096Y-20371030D02*
X6088572Y-20390078D01*
X6088572Y-20390078D02*
X6079048Y-20399602D01*
X6079048Y-20399602D02*
X6060000Y-20409125D01*
X6060000Y-20409125D02*
X6031429Y-20409125D01*
X6212381Y-20409125D02*
X6193334Y-20399602D01*
X6193334Y-20399602D02*
X6183810Y-20380554D01*
X6183810Y-20380554D02*
X6183810Y-20209125D01*
X6364762Y-20399602D02*
X6345715Y-20409125D01*
X6345715Y-20409125D02*
X6307619Y-20409125D01*
X6307619Y-20409125D02*
X6288572Y-20399602D01*
X6288572Y-20399602D02*
X6279048Y-20380554D01*
X6279048Y-20380554D02*
X6279048Y-20304363D01*
X6279048Y-20304363D02*
X6288572Y-20285316D01*
X6288572Y-20285316D02*
X6307619Y-20275792D01*
X6307619Y-20275792D02*
X6345715Y-20275792D01*
X6345715Y-20275792D02*
X6364762Y-20285316D01*
X6364762Y-20285316D02*
X6374286Y-20304363D01*
X6374286Y-20304363D02*
X6374286Y-20323411D01*
X6374286Y-20323411D02*
X6279048Y-20342459D01*
X6450477Y-20399602D02*
X6469524Y-20409125D01*
X6469524Y-20409125D02*
X6507619Y-20409125D01*
X6507619Y-20409125D02*
X6526667Y-20399602D01*
X6526667Y-20399602D02*
X6536191Y-20380554D01*
X6536191Y-20380554D02*
X6536191Y-20371030D01*
X6536191Y-20371030D02*
X6526667Y-20351982D01*
X6526667Y-20351982D02*
X6507619Y-20342459D01*
X6507619Y-20342459D02*
X6479048Y-20342459D01*
X6479048Y-20342459D02*
X6460000Y-20332935D01*
X6460000Y-20332935D02*
X6450477Y-20313887D01*
X6450477Y-20313887D02*
X6450477Y-20304363D01*
X6450477Y-20304363D02*
X6460000Y-20285316D01*
X6460000Y-20285316D02*
X6479048Y-20275792D01*
X6479048Y-20275792D02*
X6507619Y-20275792D01*
X6507619Y-20275792D02*
X6526667Y-20285316D01*
X6602858Y-20485316D02*
X6612381Y-20475792D01*
X6612381Y-20475792D02*
X6631429Y-20447221D01*
X6631429Y-20447221D02*
X6640953Y-20428173D01*
X6640953Y-20428173D02*
X6650477Y-20399602D01*
X6650477Y-20399602D02*
X6660000Y-20351982D01*
X6660000Y-20351982D02*
X6660000Y-20313887D01*
X6660000Y-20313887D02*
X6650477Y-20266268D01*
X6650477Y-20266268D02*
X6640953Y-20237697D01*
X6640953Y-20237697D02*
X6631429Y-20218649D01*
X6631429Y-20218649D02*
X6612381Y-20190078D01*
X6612381Y-20190078D02*
X6602858Y-20180554D01*
X1460000Y-20580602D02*
G75*
G03*
X1460000Y-20580602I-100000J0D01*
G01*
X1698095Y-20492173D02*
X1707619Y-20482649D01*
X1707619Y-20482649D02*
X1726667Y-20473125D01*
X1726667Y-20473125D02*
X1774286Y-20473125D01*
X1774286Y-20473125D02*
X1793333Y-20482649D01*
X1793333Y-20482649D02*
X1802857Y-20492173D01*
X1802857Y-20492173D02*
X1812381Y-20511221D01*
X1812381Y-20511221D02*
X1812381Y-20530268D01*
X1812381Y-20530268D02*
X1802857Y-20558840D01*
X1802857Y-20558840D02*
X1688571Y-20673125D01*
X1688571Y-20673125D02*
X1812381Y-20673125D01*
X1898095Y-20654078D02*
X1907619Y-20663602D01*
X1907619Y-20663602D02*
X1898095Y-20673125D01*
X1898095Y-20673125D02*
X1888571Y-20663602D01*
X1888571Y-20663602D02*
X1898095Y-20654078D01*
X1898095Y-20654078D02*
X1898095Y-20673125D01*
X2031428Y-20473125D02*
X2050476Y-20473125D01*
X2050476Y-20473125D02*
X2069524Y-20482649D01*
X2069524Y-20482649D02*
X2079048Y-20492173D01*
X2079048Y-20492173D02*
X2088571Y-20511221D01*
X2088571Y-20511221D02*
X2098095Y-20549316D01*
X2098095Y-20549316D02*
X2098095Y-20596935D01*
X2098095Y-20596935D02*
X2088571Y-20635030D01*
X2088571Y-20635030D02*
X2079048Y-20654078D01*
X2079048Y-20654078D02*
X2069524Y-20663602D01*
X2069524Y-20663602D02*
X2050476Y-20673125D01*
X2050476Y-20673125D02*
X2031428Y-20673125D01*
X2031428Y-20673125D02*
X2012381Y-20663602D01*
X2012381Y-20663602D02*
X2002857Y-20654078D01*
X2002857Y-20654078D02*
X1993333Y-20635030D01*
X1993333Y-20635030D02*
X1983809Y-20596935D01*
X1983809Y-20596935D02*
X1983809Y-20549316D01*
X1983809Y-20549316D02*
X1993333Y-20511221D01*
X1993333Y-20511221D02*
X2002857Y-20492173D01*
X2002857Y-20492173D02*
X2012381Y-20482649D01*
X2012381Y-20482649D02*
X2031428Y-20473125D01*
X2221905Y-20473125D02*
X2240952Y-20473125D01*
X2240952Y-20473125D02*
X2260000Y-20482649D01*
X2260000Y-20482649D02*
X2269524Y-20492173D01*
X2269524Y-20492173D02*
X2279048Y-20511221D01*
X2279048Y-20511221D02*
X2288571Y-20549316D01*
X2288571Y-20549316D02*
X2288571Y-20596935D01*
X2288571Y-20596935D02*
X2279048Y-20635030D01*
X2279048Y-20635030D02*
X2269524Y-20654078D01*
X2269524Y-20654078D02*
X2260000Y-20663602D01*
X2260000Y-20663602D02*
X2240952Y-20673125D01*
X2240952Y-20673125D02*
X2221905Y-20673125D01*
X2221905Y-20673125D02*
X2202857Y-20663602D01*
X2202857Y-20663602D02*
X2193333Y-20654078D01*
X2193333Y-20654078D02*
X2183810Y-20635030D01*
X2183810Y-20635030D02*
X2174286Y-20596935D01*
X2174286Y-20596935D02*
X2174286Y-20549316D01*
X2174286Y-20549316D02*
X2183810Y-20511221D01*
X2183810Y-20511221D02*
X2193333Y-20492173D01*
X2193333Y-20492173D02*
X2202857Y-20482649D01*
X2202857Y-20482649D02*
X2221905Y-20473125D01*
X2412381Y-20473125D02*
X2431429Y-20473125D01*
X2431429Y-20473125D02*
X2450476Y-20482649D01*
X2450476Y-20482649D02*
X2460000Y-20492173D01*
X2460000Y-20492173D02*
X2469524Y-20511221D01*
X2469524Y-20511221D02*
X2479048Y-20549316D01*
X2479048Y-20549316D02*
X2479048Y-20596935D01*
X2479048Y-20596935D02*
X2469524Y-20635030D01*
X2469524Y-20635030D02*
X2460000Y-20654078D01*
X2460000Y-20654078D02*
X2450476Y-20663602D01*
X2450476Y-20663602D02*
X2431429Y-20673125D01*
X2431429Y-20673125D02*
X2412381Y-20673125D01*
X2412381Y-20673125D02*
X2393333Y-20663602D01*
X2393333Y-20663602D02*
X2383810Y-20654078D01*
X2383810Y-20654078D02*
X2374286Y-20635030D01*
X2374286Y-20635030D02*
X2364762Y-20596935D01*
X2364762Y-20596935D02*
X2364762Y-20549316D01*
X2364762Y-20549316D02*
X2374286Y-20511221D01*
X2374286Y-20511221D02*
X2383810Y-20492173D01*
X2383810Y-20492173D02*
X2393333Y-20482649D01*
X2393333Y-20482649D02*
X2412381Y-20473125D01*
X2564762Y-20673125D02*
X2564762Y-20539792D01*
X2564762Y-20558840D02*
X2574286Y-20549316D01*
X2574286Y-20549316D02*
X2593333Y-20539792D01*
X2593333Y-20539792D02*
X2621905Y-20539792D01*
X2621905Y-20539792D02*
X2640952Y-20549316D01*
X2640952Y-20549316D02*
X2650476Y-20568363D01*
X2650476Y-20568363D02*
X2650476Y-20673125D01*
X2650476Y-20568363D02*
X2660000Y-20549316D01*
X2660000Y-20549316D02*
X2679048Y-20539792D01*
X2679048Y-20539792D02*
X2707619Y-20539792D01*
X2707619Y-20539792D02*
X2726667Y-20549316D01*
X2726667Y-20549316D02*
X2736191Y-20568363D01*
X2736191Y-20568363D02*
X2736191Y-20673125D01*
X2831429Y-20673125D02*
X2831429Y-20539792D01*
X2831429Y-20558840D02*
X2840952Y-20549316D01*
X2840952Y-20549316D02*
X2860000Y-20539792D01*
X2860000Y-20539792D02*
X2888571Y-20539792D01*
X2888571Y-20539792D02*
X2907619Y-20549316D01*
X2907619Y-20549316D02*
X2917143Y-20568363D01*
X2917143Y-20568363D02*
X2917143Y-20673125D01*
X2917143Y-20568363D02*
X2926667Y-20549316D01*
X2926667Y-20549316D02*
X2945714Y-20539792D01*
X2945714Y-20539792D02*
X2974286Y-20539792D01*
X2974286Y-20539792D02*
X2993333Y-20549316D01*
X2993333Y-20549316D02*
X3002857Y-20568363D01*
X3002857Y-20568363D02*
X3002857Y-20673125D01*
X3393333Y-20463602D02*
X3221905Y-20720744D01*
X3650476Y-20473125D02*
X3669524Y-20473125D01*
X3669524Y-20473125D02*
X3688572Y-20482649D01*
X3688572Y-20482649D02*
X3698095Y-20492173D01*
X3698095Y-20492173D02*
X3707619Y-20511221D01*
X3707619Y-20511221D02*
X3717143Y-20549316D01*
X3717143Y-20549316D02*
X3717143Y-20596935D01*
X3717143Y-20596935D02*
X3707619Y-20635030D01*
X3707619Y-20635030D02*
X3698095Y-20654078D01*
X3698095Y-20654078D02*
X3688572Y-20663602D01*
X3688572Y-20663602D02*
X3669524Y-20673125D01*
X3669524Y-20673125D02*
X3650476Y-20673125D01*
X3650476Y-20673125D02*
X3631429Y-20663602D01*
X3631429Y-20663602D02*
X3621905Y-20654078D01*
X3621905Y-20654078D02*
X3612381Y-20635030D01*
X3612381Y-20635030D02*
X3602857Y-20596935D01*
X3602857Y-20596935D02*
X3602857Y-20549316D01*
X3602857Y-20549316D02*
X3612381Y-20511221D01*
X3612381Y-20511221D02*
X3621905Y-20492173D01*
X3621905Y-20492173D02*
X3631429Y-20482649D01*
X3631429Y-20482649D02*
X3650476Y-20473125D01*
X3802857Y-20654078D02*
X3812381Y-20663602D01*
X3812381Y-20663602D02*
X3802857Y-20673125D01*
X3802857Y-20673125D02*
X3793333Y-20663602D01*
X3793333Y-20663602D02*
X3802857Y-20654078D01*
X3802857Y-20654078D02*
X3802857Y-20673125D01*
X3936191Y-20473125D02*
X3955238Y-20473125D01*
X3955238Y-20473125D02*
X3974286Y-20482649D01*
X3974286Y-20482649D02*
X3983810Y-20492173D01*
X3983810Y-20492173D02*
X3993333Y-20511221D01*
X3993333Y-20511221D02*
X4002857Y-20549316D01*
X4002857Y-20549316D02*
X4002857Y-20596935D01*
X4002857Y-20596935D02*
X3993333Y-20635030D01*
X3993333Y-20635030D02*
X3983810Y-20654078D01*
X3983810Y-20654078D02*
X3974286Y-20663602D01*
X3974286Y-20663602D02*
X3955238Y-20673125D01*
X3955238Y-20673125D02*
X3936191Y-20673125D01*
X3936191Y-20673125D02*
X3917143Y-20663602D01*
X3917143Y-20663602D02*
X3907619Y-20654078D01*
X3907619Y-20654078D02*
X3898095Y-20635030D01*
X3898095Y-20635030D02*
X3888572Y-20596935D01*
X3888572Y-20596935D02*
X3888572Y-20549316D01*
X3888572Y-20549316D02*
X3898095Y-20511221D01*
X3898095Y-20511221D02*
X3907619Y-20492173D01*
X3907619Y-20492173D02*
X3917143Y-20482649D01*
X3917143Y-20482649D02*
X3936191Y-20473125D01*
X4069524Y-20473125D02*
X4202857Y-20473125D01*
X4202857Y-20473125D02*
X4117143Y-20673125D01*
X4307619Y-20558840D02*
X4288572Y-20549316D01*
X4288572Y-20549316D02*
X4279048Y-20539792D01*
X4279048Y-20539792D02*
X4269524Y-20520744D01*
X4269524Y-20520744D02*
X4269524Y-20511221D01*
X4269524Y-20511221D02*
X4279048Y-20492173D01*
X4279048Y-20492173D02*
X4288572Y-20482649D01*
X4288572Y-20482649D02*
X4307619Y-20473125D01*
X4307619Y-20473125D02*
X4345715Y-20473125D01*
X4345715Y-20473125D02*
X4364762Y-20482649D01*
X4364762Y-20482649D02*
X4374286Y-20492173D01*
X4374286Y-20492173D02*
X4383810Y-20511221D01*
X4383810Y-20511221D02*
X4383810Y-20520744D01*
X4383810Y-20520744D02*
X4374286Y-20539792D01*
X4374286Y-20539792D02*
X4364762Y-20549316D01*
X4364762Y-20549316D02*
X4345715Y-20558840D01*
X4345715Y-20558840D02*
X4307619Y-20558840D01*
X4307619Y-20558840D02*
X4288572Y-20568363D01*
X4288572Y-20568363D02*
X4279048Y-20577887D01*
X4279048Y-20577887D02*
X4269524Y-20596935D01*
X4269524Y-20596935D02*
X4269524Y-20635030D01*
X4269524Y-20635030D02*
X4279048Y-20654078D01*
X4279048Y-20654078D02*
X4288572Y-20663602D01*
X4288572Y-20663602D02*
X4307619Y-20673125D01*
X4307619Y-20673125D02*
X4345715Y-20673125D01*
X4345715Y-20673125D02*
X4364762Y-20663602D01*
X4364762Y-20663602D02*
X4374286Y-20654078D01*
X4374286Y-20654078D02*
X4383810Y-20635030D01*
X4383810Y-20635030D02*
X4383810Y-20596935D01*
X4383810Y-20596935D02*
X4374286Y-20577887D01*
X4374286Y-20577887D02*
X4364762Y-20568363D01*
X4364762Y-20568363D02*
X4345715Y-20558840D01*
X4450476Y-20473125D02*
X4583810Y-20473125D01*
X4583810Y-20473125D02*
X4498095Y-20673125D01*
X4650476Y-20473125D02*
X4650476Y-20511221D01*
X4726667Y-20473125D02*
X4726667Y-20511221D01*
X5021905Y-20749316D02*
X5012381Y-20739792D01*
X5012381Y-20739792D02*
X4993334Y-20711221D01*
X4993334Y-20711221D02*
X4983810Y-20692173D01*
X4983810Y-20692173D02*
X4974286Y-20663602D01*
X4974286Y-20663602D02*
X4964762Y-20615982D01*
X4964762Y-20615982D02*
X4964762Y-20577887D01*
X4964762Y-20577887D02*
X4974286Y-20530268D01*
X4974286Y-20530268D02*
X4983810Y-20501697D01*
X4983810Y-20501697D02*
X4993334Y-20482649D01*
X4993334Y-20482649D02*
X5012381Y-20454078D01*
X5012381Y-20454078D02*
X5021905Y-20444554D01*
X5202857Y-20673125D02*
X5088572Y-20673125D01*
X5145715Y-20673125D02*
X5145715Y-20473125D01*
X5145715Y-20473125D02*
X5126667Y-20501697D01*
X5126667Y-20501697D02*
X5107619Y-20520744D01*
X5107619Y-20520744D02*
X5088572Y-20530268D01*
X5269524Y-20473125D02*
X5393334Y-20473125D01*
X5393334Y-20473125D02*
X5326667Y-20549316D01*
X5326667Y-20549316D02*
X5355238Y-20549316D01*
X5355238Y-20549316D02*
X5374286Y-20558840D01*
X5374286Y-20558840D02*
X5383810Y-20568363D01*
X5383810Y-20568363D02*
X5393334Y-20587411D01*
X5393334Y-20587411D02*
X5393334Y-20635030D01*
X5393334Y-20635030D02*
X5383810Y-20654078D01*
X5383810Y-20654078D02*
X5374286Y-20663602D01*
X5374286Y-20663602D02*
X5355238Y-20673125D01*
X5355238Y-20673125D02*
X5298096Y-20673125D01*
X5298096Y-20673125D02*
X5279048Y-20663602D01*
X5279048Y-20663602D02*
X5269524Y-20654078D01*
X5517143Y-20473125D02*
X5536191Y-20473125D01*
X5536191Y-20473125D02*
X5555238Y-20482649D01*
X5555238Y-20482649D02*
X5564762Y-20492173D01*
X5564762Y-20492173D02*
X5574286Y-20511221D01*
X5574286Y-20511221D02*
X5583810Y-20549316D01*
X5583810Y-20549316D02*
X5583810Y-20596935D01*
X5583810Y-20596935D02*
X5574286Y-20635030D01*
X5574286Y-20635030D02*
X5564762Y-20654078D01*
X5564762Y-20654078D02*
X5555238Y-20663602D01*
X5555238Y-20663602D02*
X5536191Y-20673125D01*
X5536191Y-20673125D02*
X5517143Y-20673125D01*
X5517143Y-20673125D02*
X5498096Y-20663602D01*
X5498096Y-20663602D02*
X5488572Y-20654078D01*
X5488572Y-20654078D02*
X5479048Y-20635030D01*
X5479048Y-20635030D02*
X5469524Y-20596935D01*
X5469524Y-20596935D02*
X5469524Y-20549316D01*
X5469524Y-20549316D02*
X5479048Y-20511221D01*
X5479048Y-20511221D02*
X5488572Y-20492173D01*
X5488572Y-20492173D02*
X5498096Y-20482649D01*
X5498096Y-20482649D02*
X5517143Y-20473125D01*
X5821905Y-20673125D02*
X5821905Y-20473125D01*
X5907619Y-20673125D02*
X5907619Y-20568363D01*
X5907619Y-20568363D02*
X5898096Y-20549316D01*
X5898096Y-20549316D02*
X5879048Y-20539792D01*
X5879048Y-20539792D02*
X5850476Y-20539792D01*
X5850476Y-20539792D02*
X5831429Y-20549316D01*
X5831429Y-20549316D02*
X5821905Y-20558840D01*
X6031429Y-20673125D02*
X6012381Y-20663602D01*
X6012381Y-20663602D02*
X6002857Y-20654078D01*
X6002857Y-20654078D02*
X5993334Y-20635030D01*
X5993334Y-20635030D02*
X5993334Y-20577887D01*
X5993334Y-20577887D02*
X6002857Y-20558840D01*
X6002857Y-20558840D02*
X6012381Y-20549316D01*
X6012381Y-20549316D02*
X6031429Y-20539792D01*
X6031429Y-20539792D02*
X6060000Y-20539792D01*
X6060000Y-20539792D02*
X6079048Y-20549316D01*
X6079048Y-20549316D02*
X6088572Y-20558840D01*
X6088572Y-20558840D02*
X6098096Y-20577887D01*
X6098096Y-20577887D02*
X6098096Y-20635030D01*
X6098096Y-20635030D02*
X6088572Y-20654078D01*
X6088572Y-20654078D02*
X6079048Y-20663602D01*
X6079048Y-20663602D02*
X6060000Y-20673125D01*
X6060000Y-20673125D02*
X6031429Y-20673125D01*
X6212381Y-20673125D02*
X6193334Y-20663602D01*
X6193334Y-20663602D02*
X6183810Y-20644554D01*
X6183810Y-20644554D02*
X6183810Y-20473125D01*
X6364762Y-20663602D02*
X6345715Y-20673125D01*
X6345715Y-20673125D02*
X6307619Y-20673125D01*
X6307619Y-20673125D02*
X6288572Y-20663602D01*
X6288572Y-20663602D02*
X6279048Y-20644554D01*
X6279048Y-20644554D02*
X6279048Y-20568363D01*
X6279048Y-20568363D02*
X6288572Y-20549316D01*
X6288572Y-20549316D02*
X6307619Y-20539792D01*
X6307619Y-20539792D02*
X6345715Y-20539792D01*
X6345715Y-20539792D02*
X6364762Y-20549316D01*
X6364762Y-20549316D02*
X6374286Y-20568363D01*
X6374286Y-20568363D02*
X6374286Y-20587411D01*
X6374286Y-20587411D02*
X6279048Y-20606459D01*
X6450477Y-20663602D02*
X6469524Y-20673125D01*
X6469524Y-20673125D02*
X6507619Y-20673125D01*
X6507619Y-20673125D02*
X6526667Y-20663602D01*
X6526667Y-20663602D02*
X6536191Y-20644554D01*
X6536191Y-20644554D02*
X6536191Y-20635030D01*
X6536191Y-20635030D02*
X6526667Y-20615982D01*
X6526667Y-20615982D02*
X6507619Y-20606459D01*
X6507619Y-20606459D02*
X6479048Y-20606459D01*
X6479048Y-20606459D02*
X6460000Y-20596935D01*
X6460000Y-20596935D02*
X6450477Y-20577887D01*
X6450477Y-20577887D02*
X6450477Y-20568363D01*
X6450477Y-20568363D02*
X6460000Y-20549316D01*
X6460000Y-20549316D02*
X6479048Y-20539792D01*
X6479048Y-20539792D02*
X6507619Y-20539792D01*
X6507619Y-20539792D02*
X6526667Y-20549316D01*
X6602858Y-20749316D02*
X6612381Y-20739792D01*
X6612381Y-20739792D02*
X6631429Y-20711221D01*
X6631429Y-20711221D02*
X6640953Y-20692173D01*
X6640953Y-20692173D02*
X6650477Y-20663602D01*
X6650477Y-20663602D02*
X6660000Y-20615982D01*
X6660000Y-20615982D02*
X6660000Y-20577887D01*
X6660000Y-20577887D02*
X6650477Y-20530268D01*
X6650477Y-20530268D02*
X6640953Y-20501697D01*
X6640953Y-20501697D02*
X6631429Y-20482649D01*
X6631429Y-20482649D02*
X6612381Y-20454078D01*
X6612381Y-20454078D02*
X6602858Y-20444554D01*
M02*
